%TF.GenerationSoftware,KiCad,Pcbnew,9.0.5*%
%TF.CreationDate,2026-03-26T21:22:33+08:00*%
%TF.ProjectId,pump_matrix,70756d70-5f6d-4617-9472-69782e6b6963,rev?*%
%TF.SameCoordinates,Original*%
%TF.FileFunction,Copper,L2,Bot*%
%TF.FilePolarity,Positive*%
%FSLAX46Y46*%
G04 Gerber Fmt 4.6, Leading zero omitted, Abs format (unit mm)*
G04 Created by KiCad (PCBNEW 9.0.5) date 2026-03-26 21:22:33*
%MOMM*%
%LPD*%
G01*
G04 APERTURE LIST*
%TA.AperFunction,SMDPad,CuDef*%
%ADD10R,0.600000X1.700000*%
%TD*%
%TA.AperFunction,SMDPad,CuDef*%
%ADD11R,1.000000X2.700000*%
%TD*%
%TA.AperFunction,ViaPad*%
%ADD12C,0.600000*%
%TD*%
%TA.AperFunction,Conductor*%
%ADD13C,0.200000*%
%TD*%
G04 APERTURE END LIST*
D10*
%TO.P,J1,1,Pin_1*%
%TO.N,+3.3V*%
X75000000Y-57590000D03*
%TO.P,J1,2,Pin_2*%
%TO.N,/HALL*%
X76250000Y-57590000D03*
%TO.P,J1,3,Pin_3*%
%TO.N,/COL1*%
X77500000Y-57590000D03*
%TO.P,J1,4,Pin_4*%
%TO.N,/COL2*%
X78750000Y-57590000D03*
%TO.P,J1,5,Pin_5*%
%TO.N,/ROW1*%
X80000000Y-57590000D03*
%TO.P,J1,6,Pin_6*%
%TO.N,/ROW2*%
X81250000Y-57590000D03*
%TO.P,J1,7,Pin_7*%
%TO.N,/ROW3*%
X82500000Y-57590000D03*
%TO.P,J1,8,Pin_8*%
%TO.N,/LED*%
X83750000Y-57590000D03*
%TO.P,J1,9,Pin_9*%
%TO.N,GND*%
X85000000Y-57590000D03*
D11*
%TO.P,J1,NC1,NC*%
%TO.N,unconnected-(J1-NC-PadNC1)*%
X73150000Y-54390000D03*
%TO.P,J1,NC2,NC*%
%TO.N,unconnected-(J1-NC-PadNC2)*%
X86850000Y-54390000D03*
%TD*%
D12*
%TO.N,GND*%
X81500000Y-95400000D03*
X74000000Y-86000000D03*
X76500000Y-68915000D03*
X85000000Y-76000000D03*
X76500000Y-78915000D03*
X84000000Y-86500000D03*
X81500000Y-88670000D03*
X84000000Y-67130000D03*
X77706000Y-89500000D03*
%TO.N,+3.3V*%
X75000000Y-59000000D03*
%TO.N,/ROW1*%
X80500000Y-59000000D03*
X80000000Y-63500000D03*
X78000000Y-63500000D03*
%TO.N,/ROW2*%
X82000000Y-73500000D03*
%TO.N,Net-(D2-A)*%
X76190000Y-70990000D03*
X73290000Y-70990000D03*
%TO.N,/ROW3*%
X84000000Y-83500000D03*
X72000000Y-83500000D03*
X78000000Y-83500000D03*
X89500000Y-84000000D03*
%TO.N,Net-(D3-A)*%
X76200000Y-80895000D03*
X73295000Y-80895000D03*
%TO.N,Net-(D5-A)*%
X84200000Y-71000000D03*
X85900000Y-71000000D03*
%TO.N,Net-(D6-A)*%
X87000000Y-81100000D03*
X84300000Y-81095000D03*
%TO.N,Net-(D7-DOUT)*%
X74000000Y-74500000D03*
X73950000Y-72900000D03*
%TO.N,/LED*%
X80601000Y-61101000D03*
X83500000Y-59500000D03*
X80500000Y-64500000D03*
%TO.N,Net-(D11-DOUT)*%
X86000000Y-72500000D03*
X86000000Y-74500000D03*
%TO.N,/HALL*%
X80000000Y-90500000D03*
%TO.N,/COL2*%
X82000000Y-84000000D03*
X85700000Y-84900000D03*
X84295000Y-84905000D03*
X81000000Y-65500000D03*
X81000000Y-76000000D03*
%TO.N,/COL1*%
X79000000Y-75500000D03*
X77500000Y-59000000D03*
X73300000Y-84300000D03*
X78750000Y-84250000D03*
X74900000Y-84600000D03*
X79000000Y-65500000D03*
%TD*%
D13*
%TO.N,+3.3V*%
X75000000Y-59000000D02*
X75000000Y-57090000D01*
%TO.N,/ROW1*%
X80410000Y-58289913D02*
X80410000Y-58846360D01*
X78000000Y-63500000D02*
X80000000Y-63500000D01*
X80500000Y-59000000D02*
X80455000Y-58955000D01*
X80205000Y-57795000D02*
X80000000Y-57590000D01*
X80410000Y-58846360D02*
G75*
G03*
X80454988Y-58955012I153600J-40D01*
G01*
X80205000Y-57795000D02*
G75*
G02*
X80409994Y-58289913I-494900J-494900D01*
G01*
%TO.N,/ROW2*%
X81401000Y-72299500D02*
X81401000Y-72700500D01*
X81250000Y-59289673D02*
X81250000Y-57090000D01*
X82000000Y-73500000D02*
X81542774Y-73042774D01*
X81401000Y-72299500D02*
X81401000Y-66353553D01*
X81901000Y-65146446D02*
X81901000Y-60861326D01*
X81250000Y-59289673D02*
G75*
G03*
X81575492Y-60075508I1111300J-27D01*
G01*
X81651000Y-65750000D02*
G75*
G03*
X81401022Y-66353553I603500J-603500D01*
G01*
X81901000Y-65146446D02*
G75*
G02*
X81650986Y-65749986I-853600J46D01*
G01*
X81401000Y-72700500D02*
G75*
G03*
X81542784Y-73042764I484000J0D01*
G01*
X81575500Y-60075500D02*
G75*
G02*
X81900989Y-60861326I-785800J-785800D01*
G01*
%TO.N,Net-(D2-A)*%
X73290000Y-70990000D02*
X76190000Y-70990000D01*
X76190000Y-70990000D02*
X76200000Y-71000000D01*
%TO.N,/ROW3*%
X81866893Y-72516950D02*
X82774971Y-73425028D01*
X82500000Y-64974539D02*
X82500000Y-57090000D01*
X81802000Y-72476028D02*
X81802000Y-66659660D01*
X83700000Y-82987867D02*
X83700000Y-75658244D01*
X84000000Y-83500000D02*
X88646446Y-83500000D01*
X84000000Y-83500000D02*
X83850000Y-83350000D01*
X89500000Y-84000000D02*
X89250000Y-83750000D01*
X78000000Y-83500000D02*
X72000000Y-83500000D01*
X82774971Y-73425028D02*
G75*
G02*
X83699952Y-75658244I-2233271J-2233172D01*
G01*
X81802000Y-72476028D02*
G75*
G03*
X81825971Y-72500000I24000J28D01*
G01*
X83700000Y-82987867D02*
G75*
G03*
X83849991Y-83350009I512100J-33D01*
G01*
X81866893Y-72516950D02*
G75*
G03*
X81825971Y-72500028I-40893J-40950D01*
G01*
X82500000Y-64974539D02*
G75*
G02*
X82150988Y-65817088I-1191600J39D01*
G01*
X82151000Y-65817100D02*
G75*
G03*
X81801984Y-66659660I842600J-842600D01*
G01*
X89250000Y-83750000D02*
G75*
G03*
X88646446Y-83500022I-603500J-603500D01*
G01*
%TO.N,Net-(D3-A)*%
X73295000Y-80895000D02*
X76200000Y-80895000D01*
%TO.N,Net-(D5-A)*%
X85900000Y-71000000D02*
X84200000Y-71000000D01*
%TO.N,Net-(D6-A)*%
X84300000Y-81095000D02*
X86991464Y-81095000D01*
X87000000Y-81100000D02*
X86997500Y-81097500D01*
X86997500Y-81097500D02*
G75*
G03*
X86991464Y-81095015I-6000J-6000D01*
G01*
%TO.N,Net-(D7-DOUT)*%
X73950000Y-72900000D02*
X73950000Y-74414644D01*
X73975000Y-74475000D02*
X74000000Y-74500000D01*
X73950000Y-74414644D02*
G75*
G03*
X73975013Y-74474987I85400J44D01*
G01*
%TO.N,/LED*%
X80601000Y-64327582D02*
X80601000Y-61101000D01*
X80550500Y-64449500D02*
X80500000Y-64500000D01*
X83500000Y-58676776D02*
X83500000Y-59500000D01*
X83750000Y-58073223D02*
X83750000Y-57090000D01*
X83750000Y-58073223D02*
G75*
G02*
X83624993Y-58374993I-426800J23D01*
G01*
X80601000Y-64327582D02*
G75*
G02*
X80550505Y-64449505I-172400J-18D01*
G01*
X83625000Y-58375000D02*
G75*
G03*
X83499990Y-58676776I301800J-301800D01*
G01*
%TO.N,Net-(D11-DOUT)*%
X86000000Y-74500000D02*
X86000000Y-72500000D01*
%TO.N,/HALL*%
X76250000Y-61219669D02*
X76250000Y-57090000D01*
X80000000Y-66207106D02*
X80000000Y-90500000D01*
X76625000Y-62125000D02*
X76699499Y-62199499D01*
X77849556Y-64199499D02*
X77300500Y-63650443D01*
X79500000Y-65000000D02*
X79300500Y-64800500D01*
X77849556Y-64199499D02*
G75*
G03*
X78575028Y-64499972I725444J725499D01*
G01*
X76699499Y-62199499D02*
G75*
G02*
X77000012Y-62924971I-725499J-725501D01*
G01*
X77000000Y-62924971D02*
G75*
G03*
X77300480Y-63650463I1026000J-29D01*
G01*
X76250000Y-61219669D02*
G75*
G03*
X76624991Y-62125009I1280300J-31D01*
G01*
X79500000Y-65000000D02*
G75*
G02*
X79999997Y-66207106I-1207100J-1207100D01*
G01*
X79300500Y-64800500D02*
G75*
G03*
X78575028Y-64499988I-725500J-725500D01*
G01*
%TO.N,/COL2*%
X81000000Y-76000000D02*
X81000000Y-82292893D01*
X82000000Y-84000000D02*
X81500000Y-83500000D01*
X78750000Y-57670000D02*
X78750000Y-57090000D01*
X81250000Y-65250000D02*
X81000000Y-65500000D01*
X80125000Y-59625000D02*
X79160121Y-58660121D01*
X85691464Y-84905000D02*
X84295000Y-84905000D01*
X81500000Y-62944543D02*
X81500000Y-64646446D01*
X85700000Y-84900000D02*
X85697500Y-84902500D01*
X81000000Y-76000000D02*
X81000000Y-65500000D01*
X81000000Y-82292893D02*
G75*
G03*
X81499998Y-83500002I1707100J-7D01*
G01*
X81500000Y-64646446D02*
G75*
G02*
X81249986Y-65249986I-853600J46D01*
G01*
X85697500Y-84902500D02*
G75*
G02*
X85691464Y-84904985I-6000J6000D01*
G01*
X80125000Y-59625000D02*
G75*
G02*
X81499982Y-62944543I-3319500J-3319500D01*
G01*
X78750000Y-57670000D02*
G75*
G03*
X79160130Y-58660112I1400200J0D01*
G01*
%TO.N,/COL1*%
X78875000Y-84125000D02*
X78750000Y-84250000D01*
X79000000Y-65500000D02*
X79000000Y-83823223D01*
X74900000Y-84600000D02*
X74750000Y-84450000D01*
X77500000Y-59000000D02*
X77500000Y-57090000D01*
X73300000Y-84300000D02*
X74387867Y-84300000D01*
X74750000Y-84450000D02*
G75*
G03*
X74387867Y-84300013I-362100J-362100D01*
G01*
X79000000Y-83823223D02*
G75*
G02*
X78874993Y-84124993I-426800J23D01*
G01*
%TD*%
%TA.AperFunction,Conductor*%
%TO.N,GND*%
G36*
X91503032Y-51500648D02*
G01*
X91836929Y-51517052D01*
X91849037Y-51518245D01*
X91952146Y-51533539D01*
X92176699Y-51566849D01*
X92188617Y-51569219D01*
X92509951Y-51649709D01*
X92521588Y-51653240D01*
X92592806Y-51678722D01*
X92833467Y-51764832D01*
X92844688Y-51769479D01*
X93144163Y-51911120D01*
X93154871Y-51916844D01*
X93438988Y-52087137D01*
X93449106Y-52093897D01*
X93715170Y-52291224D01*
X93724576Y-52298944D01*
X93970013Y-52521395D01*
X93978604Y-52529986D01*
X94165755Y-52736475D01*
X94201055Y-52775423D01*
X94208775Y-52784829D01*
X94406102Y-53050893D01*
X94412862Y-53061011D01*
X94578149Y-53336777D01*
X94583148Y-53345116D01*
X94588883Y-53355844D01*
X94637229Y-53458064D01*
X94730514Y-53655297D01*
X94735170Y-53666540D01*
X94846759Y-53978411D01*
X94850292Y-53990055D01*
X94930777Y-54311369D01*
X94933151Y-54323305D01*
X94981754Y-54650962D01*
X94982947Y-54663071D01*
X94999351Y-54996966D01*
X94999500Y-55003051D01*
X94999500Y-94496948D01*
X94999351Y-94503033D01*
X94982947Y-94836928D01*
X94981754Y-94849037D01*
X94933151Y-95176694D01*
X94930777Y-95188630D01*
X94850292Y-95509944D01*
X94846759Y-95521588D01*
X94735170Y-95833459D01*
X94730514Y-95844702D01*
X94588885Y-96144151D01*
X94583148Y-96154883D01*
X94412862Y-96438988D01*
X94406102Y-96449106D01*
X94208775Y-96715170D01*
X94201055Y-96724576D01*
X93978611Y-96970006D01*
X93970006Y-96978611D01*
X93724576Y-97201055D01*
X93715170Y-97208775D01*
X93449106Y-97406102D01*
X93438988Y-97412862D01*
X93154883Y-97583148D01*
X93144151Y-97588885D01*
X92844702Y-97730514D01*
X92833459Y-97735170D01*
X92521588Y-97846759D01*
X92509944Y-97850292D01*
X92188630Y-97930777D01*
X92176694Y-97933151D01*
X91849037Y-97981754D01*
X91836928Y-97982947D01*
X91521989Y-97998419D01*
X91503031Y-97999351D01*
X91496949Y-97999500D01*
X69003051Y-97999500D01*
X68996968Y-97999351D01*
X68976900Y-97998365D01*
X68663071Y-97982947D01*
X68650962Y-97981754D01*
X68323305Y-97933151D01*
X68311369Y-97930777D01*
X67990055Y-97850292D01*
X67978411Y-97846759D01*
X67666540Y-97735170D01*
X67655301Y-97730515D01*
X67355844Y-97588883D01*
X67345121Y-97583150D01*
X67061011Y-97412862D01*
X67050893Y-97406102D01*
X66784829Y-97208775D01*
X66775423Y-97201055D01*
X66736475Y-97165755D01*
X66529986Y-96978604D01*
X66521395Y-96970013D01*
X66298944Y-96724576D01*
X66291224Y-96715170D01*
X66093897Y-96449106D01*
X66087137Y-96438988D01*
X65916844Y-96154871D01*
X65911120Y-96144163D01*
X65769479Y-95844688D01*
X65764829Y-95833459D01*
X65725212Y-95722738D01*
X65692902Y-95632438D01*
X65653240Y-95521588D01*
X65649707Y-95509944D01*
X65640958Y-95475015D01*
X65569219Y-95188617D01*
X65566848Y-95176694D01*
X65518245Y-94849037D01*
X65517052Y-94836927D01*
X65500649Y-94503032D01*
X65500500Y-94496948D01*
X65500500Y-94378711D01*
X67149500Y-94378711D01*
X67149500Y-94621288D01*
X67181161Y-94861785D01*
X67243947Y-95096104D01*
X67282273Y-95188630D01*
X67336776Y-95320212D01*
X67458064Y-95530289D01*
X67458066Y-95530292D01*
X67458067Y-95530293D01*
X67605733Y-95722736D01*
X67605739Y-95722743D01*
X67777256Y-95894260D01*
X67777262Y-95894265D01*
X67969711Y-96041936D01*
X68179788Y-96163224D01*
X68403900Y-96256054D01*
X68638211Y-96318838D01*
X68818586Y-96342584D01*
X68878711Y-96350500D01*
X68878712Y-96350500D01*
X69121289Y-96350500D01*
X69169388Y-96344167D01*
X69361789Y-96318838D01*
X69596100Y-96256054D01*
X69820212Y-96163224D01*
X70030289Y-96041936D01*
X70222738Y-95894265D01*
X70394265Y-95722738D01*
X70541936Y-95530289D01*
X70663224Y-95320212D01*
X70756054Y-95096100D01*
X70818838Y-94861789D01*
X70850500Y-94621288D01*
X70850500Y-94378712D01*
X70850500Y-94378711D01*
X89649500Y-94378711D01*
X89649500Y-94621288D01*
X89681161Y-94861785D01*
X89743947Y-95096104D01*
X89782273Y-95188630D01*
X89836776Y-95320212D01*
X89958064Y-95530289D01*
X89958066Y-95530292D01*
X89958067Y-95530293D01*
X90105733Y-95722736D01*
X90105739Y-95722743D01*
X90277256Y-95894260D01*
X90277262Y-95894265D01*
X90469711Y-96041936D01*
X90679788Y-96163224D01*
X90903900Y-96256054D01*
X91138211Y-96318838D01*
X91318586Y-96342584D01*
X91378711Y-96350500D01*
X91378712Y-96350500D01*
X91621289Y-96350500D01*
X91669388Y-96344167D01*
X91861789Y-96318838D01*
X92096100Y-96256054D01*
X92320212Y-96163224D01*
X92530289Y-96041936D01*
X92722738Y-95894265D01*
X92894265Y-95722738D01*
X93041936Y-95530289D01*
X93163224Y-95320212D01*
X93256054Y-95096100D01*
X93318838Y-94861789D01*
X93350500Y-94621288D01*
X93350500Y-94378712D01*
X93318838Y-94138211D01*
X93256054Y-93903900D01*
X93163224Y-93679788D01*
X93041936Y-93469711D01*
X92894265Y-93277262D01*
X92894260Y-93277256D01*
X92722743Y-93105739D01*
X92722736Y-93105733D01*
X92530293Y-92958067D01*
X92530292Y-92958066D01*
X92530289Y-92958064D01*
X92320212Y-92836776D01*
X92320205Y-92836773D01*
X92096104Y-92743947D01*
X91861785Y-92681161D01*
X91621289Y-92649500D01*
X91621288Y-92649500D01*
X91378712Y-92649500D01*
X91378711Y-92649500D01*
X91138214Y-92681161D01*
X90903895Y-92743947D01*
X90679794Y-92836773D01*
X90679785Y-92836777D01*
X90469706Y-92958067D01*
X90277263Y-93105733D01*
X90277256Y-93105739D01*
X90105739Y-93277256D01*
X90105733Y-93277263D01*
X89958067Y-93469706D01*
X89836777Y-93679785D01*
X89836773Y-93679794D01*
X89743947Y-93903895D01*
X89681161Y-94138214D01*
X89649500Y-94378711D01*
X70850500Y-94378711D01*
X70818838Y-94138211D01*
X70756054Y-93903900D01*
X70663224Y-93679788D01*
X70541936Y-93469711D01*
X70394265Y-93277262D01*
X70394260Y-93277256D01*
X70222743Y-93105739D01*
X70222736Y-93105733D01*
X70030293Y-92958067D01*
X70030292Y-92958066D01*
X70030289Y-92958064D01*
X69820212Y-92836776D01*
X69820205Y-92836773D01*
X69596104Y-92743947D01*
X69361785Y-92681161D01*
X69121289Y-92649500D01*
X69121288Y-92649500D01*
X68878712Y-92649500D01*
X68878711Y-92649500D01*
X68638214Y-92681161D01*
X68403895Y-92743947D01*
X68179794Y-92836773D01*
X68179785Y-92836777D01*
X67969706Y-92958067D01*
X67777263Y-93105733D01*
X67777256Y-93105739D01*
X67605739Y-93277256D01*
X67605733Y-93277263D01*
X67458067Y-93469706D01*
X67336777Y-93679785D01*
X67336773Y-93679794D01*
X67243947Y-93903895D01*
X67181161Y-94138214D01*
X67149500Y-94378711D01*
X65500500Y-94378711D01*
X65500500Y-83434108D01*
X71499500Y-83434108D01*
X71499500Y-83565891D01*
X71533608Y-83693187D01*
X71544750Y-83712485D01*
X71599500Y-83807314D01*
X71692686Y-83900500D01*
X71806814Y-83966392D01*
X71934108Y-84000500D01*
X71934110Y-84000500D01*
X72065890Y-84000500D01*
X72065892Y-84000500D01*
X72193186Y-83966392D01*
X72307314Y-83900500D01*
X72370995Y-83836819D01*
X72432318Y-83803334D01*
X72458676Y-83800500D01*
X72795685Y-83800500D01*
X72862724Y-83820185D01*
X72908479Y-83872989D01*
X72918423Y-83942147D01*
X72903072Y-83986501D01*
X72899502Y-83992683D01*
X72899500Y-83992686D01*
X72874858Y-84035367D01*
X72833608Y-84106812D01*
X72799500Y-84234108D01*
X72799500Y-84365891D01*
X72833608Y-84493187D01*
X72866554Y-84550250D01*
X72899500Y-84607314D01*
X72992686Y-84700500D01*
X73106814Y-84766392D01*
X73234108Y-84800500D01*
X73234110Y-84800500D01*
X73365890Y-84800500D01*
X73365892Y-84800500D01*
X73493186Y-84766392D01*
X73607314Y-84700500D01*
X73670995Y-84636819D01*
X73732318Y-84603334D01*
X73758676Y-84600500D01*
X74286830Y-84600500D01*
X74353869Y-84620185D01*
X74399624Y-84672989D01*
X74406603Y-84692402D01*
X74422170Y-84750499D01*
X74433608Y-84793187D01*
X74460121Y-84839108D01*
X74499500Y-84907314D01*
X74592686Y-85000500D01*
X74706814Y-85066392D01*
X74834108Y-85100500D01*
X74834110Y-85100500D01*
X74965890Y-85100500D01*
X74965892Y-85100500D01*
X75093186Y-85066392D01*
X75207314Y-85000500D01*
X75300500Y-84907314D01*
X75366392Y-84793186D01*
X75400500Y-84665892D01*
X75400500Y-84534108D01*
X75366392Y-84406814D01*
X75300500Y-84292686D01*
X75207314Y-84199500D01*
X75105555Y-84140749D01*
X75093187Y-84133608D01*
X74993188Y-84106814D01*
X74965892Y-84099500D01*
X74834108Y-84099500D01*
X74834106Y-84099500D01*
X74828687Y-84100214D01*
X74812556Y-84098045D01*
X74798566Y-84100490D01*
X74772515Y-84092661D01*
X74764417Y-84091573D01*
X74760249Y-84089819D01*
X74699806Y-84059024D01*
X74643774Y-84040820D01*
X74638967Y-84038798D01*
X74615765Y-84019889D01*
X74591059Y-84002997D01*
X74588968Y-83998050D01*
X74584806Y-83994658D01*
X74575510Y-83966208D01*
X74563859Y-83938640D01*
X74564774Y-83933349D01*
X74563106Y-83928243D01*
X74570669Y-83899279D01*
X74575771Y-83869793D01*
X74579402Y-83865836D01*
X74580759Y-83860640D01*
X74602776Y-83840365D01*
X74623013Y-83818315D01*
X74628330Y-83816835D01*
X74632157Y-83813312D01*
X74655927Y-83809158D01*
X74687050Y-83800500D01*
X77541324Y-83800500D01*
X77608363Y-83820185D01*
X77629005Y-83836819D01*
X77692686Y-83900500D01*
X77806814Y-83966392D01*
X77934108Y-84000500D01*
X77934110Y-84000500D01*
X78065890Y-84000500D01*
X78065892Y-84000500D01*
X78109251Y-83988882D01*
X78179097Y-83990543D01*
X78236961Y-84029705D01*
X78264466Y-84093933D01*
X78261118Y-84140749D01*
X78249500Y-84184108D01*
X78249500Y-84315891D01*
X78283608Y-84443187D01*
X78297005Y-84466391D01*
X78349500Y-84557314D01*
X78442686Y-84650500D01*
X78556814Y-84716392D01*
X78684108Y-84750500D01*
X78684110Y-84750500D01*
X78815890Y-84750500D01*
X78815892Y-84750500D01*
X78943186Y-84716392D01*
X79057314Y-84650500D01*
X79150500Y-84557314D01*
X79216392Y-84443186D01*
X79250500Y-84315892D01*
X79250500Y-84184108D01*
X79245852Y-84166762D01*
X79247513Y-84096915D01*
X79251059Y-84087229D01*
X79272543Y-84035369D01*
X79291788Y-83938640D01*
X79300497Y-83894869D01*
X79300497Y-83883123D01*
X79300498Y-83862791D01*
X79300500Y-83862785D01*
X79300500Y-83815489D01*
X79300503Y-83775645D01*
X79300502Y-83775643D01*
X79300503Y-83766629D01*
X79300500Y-83766573D01*
X79300500Y-75958676D01*
X79320185Y-75891637D01*
X79336819Y-75870995D01*
X79362551Y-75845263D01*
X79400500Y-75807314D01*
X79459090Y-75705834D01*
X79468113Y-75690206D01*
X79518680Y-75641990D01*
X79587287Y-75628768D01*
X79652152Y-75654736D01*
X79692680Y-75711650D01*
X79699500Y-75752206D01*
X79699500Y-90041323D01*
X79679815Y-90108362D01*
X79663182Y-90129004D01*
X79599500Y-90192686D01*
X79533608Y-90306812D01*
X79499500Y-90434108D01*
X79499500Y-90565891D01*
X79533608Y-90693187D01*
X79566554Y-90750250D01*
X79599500Y-90807314D01*
X79692686Y-90900500D01*
X79806814Y-90966392D01*
X79934108Y-91000500D01*
X79934110Y-91000500D01*
X80065890Y-91000500D01*
X80065892Y-91000500D01*
X80193186Y-90966392D01*
X80307314Y-90900500D01*
X80400500Y-90807314D01*
X80466392Y-90693186D01*
X80500500Y-90565892D01*
X80500500Y-90434108D01*
X80466392Y-90306814D01*
X80400500Y-90192686D01*
X80336818Y-90129004D01*
X80303334Y-90067680D01*
X80300500Y-90041323D01*
X80300500Y-84839108D01*
X83794500Y-84839108D01*
X83794500Y-84970892D01*
X83811554Y-85034539D01*
X83828608Y-85098187D01*
X83861554Y-85155250D01*
X83894500Y-85212314D01*
X83987686Y-85305500D01*
X84101814Y-85371392D01*
X84229108Y-85405500D01*
X84229110Y-85405500D01*
X84360890Y-85405500D01*
X84360892Y-85405500D01*
X84488186Y-85371392D01*
X84602314Y-85305500D01*
X84665995Y-85241819D01*
X84727318Y-85208334D01*
X84753676Y-85205500D01*
X85246324Y-85205500D01*
X85313363Y-85225185D01*
X85334005Y-85241819D01*
X85392686Y-85300500D01*
X85506814Y-85366392D01*
X85634108Y-85400500D01*
X85634110Y-85400500D01*
X85765890Y-85400500D01*
X85765892Y-85400500D01*
X85893186Y-85366392D01*
X86007314Y-85300500D01*
X86100500Y-85207314D01*
X86166392Y-85093186D01*
X86200500Y-84965892D01*
X86200500Y-84834108D01*
X86166392Y-84706814D01*
X86100500Y-84592686D01*
X86007314Y-84499500D01*
X85949968Y-84466391D01*
X85893187Y-84433608D01*
X85793188Y-84406814D01*
X85765892Y-84399500D01*
X85634108Y-84399500D01*
X85506812Y-84433608D01*
X85392686Y-84499500D01*
X85324004Y-84568182D01*
X85262680Y-84601666D01*
X85236323Y-84604500D01*
X84753676Y-84604500D01*
X84686637Y-84584815D01*
X84665995Y-84568181D01*
X84602316Y-84504502D01*
X84602314Y-84504500D01*
X84536309Y-84466392D01*
X84488187Y-84438608D01*
X84424539Y-84421554D01*
X84360892Y-84404500D01*
X84229108Y-84404500D01*
X84101812Y-84438608D01*
X83987686Y-84504500D01*
X83987683Y-84504502D01*
X83894502Y-84597683D01*
X83894500Y-84597686D01*
X83828608Y-84711812D01*
X83806804Y-84793187D01*
X83794500Y-84839108D01*
X80300500Y-84839108D01*
X80300500Y-76252206D01*
X80320185Y-76185167D01*
X80372989Y-76139412D01*
X80442147Y-76129468D01*
X80505703Y-76158493D01*
X80531887Y-76190206D01*
X80599497Y-76307310D01*
X80599499Y-76307312D01*
X80599499Y-76307313D01*
X80599502Y-76307316D01*
X80663181Y-76370995D01*
X80696666Y-76432318D01*
X80699500Y-76458676D01*
X80699500Y-82340698D01*
X80699503Y-82340743D01*
X80699503Y-82405643D01*
X80724746Y-82629693D01*
X80724749Y-82629711D01*
X80774922Y-82849539D01*
X80774924Y-82849545D01*
X80849398Y-83062383D01*
X80849400Y-83062387D01*
X80947230Y-83265534D01*
X81067203Y-83456470D01*
X81067204Y-83456472D01*
X81207789Y-83632761D01*
X81207792Y-83632764D01*
X81247097Y-83672067D01*
X81259539Y-83684509D01*
X81259540Y-83684511D01*
X81270076Y-83695047D01*
X81270078Y-83695051D01*
X81315475Y-83740447D01*
X81315490Y-83740461D01*
X81463181Y-83888152D01*
X81496666Y-83949475D01*
X81499500Y-83975833D01*
X81499500Y-84065892D01*
X81510464Y-84106812D01*
X81533608Y-84193187D01*
X81557234Y-84234108D01*
X81599500Y-84307314D01*
X81692686Y-84400500D01*
X81806814Y-84466392D01*
X81934108Y-84500500D01*
X81934110Y-84500500D01*
X82065890Y-84500500D01*
X82065892Y-84500500D01*
X82193186Y-84466392D01*
X82307314Y-84400500D01*
X82400500Y-84307314D01*
X82466392Y-84193186D01*
X82500500Y-84065892D01*
X82500500Y-83934108D01*
X82466392Y-83806814D01*
X82400500Y-83692686D01*
X82307314Y-83599500D01*
X82249102Y-83565891D01*
X82193187Y-83533608D01*
X82129539Y-83516554D01*
X82065892Y-83499500D01*
X81975833Y-83499500D01*
X81946392Y-83490855D01*
X81916406Y-83484332D01*
X81911390Y-83480577D01*
X81908794Y-83479815D01*
X81888152Y-83463181D01*
X81731787Y-83306816D01*
X81731785Y-83306813D01*
X81731785Y-83306814D01*
X81715350Y-83290378D01*
X81709806Y-83284458D01*
X81693210Y-83265534D01*
X81596526Y-83155287D01*
X81586655Y-83142423D01*
X81493463Y-83002951D01*
X81485356Y-82988910D01*
X81411161Y-82838456D01*
X81404967Y-82823504D01*
X81351036Y-82664626D01*
X81346845Y-82648979D01*
X81314120Y-82484457D01*
X81312005Y-82468402D01*
X81300764Y-82296888D01*
X81300500Y-82288786D01*
X81300500Y-76458676D01*
X81320185Y-76391637D01*
X81336819Y-76370995D01*
X81400500Y-76307314D01*
X81466392Y-76193186D01*
X81500500Y-76065892D01*
X81500500Y-75934108D01*
X81466392Y-75806814D01*
X81400500Y-75692686D01*
X81336818Y-75629004D01*
X81303334Y-75567680D01*
X81300500Y-75541323D01*
X81300500Y-73752206D01*
X81320185Y-73685167D01*
X81372989Y-73639412D01*
X81442147Y-73629468D01*
X81505703Y-73658493D01*
X81531887Y-73690206D01*
X81599497Y-73807310D01*
X81599499Y-73807312D01*
X81599500Y-73807314D01*
X81692686Y-73900500D01*
X81806814Y-73966392D01*
X81934108Y-74000500D01*
X81934110Y-74000500D01*
X82065890Y-74000500D01*
X82065892Y-74000500D01*
X82193186Y-73966392D01*
X82307314Y-73900500D01*
X82400500Y-73807314D01*
X82438377Y-73741708D01*
X82458592Y-73722433D01*
X82476414Y-73700915D01*
X82483535Y-73698650D01*
X82488941Y-73693496D01*
X82516374Y-73688208D01*
X82542999Y-73679742D01*
X82550211Y-73681686D01*
X82557548Y-73680272D01*
X82583484Y-73690655D01*
X82610460Y-73697927D01*
X82618704Y-73704755D01*
X82622413Y-73706240D01*
X82637639Y-73720438D01*
X82716372Y-73807310D01*
X82746719Y-73840794D01*
X82754438Y-73850200D01*
X82914233Y-74065668D01*
X82920994Y-74075786D01*
X83058906Y-74305888D01*
X83064642Y-74316620D01*
X83179336Y-74559132D01*
X83183992Y-74570375D01*
X83274359Y-74822949D01*
X83277891Y-74834593D01*
X83343069Y-75094814D01*
X83345443Y-75106749D01*
X83384800Y-75372103D01*
X83385993Y-75384213D01*
X83399350Y-75656174D01*
X83399499Y-75662255D01*
X83399499Y-75685332D01*
X83399499Y-75705834D01*
X83399499Y-75705836D01*
X83399500Y-75715828D01*
X83399500Y-83035297D01*
X83399510Y-83035464D01*
X83399510Y-83051805D01*
X83419513Y-83178142D01*
X83419516Y-83178154D01*
X83459035Y-83299796D01*
X83459039Y-83299806D01*
X83487763Y-83356183D01*
X83500658Y-83424852D01*
X83500217Y-83428650D01*
X83499500Y-83434099D01*
X83499500Y-83565891D01*
X83533608Y-83693187D01*
X83544750Y-83712485D01*
X83599500Y-83807314D01*
X83692686Y-83900500D01*
X83806814Y-83966392D01*
X83934108Y-84000500D01*
X83934110Y-84000500D01*
X84065890Y-84000500D01*
X84065892Y-84000500D01*
X84193186Y-83966392D01*
X84307314Y-83900500D01*
X84370995Y-83836819D01*
X84432318Y-83803334D01*
X84458676Y-83800500D01*
X88598861Y-83800500D01*
X88598870Y-83800503D01*
X88640384Y-83800500D01*
X88652517Y-83801095D01*
X88742212Y-83809925D01*
X88766043Y-83814664D01*
X88846421Y-83839043D01*
X88868875Y-83848342D01*
X88933951Y-83883124D01*
X88983796Y-83932084D01*
X88999500Y-83992483D01*
X88999500Y-84065892D01*
X89010464Y-84106812D01*
X89033608Y-84193187D01*
X89057234Y-84234108D01*
X89099500Y-84307314D01*
X89192686Y-84400500D01*
X89306814Y-84466392D01*
X89434108Y-84500500D01*
X89434110Y-84500500D01*
X89565890Y-84500500D01*
X89565892Y-84500500D01*
X89693186Y-84466392D01*
X89807314Y-84400500D01*
X89900500Y-84307314D01*
X89966392Y-84193186D01*
X90000500Y-84065892D01*
X90000500Y-83934108D01*
X89966392Y-83806814D01*
X89900500Y-83692686D01*
X89807314Y-83599500D01*
X89749102Y-83565891D01*
X89693187Y-83533608D01*
X89629539Y-83516554D01*
X89565892Y-83499500D01*
X89474662Y-83499500D01*
X89407623Y-83479815D01*
X89401778Y-83475819D01*
X89375148Y-83456472D01*
X89251309Y-83366500D01*
X89251306Y-83366498D01*
X89251304Y-83366497D01*
X89089452Y-83284034D01*
X89089441Y-83284030D01*
X88916688Y-83227906D01*
X88916676Y-83227903D01*
X88737256Y-83199495D01*
X88646426Y-83199500D01*
X84458676Y-83199500D01*
X84391637Y-83179815D01*
X84370995Y-83163181D01*
X84307316Y-83099502D01*
X84307314Y-83099500D01*
X84193186Y-83033608D01*
X84124194Y-83015121D01*
X84092406Y-83006604D01*
X84032746Y-82970238D01*
X84002217Y-82907391D01*
X84000500Y-82886829D01*
X84000500Y-81694504D01*
X84020185Y-81627465D01*
X84072989Y-81581710D01*
X84142147Y-81571766D01*
X84156571Y-81574724D01*
X84234108Y-81595500D01*
X84234111Y-81595500D01*
X84365890Y-81595500D01*
X84365892Y-81595500D01*
X84493186Y-81561392D01*
X84607314Y-81495500D01*
X84670995Y-81431819D01*
X84732318Y-81398334D01*
X84758676Y-81395500D01*
X86536323Y-81395500D01*
X86603362Y-81415185D01*
X86624004Y-81431818D01*
X86692686Y-81500500D01*
X86806814Y-81566392D01*
X86934108Y-81600500D01*
X86934110Y-81600500D01*
X87065890Y-81600500D01*
X87065892Y-81600500D01*
X87193186Y-81566392D01*
X87307314Y-81500500D01*
X87400500Y-81407314D01*
X87466392Y-81293186D01*
X87500500Y-81165892D01*
X87500500Y-81034108D01*
X87466392Y-80906814D01*
X87400500Y-80792686D01*
X87307314Y-80699500D01*
X87250250Y-80666554D01*
X87193187Y-80633608D01*
X87124747Y-80615270D01*
X87065892Y-80599500D01*
X86934108Y-80599500D01*
X86806812Y-80633608D01*
X86692686Y-80699500D01*
X86692683Y-80699502D01*
X86634005Y-80758181D01*
X86572682Y-80791666D01*
X86546324Y-80794500D01*
X84758676Y-80794500D01*
X84691637Y-80774815D01*
X84670995Y-80758181D01*
X84607316Y-80694502D01*
X84607314Y-80694500D01*
X84550250Y-80661554D01*
X84493187Y-80628608D01*
X84384552Y-80599500D01*
X84365892Y-80594500D01*
X84234108Y-80594500D01*
X84156593Y-80615270D01*
X84086743Y-80613607D01*
X84028881Y-80574444D01*
X84001377Y-80510216D01*
X84000500Y-80495495D01*
X84000500Y-75610868D01*
X84000452Y-75610141D01*
X84000452Y-75595565D01*
X84000454Y-75488332D01*
X83967150Y-75150137D01*
X83900857Y-74816834D01*
X83826099Y-74570375D01*
X83802217Y-74491640D01*
X83802215Y-74491634D01*
X83672173Y-74177668D01*
X83617718Y-74075786D01*
X83511986Y-73877966D01*
X83511983Y-73877960D01*
X83511979Y-73877954D01*
X83511972Y-73877942D01*
X83323188Y-73595397D01*
X83107602Y-73332692D01*
X83043495Y-73268584D01*
X83015432Y-73240520D01*
X83015431Y-73240517D01*
X82982228Y-73207314D01*
X82982208Y-73207294D01*
X82948446Y-73173529D01*
X82948420Y-73173506D01*
X82209022Y-72434108D01*
X85499500Y-72434108D01*
X85499500Y-72565892D01*
X85516554Y-72629539D01*
X85533608Y-72693187D01*
X85541475Y-72706812D01*
X85599500Y-72807314D01*
X85599502Y-72807316D01*
X85663181Y-72870995D01*
X85696666Y-72932318D01*
X85699500Y-72958676D01*
X85699500Y-74041323D01*
X85679815Y-74108362D01*
X85663182Y-74129004D01*
X85599500Y-74192686D01*
X85533608Y-74306812D01*
X85499500Y-74434108D01*
X85499500Y-74565891D01*
X85533608Y-74693187D01*
X85566554Y-74750250D01*
X85599500Y-74807314D01*
X85692686Y-74900500D01*
X85806814Y-74966392D01*
X85934108Y-75000500D01*
X85934110Y-75000500D01*
X86065890Y-75000500D01*
X86065892Y-75000500D01*
X86193186Y-74966392D01*
X86307314Y-74900500D01*
X86400500Y-74807314D01*
X86466392Y-74693186D01*
X86500500Y-74565892D01*
X86500500Y-74434108D01*
X86466392Y-74306814D01*
X86465857Y-74305888D01*
X86457563Y-74291521D01*
X86400500Y-74192686D01*
X86336818Y-74129004D01*
X86303334Y-74067680D01*
X86300500Y-74041323D01*
X86300500Y-72958676D01*
X86320185Y-72891637D01*
X86336819Y-72870995D01*
X86343879Y-72863935D01*
X86400500Y-72807314D01*
X86466392Y-72693186D01*
X86500500Y-72565892D01*
X86500500Y-72434108D01*
X86466392Y-72306814D01*
X86400500Y-72192686D01*
X86307314Y-72099500D01*
X86250250Y-72066554D01*
X86193187Y-72033608D01*
X86129539Y-72016554D01*
X86065892Y-71999500D01*
X85934108Y-71999500D01*
X85806812Y-72033608D01*
X85692686Y-72099500D01*
X85692683Y-72099502D01*
X85599502Y-72192683D01*
X85599500Y-72192686D01*
X85533608Y-72306812D01*
X85508773Y-72399500D01*
X85499500Y-72434108D01*
X82209022Y-72434108D01*
X82138819Y-72363905D01*
X82105334Y-72302582D01*
X82102500Y-72276224D01*
X82102500Y-70934108D01*
X83699500Y-70934108D01*
X83699500Y-71065891D01*
X83733608Y-71193187D01*
X83766554Y-71250250D01*
X83799500Y-71307314D01*
X83892686Y-71400500D01*
X84006814Y-71466392D01*
X84134108Y-71500500D01*
X84134110Y-71500500D01*
X84265890Y-71500500D01*
X84265892Y-71500500D01*
X84393186Y-71466392D01*
X84507314Y-71400500D01*
X84570995Y-71336819D01*
X84632318Y-71303334D01*
X84658676Y-71300500D01*
X85441324Y-71300500D01*
X85508363Y-71320185D01*
X85529005Y-71336819D01*
X85592686Y-71400500D01*
X85706814Y-71466392D01*
X85834108Y-71500500D01*
X85834110Y-71500500D01*
X85965890Y-71500500D01*
X85965892Y-71500500D01*
X86093186Y-71466392D01*
X86207314Y-71400500D01*
X86300500Y-71307314D01*
X86366392Y-71193186D01*
X86400500Y-71065892D01*
X86400500Y-70934108D01*
X86366392Y-70806814D01*
X86360618Y-70796814D01*
X86357563Y-70791521D01*
X86300500Y-70692686D01*
X86207314Y-70599500D01*
X86150250Y-70566554D01*
X86093187Y-70533608D01*
X86029539Y-70516554D01*
X85965892Y-70499500D01*
X85834108Y-70499500D01*
X85706812Y-70533608D01*
X85592686Y-70599500D01*
X85592683Y-70599502D01*
X85529005Y-70663181D01*
X85467682Y-70696666D01*
X85441324Y-70699500D01*
X84658676Y-70699500D01*
X84591637Y-70679815D01*
X84570995Y-70663181D01*
X84507316Y-70599502D01*
X84507314Y-70599500D01*
X84450250Y-70566554D01*
X84393187Y-70533608D01*
X84329539Y-70516554D01*
X84265892Y-70499500D01*
X84134108Y-70499500D01*
X84006812Y-70533608D01*
X83892686Y-70599500D01*
X83892683Y-70599502D01*
X83799502Y-70692683D01*
X83799500Y-70692686D01*
X83733608Y-70806812D01*
X83699500Y-70934108D01*
X82102500Y-70934108D01*
X82102500Y-66664538D01*
X82102881Y-66654830D01*
X82112710Y-66529984D01*
X82115749Y-66510803D01*
X82143842Y-66393798D01*
X82149850Y-66375310D01*
X82195898Y-66264146D01*
X82204722Y-66246828D01*
X82267594Y-66144232D01*
X82279027Y-66128498D01*
X82308182Y-66094362D01*
X82360470Y-66033140D01*
X82367015Y-66026055D01*
X82397140Y-65995931D01*
X82397160Y-65995890D01*
X82400971Y-65992076D01*
X82404244Y-65988804D01*
X82404249Y-65988801D01*
X82404262Y-65988786D01*
X82432625Y-65960424D01*
X82551691Y-65805255D01*
X82649487Y-65635873D01*
X82649489Y-65635867D01*
X82649493Y-65635860D01*
X82724334Y-65455183D01*
X82724333Y-65455183D01*
X82724337Y-65455176D01*
X82774963Y-65266255D01*
X82800498Y-65072342D01*
X82800499Y-65014104D01*
X82800500Y-65014101D01*
X82800500Y-64966392D01*
X82800502Y-64926954D01*
X82800500Y-64926949D01*
X82800501Y-64918332D01*
X82800500Y-64918302D01*
X82800500Y-59752206D01*
X82820185Y-59685167D01*
X82872989Y-59639412D01*
X82942147Y-59629468D01*
X83005703Y-59658493D01*
X83031887Y-59690206D01*
X83099497Y-59807310D01*
X83099499Y-59807312D01*
X83099500Y-59807314D01*
X83192686Y-59900500D01*
X83291521Y-59957563D01*
X83303739Y-59964617D01*
X83306814Y-59966392D01*
X83434108Y-60000500D01*
X83434110Y-60000500D01*
X83565890Y-60000500D01*
X83565892Y-60000500D01*
X83693186Y-59966392D01*
X83807314Y-59900500D01*
X83900500Y-59807314D01*
X83966392Y-59693186D01*
X84000500Y-59565892D01*
X84000500Y-59434108D01*
X83966392Y-59306814D01*
X83900500Y-59192686D01*
X83836818Y-59129004D01*
X83803334Y-59067680D01*
X83800500Y-59041323D01*
X83800500Y-58764500D01*
X83801960Y-58759527D01*
X83800908Y-58754454D01*
X83811703Y-58726347D01*
X83820185Y-58697461D01*
X83824100Y-58694068D01*
X83825959Y-58689229D01*
X83850243Y-58671415D01*
X83872989Y-58651706D01*
X83879244Y-58650141D01*
X83882296Y-58647903D01*
X83902056Y-58644436D01*
X83916855Y-58640736D01*
X83920676Y-58640500D01*
X84069748Y-58640500D01*
X84128231Y-58628867D01*
X84130189Y-58627558D01*
X84145238Y-58626629D01*
X84171477Y-58632604D01*
X84198283Y-58635003D01*
X84205211Y-58640286D01*
X84213364Y-58642143D01*
X84230329Y-58659441D01*
X84252149Y-58676081D01*
X84342812Y-58797190D01*
X84457906Y-58883350D01*
X84457913Y-58883354D01*
X84592620Y-58933596D01*
X84592627Y-58933598D01*
X84652155Y-58939999D01*
X84652172Y-58940000D01*
X84750000Y-58940000D01*
X85250000Y-58940000D01*
X85347828Y-58940000D01*
X85347844Y-58939999D01*
X85407372Y-58933598D01*
X85407379Y-58933596D01*
X85542086Y-58883354D01*
X85542093Y-58883350D01*
X85657187Y-58797190D01*
X85657190Y-58797187D01*
X85743350Y-58682093D01*
X85743354Y-58682086D01*
X85793596Y-58547379D01*
X85793598Y-58547372D01*
X85799999Y-58487844D01*
X85800000Y-58487827D01*
X85800000Y-57840000D01*
X85250000Y-57840000D01*
X85250000Y-58940000D01*
X84750000Y-58940000D01*
X84750000Y-57340000D01*
X85250000Y-57340000D01*
X85800000Y-57340000D01*
X85800000Y-56692172D01*
X85799999Y-56692155D01*
X85793598Y-56632627D01*
X85793596Y-56632620D01*
X85743354Y-56497913D01*
X85743350Y-56497906D01*
X85657190Y-56382812D01*
X85657187Y-56382809D01*
X85542093Y-56296649D01*
X85542086Y-56296645D01*
X85407379Y-56246403D01*
X85407372Y-56246401D01*
X85347844Y-56240000D01*
X85250000Y-56240000D01*
X85250000Y-57340000D01*
X84750000Y-57340000D01*
X84750000Y-56240000D01*
X84652155Y-56240000D01*
X84592627Y-56246401D01*
X84592620Y-56246403D01*
X84457913Y-56296645D01*
X84457906Y-56296649D01*
X84342812Y-56382809D01*
X84252149Y-56503918D01*
X84196215Y-56545788D01*
X84128694Y-56551224D01*
X84069749Y-56539500D01*
X84069748Y-56539500D01*
X83430252Y-56539500D01*
X83430247Y-56539500D01*
X83371770Y-56551131D01*
X83371769Y-56551132D01*
X83305447Y-56595447D01*
X83261132Y-56661769D01*
X83261131Y-56661770D01*
X83249500Y-56720247D01*
X83249500Y-58386750D01*
X83247872Y-58394929D01*
X83248789Y-58400009D01*
X83240060Y-58434206D01*
X83239060Y-58436620D01*
X83195217Y-58491022D01*
X83138359Y-58509944D01*
X83158365Y-58519515D01*
X83195085Y-58578958D01*
X83199503Y-58611771D01*
X83199502Y-58630414D01*
X83199500Y-58630458D01*
X83199500Y-58676760D01*
X83199496Y-58734319D01*
X83199500Y-58734368D01*
X83199500Y-59041323D01*
X83179815Y-59108362D01*
X83163182Y-59129004D01*
X83099500Y-59192686D01*
X83031887Y-59309794D01*
X82981319Y-59358009D01*
X82912712Y-59371231D01*
X82847848Y-59345263D01*
X82807320Y-59288349D01*
X82800500Y-59247793D01*
X82800500Y-58743918D01*
X82820185Y-58676879D01*
X82872989Y-58631124D01*
X82877051Y-58629356D01*
X82878229Y-58628867D01*
X82878231Y-58628867D01*
X82944552Y-58584552D01*
X82972401Y-58542872D01*
X83026012Y-58498068D01*
X83059423Y-58493871D01*
X83013614Y-58444665D01*
X83000500Y-58389164D01*
X83000500Y-56720249D01*
X83000499Y-56720247D01*
X82988868Y-56661770D01*
X82988867Y-56661769D01*
X82944552Y-56595447D01*
X82878230Y-56551132D01*
X82878229Y-56551131D01*
X82819752Y-56539500D01*
X82819748Y-56539500D01*
X82180252Y-56539500D01*
X82180247Y-56539500D01*
X82121770Y-56551131D01*
X82121769Y-56551132D01*
X82055447Y-56595447D01*
X82011132Y-56661769D01*
X82011131Y-56661770D01*
X81999500Y-56720247D01*
X81999500Y-58459752D01*
X82011131Y-58518229D01*
X82011132Y-58518230D01*
X82055447Y-58584552D01*
X82121769Y-58628867D01*
X82122949Y-58629356D01*
X82125126Y-58631110D01*
X82131923Y-58635652D01*
X82131516Y-58636259D01*
X82177354Y-58673195D01*
X82199421Y-58739489D01*
X82199500Y-58743918D01*
X82199500Y-60016791D01*
X82179815Y-60083830D01*
X82127011Y-60129585D01*
X82057853Y-60139529D01*
X81994297Y-60110504D01*
X81968114Y-60078794D01*
X81966083Y-60075276D01*
X81921206Y-60016791D01*
X81853420Y-59928450D01*
X81840410Y-59915440D01*
X81791416Y-59866444D01*
X81784831Y-59859321D01*
X81711691Y-59773684D01*
X81700256Y-59757945D01*
X81696739Y-59752206D01*
X81643976Y-59666103D01*
X81635143Y-59648766D01*
X81593923Y-59549248D01*
X81587911Y-59530743D01*
X81562767Y-59426002D01*
X81559726Y-59406801D01*
X81550881Y-59294394D01*
X81550500Y-59284670D01*
X81550501Y-59242086D01*
X81550500Y-59242082D01*
X81550500Y-58743918D01*
X81570185Y-58676879D01*
X81622989Y-58631124D01*
X81627051Y-58629356D01*
X81628229Y-58628867D01*
X81628231Y-58628867D01*
X81694552Y-58584552D01*
X81738867Y-58518231D01*
X81738867Y-58518229D01*
X81738868Y-58518229D01*
X81750499Y-58459752D01*
X81750500Y-58459750D01*
X81750500Y-56720249D01*
X81750499Y-56720247D01*
X81738868Y-56661770D01*
X81738867Y-56661769D01*
X81694552Y-56595447D01*
X81628230Y-56551132D01*
X81628229Y-56551131D01*
X81569752Y-56539500D01*
X81569748Y-56539500D01*
X80930252Y-56539500D01*
X80930247Y-56539500D01*
X80871770Y-56551131D01*
X80871769Y-56551132D01*
X80805447Y-56595447D01*
X80761132Y-56661769D01*
X80761131Y-56661770D01*
X80749500Y-56720247D01*
X80749500Y-57636908D01*
X80740610Y-57667181D01*
X80733459Y-57697906D01*
X80730842Y-57700447D01*
X80729815Y-57703947D01*
X80705976Y-57724603D01*
X80683343Y-57746590D01*
X80679767Y-57747313D01*
X80677011Y-57749702D01*
X80645786Y-57754191D01*
X80614862Y-57760451D01*
X80611463Y-57759126D01*
X80607853Y-57759646D01*
X80579156Y-57746540D01*
X80549759Y-57735088D01*
X80546314Y-57731542D01*
X80544297Y-57730621D01*
X80525168Y-57709775D01*
X80524165Y-57708394D01*
X80500701Y-57642584D01*
X80500500Y-57635531D01*
X80500500Y-56720249D01*
X80500499Y-56720247D01*
X80488868Y-56661770D01*
X80488867Y-56661769D01*
X80444552Y-56595447D01*
X80378230Y-56551132D01*
X80378229Y-56551131D01*
X80319752Y-56539500D01*
X80319748Y-56539500D01*
X79680252Y-56539500D01*
X79680247Y-56539500D01*
X79621770Y-56551131D01*
X79621769Y-56551132D01*
X79555447Y-56595447D01*
X79511132Y-56661769D01*
X79511131Y-56661770D01*
X79499500Y-56720247D01*
X79499500Y-58260096D01*
X79491933Y-58285863D01*
X79487920Y-58312419D01*
X79482238Y-58318880D01*
X79479815Y-58327135D01*
X79459521Y-58344719D01*
X79441786Y-58364892D01*
X79433511Y-58367256D01*
X79427011Y-58372890D01*
X79400432Y-58376711D01*
X79374607Y-58384093D01*
X79366369Y-58381609D01*
X79357853Y-58382834D01*
X79333423Y-58371677D01*
X79307711Y-58363926D01*
X79298265Y-58355621D01*
X79294297Y-58353809D01*
X79281205Y-58340622D01*
X79280205Y-58339451D01*
X79251638Y-58275687D01*
X79250500Y-58258925D01*
X79250500Y-56720249D01*
X79250499Y-56720247D01*
X79238868Y-56661770D01*
X79238867Y-56661769D01*
X79194552Y-56595447D01*
X79128230Y-56551132D01*
X79128229Y-56551131D01*
X79069752Y-56539500D01*
X79069748Y-56539500D01*
X78430252Y-56539500D01*
X78430247Y-56539500D01*
X78371770Y-56551131D01*
X78371769Y-56551132D01*
X78305447Y-56595447D01*
X78261132Y-56661769D01*
X78261131Y-56661770D01*
X78249500Y-56720247D01*
X78249500Y-58459752D01*
X78261131Y-58518229D01*
X78261132Y-58518230D01*
X78305447Y-58584552D01*
X78371769Y-58628867D01*
X78371770Y-58628868D01*
X78430247Y-58640499D01*
X78430250Y-58640500D01*
X78430252Y-58640500D01*
X78690040Y-58640500D01*
X78690779Y-58640716D01*
X78691520Y-58640509D01*
X78724265Y-58650549D01*
X78757079Y-58660185D01*
X78757826Y-58660840D01*
X78758320Y-58660992D01*
X78763519Y-58665832D01*
X78784715Y-58684421D01*
X78786621Y-58686675D01*
X78868815Y-58793788D01*
X78919660Y-58844630D01*
X78919661Y-58844632D01*
X78923320Y-58848291D01*
X79878858Y-59803829D01*
X79878859Y-59803831D01*
X79878860Y-59803831D01*
X79910614Y-59835586D01*
X79914353Y-59839493D01*
X80167827Y-60116112D01*
X80174781Y-60124399D01*
X80401545Y-60419924D01*
X80407750Y-60428785D01*
X80434033Y-60470041D01*
X80453451Y-60537158D01*
X80433501Y-60604119D01*
X80391453Y-60644052D01*
X80293692Y-60700495D01*
X80293683Y-60700502D01*
X80200502Y-60793683D01*
X80200500Y-60793686D01*
X80134608Y-60907812D01*
X80100500Y-61035108D01*
X80100500Y-61166891D01*
X80134608Y-61294187D01*
X80167554Y-61351250D01*
X80200500Y-61408314D01*
X80200502Y-61408316D01*
X80264181Y-61471995D01*
X80297666Y-61533318D01*
X80300500Y-61559676D01*
X80300500Y-62900763D01*
X80280815Y-62967802D01*
X80228011Y-63013557D01*
X80158853Y-63023501D01*
X80144409Y-63020538D01*
X80065892Y-62999500D01*
X79934108Y-62999500D01*
X79806812Y-63033608D01*
X79692686Y-63099500D01*
X79692683Y-63099502D01*
X79629005Y-63163181D01*
X79567682Y-63196666D01*
X79541324Y-63199500D01*
X78458676Y-63199500D01*
X78391637Y-63179815D01*
X78370995Y-63163181D01*
X78307316Y-63099502D01*
X78307314Y-63099500D01*
X78229116Y-63054352D01*
X78193187Y-63033608D01*
X78112162Y-63011898D01*
X78065892Y-62999500D01*
X77934108Y-62999500D01*
X77806812Y-63033608D01*
X77692686Y-63099500D01*
X77692683Y-63099502D01*
X77599502Y-63192683D01*
X77599495Y-63192692D01*
X77581735Y-63223454D01*
X77575858Y-63229057D01*
X77572952Y-63236643D01*
X77550936Y-63252819D01*
X77531168Y-63271669D01*
X77523192Y-63273205D01*
X77516648Y-63278015D01*
X77489383Y-63279721D01*
X77462560Y-63284891D01*
X77455020Y-63281872D01*
X77446915Y-63282380D01*
X77423056Y-63269076D01*
X77397696Y-63258923D01*
X77391417Y-63251433D01*
X77385892Y-63248352D01*
X77364993Y-63219910D01*
X77364705Y-63219372D01*
X77361503Y-63213380D01*
X77352200Y-63190920D01*
X77318008Y-63078194D01*
X77313267Y-63054361D01*
X77301106Y-62930839D01*
X77300510Y-62918727D01*
X77300508Y-62838021D01*
X77277808Y-62665627D01*
X77232801Y-62497671D01*
X77166257Y-62337025D01*
X77166251Y-62337016D01*
X77166250Y-62337012D01*
X77079322Y-62186453D01*
X77079311Y-62186436D01*
X77012844Y-62099816D01*
X76973460Y-62048490D01*
X76973459Y-62048489D01*
X76973452Y-62048481D01*
X76865461Y-61940490D01*
X76865460Y-61940489D01*
X76840919Y-61915947D01*
X76840917Y-61915944D01*
X76834325Y-61908813D01*
X76743969Y-61803019D01*
X76732536Y-61787283D01*
X76662398Y-61672827D01*
X76653564Y-61655489D01*
X76602196Y-61531469D01*
X76596184Y-61512964D01*
X76571062Y-61408316D01*
X76564849Y-61382437D01*
X76561808Y-61363233D01*
X76550881Y-61224363D01*
X76550500Y-61214640D01*
X76550500Y-61214342D01*
X76550501Y-61172082D01*
X76550500Y-61172078D01*
X76550500Y-58743918D01*
X76570185Y-58676879D01*
X76622989Y-58631124D01*
X76627051Y-58629356D01*
X76628229Y-58628867D01*
X76628231Y-58628867D01*
X76694552Y-58584552D01*
X76738867Y-58518231D01*
X76738867Y-58518229D01*
X76738868Y-58518229D01*
X76750499Y-58459752D01*
X76750500Y-58459750D01*
X76750500Y-56720249D01*
X76750499Y-56720247D01*
X76999500Y-56720247D01*
X76999500Y-58459752D01*
X77011131Y-58518229D01*
X77011132Y-58518230D01*
X77055448Y-58584553D01*
X77055674Y-58584779D01*
X77056008Y-58585391D01*
X77062233Y-58594707D01*
X77061399Y-58595264D01*
X77089159Y-58646102D01*
X77084175Y-58715794D01*
X77075381Y-58734459D01*
X77033608Y-58806811D01*
X76999500Y-58934108D01*
X76999500Y-59065891D01*
X77033608Y-59193187D01*
X77065135Y-59247793D01*
X77099500Y-59307314D01*
X77192686Y-59400500D01*
X77306814Y-59466392D01*
X77434108Y-59500500D01*
X77434110Y-59500500D01*
X77565890Y-59500500D01*
X77565892Y-59500500D01*
X77693186Y-59466392D01*
X77807314Y-59400500D01*
X77900500Y-59307314D01*
X77966392Y-59193186D01*
X78000500Y-59065892D01*
X78000500Y-58934108D01*
X77966392Y-58806814D01*
X77960834Y-58797187D01*
X77924619Y-58734460D01*
X77908146Y-58666560D01*
X77930999Y-58600533D01*
X77944330Y-58584774D01*
X77944549Y-58584553D01*
X77944552Y-58584552D01*
X77988867Y-58518231D01*
X77988867Y-58518229D01*
X77988868Y-58518229D01*
X78000499Y-58459752D01*
X78000500Y-58459750D01*
X78000500Y-56720249D01*
X78000499Y-56720247D01*
X77988868Y-56661770D01*
X77988867Y-56661769D01*
X77944552Y-56595447D01*
X77878230Y-56551132D01*
X77878229Y-56551131D01*
X77819752Y-56539500D01*
X77819748Y-56539500D01*
X77180252Y-56539500D01*
X77180247Y-56539500D01*
X77121770Y-56551131D01*
X77121769Y-56551132D01*
X77055447Y-56595447D01*
X77011132Y-56661769D01*
X77011131Y-56661770D01*
X76999500Y-56720247D01*
X76750499Y-56720247D01*
X76738868Y-56661770D01*
X76738867Y-56661769D01*
X76694552Y-56595447D01*
X76628230Y-56551132D01*
X76628229Y-56551131D01*
X76569752Y-56539500D01*
X76569748Y-56539500D01*
X75930252Y-56539500D01*
X75930247Y-56539500D01*
X75871770Y-56551131D01*
X75871769Y-56551132D01*
X75805447Y-56595447D01*
X75761132Y-56661769D01*
X75761131Y-56661770D01*
X75749500Y-56720247D01*
X75749500Y-58459752D01*
X75761131Y-58518229D01*
X75761132Y-58518230D01*
X75805447Y-58584552D01*
X75871769Y-58628867D01*
X75872949Y-58629356D01*
X75875126Y-58631110D01*
X75881923Y-58635652D01*
X75881516Y-58636259D01*
X75927354Y-58673195D01*
X75949421Y-58739489D01*
X75949500Y-58743918D01*
X75949500Y-61267230D01*
X75949511Y-61267411D01*
X75949511Y-61294186D01*
X75949511Y-61323275D01*
X75957300Y-61382446D01*
X75976555Y-61528734D01*
X76030183Y-61728888D01*
X76030185Y-61728893D01*
X76030186Y-61728896D01*
X76109486Y-61920350D01*
X76213098Y-62099815D01*
X76213099Y-62099816D01*
X76339247Y-62264217D01*
X76339252Y-62264223D01*
X76380199Y-62305169D01*
X76380206Y-62305176D01*
X76395072Y-62320044D01*
X76412041Y-62337012D01*
X76412514Y-62337485D01*
X76412514Y-62337486D01*
X76432018Y-62356989D01*
X76432020Y-62356991D01*
X76449019Y-62373990D01*
X76449028Y-62374000D01*
X76482695Y-62407666D01*
X76490867Y-62416683D01*
X76569489Y-62512482D01*
X76582994Y-62532693D01*
X76638523Y-62636577D01*
X76647826Y-62659035D01*
X76682021Y-62771755D01*
X76686764Y-62795594D01*
X76698903Y-62918807D01*
X76699500Y-62930965D01*
X76699500Y-62981942D01*
X76699527Y-62982281D01*
X76699527Y-63011903D01*
X76699745Y-63013557D01*
X76722216Y-63184294D01*
X76742211Y-63258923D01*
X76760725Y-63328028D01*
X76767217Y-63352256D01*
X76833747Y-63512894D01*
X76833755Y-63512910D01*
X76920683Y-63663485D01*
X76920684Y-63663487D01*
X77026531Y-63801438D01*
X77026539Y-63801448D01*
X77032405Y-63807314D01*
X77060035Y-63834946D01*
X77060040Y-63834954D01*
X77088006Y-63862920D01*
X77121659Y-63896576D01*
X77121660Y-63896576D01*
X77128718Y-63903635D01*
X77128738Y-63903652D01*
X77598668Y-64373582D01*
X77600781Y-64375697D01*
X77600830Y-64375787D01*
X77637058Y-64412012D01*
X77637058Y-64412013D01*
X77698538Y-64473488D01*
X77836494Y-64579337D01*
X77836499Y-64579340D01*
X77836506Y-64579345D01*
X77987075Y-64666269D01*
X77987079Y-64666270D01*
X77987085Y-64666274D01*
X78147736Y-64732811D01*
X78315697Y-64777811D01*
X78488094Y-64800502D01*
X78568923Y-64800500D01*
X78581080Y-64801097D01*
X78704407Y-64813246D01*
X78728237Y-64817987D01*
X78750865Y-64824852D01*
X78809302Y-64863152D01*
X78837756Y-64926965D01*
X78827193Y-64996032D01*
X78780967Y-65048423D01*
X78776866Y-65050898D01*
X78692686Y-65099500D01*
X78692683Y-65099502D01*
X78599502Y-65192683D01*
X78599500Y-65192686D01*
X78533608Y-65306812D01*
X78499500Y-65434108D01*
X78499500Y-65565891D01*
X78533608Y-65693187D01*
X78558029Y-65735485D01*
X78599500Y-65807314D01*
X78599502Y-65807316D01*
X78663181Y-65870995D01*
X78696666Y-65932318D01*
X78699500Y-65958676D01*
X78699500Y-75041323D01*
X78679815Y-75108362D01*
X78663182Y-75129004D01*
X78599500Y-75192686D01*
X78533608Y-75306812D01*
X78499500Y-75434108D01*
X78499500Y-75565891D01*
X78533608Y-75693187D01*
X78540910Y-75705834D01*
X78599500Y-75807314D01*
X78599502Y-75807316D01*
X78663181Y-75870995D01*
X78696666Y-75932318D01*
X78699500Y-75958676D01*
X78699500Y-83247793D01*
X78679815Y-83314832D01*
X78627011Y-83360587D01*
X78557853Y-83370531D01*
X78494297Y-83341506D01*
X78468113Y-83309794D01*
X78420833Y-83227904D01*
X78400500Y-83192686D01*
X78307314Y-83099500D01*
X78224704Y-83051805D01*
X78193187Y-83033608D01*
X78129539Y-83016554D01*
X78065892Y-82999500D01*
X77934108Y-82999500D01*
X77806812Y-83033608D01*
X77692686Y-83099500D01*
X77692683Y-83099502D01*
X77629005Y-83163181D01*
X77567682Y-83196666D01*
X77541324Y-83199500D01*
X72458676Y-83199500D01*
X72391637Y-83179815D01*
X72370995Y-83163181D01*
X72307316Y-83099502D01*
X72307314Y-83099500D01*
X72224704Y-83051805D01*
X72193187Y-83033608D01*
X72129539Y-83016554D01*
X72065892Y-82999500D01*
X71934108Y-82999500D01*
X71806812Y-83033608D01*
X71692686Y-83099500D01*
X71692683Y-83099502D01*
X71599502Y-83192683D01*
X71599500Y-83192686D01*
X71533608Y-83306812D01*
X71499500Y-83434108D01*
X65500500Y-83434108D01*
X65500500Y-80829108D01*
X72794500Y-80829108D01*
X72794500Y-80960891D01*
X72828608Y-81088187D01*
X72861554Y-81145250D01*
X72894500Y-81202314D01*
X72987686Y-81295500D01*
X73101814Y-81361392D01*
X73229108Y-81395500D01*
X73229110Y-81395500D01*
X73360890Y-81395500D01*
X73360892Y-81395500D01*
X73488186Y-81361392D01*
X73602314Y-81295500D01*
X73665995Y-81231819D01*
X73727318Y-81198334D01*
X73753676Y-81195500D01*
X75741324Y-81195500D01*
X75808363Y-81215185D01*
X75829005Y-81231819D01*
X75892686Y-81295500D01*
X76006814Y-81361392D01*
X76134108Y-81395500D01*
X76134110Y-81395500D01*
X76265890Y-81395500D01*
X76265892Y-81395500D01*
X76393186Y-81361392D01*
X76507314Y-81295500D01*
X76600500Y-81202314D01*
X76666392Y-81088186D01*
X76700500Y-80960892D01*
X76700500Y-80829108D01*
X76666392Y-80701814D01*
X76600500Y-80587686D01*
X76507314Y-80494500D01*
X76450250Y-80461554D01*
X76393187Y-80428608D01*
X76329539Y-80411554D01*
X76265892Y-80394500D01*
X76134108Y-80394500D01*
X76006812Y-80428608D01*
X75892686Y-80494500D01*
X75892683Y-80494502D01*
X75829005Y-80558181D01*
X75767682Y-80591666D01*
X75741324Y-80594500D01*
X73753676Y-80594500D01*
X73686637Y-80574815D01*
X73665995Y-80558181D01*
X73602316Y-80494502D01*
X73602314Y-80494500D01*
X73545250Y-80461554D01*
X73488187Y-80428608D01*
X73424539Y-80411554D01*
X73360892Y-80394500D01*
X73229108Y-80394500D01*
X73101812Y-80428608D01*
X72987686Y-80494500D01*
X72987683Y-80494502D01*
X72894502Y-80587683D01*
X72894500Y-80587686D01*
X72828608Y-80701812D01*
X72794500Y-80829108D01*
X65500500Y-80829108D01*
X65500500Y-72834108D01*
X73449500Y-72834108D01*
X73449500Y-72965891D01*
X73483608Y-73093187D01*
X73516554Y-73150250D01*
X73549500Y-73207314D01*
X73549502Y-73207316D01*
X73613181Y-73270995D01*
X73646666Y-73332318D01*
X73649500Y-73358676D01*
X73649500Y-74091324D01*
X73629815Y-74158363D01*
X73613181Y-74179005D01*
X73599502Y-74192683D01*
X73599500Y-74192686D01*
X73533608Y-74306812D01*
X73499500Y-74434108D01*
X73499500Y-74565891D01*
X73533608Y-74693187D01*
X73566554Y-74750250D01*
X73599500Y-74807314D01*
X73692686Y-74900500D01*
X73806814Y-74966392D01*
X73934108Y-75000500D01*
X73934110Y-75000500D01*
X74065890Y-75000500D01*
X74065892Y-75000500D01*
X74193186Y-74966392D01*
X74307314Y-74900500D01*
X74400500Y-74807314D01*
X74466392Y-74693186D01*
X74500500Y-74565892D01*
X74500500Y-74434108D01*
X74466392Y-74306814D01*
X74465857Y-74305888D01*
X74457563Y-74291521D01*
X74400500Y-74192686D01*
X74307314Y-74099500D01*
X74307311Y-74099498D01*
X74300865Y-74094552D01*
X74302675Y-74092192D01*
X74264280Y-74051920D01*
X74250500Y-73995107D01*
X74250500Y-73358676D01*
X74270185Y-73291637D01*
X74286819Y-73270995D01*
X74317297Y-73240517D01*
X74350500Y-73207314D01*
X74416392Y-73093186D01*
X74450500Y-72965892D01*
X74450500Y-72834108D01*
X74416392Y-72706814D01*
X74350500Y-72592686D01*
X74257314Y-72499500D01*
X74200250Y-72466554D01*
X74143187Y-72433608D01*
X74079539Y-72416554D01*
X74015892Y-72399500D01*
X73884108Y-72399500D01*
X73756812Y-72433608D01*
X73642686Y-72499500D01*
X73642683Y-72499502D01*
X73549502Y-72592683D01*
X73549500Y-72592686D01*
X73483608Y-72706812D01*
X73449500Y-72834108D01*
X65500500Y-72834108D01*
X65500500Y-70924108D01*
X72789500Y-70924108D01*
X72789500Y-71055892D01*
X72806554Y-71119539D01*
X72823608Y-71183187D01*
X72829382Y-71193187D01*
X72889500Y-71297314D01*
X72982686Y-71390500D01*
X73096814Y-71456392D01*
X73224108Y-71490500D01*
X73224110Y-71490500D01*
X73355890Y-71490500D01*
X73355892Y-71490500D01*
X73483186Y-71456392D01*
X73597314Y-71390500D01*
X73660995Y-71326819D01*
X73722318Y-71293334D01*
X73748676Y-71290500D01*
X75731324Y-71290500D01*
X75798363Y-71310185D01*
X75819005Y-71326819D01*
X75882686Y-71390500D01*
X75996814Y-71456392D01*
X76124108Y-71490500D01*
X76124110Y-71490500D01*
X76255890Y-71490500D01*
X76255892Y-71490500D01*
X76383186Y-71456392D01*
X76497314Y-71390500D01*
X76590500Y-71297314D01*
X76656392Y-71183186D01*
X76690500Y-71055892D01*
X76690500Y-70924108D01*
X76656392Y-70796814D01*
X76590500Y-70682686D01*
X76497314Y-70589500D01*
X76440250Y-70556554D01*
X76383187Y-70523608D01*
X76319539Y-70506554D01*
X76255892Y-70489500D01*
X76124108Y-70489500D01*
X75996812Y-70523608D01*
X75882686Y-70589500D01*
X75882683Y-70589502D01*
X75819005Y-70653181D01*
X75757682Y-70686666D01*
X75731324Y-70689500D01*
X73748676Y-70689500D01*
X73681637Y-70669815D01*
X73660995Y-70653181D01*
X73597316Y-70589502D01*
X73597314Y-70589500D01*
X73540250Y-70556554D01*
X73483187Y-70523608D01*
X73419539Y-70506554D01*
X73355892Y-70489500D01*
X73224108Y-70489500D01*
X73096812Y-70523608D01*
X72982686Y-70589500D01*
X72982683Y-70589502D01*
X72889502Y-70682683D01*
X72889500Y-70682686D01*
X72823608Y-70796812D01*
X72789500Y-70924108D01*
X65500500Y-70924108D01*
X65500500Y-55003051D01*
X65500649Y-54996966D01*
X65506459Y-54878711D01*
X67149500Y-54878711D01*
X67149500Y-55121288D01*
X67181161Y-55361785D01*
X67243947Y-55596104D01*
X67335955Y-55818229D01*
X67336776Y-55820212D01*
X67458064Y-56030289D01*
X67458066Y-56030292D01*
X67458067Y-56030293D01*
X67605733Y-56222736D01*
X67605739Y-56222743D01*
X67777256Y-56394260D01*
X67777262Y-56394265D01*
X67969711Y-56541936D01*
X68179788Y-56663224D01*
X68403900Y-56756054D01*
X68638211Y-56818838D01*
X68818586Y-56842584D01*
X68878711Y-56850500D01*
X68878712Y-56850500D01*
X69121289Y-56850500D01*
X69169388Y-56844167D01*
X69361789Y-56818838D01*
X69596100Y-56756054D01*
X69682546Y-56720247D01*
X74499500Y-56720247D01*
X74499500Y-58459752D01*
X74511131Y-58518229D01*
X74511132Y-58518230D01*
X74555448Y-58584553D01*
X74555674Y-58584779D01*
X74556008Y-58585391D01*
X74562233Y-58594707D01*
X74561399Y-58595264D01*
X74589159Y-58646102D01*
X74584175Y-58715794D01*
X74575381Y-58734459D01*
X74533608Y-58806811D01*
X74499500Y-58934108D01*
X74499500Y-59065891D01*
X74533608Y-59193187D01*
X74565135Y-59247793D01*
X74599500Y-59307314D01*
X74692686Y-59400500D01*
X74806814Y-59466392D01*
X74934108Y-59500500D01*
X74934110Y-59500500D01*
X75065890Y-59500500D01*
X75065892Y-59500500D01*
X75193186Y-59466392D01*
X75307314Y-59400500D01*
X75400500Y-59307314D01*
X75466392Y-59193186D01*
X75500500Y-59065892D01*
X75500500Y-58934108D01*
X75466392Y-58806814D01*
X75460834Y-58797187D01*
X75424619Y-58734460D01*
X75408146Y-58666560D01*
X75430999Y-58600533D01*
X75444330Y-58584774D01*
X75444549Y-58584553D01*
X75444552Y-58584552D01*
X75488867Y-58518231D01*
X75488867Y-58518229D01*
X75488868Y-58518229D01*
X75500499Y-58459752D01*
X75500500Y-58459750D01*
X75500500Y-56720249D01*
X75500499Y-56720247D01*
X75488868Y-56661770D01*
X75488867Y-56661769D01*
X75444552Y-56595447D01*
X75378230Y-56551132D01*
X75378229Y-56551131D01*
X75319752Y-56539500D01*
X75319748Y-56539500D01*
X74680252Y-56539500D01*
X74680247Y-56539500D01*
X74621770Y-56551131D01*
X74621769Y-56551132D01*
X74555447Y-56595447D01*
X74511132Y-56661769D01*
X74511131Y-56661770D01*
X74499500Y-56720247D01*
X69682546Y-56720247D01*
X69820212Y-56663224D01*
X70030289Y-56541936D01*
X70222738Y-56394265D01*
X70394265Y-56222738D01*
X70541936Y-56030289D01*
X70663224Y-55820212D01*
X70756054Y-55596100D01*
X70818838Y-55361789D01*
X70850500Y-55121288D01*
X70850500Y-54878712D01*
X70849164Y-54868567D01*
X70822111Y-54663072D01*
X70818838Y-54638211D01*
X70756054Y-54403900D01*
X70663224Y-54179788D01*
X70541936Y-53969711D01*
X70394265Y-53777262D01*
X70394260Y-53777256D01*
X70222743Y-53605739D01*
X70222736Y-53605733D01*
X70030293Y-53458067D01*
X70030292Y-53458066D01*
X70030289Y-53458064D01*
X69820212Y-53336776D01*
X69820205Y-53336773D01*
X69596104Y-53243947D01*
X69361785Y-53181161D01*
X69121289Y-53149500D01*
X69121288Y-53149500D01*
X68878712Y-53149500D01*
X68878711Y-53149500D01*
X68638214Y-53181161D01*
X68403895Y-53243947D01*
X68179794Y-53336773D01*
X68179785Y-53336777D01*
X67969706Y-53458067D01*
X67777263Y-53605733D01*
X67777256Y-53605739D01*
X67605739Y-53777256D01*
X67605733Y-53777263D01*
X67458067Y-53969706D01*
X67336777Y-54179785D01*
X67336773Y-54179794D01*
X67243947Y-54403895D01*
X67181161Y-54638214D01*
X67149500Y-54878711D01*
X65506459Y-54878711D01*
X65506957Y-54868568D01*
X65506957Y-54868567D01*
X65517052Y-54663072D01*
X65518245Y-54650962D01*
X65520136Y-54638211D01*
X65566849Y-54323296D01*
X65569218Y-54311385D01*
X65649710Y-53990043D01*
X65653240Y-53978411D01*
X65725212Y-53777263D01*
X65764835Y-53666525D01*
X65769476Y-53655318D01*
X65911124Y-53355828D01*
X65916840Y-53345136D01*
X66087145Y-53060998D01*
X66093888Y-53050905D01*
X66116626Y-53020247D01*
X72449500Y-53020247D01*
X72449500Y-55759752D01*
X72461131Y-55818229D01*
X72461132Y-55818230D01*
X72505447Y-55884552D01*
X72571769Y-55928867D01*
X72571770Y-55928868D01*
X72630247Y-55940499D01*
X72630250Y-55940500D01*
X72630252Y-55940500D01*
X73669750Y-55940500D01*
X73669751Y-55940499D01*
X73684568Y-55937552D01*
X73728229Y-55928868D01*
X73728229Y-55928867D01*
X73728231Y-55928867D01*
X73794552Y-55884552D01*
X73838867Y-55818231D01*
X73838867Y-55818229D01*
X73838868Y-55818229D01*
X73850499Y-55759752D01*
X73850500Y-55759750D01*
X73850500Y-53020249D01*
X73850499Y-53020247D01*
X86149500Y-53020247D01*
X86149500Y-55759752D01*
X86161131Y-55818229D01*
X86161132Y-55818230D01*
X86205447Y-55884552D01*
X86271769Y-55928867D01*
X86271770Y-55928868D01*
X86330247Y-55940499D01*
X86330250Y-55940500D01*
X86330252Y-55940500D01*
X87369750Y-55940500D01*
X87369751Y-55940499D01*
X87384568Y-55937552D01*
X87428229Y-55928868D01*
X87428229Y-55928867D01*
X87428231Y-55928867D01*
X87494552Y-55884552D01*
X87538867Y-55818231D01*
X87538867Y-55818229D01*
X87538868Y-55818229D01*
X87550499Y-55759752D01*
X87550500Y-55759750D01*
X87550500Y-54878711D01*
X89649500Y-54878711D01*
X89649500Y-55121288D01*
X89681161Y-55361785D01*
X89743947Y-55596104D01*
X89835955Y-55818229D01*
X89836776Y-55820212D01*
X89958064Y-56030289D01*
X89958066Y-56030292D01*
X89958067Y-56030293D01*
X90105733Y-56222736D01*
X90105739Y-56222743D01*
X90277256Y-56394260D01*
X90277262Y-56394265D01*
X90469711Y-56541936D01*
X90679788Y-56663224D01*
X90903900Y-56756054D01*
X91138211Y-56818838D01*
X91318586Y-56842584D01*
X91378711Y-56850500D01*
X91378712Y-56850500D01*
X91621289Y-56850500D01*
X91669388Y-56844167D01*
X91861789Y-56818838D01*
X92096100Y-56756054D01*
X92320212Y-56663224D01*
X92530289Y-56541936D01*
X92722738Y-56394265D01*
X92894265Y-56222738D01*
X93041936Y-56030289D01*
X93163224Y-55820212D01*
X93256054Y-55596100D01*
X93318838Y-55361789D01*
X93350500Y-55121288D01*
X93350500Y-54878712D01*
X93349164Y-54868567D01*
X93322111Y-54663072D01*
X93318838Y-54638211D01*
X93256054Y-54403900D01*
X93163224Y-54179788D01*
X93041936Y-53969711D01*
X92894265Y-53777262D01*
X92894260Y-53777256D01*
X92722743Y-53605739D01*
X92722736Y-53605733D01*
X92530293Y-53458067D01*
X92530292Y-53458066D01*
X92530289Y-53458064D01*
X92320212Y-53336776D01*
X92320205Y-53336773D01*
X92096104Y-53243947D01*
X91861785Y-53181161D01*
X91621289Y-53149500D01*
X91621288Y-53149500D01*
X91378712Y-53149500D01*
X91378711Y-53149500D01*
X91138214Y-53181161D01*
X90903895Y-53243947D01*
X90679794Y-53336773D01*
X90679785Y-53336777D01*
X90469706Y-53458067D01*
X90277263Y-53605733D01*
X90277256Y-53605739D01*
X90105739Y-53777256D01*
X90105733Y-53777263D01*
X89958067Y-53969706D01*
X89836777Y-54179785D01*
X89836773Y-54179794D01*
X89743947Y-54403895D01*
X89681161Y-54638214D01*
X89649500Y-54878711D01*
X87550500Y-54878711D01*
X87550500Y-53020249D01*
X87550499Y-53020247D01*
X87538868Y-52961770D01*
X87538867Y-52961769D01*
X87494552Y-52895447D01*
X87428230Y-52851132D01*
X87428229Y-52851131D01*
X87369752Y-52839500D01*
X87369748Y-52839500D01*
X86330252Y-52839500D01*
X86330247Y-52839500D01*
X86271770Y-52851131D01*
X86271769Y-52851132D01*
X86205447Y-52895447D01*
X86161132Y-52961769D01*
X86161131Y-52961770D01*
X86149500Y-53020247D01*
X73850499Y-53020247D01*
X73838868Y-52961770D01*
X73838867Y-52961769D01*
X73794552Y-52895447D01*
X73728230Y-52851132D01*
X73728229Y-52851131D01*
X73669752Y-52839500D01*
X73669748Y-52839500D01*
X72630252Y-52839500D01*
X72630247Y-52839500D01*
X72571770Y-52851131D01*
X72571769Y-52851132D01*
X72505447Y-52895447D01*
X72461132Y-52961769D01*
X72461131Y-52961770D01*
X72449500Y-53020247D01*
X66116626Y-53020247D01*
X66291232Y-52784818D01*
X66298935Y-52775433D01*
X66521405Y-52529975D01*
X66529975Y-52521405D01*
X66775433Y-52298935D01*
X66784818Y-52291232D01*
X67050905Y-52093888D01*
X67060998Y-52087145D01*
X67345136Y-51916840D01*
X67355828Y-51911124D01*
X67655318Y-51769476D01*
X67666525Y-51764835D01*
X67978412Y-51653239D01*
X67990043Y-51649710D01*
X68311385Y-51569218D01*
X68323296Y-51566849D01*
X68650962Y-51518244D01*
X68663068Y-51517052D01*
X68996967Y-51500648D01*
X69003051Y-51500500D01*
X69065892Y-51500500D01*
X91434108Y-51500500D01*
X91496949Y-51500500D01*
X91503032Y-51500648D01*
G37*
%TD.AperFunction*%
%TD*%
M02*
