M48
; DRILL file {KiCad 9.0.5} date 2026-03-26T21:22:36+0800
; FORMAT={-:-/ absolute / metric / decimal}
; #@! TF.CreationDate,2026-03-26T21:22:36+08:00
; #@! TF.GenerationSoftware,Kicad,Pcbnew,9.0.5
; #@! TF.FileFunction,Plated,1,2,PTH
FMAT,2
METRIC
; #@! TA.AperFunction,Plated,PTH,ViaDrill
T1C0.300
%
G90
G05
T1
X72.0Y-83.5
X73.29Y-70.99
X73.295Y-80.895
X73.3Y-84.3
X73.95Y-72.9
X74.0Y-74.5
X74.0Y-86.0
X74.9Y-84.6
X75.0Y-59.0
X76.19Y-70.99
X76.2Y-80.895
X76.5Y-68.915
X76.5Y-78.915
X77.5Y-59.0
X77.706Y-89.5
X78.0Y-63.5
X78.0Y-83.5
X78.75Y-84.25
X79.0Y-65.5
X79.0Y-75.5
X80.0Y-63.5
X80.0Y-90.5
X80.5Y-59.0
X80.5Y-64.5
X80.601Y-61.101
X81.0Y-65.5
X81.0Y-76.0
X81.5Y-88.67
X81.5Y-95.4
X82.0Y-73.5
X82.0Y-84.0
X83.5Y-59.5
X84.0Y-67.13
X84.0Y-83.5
X84.0Y-86.5
X84.2Y-71.0
X84.295Y-84.905
X84.3Y-81.095
X85.0Y-76.0
X85.7Y-84.9
X85.9Y-71.0
X86.0Y-72.5
X86.0Y-74.5
X87.0Y-81.1
X89.5Y-84.0
M30
