%TF.GenerationSoftware,KiCad,Pcbnew,9.0.5*%
%TF.CreationDate,2026-03-26T21:22:33+08:00*%
%TF.ProjectId,pump_matrix,70756d70-5f6d-4617-9472-69782e6b6963,rev?*%
%TF.SameCoordinates,Original*%
%TF.FileFunction,Copper,L1,Top*%
%TF.FilePolarity,Positive*%
%FSLAX46Y46*%
G04 Gerber Fmt 4.6, Leading zero omitted, Abs format (unit mm)*
G04 Created by KiCad (PCBNEW 9.0.5) date 2026-03-26 21:22:33*
%MOMM*%
%LPD*%
G01*
G04 APERTURE LIST*
G04 Aperture macros list*
%AMRoundRect*
0 Rectangle with rounded corners*
0 $1 Rounding radius*
0 $2 $3 $4 $5 $6 $7 $8 $9 X,Y pos of 4 corners*
0 Add a 4 corners polygon primitive as box body*
4,1,4,$2,$3,$4,$5,$6,$7,$8,$9,$2,$3,0*
0 Add four circle primitives for the rounded corners*
1,1,$1+$1,$2,$3*
1,1,$1+$1,$4,$5*
1,1,$1+$1,$6,$7*
1,1,$1+$1,$8,$9*
0 Add four rect primitives between the rounded corners*
20,1,$1+$1,$2,$3,$4,$5,0*
20,1,$1+$1,$4,$5,$6,$7,0*
20,1,$1+$1,$6,$7,$8,$9,0*
20,1,$1+$1,$8,$9,$2,$3,0*%
G04 Aperture macros list end*
%TA.AperFunction,SMDPad,CuDef*%
%ADD10R,0.700000X0.700000*%
%TD*%
%TA.AperFunction,SMDPad,CuDef*%
%ADD11RoundRect,0.200000X-0.275000X0.200000X-0.275000X-0.200000X0.275000X-0.200000X0.275000X0.200000X0*%
%TD*%
%TA.AperFunction,SMDPad,CuDef*%
%ADD12RoundRect,0.250000X0.250000X-0.250000X0.250000X0.250000X-0.250000X0.250000X-0.250000X-0.250000X0*%
%TD*%
%TA.AperFunction,SMDPad,CuDef*%
%ADD13R,1.524000X0.762000*%
%TD*%
%TA.AperFunction,SMDPad,CuDef*%
%ADD14RoundRect,0.225000X-0.250000X0.225000X-0.250000X-0.225000X0.250000X-0.225000X0.250000X0.225000X0*%
%TD*%
%TA.AperFunction,SMDPad,CuDef*%
%ADD15RoundRect,0.200000X-0.200000X0.250000X-0.200000X-0.250000X0.200000X-0.250000X0.200000X0.250000X0*%
%TD*%
%TA.AperFunction,SMDPad,CuDef*%
%ADD16RoundRect,0.225000X0.250000X-0.225000X0.250000X0.225000X-0.250000X0.225000X-0.250000X-0.225000X0*%
%TD*%
%TA.AperFunction,ViaPad*%
%ADD17C,0.600000*%
%TD*%
%TA.AperFunction,Conductor*%
%ADD18C,0.200000*%
%TD*%
G04 APERTURE END LIST*
D10*
%TO.P,D11,1,DOUT*%
%TO.N,Net-(D11-DOUT)*%
X86050000Y-77085000D03*
%TO.P,D11,2,VSS*%
%TO.N,GND*%
X84950000Y-77085000D03*
%TO.P,D11,3,DIN*%
%TO.N,Net-(D10-DOUT)*%
X84950000Y-78915000D03*
%TO.P,D11,4,VDD*%
%TO.N,+3.3V*%
X86050000Y-78915000D03*
%TD*%
D11*
%TO.P,R1,1*%
%TO.N,/COL1*%
X69206000Y-67070000D03*
%TO.P,R1,2*%
%TO.N,+3.3V*%
X69206000Y-68720000D03*
%TD*%
D12*
%TO.P,D5,1,K*%
%TO.N,/ROW2*%
X91206000Y-74155000D03*
%TO.P,D5,2,A*%
%TO.N,Net-(D5-A)*%
X91206000Y-71655000D03*
%TD*%
D13*
%TO.P,SW1,1,1*%
%TO.N,Net-(D1-A)*%
X71912000Y-61095000D03*
X77500000Y-61095000D03*
%TO.P,SW1,2,2*%
%TO.N,/COL1*%
X71912000Y-64905000D03*
X77500000Y-64905000D03*
%TD*%
D14*
%TO.P,C1,1*%
%TO.N,+3.3V*%
X77706000Y-67120000D03*
%TO.P,C1,2*%
%TO.N,GND*%
X77706000Y-68670000D03*
%TD*%
D15*
%TO.P,U1,1,VDD*%
%TO.N,+3.3V*%
X81000000Y-93000000D03*
%TO.P,U1,2,OUTPUT*%
%TO.N,/HALL*%
X79100000Y-93000000D03*
%TO.P,U1,3,GND*%
%TO.N,GND*%
X80050000Y-95400000D03*
%TD*%
D13*
%TO.P,SW4,1,1*%
%TO.N,Net-(D5-A)*%
X82618000Y-71000000D03*
X88206000Y-71000000D03*
%TO.P,SW4,2,2*%
%TO.N,/COL2*%
X82618000Y-74810000D03*
X88206000Y-74810000D03*
%TD*%
D14*
%TO.P,C6,1*%
%TO.N,+3.3V*%
X82530000Y-87320000D03*
%TO.P,C6,2*%
%TO.N,GND*%
X82530000Y-88870000D03*
%TD*%
D12*
%TO.P,D2,1,K*%
%TO.N,/ROW2*%
X69206000Y-74145000D03*
%TO.P,D2,2,A*%
%TO.N,Net-(D2-A)*%
X69206000Y-71645000D03*
%TD*%
D13*
%TO.P,SW3,1,1*%
%TO.N,Net-(D2-A)*%
X71912000Y-70990000D03*
X77500000Y-70990000D03*
%TO.P,SW3,2,2*%
%TO.N,/COL1*%
X71912000Y-74800000D03*
X77500000Y-74800000D03*
%TD*%
D14*
%TO.P,C5,1*%
%TO.N,+3.3V*%
X77706000Y-87120000D03*
%TO.P,C5,2*%
%TO.N,GND*%
X77706000Y-88670000D03*
%TD*%
D13*
%TO.P,SW5,1,1*%
%TO.N,Net-(D3-A)*%
X71912000Y-80895000D03*
X77500000Y-80895000D03*
%TO.P,SW5,2,2*%
%TO.N,/COL1*%
X71912000Y-84705000D03*
X77500000Y-84705000D03*
%TD*%
D14*
%TO.P,C7,1*%
%TO.N,+3.3V*%
X83050000Y-93625000D03*
%TO.P,C7,2*%
%TO.N,GND*%
X83050000Y-95175000D03*
%TD*%
D10*
%TO.P,D12,1,DOUT*%
%TO.N,unconnected-(D12-DOUT-Pad1)*%
X86050000Y-67085000D03*
%TO.P,D12,2,VSS*%
%TO.N,GND*%
X84950000Y-67085000D03*
%TO.P,D12,3,DIN*%
%TO.N,Net-(D11-DOUT)*%
X84950000Y-68915000D03*
%TO.P,D12,4,VDD*%
%TO.N,+3.3V*%
X86050000Y-68915000D03*
%TD*%
D13*
%TO.P,SW6,1,1*%
%TO.N,Net-(D6-A)*%
X82706000Y-81095000D03*
X88294000Y-81095000D03*
%TO.P,SW6,2,2*%
%TO.N,/COL2*%
X82706000Y-84905000D03*
X88294000Y-84905000D03*
%TD*%
D10*
%TO.P,D7,1,DOUT*%
%TO.N,Net-(D7-DOUT)*%
X73950000Y-68915000D03*
%TO.P,D7,2,VSS*%
%TO.N,GND*%
X75050000Y-68915000D03*
%TO.P,D7,3,DIN*%
%TO.N,/LED*%
X75050000Y-67085000D03*
%TO.P,D7,4,VDD*%
%TO.N,+3.3V*%
X73950000Y-67085000D03*
%TD*%
D12*
%TO.P,D6,1,K*%
%TO.N,/ROW3*%
X91000000Y-84250000D03*
%TO.P,D6,2,A*%
%TO.N,Net-(D6-A)*%
X91000000Y-81750000D03*
%TD*%
D10*
%TO.P,D9,1,DOUT*%
%TO.N,Net-(D10-DIN)*%
X75050000Y-87085000D03*
%TO.P,D9,2,VSS*%
%TO.N,GND*%
X73950000Y-87085000D03*
%TO.P,D9,3,DIN*%
%TO.N,Net-(D8-DOUT)*%
X73950000Y-88915000D03*
%TO.P,D9,4,VDD*%
%TO.N,+3.3V*%
X75050000Y-88915000D03*
%TD*%
D16*
%TO.P,C4,1*%
%TO.N,+3.3V*%
X82442000Y-78680000D03*
%TO.P,C4,2*%
%TO.N,GND*%
X82442000Y-77130000D03*
%TD*%
D12*
%TO.P,D3,1,K*%
%TO.N,/ROW3*%
X69000000Y-84250000D03*
%TO.P,D3,2,A*%
%TO.N,Net-(D3-A)*%
X69000000Y-81750000D03*
%TD*%
D16*
%TO.P,C2,1*%
%TO.N,+3.3V*%
X82442000Y-68680000D03*
%TO.P,C2,2*%
%TO.N,GND*%
X82442000Y-67130000D03*
%TD*%
D11*
%TO.P,R2,1*%
%TO.N,/COL2*%
X91206000Y-67080000D03*
%TO.P,R2,2*%
%TO.N,+3.3V*%
X91206000Y-68730000D03*
%TD*%
D13*
%TO.P,SW2,1,1*%
%TO.N,Net-(D4-A)*%
X82618000Y-61000000D03*
X88206000Y-61000000D03*
%TO.P,SW2,2,2*%
%TO.N,/COL2*%
X82618000Y-64810000D03*
X88206000Y-64810000D03*
%TD*%
D12*
%TO.P,D1,1,K*%
%TO.N,/ROW1*%
X69206000Y-64250000D03*
%TO.P,D1,2,A*%
%TO.N,Net-(D1-A)*%
X69206000Y-61750000D03*
%TD*%
D10*
%TO.P,D8,1,DOUT*%
%TO.N,Net-(D8-DOUT)*%
X73950000Y-78915000D03*
%TO.P,D8,2,VSS*%
%TO.N,GND*%
X75050000Y-78915000D03*
%TO.P,D8,3,DIN*%
%TO.N,Net-(D7-DOUT)*%
X75050000Y-77085000D03*
%TO.P,D8,4,VDD*%
%TO.N,+3.3V*%
X73950000Y-77085000D03*
%TD*%
D14*
%TO.P,C3,1*%
%TO.N,+3.3V*%
X77706000Y-77120000D03*
%TO.P,C3,2*%
%TO.N,GND*%
X77706000Y-78670000D03*
%TD*%
D11*
%TO.P,R3,1*%
%TO.N,/HALL*%
X77000000Y-93675000D03*
%TO.P,R3,2*%
%TO.N,+3.3V*%
X77000000Y-95325000D03*
%TD*%
D12*
%TO.P,D4,1,K*%
%TO.N,/ROW1*%
X91206000Y-64155000D03*
%TO.P,D4,2,A*%
%TO.N,Net-(D4-A)*%
X91206000Y-61655000D03*
%TD*%
D10*
%TO.P,D10,1,DOUT*%
%TO.N,Net-(D10-DOUT)*%
X86050000Y-87085000D03*
%TO.P,D10,2,VSS*%
%TO.N,GND*%
X84950000Y-87085000D03*
%TO.P,D10,3,DIN*%
%TO.N,Net-(D10-DIN)*%
X84950000Y-88915000D03*
%TO.P,D10,4,VDD*%
%TO.N,+3.3V*%
X86050000Y-88915000D03*
%TD*%
D17*
%TO.N,GND*%
X81500000Y-95400000D03*
X74000000Y-86000000D03*
X76500000Y-68915000D03*
X85000000Y-76000000D03*
X76500000Y-78915000D03*
X84000000Y-86500000D03*
X81500000Y-88670000D03*
X84000000Y-67130000D03*
X77706000Y-89500000D03*
%TO.N,+3.3V*%
X75000000Y-59000000D03*
%TO.N,/ROW1*%
X80500000Y-59000000D03*
X80000000Y-63500000D03*
X78000000Y-63500000D03*
%TO.N,/ROW2*%
X82000000Y-73500000D03*
%TO.N,Net-(D2-A)*%
X76190000Y-70990000D03*
X73290000Y-70990000D03*
%TO.N,/ROW3*%
X84000000Y-83500000D03*
X72000000Y-83500000D03*
X78000000Y-83500000D03*
X89500000Y-84000000D03*
%TO.N,Net-(D3-A)*%
X76200000Y-80895000D03*
X73295000Y-80895000D03*
%TO.N,Net-(D5-A)*%
X84200000Y-71000000D03*
X85900000Y-71000000D03*
%TO.N,Net-(D6-A)*%
X87000000Y-81100000D03*
X84300000Y-81095000D03*
%TO.N,Net-(D7-DOUT)*%
X74000000Y-74500000D03*
X73950000Y-72900000D03*
%TO.N,/LED*%
X80601000Y-61101000D03*
X83500000Y-59500000D03*
X80500000Y-64500000D03*
%TO.N,Net-(D11-DOUT)*%
X86000000Y-72500000D03*
X86000000Y-74500000D03*
%TO.N,/HALL*%
X80000000Y-90500000D03*
%TO.N,/COL2*%
X82000000Y-84000000D03*
X85700000Y-84900000D03*
X84295000Y-84905000D03*
X81000000Y-65500000D03*
X81000000Y-76000000D03*
%TO.N,/COL1*%
X79000000Y-75500000D03*
X77500000Y-59000000D03*
X73300000Y-84300000D03*
X78750000Y-84250000D03*
X74900000Y-84600000D03*
X79000000Y-65500000D03*
%TD*%
D18*
%TO.N,GND*%
X77287758Y-68915000D02*
X76500000Y-68915000D01*
X84000000Y-86500000D02*
X84455953Y-86955953D01*
X74000000Y-86999644D02*
X74000000Y-86000000D01*
X77706000Y-89500000D02*
X77706000Y-88670000D01*
X73975000Y-87060000D02*
X73950000Y-87085000D01*
X81500000Y-95400000D02*
X80050000Y-95400000D01*
X82430000Y-88770000D02*
X82530000Y-88870000D01*
X77287758Y-78915000D02*
X76500000Y-78915000D01*
X84950000Y-77053180D02*
X84950000Y-76085355D01*
X84927500Y-67107500D02*
X84950000Y-67085000D01*
X81500000Y-95400000D02*
X82665900Y-95400000D01*
X84873180Y-67130000D02*
X84000000Y-67130000D01*
X84873180Y-77130000D02*
X82442000Y-77130000D01*
X77583500Y-78792500D02*
X77706000Y-78670000D01*
X84767500Y-87085000D02*
X84950000Y-87085000D01*
X84000000Y-67130000D02*
X82442000Y-67130000D01*
X81500000Y-88670000D02*
X82188578Y-88670000D01*
X77583500Y-68792500D02*
X77706000Y-68670000D01*
X76500000Y-68915000D02*
X75050000Y-68915000D01*
X82937500Y-95287500D02*
X83050000Y-95175000D01*
X76500000Y-78915000D02*
X75050000Y-78915000D01*
X85000000Y-76000000D02*
X84975000Y-76025000D01*
X74000000Y-86999644D02*
G75*
G02*
X73974987Y-87059987I-85400J44D01*
G01*
X77583500Y-78792500D02*
G75*
G02*
X77287758Y-78914983I-295700J295700D01*
G01*
X84455953Y-86955953D02*
G75*
G03*
X84767500Y-87084998I311547J311553D01*
G01*
X84975000Y-76025000D02*
G75*
G03*
X84949982Y-76085355I60400J-60400D01*
G01*
X77583500Y-68792500D02*
G75*
G02*
X77287758Y-68914983I-295700J295700D01*
G01*
X82430000Y-88770000D02*
G75*
G03*
X82188578Y-88670009I-241400J-241400D01*
G01*
X84927500Y-77107500D02*
G75*
G02*
X84873180Y-77129992I-54300J54300D01*
G01*
X84927500Y-67107500D02*
G75*
G02*
X84873180Y-67129992I-54300J54300D01*
G01*
X84950000Y-77053180D02*
G75*
G02*
X84927506Y-77107506I-76800J-20D01*
G01*
X82937500Y-95287500D02*
G75*
G02*
X82665900Y-95400000I-271600J271600D01*
G01*
%TO.N,/ROW1*%
X90087845Y-63500000D02*
X80000000Y-63500000D01*
X78000000Y-63500000D02*
X70486330Y-63500000D01*
X90878500Y-63827500D02*
X91206000Y-64155000D01*
X80000000Y-63500000D02*
X80000000Y-59853553D01*
X69581000Y-63875000D02*
X69206000Y-64250000D01*
X80500000Y-59000000D02*
X80250000Y-59250000D01*
X70486330Y-63500000D02*
G75*
G03*
X69580991Y-63874991I-30J-1280300D01*
G01*
X80250000Y-59250000D02*
G75*
G03*
X80000022Y-59853553I603500J-603500D01*
G01*
X90878500Y-63827500D02*
G75*
G03*
X90087845Y-63499981I-790700J-790700D01*
G01*
%TO.N,Net-(D1-A)*%
X69533500Y-61422500D02*
X69206000Y-61750000D01*
X71912000Y-61095000D02*
X77500000Y-61095000D01*
X71912000Y-61095000D02*
X70324154Y-61095000D01*
X70324154Y-61095000D02*
G75*
G03*
X69533534Y-61422534I46J-1118100D01*
G01*
%TO.N,/ROW2*%
X75656856Y-73500000D02*
X70307083Y-73500000D01*
X69528500Y-73822500D02*
X69206000Y-74145000D01*
X80343144Y-73500000D02*
X75656856Y-73500000D01*
X80343144Y-73500000D02*
X90087845Y-73500000D01*
X90878500Y-73827500D02*
X91206000Y-74155000D01*
X70307083Y-73500000D02*
G75*
G03*
X69528505Y-73822505I17J-1101100D01*
G01*
X90878500Y-73827500D02*
G75*
G03*
X90087845Y-73499981I-790700J-790700D01*
G01*
%TO.N,Net-(D2-A)*%
X69528500Y-71322500D02*
X69206000Y-71645000D01*
X73290000Y-70990000D02*
X73300000Y-71000000D01*
X70307083Y-71000000D02*
X71894928Y-71000000D01*
X71919071Y-70990000D02*
X73290000Y-70990000D01*
X76190000Y-70990000D02*
X77500000Y-70990000D01*
X70307083Y-71000000D02*
G75*
G03*
X69528505Y-71322505I17J-1101100D01*
G01*
X71919071Y-70990000D02*
G75*
G03*
X71907008Y-70995008I29J-17100D01*
G01*
X71907000Y-70995000D02*
G75*
G02*
X71894928Y-71000012I-12100J12100D01*
G01*
%TO.N,/ROW3*%
X89500000Y-84000000D02*
X90441398Y-84000000D01*
X78172417Y-83399000D02*
X83827582Y-83399000D01*
X78000000Y-83500000D02*
X78050500Y-83449500D01*
X90628500Y-84077500D02*
X90706000Y-84155000D01*
X70280330Y-83500000D02*
X72000000Y-83500000D01*
X84000000Y-83500000D02*
X83949500Y-83449500D01*
X69375000Y-83875000D02*
X69000000Y-84250000D01*
X70280330Y-83500000D02*
G75*
G03*
X69374991Y-83874991I-30J-1280300D01*
G01*
X78172417Y-83399000D02*
G75*
G03*
X78050495Y-83449495I-17J-172400D01*
G01*
X83949500Y-83449500D02*
G75*
G03*
X83827582Y-83399007I-121900J-121900D01*
G01*
X90628500Y-84077500D02*
G75*
G03*
X90441398Y-84000001I-187100J-187100D01*
G01*
%TO.N,Net-(D3-A)*%
X71986246Y-80895000D02*
X73295000Y-80895000D01*
X69125000Y-81750000D02*
X69000000Y-81750000D01*
X71732753Y-81000000D02*
X70530330Y-81000000D01*
X69338388Y-81661611D02*
X69625000Y-81375000D01*
X76200000Y-80895000D02*
X77500000Y-80895000D01*
X69338388Y-81661611D02*
G75*
G02*
X69125000Y-81749992I-213388J213411D01*
G01*
X70530330Y-81000000D02*
G75*
G03*
X69624991Y-81374991I-30J-1280300D01*
G01*
X71986246Y-80895000D02*
G75*
G03*
X71859486Y-80947486I-46J-179200D01*
G01*
X71859500Y-80947500D02*
G75*
G02*
X71732753Y-81000022I-126800J126800D01*
G01*
%TO.N,Net-(D4-A)*%
X90878500Y-61327500D02*
X91206000Y-61655000D01*
X88206000Y-61000000D02*
X90087845Y-61000000D01*
X88206000Y-61000000D02*
X82618000Y-61000000D01*
X90878500Y-61327500D02*
G75*
G03*
X90087845Y-60999981I-790700J-790700D01*
G01*
%TO.N,Net-(D5-A)*%
X88206000Y-71000000D02*
X85900000Y-71000000D01*
X90878500Y-71327500D02*
X91206000Y-71655000D01*
X84200000Y-71000000D02*
X82618000Y-71000000D01*
X88206000Y-71000000D02*
X90087845Y-71000000D01*
X90878500Y-71327500D02*
G75*
G03*
X90087845Y-70999981I-790700J-790700D01*
G01*
%TO.N,Net-(D6-A)*%
X88297535Y-81095000D02*
X89750020Y-81095000D01*
X84497500Y-81097500D02*
X84500000Y-81100000D01*
X84300000Y-81095000D02*
X82706000Y-81095000D01*
X87000000Y-81100000D02*
X88285464Y-81100000D01*
X84300000Y-81095000D02*
X84491464Y-81095000D01*
X90426000Y-81375000D02*
X90706000Y-81655000D01*
X88297535Y-81095000D02*
G75*
G03*
X88291490Y-81097490I-35J-8500D01*
G01*
X88291500Y-81097500D02*
G75*
G02*
X88285464Y-81099985I-6000J6000D01*
G01*
X84497500Y-81097500D02*
G75*
G03*
X84491464Y-81095015I-6000J-6000D01*
G01*
X90426000Y-81375000D02*
G75*
G03*
X89750020Y-81094992I-676000J-676000D01*
G01*
%TO.N,Net-(D7-DOUT)*%
X74000000Y-74500000D02*
X74525000Y-75025000D01*
X75050000Y-76292462D02*
X75050000Y-77085000D01*
X73950000Y-72900000D02*
X73950000Y-68915000D01*
X74525000Y-75025000D02*
G75*
G02*
X75050016Y-76292462I-1267500J-1267500D01*
G01*
%TO.N,/LED*%
X83250000Y-59750000D02*
X83500000Y-59500000D01*
X80500000Y-64500000D02*
X80500000Y-64674971D01*
X79740471Y-65609471D02*
X80376276Y-64973666D01*
X80601000Y-61101000D02*
X81243087Y-60458912D01*
X76272288Y-66369000D02*
X77906807Y-66369000D01*
X82351000Y-60000000D02*
X82646446Y-60000000D01*
X75408000Y-66727000D02*
X75050000Y-67085000D01*
X80500000Y-64674971D02*
G75*
G02*
X80376287Y-64973677I-422400J-29D01*
G01*
X83250000Y-59750000D02*
G75*
G02*
X82646446Y-60000019I-603600J603600D01*
G01*
X82351000Y-60000000D02*
G75*
G03*
X81243093Y-60458918I0J-1566800D01*
G01*
X76272288Y-66369000D02*
G75*
G03*
X75408003Y-66727003I12J-1222300D01*
G01*
X79740471Y-65609471D02*
G75*
G02*
X77906807Y-66369002I-1833671J1833671D01*
G01*
%TO.N,Net-(D8-DOUT)*%
X73950000Y-84289673D02*
X73950000Y-78915000D01*
X73299000Y-87803673D02*
X73299000Y-85861326D01*
X73624500Y-88589500D02*
X73950000Y-88915000D01*
X73624500Y-85075500D02*
G75*
G03*
X73299011Y-85861326I785800J-785800D01*
G01*
X73299000Y-87803673D02*
G75*
G03*
X73624492Y-88589508I1111300J-27D01*
G01*
X73950000Y-84289673D02*
G75*
G02*
X73624508Y-85075508I-1111300J-27D01*
G01*
%TO.N,Net-(D10-DIN)*%
X84000000Y-87982500D02*
X84000000Y-87750000D01*
X83250000Y-86750000D02*
X83823223Y-87323223D01*
X84047374Y-88012374D02*
X84950000Y-88915000D01*
X77852210Y-86000000D02*
X81439339Y-86000000D01*
X76542499Y-86542499D02*
X76335875Y-86749124D01*
X75525000Y-87085000D02*
X75050000Y-87085000D01*
X77852210Y-86000000D02*
G75*
G03*
X76542497Y-86542497I-10J-1852200D01*
G01*
X84047374Y-88012374D02*
G75*
G03*
X84017500Y-87999986I-29874J-29826D01*
G01*
X84000000Y-87982500D02*
G75*
G03*
X84017500Y-88000000I17500J0D01*
G01*
X83250000Y-86750000D02*
G75*
G03*
X81439339Y-85999984I-1810700J-1810700D01*
G01*
X76335875Y-86749124D02*
G75*
G02*
X75525000Y-87084985I-810875J810924D01*
G01*
X83823223Y-87323223D02*
G75*
G02*
X83999986Y-87750000I-426823J-426777D01*
G01*
%TO.N,Net-(D10-DOUT)*%
X84950000Y-85005182D02*
X84950000Y-78915000D01*
X85978582Y-86811582D02*
X85500000Y-86333000D01*
X86050000Y-86984000D02*
X86050000Y-87085000D01*
X84950000Y-85005182D02*
G75*
G03*
X85499995Y-86333005I1877800J-18D01*
G01*
X85978582Y-86811582D02*
G75*
G02*
X86050010Y-86984000I-172382J-172418D01*
G01*
%TO.N,Net-(D11-DOUT)*%
X86025000Y-74525000D02*
X86000000Y-74500000D01*
X85475000Y-71975000D02*
X86000000Y-72500000D01*
X86050000Y-74585355D02*
X86050000Y-77085000D01*
X84950000Y-70707537D02*
X84950000Y-68915000D01*
X86025000Y-74525000D02*
G75*
G02*
X86050018Y-74585355I-60400J-60400D01*
G01*
X84950000Y-70707537D02*
G75*
G03*
X85475011Y-71974989I1792500J37D01*
G01*
%TO.N,/HALL*%
X79100000Y-92522702D02*
X79100000Y-92036396D01*
X80000000Y-90500000D02*
X79550000Y-90950000D01*
X77947702Y-93675000D02*
X77000000Y-93675000D01*
X79100000Y-92522702D02*
G75*
G02*
X78762499Y-93337499I-1152300J2D01*
G01*
X78762500Y-93337500D02*
G75*
G02*
X77947702Y-93675001I-814800J814800D01*
G01*
X79550000Y-90950000D02*
G75*
G03*
X79099998Y-92036396I1086400J-1086400D01*
G01*
%TO.N,/COL2*%
X85700000Y-84900000D02*
X85702500Y-84902500D01*
X82000000Y-84000000D02*
X82000000Y-84099500D01*
X88206000Y-64810000D02*
X83082000Y-64810000D01*
X81000000Y-76000000D02*
X81000000Y-75750000D01*
X87751000Y-74355000D02*
X88206000Y-74810000D01*
X82618000Y-74810000D02*
X83073000Y-74355000D01*
X85708535Y-84905000D02*
X88294000Y-84905000D01*
X83082000Y-64810000D02*
X82154000Y-64810000D01*
X82706000Y-84905000D02*
X84295000Y-84905000D01*
X81361902Y-75138097D02*
X81176776Y-75323223D01*
X88206000Y-64810000D02*
X90217906Y-66821906D01*
X86652532Y-73900000D02*
X84171467Y-73900000D01*
X82154000Y-74810000D02*
X82618000Y-74810000D01*
X82706000Y-84905000D02*
X82070357Y-84269357D01*
X81361902Y-65138097D02*
X81000000Y-65500000D01*
X90841000Y-67080000D02*
X91206000Y-67080000D01*
X82154000Y-74810000D02*
G75*
G03*
X81361901Y-75138096I0J-1120200D01*
G01*
X82000000Y-84099500D02*
G75*
G03*
X82070360Y-84269354I240200J0D01*
G01*
X90217906Y-66821906D02*
G75*
G03*
X90841000Y-67079996I623094J623106D01*
G01*
X81176776Y-75323223D02*
G75*
G03*
X80999984Y-75750000I426724J-426777D01*
G01*
X87751000Y-74355000D02*
G75*
G03*
X86652532Y-73899986I-1098500J-1098500D01*
G01*
X84171467Y-73900000D02*
G75*
G03*
X83073010Y-74355010I33J-1553500D01*
G01*
X85702500Y-84902500D02*
G75*
G03*
X85708535Y-84904985I6000J6000D01*
G01*
X82154000Y-64810000D02*
G75*
G03*
X81361901Y-65138096I0J-1120200D01*
G01*
%TO.N,/COL1*%
X79000000Y-65500000D02*
X79000000Y-61560660D01*
X72156000Y-74800000D02*
X71912000Y-74800000D01*
X69938272Y-66878727D02*
X71912000Y-64905000D01*
X77984271Y-64905000D02*
X77500000Y-64905000D01*
X72608621Y-84705000D02*
X71912000Y-84705000D01*
X77973266Y-84705000D02*
X77500000Y-84705000D01*
X74952500Y-84652500D02*
X74900000Y-84600000D01*
X73300000Y-84300000D02*
X73097500Y-84502500D01*
X76736396Y-74800000D02*
X77500000Y-74800000D01*
X69476500Y-67070000D02*
X69206000Y-67070000D01*
X78750000Y-84250000D02*
X78522500Y-84477500D01*
X74563603Y-73900000D02*
X73936396Y-73900000D01*
X78250000Y-59750000D02*
X77500000Y-59000000D01*
X75079246Y-84705000D02*
X77500000Y-84705000D01*
X79000000Y-75500000D02*
X78582842Y-75082842D01*
X72849999Y-74349999D02*
X72572534Y-74627465D01*
X78702500Y-65202500D02*
X79000000Y-65500000D01*
X77900000Y-74800000D02*
X77500000Y-74800000D01*
X71912000Y-64905000D02*
X77500000Y-64905000D01*
X78702500Y-65202500D02*
G75*
G03*
X77984271Y-64905012I-718200J-718200D01*
G01*
X75650000Y-74350000D02*
G75*
G03*
X76736396Y-74800002I1086400J1086400D01*
G01*
X73097500Y-84502500D02*
G75*
G02*
X72608621Y-84705009I-488900J488900D01*
G01*
X78582842Y-75082842D02*
G75*
G03*
X77900000Y-74800004I-682842J-682858D01*
G01*
X69938272Y-66878727D02*
G75*
G02*
X69476500Y-67069983I-461772J461827D01*
G01*
X78522500Y-84477500D02*
G75*
G02*
X77973266Y-84704986I-549200J549200D01*
G01*
X74952500Y-84652500D02*
G75*
G03*
X75079246Y-84704952I126700J126800D01*
G01*
X72572534Y-74627465D02*
G75*
G02*
X72156000Y-74799990I-416534J416565D01*
G01*
X78250000Y-59750000D02*
G75*
G02*
X79000016Y-61560660I-1810700J-1810700D01*
G01*
X75650000Y-74350000D02*
G75*
G03*
X74563603Y-73899998I-1086400J-1086400D01*
G01*
X73936396Y-73900000D02*
G75*
G03*
X72850001Y-74350001I4J-1536400D01*
G01*
%TD*%
%TA.AperFunction,Conductor*%
%TO.N,+3.3V*%
G36*
X91503032Y-51500648D02*
G01*
X91836929Y-51517052D01*
X91849037Y-51518245D01*
X91952146Y-51533539D01*
X92176699Y-51566849D01*
X92188617Y-51569219D01*
X92509951Y-51649709D01*
X92521588Y-51653240D01*
X92592806Y-51678722D01*
X92833467Y-51764832D01*
X92844688Y-51769479D01*
X93144163Y-51911120D01*
X93154871Y-51916844D01*
X93438988Y-52087137D01*
X93449106Y-52093897D01*
X93715170Y-52291224D01*
X93724576Y-52298944D01*
X93970013Y-52521395D01*
X93978604Y-52529986D01*
X94165755Y-52736475D01*
X94201055Y-52775423D01*
X94208775Y-52784829D01*
X94406102Y-53050893D01*
X94412862Y-53061011D01*
X94578149Y-53336777D01*
X94583148Y-53345116D01*
X94588883Y-53355844D01*
X94637229Y-53458064D01*
X94730514Y-53655297D01*
X94735170Y-53666540D01*
X94846759Y-53978411D01*
X94850292Y-53990055D01*
X94930777Y-54311369D01*
X94933151Y-54323305D01*
X94981754Y-54650962D01*
X94982947Y-54663071D01*
X94999351Y-54996966D01*
X94999500Y-55003051D01*
X94999500Y-94496948D01*
X94999351Y-94503033D01*
X94982947Y-94836928D01*
X94981754Y-94849037D01*
X94933151Y-95176694D01*
X94930777Y-95188630D01*
X94850292Y-95509944D01*
X94846759Y-95521588D01*
X94735170Y-95833459D01*
X94730514Y-95844702D01*
X94588885Y-96144151D01*
X94583148Y-96154883D01*
X94412862Y-96438988D01*
X94406102Y-96449106D01*
X94208775Y-96715170D01*
X94201055Y-96724576D01*
X93978611Y-96970006D01*
X93970006Y-96978611D01*
X93724576Y-97201055D01*
X93715170Y-97208775D01*
X93449106Y-97406102D01*
X93438988Y-97412862D01*
X93154883Y-97583148D01*
X93144151Y-97588885D01*
X92844702Y-97730514D01*
X92833459Y-97735170D01*
X92521588Y-97846759D01*
X92509944Y-97850292D01*
X92188630Y-97930777D01*
X92176694Y-97933151D01*
X91849037Y-97981754D01*
X91836928Y-97982947D01*
X91521989Y-97998419D01*
X91503031Y-97999351D01*
X91496949Y-97999500D01*
X69003051Y-97999500D01*
X68996968Y-97999351D01*
X68976900Y-97998365D01*
X68663071Y-97982947D01*
X68650962Y-97981754D01*
X68323305Y-97933151D01*
X68311369Y-97930777D01*
X67990055Y-97850292D01*
X67978411Y-97846759D01*
X67666540Y-97735170D01*
X67655301Y-97730515D01*
X67355844Y-97588883D01*
X67345121Y-97583150D01*
X67061011Y-97412862D01*
X67050893Y-97406102D01*
X66784829Y-97208775D01*
X66775423Y-97201055D01*
X66736475Y-97165755D01*
X66529986Y-96978604D01*
X66521395Y-96970013D01*
X66298944Y-96724576D01*
X66291224Y-96715170D01*
X66093897Y-96449106D01*
X66087137Y-96438988D01*
X65916844Y-96154871D01*
X65911120Y-96144163D01*
X65769479Y-95844688D01*
X65764829Y-95833459D01*
X65761981Y-95825500D01*
X65674706Y-95581582D01*
X65653240Y-95521588D01*
X65649707Y-95509944D01*
X65630556Y-95433488D01*
X65569219Y-95188617D01*
X65566848Y-95176694D01*
X65555397Y-95099500D01*
X65525730Y-94899500D01*
X65518245Y-94849037D01*
X65517052Y-94836927D01*
X65516316Y-94821954D01*
X65500649Y-94503032D01*
X65500500Y-94496948D01*
X65500500Y-94378711D01*
X67149500Y-94378711D01*
X67149500Y-94621288D01*
X67178689Y-94843011D01*
X67181162Y-94861789D01*
X67195824Y-94916506D01*
X67243947Y-95096104D01*
X67282273Y-95188630D01*
X67336776Y-95320212D01*
X67458064Y-95530289D01*
X67458066Y-95530292D01*
X67458067Y-95530293D01*
X67605733Y-95722736D01*
X67605739Y-95722743D01*
X67777256Y-95894260D01*
X67777263Y-95894266D01*
X67862769Y-95959877D01*
X67969711Y-96041936D01*
X68179788Y-96163224D01*
X68403900Y-96256054D01*
X68638211Y-96318838D01*
X68818586Y-96342584D01*
X68878711Y-96350500D01*
X68878712Y-96350500D01*
X69121289Y-96350500D01*
X69169388Y-96344167D01*
X69361789Y-96318838D01*
X69596100Y-96256054D01*
X69820212Y-96163224D01*
X70030289Y-96041936D01*
X70222738Y-95894265D01*
X70394265Y-95722738D01*
X70502578Y-95581582D01*
X76025001Y-95581582D01*
X76031408Y-95652102D01*
X76031409Y-95652107D01*
X76081981Y-95814396D01*
X76169927Y-95959877D01*
X76290122Y-96080072D01*
X76435604Y-96168019D01*
X76435603Y-96168019D01*
X76597894Y-96218590D01*
X76597892Y-96218590D01*
X76668418Y-96224999D01*
X77250000Y-96224999D01*
X77331581Y-96224999D01*
X77402102Y-96218591D01*
X77402107Y-96218590D01*
X77564396Y-96168018D01*
X77709877Y-96080072D01*
X77830072Y-95959877D01*
X77918019Y-95814395D01*
X77968590Y-95652106D01*
X77975000Y-95581572D01*
X77975000Y-95575000D01*
X77250000Y-95575000D01*
X77250000Y-96224999D01*
X76668418Y-96224999D01*
X76749999Y-96224998D01*
X76750000Y-96224998D01*
X76750000Y-95575000D01*
X76025001Y-95575000D01*
X76025001Y-95581582D01*
X70502578Y-95581582D01*
X70541936Y-95530289D01*
X70663224Y-95320212D01*
X70746786Y-95118475D01*
X79449500Y-95118475D01*
X79449500Y-95681517D01*
X79456029Y-95722738D01*
X79464354Y-95775304D01*
X79521950Y-95888342D01*
X79521952Y-95888344D01*
X79521954Y-95888347D01*
X79611652Y-95978045D01*
X79611654Y-95978046D01*
X79611658Y-95978050D01*
X79724694Y-96035645D01*
X79724698Y-96035647D01*
X79818475Y-96050499D01*
X79818481Y-96050500D01*
X80281518Y-96050499D01*
X80375304Y-96035646D01*
X80488342Y-95978050D01*
X80578050Y-95888342D01*
X80635646Y-95775304D01*
X80635646Y-95775303D01*
X80639263Y-95768205D01*
X80687238Y-95717409D01*
X80749748Y-95700500D01*
X81041324Y-95700500D01*
X81108363Y-95720185D01*
X81129005Y-95736819D01*
X81192686Y-95800500D01*
X81306814Y-95866392D01*
X81434108Y-95900500D01*
X81434110Y-95900500D01*
X81565890Y-95900500D01*
X81565892Y-95900500D01*
X81693186Y-95866392D01*
X81807314Y-95800500D01*
X81870995Y-95736819D01*
X81932318Y-95703334D01*
X81958676Y-95700500D01*
X82447389Y-95700500D01*
X82514428Y-95720185D01*
X82535070Y-95736819D01*
X82546774Y-95748523D01*
X82546778Y-95748526D01*
X82546780Y-95748528D01*
X82666874Y-95809719D01*
X82666876Y-95809719D01*
X82666878Y-95809720D01*
X82766507Y-95825500D01*
X82766512Y-95825500D01*
X83333493Y-95825500D01*
X83433121Y-95809720D01*
X83433121Y-95809719D01*
X83433126Y-95809719D01*
X83553220Y-95748528D01*
X83648528Y-95653220D01*
X83709719Y-95533126D01*
X83710168Y-95530293D01*
X83725500Y-95433493D01*
X83725500Y-94916506D01*
X83709720Y-94816878D01*
X83709719Y-94816876D01*
X83709719Y-94816874D01*
X83648528Y-94696780D01*
X83648526Y-94696778D01*
X83648523Y-94696774D01*
X83629575Y-94677826D01*
X83596090Y-94616503D01*
X83601074Y-94546811D01*
X83642946Y-94490878D01*
X83652160Y-94484606D01*
X83752731Y-94422573D01*
X83796593Y-94378711D01*
X89649500Y-94378711D01*
X89649500Y-94621288D01*
X89678689Y-94843011D01*
X89681162Y-94861789D01*
X89695824Y-94916506D01*
X89743947Y-95096104D01*
X89782273Y-95188630D01*
X89836776Y-95320212D01*
X89958064Y-95530289D01*
X89958066Y-95530292D01*
X89958067Y-95530293D01*
X90105733Y-95722736D01*
X90105739Y-95722743D01*
X90277256Y-95894260D01*
X90277263Y-95894266D01*
X90362769Y-95959877D01*
X90469711Y-96041936D01*
X90679788Y-96163224D01*
X90903900Y-96256054D01*
X91138211Y-96318838D01*
X91318586Y-96342584D01*
X91378711Y-96350500D01*
X91378712Y-96350500D01*
X91621289Y-96350500D01*
X91669388Y-96344167D01*
X91861789Y-96318838D01*
X92096100Y-96256054D01*
X92320212Y-96163224D01*
X92530289Y-96041936D01*
X92722738Y-95894265D01*
X92894265Y-95722738D01*
X93041936Y-95530289D01*
X93163224Y-95320212D01*
X93256054Y-95096100D01*
X93318838Y-94861789D01*
X93350500Y-94621288D01*
X93350500Y-94378712D01*
X93318838Y-94138211D01*
X93256054Y-93903900D01*
X93163224Y-93679788D01*
X93041936Y-93469711D01*
X92949847Y-93349698D01*
X92894266Y-93277263D01*
X92894260Y-93277256D01*
X92722743Y-93105739D01*
X92722736Y-93105733D01*
X92530293Y-92958067D01*
X92530292Y-92958066D01*
X92530289Y-92958064D01*
X92320212Y-92836776D01*
X92320205Y-92836773D01*
X92096104Y-92743947D01*
X91861785Y-92681161D01*
X91621289Y-92649500D01*
X91621288Y-92649500D01*
X91378712Y-92649500D01*
X91378711Y-92649500D01*
X91138214Y-92681161D01*
X90903895Y-92743947D01*
X90679794Y-92836773D01*
X90679785Y-92836777D01*
X90469706Y-92958067D01*
X90277263Y-93105733D01*
X90277256Y-93105739D01*
X90105739Y-93277256D01*
X90105733Y-93277263D01*
X89958067Y-93469706D01*
X89836777Y-93679785D01*
X89836773Y-93679794D01*
X89743947Y-93903895D01*
X89681161Y-94138214D01*
X89649500Y-94378711D01*
X83796593Y-94378711D01*
X83872574Y-94302730D01*
X83961542Y-94158492D01*
X83961547Y-94158481D01*
X84014855Y-93997606D01*
X84024999Y-93898322D01*
X84025000Y-93898309D01*
X84025000Y-93875000D01*
X82075001Y-93875000D01*
X82075001Y-93898322D01*
X82085144Y-93997607D01*
X82138452Y-94158481D01*
X82138457Y-94158492D01*
X82227424Y-94302728D01*
X82227427Y-94302732D01*
X82347266Y-94422571D01*
X82447840Y-94484606D01*
X82494564Y-94536554D01*
X82505787Y-94605517D01*
X82477943Y-94669599D01*
X82470426Y-94677825D01*
X82451473Y-94696778D01*
X82390279Y-94816878D01*
X82374500Y-94916506D01*
X82374500Y-94975500D01*
X82354815Y-95042539D01*
X82302011Y-95088294D01*
X82250500Y-95099500D01*
X81958676Y-95099500D01*
X81891637Y-95079815D01*
X81870995Y-95063181D01*
X81807316Y-94999502D01*
X81807314Y-94999500D01*
X81750250Y-94966554D01*
X81693187Y-94933608D01*
X81629360Y-94916506D01*
X81565892Y-94899500D01*
X81434108Y-94899500D01*
X81306812Y-94933608D01*
X81192686Y-94999500D01*
X81192683Y-94999502D01*
X81129005Y-95063181D01*
X81067682Y-95096666D01*
X81041324Y-95099500D01*
X80749747Y-95099500D01*
X80682708Y-95079815D01*
X80639262Y-95031795D01*
X80635646Y-95024698D01*
X80635646Y-95024696D01*
X80578050Y-94911658D01*
X80578048Y-94911656D01*
X80578045Y-94911652D01*
X80488347Y-94821954D01*
X80488344Y-94821952D01*
X80488342Y-94821950D01*
X80411517Y-94782805D01*
X80375301Y-94764352D01*
X80281524Y-94749500D01*
X79818482Y-94749500D01*
X79737519Y-94762323D01*
X79724696Y-94764354D01*
X79611658Y-94821950D01*
X79611657Y-94821951D01*
X79611652Y-94821954D01*
X79521954Y-94911652D01*
X79521951Y-94911657D01*
X79464352Y-95024698D01*
X79449500Y-95118475D01*
X70746786Y-95118475D01*
X70756054Y-95096100D01*
X70763469Y-95068427D01*
X76025000Y-95068427D01*
X76025000Y-95075000D01*
X77974999Y-95075000D01*
X77974999Y-95068417D01*
X77968591Y-94997897D01*
X77968590Y-94997892D01*
X77918018Y-94835603D01*
X77830072Y-94690122D01*
X77709877Y-94569927D01*
X77564395Y-94481980D01*
X77564396Y-94481980D01*
X77483791Y-94456863D01*
X77425643Y-94418126D01*
X77397669Y-94354100D01*
X77408751Y-94285115D01*
X77455369Y-94233072D01*
X77464369Y-94228002D01*
X77513342Y-94203050D01*
X77603050Y-94113342D01*
X77638787Y-94043203D01*
X77649235Y-94032140D01*
X77655558Y-94018297D01*
X77672738Y-94007255D01*
X77686761Y-93992409D01*
X77702440Y-93988167D01*
X77714336Y-93980523D01*
X77749271Y-93975500D01*
X77896340Y-93975500D01*
X77896343Y-93975501D01*
X77947703Y-93975501D01*
X78042917Y-93975501D01*
X78042924Y-93975501D01*
X78231737Y-93950643D01*
X78415691Y-93901352D01*
X78553996Y-93844064D01*
X78591628Y-93828477D01*
X78591629Y-93828475D01*
X78591637Y-93828473D01*
X78756565Y-93733251D01*
X78831016Y-93676122D01*
X78896181Y-93650929D01*
X78906477Y-93650499D01*
X79331518Y-93650499D01*
X79425304Y-93635646D01*
X79538342Y-93578050D01*
X79628050Y-93488342D01*
X79685646Y-93375304D01*
X79685646Y-93375302D01*
X79685647Y-93375301D01*
X79696531Y-93306582D01*
X80100001Y-93306582D01*
X80106408Y-93377102D01*
X80106409Y-93377107D01*
X80156981Y-93539396D01*
X80244927Y-93684877D01*
X80365122Y-93805072D01*
X80510604Y-93893019D01*
X80510603Y-93893019D01*
X80672894Y-93943590D01*
X80672893Y-93943590D01*
X80743408Y-93949998D01*
X80743426Y-93949999D01*
X80749999Y-93949998D01*
X80750000Y-93949998D01*
X80750000Y-93250000D01*
X81250000Y-93250000D01*
X81250000Y-93949999D01*
X81256581Y-93949999D01*
X81327102Y-93943591D01*
X81327107Y-93943590D01*
X81489396Y-93893018D01*
X81634877Y-93805072D01*
X81755072Y-93684877D01*
X81843017Y-93539399D01*
X81876165Y-93433023D01*
X81914903Y-93374875D01*
X81978928Y-93346901D01*
X82047913Y-93357982D01*
X82071997Y-93375000D01*
X82800000Y-93375000D01*
X83300000Y-93375000D01*
X84024999Y-93375000D01*
X84024999Y-93351692D01*
X84024998Y-93351677D01*
X84014855Y-93252392D01*
X83961547Y-93091518D01*
X83961542Y-93091507D01*
X83872575Y-92947271D01*
X83872572Y-92947267D01*
X83752732Y-92827427D01*
X83752728Y-92827424D01*
X83608492Y-92738457D01*
X83608481Y-92738452D01*
X83447606Y-92685144D01*
X83348322Y-92675000D01*
X83300000Y-92675000D01*
X83300000Y-93375000D01*
X82800000Y-93375000D01*
X82800000Y-92675000D01*
X82799999Y-92674999D01*
X82751693Y-92675000D01*
X82751675Y-92675001D01*
X82652392Y-92685144D01*
X82491518Y-92738452D01*
X82491507Y-92738457D01*
X82347271Y-92827424D01*
X82347267Y-92827427D01*
X82227427Y-92947267D01*
X82227424Y-92947271D01*
X82138457Y-93091507D01*
X82138452Y-93091518D01*
X82102893Y-93198829D01*
X82063120Y-93256274D01*
X81998604Y-93283097D01*
X81929828Y-93270782D01*
X81900969Y-93250000D01*
X81250000Y-93250000D01*
X80750000Y-93250000D01*
X80100001Y-93250000D01*
X80100001Y-93306582D01*
X79696531Y-93306582D01*
X79700500Y-93281524D01*
X79700500Y-93198638D01*
X79700499Y-92718481D01*
X79699158Y-92710016D01*
X79699158Y-92710014D01*
X79699157Y-92710011D01*
X79696531Y-92693427D01*
X80100000Y-92693427D01*
X80100000Y-92750000D01*
X80750000Y-92750000D01*
X81250000Y-92750000D01*
X81899999Y-92750000D01*
X81899999Y-92693417D01*
X81893591Y-92622897D01*
X81893590Y-92622892D01*
X81843018Y-92460603D01*
X81755072Y-92315122D01*
X81634877Y-92194927D01*
X81489395Y-92106980D01*
X81489396Y-92106980D01*
X81327105Y-92056409D01*
X81327106Y-92056409D01*
X81256572Y-92050000D01*
X81250000Y-92050000D01*
X81250000Y-92750000D01*
X80750000Y-92750000D01*
X80750000Y-92050000D01*
X80749999Y-92049999D01*
X80743436Y-92050000D01*
X80743417Y-92050001D01*
X80672897Y-92056408D01*
X80672892Y-92056409D01*
X80510603Y-92106981D01*
X80365122Y-92194927D01*
X80244927Y-92315122D01*
X80156980Y-92460604D01*
X80106409Y-92622893D01*
X80100000Y-92693427D01*
X79696531Y-92693427D01*
X79685646Y-92624696D01*
X79628050Y-92511658D01*
X79628046Y-92511654D01*
X79628045Y-92511652D01*
X79538347Y-92421954D01*
X79538343Y-92421951D01*
X79538342Y-92421950D01*
X79536582Y-92421053D01*
X79468204Y-92386212D01*
X79457140Y-92375763D01*
X79443297Y-92369441D01*
X79432255Y-92352259D01*
X79417408Y-92338237D01*
X79413166Y-92322556D01*
X79405523Y-92310663D01*
X79400500Y-92275728D01*
X79400500Y-92041270D01*
X79400882Y-92031541D01*
X79414950Y-91852785D01*
X79417994Y-91833570D01*
X79458712Y-91663971D01*
X79464725Y-91645466D01*
X79531472Y-91484326D01*
X79540306Y-91466989D01*
X79631436Y-91318278D01*
X79642873Y-91302536D01*
X79711474Y-91222215D01*
X79759343Y-91166167D01*
X79765941Y-91159031D01*
X79796135Y-91128836D01*
X79796134Y-91128836D01*
X79796140Y-91128831D01*
X79888152Y-91036817D01*
X79949476Y-91003334D01*
X79975833Y-91000500D01*
X80065890Y-91000500D01*
X80065892Y-91000500D01*
X80193186Y-90966392D01*
X80307314Y-90900500D01*
X80400500Y-90807314D01*
X80466392Y-90693186D01*
X80500500Y-90565892D01*
X80500500Y-90434108D01*
X80466392Y-90306814D01*
X80400500Y-90192686D01*
X80307314Y-90099500D01*
X80250250Y-90066554D01*
X80193187Y-90033608D01*
X80129539Y-90016554D01*
X80065892Y-89999500D01*
X79934108Y-89999500D01*
X79806812Y-90033608D01*
X79692686Y-90099500D01*
X79692683Y-90099502D01*
X79599502Y-90192683D01*
X79599500Y-90192686D01*
X79533608Y-90306812D01*
X79499500Y-90434108D01*
X79499500Y-90524165D01*
X79490856Y-90553601D01*
X79484333Y-90583591D01*
X79480577Y-90588608D01*
X79479815Y-90591204D01*
X79463182Y-90611846D01*
X79371171Y-90703858D01*
X79371168Y-90703859D01*
X79305935Y-90769092D01*
X79305900Y-90769131D01*
X79252377Y-90822654D01*
X79105803Y-91013674D01*
X79105792Y-91013690D01*
X78985405Y-91222206D01*
X78985404Y-91222207D01*
X78893253Y-91444677D01*
X78830930Y-91677268D01*
X78799500Y-91915998D01*
X78799500Y-92275728D01*
X78779815Y-92342767D01*
X78731796Y-92386212D01*
X78661659Y-92421949D01*
X78661652Y-92421954D01*
X78571954Y-92511652D01*
X78571951Y-92511657D01*
X78514352Y-92624698D01*
X78499500Y-92718475D01*
X78499500Y-93110992D01*
X78499307Y-93111648D01*
X78499493Y-93112307D01*
X78489480Y-93145115D01*
X78479815Y-93178031D01*
X78479231Y-93178697D01*
X78479098Y-93179134D01*
X78455704Y-93205561D01*
X78455467Y-93205762D01*
X78440054Y-93216920D01*
X78407844Y-93236659D01*
X78342729Y-93276561D01*
X78325395Y-93285394D01*
X78219938Y-93329076D01*
X78201432Y-93335089D01*
X78090442Y-93361735D01*
X78071225Y-93364779D01*
X77970631Y-93372696D01*
X77952566Y-93374118D01*
X77942839Y-93374500D01*
X77749272Y-93374500D01*
X77682233Y-93354815D01*
X77638788Y-93306796D01*
X77609848Y-93250000D01*
X77603050Y-93236658D01*
X77603047Y-93236655D01*
X77603045Y-93236652D01*
X77513347Y-93146954D01*
X77513344Y-93146952D01*
X77513342Y-93146950D01*
X77432453Y-93105735D01*
X77400301Y-93089352D01*
X77306524Y-93074500D01*
X76693482Y-93074500D01*
X76612519Y-93087323D01*
X76599696Y-93089354D01*
X76486658Y-93146950D01*
X76486657Y-93146951D01*
X76486652Y-93146954D01*
X76396954Y-93236652D01*
X76396951Y-93236657D01*
X76396950Y-93236658D01*
X76390152Y-93250000D01*
X76339352Y-93349698D01*
X76324500Y-93443475D01*
X76324500Y-93906517D01*
X76330372Y-93943590D01*
X76339354Y-94000304D01*
X76396950Y-94113342D01*
X76396952Y-94113344D01*
X76396954Y-94113347D01*
X76486652Y-94203045D01*
X76486654Y-94203046D01*
X76486658Y-94203050D01*
X76535612Y-94227993D01*
X76586408Y-94275968D01*
X76603203Y-94343789D01*
X76580665Y-94409924D01*
X76525950Y-94453375D01*
X76516208Y-94456863D01*
X76435603Y-94481981D01*
X76290122Y-94569927D01*
X76169927Y-94690122D01*
X76081980Y-94835604D01*
X76031409Y-94997893D01*
X76025000Y-95068427D01*
X70763469Y-95068427D01*
X70818838Y-94861789D01*
X70850500Y-94621288D01*
X70850500Y-94378712D01*
X70818838Y-94138211D01*
X70756054Y-93903900D01*
X70663224Y-93679788D01*
X70541936Y-93469711D01*
X70449847Y-93349698D01*
X70394266Y-93277263D01*
X70394260Y-93277256D01*
X70222743Y-93105739D01*
X70222736Y-93105733D01*
X70030293Y-92958067D01*
X70030292Y-92958066D01*
X70030289Y-92958064D01*
X69820212Y-92836776D01*
X69820205Y-92836773D01*
X69596104Y-92743947D01*
X69361785Y-92681161D01*
X69121289Y-92649500D01*
X69121288Y-92649500D01*
X68878712Y-92649500D01*
X68878711Y-92649500D01*
X68638214Y-92681161D01*
X68403895Y-92743947D01*
X68179794Y-92836773D01*
X68179785Y-92836777D01*
X67969706Y-92958067D01*
X67777263Y-93105733D01*
X67777256Y-93105739D01*
X67605739Y-93277256D01*
X67605733Y-93277263D01*
X67458067Y-93469706D01*
X67336777Y-93679785D01*
X67336773Y-93679794D01*
X67243947Y-93903895D01*
X67181161Y-94138214D01*
X67149500Y-94378711D01*
X65500500Y-94378711D01*
X65500500Y-81445730D01*
X68299500Y-81445730D01*
X68299500Y-82054269D01*
X68302353Y-82084699D01*
X68302353Y-82084701D01*
X68347206Y-82212880D01*
X68347207Y-82212882D01*
X68427850Y-82322150D01*
X68537118Y-82402793D01*
X68579845Y-82417744D01*
X68665299Y-82447646D01*
X68695730Y-82450500D01*
X68695734Y-82450500D01*
X69304270Y-82450500D01*
X69334699Y-82447646D01*
X69334701Y-82447646D01*
X69398790Y-82425219D01*
X69462882Y-82402793D01*
X69572150Y-82322150D01*
X69652793Y-82212882D01*
X69675219Y-82148790D01*
X69697646Y-82084701D01*
X69697646Y-82084699D01*
X69700500Y-82054269D01*
X69700500Y-81775833D01*
X69709143Y-81746396D01*
X69715667Y-81716407D01*
X69719422Y-81711389D01*
X69720185Y-81708794D01*
X69736818Y-81688152D01*
X69751499Y-81673471D01*
X69813096Y-81611875D01*
X69834055Y-81590916D01*
X69841180Y-81584330D01*
X69946978Y-81493970D01*
X69962712Y-81482538D01*
X70077178Y-81412394D01*
X70094503Y-81403567D01*
X70218530Y-81352195D01*
X70237029Y-81346185D01*
X70367565Y-81314848D01*
X70386762Y-81311808D01*
X70525635Y-81300881D01*
X70535356Y-81300500D01*
X70577918Y-81300501D01*
X70577921Y-81300500D01*
X70858952Y-81300500D01*
X70925991Y-81320185D01*
X70962053Y-81355608D01*
X70965917Y-81361390D01*
X71005447Y-81420552D01*
X71071769Y-81464867D01*
X71071770Y-81464868D01*
X71130247Y-81476499D01*
X71130250Y-81476500D01*
X71130252Y-81476500D01*
X72693750Y-81476500D01*
X72693751Y-81476499D01*
X72708568Y-81473552D01*
X72752229Y-81464868D01*
X72752229Y-81464867D01*
X72752231Y-81464867D01*
X72818552Y-81420552D01*
X72822062Y-81415300D01*
X72861409Y-81356413D01*
X72915021Y-81311607D01*
X72984346Y-81302900D01*
X73026511Y-81317916D01*
X73057874Y-81336023D01*
X73101814Y-81361392D01*
X73229108Y-81395500D01*
X73229110Y-81395500D01*
X73360889Y-81395500D01*
X73360892Y-81395500D01*
X73488186Y-81361392D01*
X73488190Y-81361389D01*
X73493406Y-81359992D01*
X73563256Y-81361655D01*
X73621119Y-81400817D01*
X73648623Y-81465046D01*
X73649500Y-81479767D01*
X73649500Y-83713892D01*
X73629815Y-83780931D01*
X73577011Y-83826686D01*
X73507853Y-83836630D01*
X73493407Y-83833667D01*
X73423183Y-83814851D01*
X73365892Y-83799500D01*
X73234108Y-83799500D01*
X73106812Y-83833608D01*
X72992686Y-83899500D01*
X72992683Y-83899502D01*
X72899502Y-83992683D01*
X72899498Y-83992689D01*
X72854986Y-84069784D01*
X72804418Y-84117998D01*
X72735811Y-84131220D01*
X72723410Y-84129400D01*
X72693748Y-84123500D01*
X72381987Y-84123500D01*
X72314948Y-84103815D01*
X72269193Y-84051011D01*
X72259249Y-83981853D01*
X72288274Y-83918297D01*
X72306497Y-83901127D01*
X72307309Y-83900502D01*
X72307314Y-83900500D01*
X72400500Y-83807314D01*
X72466392Y-83693186D01*
X72500500Y-83565892D01*
X72500500Y-83434108D01*
X72466392Y-83306814D01*
X72400500Y-83192686D01*
X72307314Y-83099500D01*
X72250250Y-83066554D01*
X72193187Y-83033608D01*
X72129539Y-83016554D01*
X72065892Y-82999500D01*
X71934108Y-82999500D01*
X71806812Y-83033608D01*
X71692686Y-83099500D01*
X71692683Y-83099502D01*
X71629005Y-83163181D01*
X71567682Y-83196666D01*
X71541324Y-83199500D01*
X70232941Y-83199500D01*
X70232754Y-83199511D01*
X70176729Y-83199511D01*
X70176728Y-83199511D01*
X70176724Y-83199511D01*
X70073996Y-83213033D01*
X69971264Y-83226555D01*
X69771110Y-83280183D01*
X69579651Y-83359485D01*
X69579647Y-83359487D01*
X69400183Y-83463098D01*
X69320977Y-83523876D01*
X69255808Y-83549070D01*
X69245491Y-83549500D01*
X68695730Y-83549500D01*
X68665300Y-83552353D01*
X68665298Y-83552353D01*
X68537119Y-83597206D01*
X68537117Y-83597207D01*
X68427850Y-83677850D01*
X68347207Y-83787117D01*
X68347206Y-83787119D01*
X68302353Y-83915298D01*
X68302353Y-83915300D01*
X68299500Y-83945730D01*
X68299500Y-84554269D01*
X68302353Y-84584699D01*
X68302353Y-84584701D01*
X68343499Y-84702286D01*
X68347207Y-84712882D01*
X68427850Y-84822150D01*
X68537118Y-84902793D01*
X68579845Y-84917744D01*
X68665299Y-84947646D01*
X68695730Y-84950500D01*
X68695734Y-84950500D01*
X69304270Y-84950500D01*
X69334699Y-84947646D01*
X69334701Y-84947646D01*
X69400804Y-84924515D01*
X69462882Y-84902793D01*
X69572150Y-84822150D01*
X69652793Y-84712882D01*
X69687215Y-84614509D01*
X69697646Y-84584701D01*
X69697646Y-84584699D01*
X69700500Y-84554269D01*
X69700500Y-84059466D01*
X69703425Y-84049503D01*
X69702168Y-84039194D01*
X69713101Y-84016549D01*
X69720185Y-83992427D01*
X69728839Y-83983955D01*
X69732548Y-83976275D01*
X69759710Y-83953739D01*
X69791745Y-83934108D01*
X69827173Y-83912397D01*
X69844503Y-83903567D01*
X69968530Y-83852195D01*
X69987029Y-83846185D01*
X70117565Y-83814848D01*
X70136762Y-83811808D01*
X70275635Y-83800881D01*
X70285354Y-83800500D01*
X70327918Y-83800501D01*
X70327921Y-83800500D01*
X71541324Y-83800500D01*
X71608363Y-83820185D01*
X71629005Y-83836819D01*
X71692686Y-83900500D01*
X71693503Y-83901127D01*
X71694017Y-83901831D01*
X71698433Y-83906247D01*
X71697744Y-83906935D01*
X71734704Y-83957556D01*
X71738856Y-84027303D01*
X71704641Y-84088222D01*
X71642923Y-84120972D01*
X71618013Y-84123500D01*
X71130247Y-84123500D01*
X71071770Y-84135131D01*
X71071769Y-84135132D01*
X71005447Y-84179447D01*
X70961132Y-84245769D01*
X70961131Y-84245770D01*
X70949500Y-84304247D01*
X70949500Y-85105752D01*
X70961131Y-85164229D01*
X70961132Y-85164230D01*
X71005447Y-85230552D01*
X71071769Y-85274867D01*
X71071770Y-85274868D01*
X71130247Y-85286499D01*
X71130250Y-85286500D01*
X71130252Y-85286500D01*
X72693750Y-85286500D01*
X72693751Y-85286499D01*
X72708568Y-85283552D01*
X72752229Y-85274868D01*
X72752229Y-85274867D01*
X72752231Y-85274867D01*
X72818552Y-85230552D01*
X72862867Y-85164231D01*
X72862867Y-85164229D01*
X72862868Y-85164229D01*
X72874499Y-85105752D01*
X72874500Y-85105750D01*
X72874500Y-85060248D01*
X72879493Y-85043242D01*
X72879463Y-85025517D01*
X72889133Y-85010412D01*
X72894185Y-84993209D01*
X72907607Y-84981557D01*
X72917137Y-84966674D01*
X72939017Y-84954293D01*
X72946795Y-84947542D01*
X72953327Y-84944545D01*
X72989375Y-84932832D01*
X73084371Y-84884427D01*
X73086668Y-84883374D01*
X73118818Y-84878695D01*
X73150745Y-84872699D01*
X73153193Y-84873692D01*
X73155810Y-84873312D01*
X73185389Y-84886759D01*
X73215486Y-84898974D01*
X73217008Y-84901134D01*
X73219415Y-84902228D01*
X73237028Y-84929531D01*
X73255744Y-84956080D01*
X73255857Y-84958719D01*
X73257290Y-84960941D01*
X73257345Y-84993425D01*
X73258738Y-85025885D01*
X73257406Y-85028651D01*
X73257410Y-85030811D01*
X73253208Y-85037373D01*
X73236754Y-85071560D01*
X73233913Y-85075262D01*
X73233906Y-85075272D01*
X73141371Y-85235552D01*
X73141370Y-85235554D01*
X73070547Y-85406541D01*
X73022651Y-85585305D01*
X73022650Y-85585309D01*
X72998499Y-85768783D01*
X72998498Y-85768803D01*
X72998500Y-85840100D01*
X72998500Y-87851355D01*
X72998509Y-87851504D01*
X72998509Y-87876848D01*
X72998509Y-87896202D01*
X73003604Y-87934905D01*
X73022662Y-88079695D01*
X73070557Y-88258453D01*
X73119300Y-88376133D01*
X73141382Y-88429445D01*
X73208242Y-88545252D01*
X73233918Y-88589725D01*
X73346577Y-88736546D01*
X73346582Y-88736552D01*
X73363181Y-88753151D01*
X73396666Y-88814474D01*
X73399500Y-88840832D01*
X73399500Y-89284752D01*
X73411131Y-89343229D01*
X73411132Y-89343230D01*
X73455447Y-89409552D01*
X73521769Y-89453867D01*
X73521770Y-89453868D01*
X73580247Y-89465499D01*
X73580250Y-89465500D01*
X74163444Y-89465500D01*
X74230483Y-89485185D01*
X74262710Y-89515189D01*
X74342809Y-89622187D01*
X74342812Y-89622190D01*
X74457906Y-89708350D01*
X74457913Y-89708354D01*
X74592620Y-89758596D01*
X74592627Y-89758598D01*
X74652155Y-89764999D01*
X74652172Y-89765000D01*
X74800000Y-89765000D01*
X75300000Y-89765000D01*
X75447828Y-89765000D01*
X75447844Y-89764999D01*
X75507372Y-89758598D01*
X75507379Y-89758596D01*
X75642086Y-89708354D01*
X75642093Y-89708350D01*
X75757187Y-89622190D01*
X75757190Y-89622187D01*
X75843350Y-89507093D01*
X75843354Y-89507086D01*
X75893596Y-89372379D01*
X75893598Y-89372372D01*
X75899999Y-89312844D01*
X75900000Y-89312827D01*
X75900000Y-89165000D01*
X75300000Y-89165000D01*
X75300000Y-89765000D01*
X74800000Y-89765000D01*
X74800000Y-88665000D01*
X75300000Y-88665000D01*
X75900000Y-88665000D01*
X75900000Y-88517172D01*
X75899999Y-88517155D01*
X75893598Y-88457627D01*
X75893596Y-88457620D01*
X75843354Y-88322913D01*
X75843350Y-88322906D01*
X75757190Y-88207812D01*
X75757187Y-88207809D01*
X75642093Y-88121649D01*
X75642086Y-88121645D01*
X75507379Y-88071403D01*
X75507372Y-88071401D01*
X75447844Y-88065000D01*
X75300000Y-88065000D01*
X75300000Y-88665000D01*
X74800000Y-88665000D01*
X74800000Y-88065000D01*
X74652155Y-88065000D01*
X74592627Y-88071401D01*
X74592620Y-88071403D01*
X74457913Y-88121645D01*
X74457906Y-88121649D01*
X74342812Y-88207809D01*
X74342809Y-88207812D01*
X74262710Y-88314811D01*
X74206777Y-88356682D01*
X74163444Y-88364500D01*
X73883463Y-88364500D01*
X73883021Y-88364370D01*
X73882579Y-88364497D01*
X73849469Y-88354518D01*
X73816424Y-88344815D01*
X73815975Y-88344423D01*
X73815681Y-88344335D01*
X73789173Y-88321032D01*
X73760694Y-88287688D01*
X73749256Y-88271945D01*
X73747679Y-88269372D01*
X73692976Y-88180103D01*
X73684143Y-88162766D01*
X73642923Y-88063248D01*
X73636911Y-88044743D01*
X73634640Y-88035281D01*
X73611767Y-87940002D01*
X73608726Y-87920801D01*
X73599881Y-87808394D01*
X73599500Y-87798667D01*
X73599501Y-87759497D01*
X73619187Y-87692458D01*
X73671992Y-87646704D01*
X73723501Y-87635500D01*
X74319750Y-87635500D01*
X74319751Y-87635499D01*
X74334568Y-87632552D01*
X74378229Y-87623868D01*
X74378231Y-87623867D01*
X74431108Y-87588535D01*
X74497785Y-87567656D01*
X74565165Y-87586140D01*
X74568892Y-87588535D01*
X74621768Y-87623867D01*
X74621770Y-87623868D01*
X74680247Y-87635499D01*
X74680250Y-87635500D01*
X74680252Y-87635500D01*
X75419750Y-87635500D01*
X75419751Y-87635499D01*
X75434568Y-87632552D01*
X75478229Y-87623868D01*
X75478229Y-87623867D01*
X75478231Y-87623867D01*
X75544552Y-87579552D01*
X75588867Y-87513231D01*
X75596792Y-87473388D01*
X75629175Y-87411479D01*
X75661060Y-87393322D01*
X76731001Y-87393322D01*
X76741144Y-87492607D01*
X76794452Y-87653481D01*
X76794457Y-87653492D01*
X76883424Y-87797728D01*
X76883427Y-87797732D01*
X77003266Y-87917571D01*
X77103840Y-87979606D01*
X77150564Y-88031554D01*
X77161787Y-88100517D01*
X77133943Y-88164599D01*
X77126426Y-88172825D01*
X77107473Y-88191778D01*
X77046279Y-88311878D01*
X77030500Y-88411506D01*
X77030500Y-88928493D01*
X77046279Y-89028121D01*
X77046280Y-89028124D01*
X77046281Y-89028126D01*
X77107472Y-89148220D01*
X77194577Y-89235325D01*
X77228061Y-89296646D01*
X77226670Y-89355097D01*
X77205500Y-89434106D01*
X77205500Y-89565891D01*
X77239608Y-89693187D01*
X77248363Y-89708350D01*
X77305500Y-89807314D01*
X77398686Y-89900500D01*
X77512814Y-89966392D01*
X77640108Y-90000500D01*
X77640110Y-90000500D01*
X77771890Y-90000500D01*
X77771892Y-90000500D01*
X77899186Y-89966392D01*
X78013314Y-89900500D01*
X78106500Y-89807314D01*
X78172392Y-89693186D01*
X78206500Y-89565892D01*
X78206500Y-89434108D01*
X78185329Y-89355096D01*
X78186992Y-89285249D01*
X78217422Y-89235325D01*
X78304528Y-89148220D01*
X78365719Y-89028126D01*
X78366481Y-89023314D01*
X78381500Y-88928493D01*
X78381500Y-88411506D01*
X78365720Y-88311878D01*
X78365719Y-88311876D01*
X78365719Y-88311874D01*
X78304528Y-88191780D01*
X78304526Y-88191778D01*
X78304523Y-88191774D01*
X78285575Y-88172826D01*
X78252090Y-88111503D01*
X78257074Y-88041811D01*
X78298946Y-87985878D01*
X78308160Y-87979606D01*
X78408731Y-87917573D01*
X78528572Y-87797732D01*
X78528575Y-87797728D01*
X78617542Y-87653492D01*
X78617547Y-87653481D01*
X78670855Y-87492606D01*
X78680999Y-87393322D01*
X78681000Y-87393309D01*
X78681000Y-87370000D01*
X76731001Y-87370000D01*
X76731001Y-87393322D01*
X75661060Y-87393322D01*
X75689891Y-87376904D01*
X75702218Y-87374641D01*
X75807946Y-87360723D01*
X75912113Y-87332812D01*
X75991189Y-87311626D01*
X75991191Y-87311624D01*
X75991195Y-87311624D01*
X76166468Y-87239027D01*
X76166477Y-87239022D01*
X76214582Y-87211250D01*
X76330756Y-87144179D01*
X76330757Y-87144177D01*
X76330766Y-87144173D01*
X76481278Y-87028687D01*
X76513308Y-86996658D01*
X76513331Y-86996639D01*
X76520385Y-86989585D01*
X76520387Y-86989584D01*
X76563096Y-86946875D01*
X76582010Y-86927963D01*
X76582010Y-86927961D01*
X76592208Y-86917765D01*
X76592224Y-86917745D01*
X76603654Y-86906315D01*
X76664978Y-86872833D01*
X76691331Y-86870000D01*
X78680999Y-86870000D01*
X78680999Y-86846692D01*
X78680998Y-86846677D01*
X78670855Y-86747392D01*
X78617547Y-86586518D01*
X78617542Y-86586507D01*
X78557767Y-86489597D01*
X78539326Y-86422205D01*
X78560248Y-86355541D01*
X78613890Y-86310771D01*
X78663305Y-86300500D01*
X81391740Y-86300500D01*
X81435850Y-86300500D01*
X81442804Y-86300695D01*
X81466678Y-86302036D01*
X81685445Y-86314324D01*
X81699247Y-86315880D01*
X81748593Y-86324264D01*
X81811387Y-86354901D01*
X81847649Y-86414623D01*
X81845867Y-86484470D01*
X81815502Y-86534193D01*
X81707424Y-86642271D01*
X81618457Y-86786507D01*
X81618452Y-86786518D01*
X81565144Y-86947393D01*
X81555000Y-87046677D01*
X81555000Y-87070000D01*
X82406000Y-87070000D01*
X82473039Y-87089685D01*
X82518794Y-87142489D01*
X82530000Y-87194000D01*
X82530000Y-87446000D01*
X82510315Y-87513039D01*
X82457511Y-87558794D01*
X82406000Y-87570000D01*
X81555001Y-87570000D01*
X81555001Y-87593322D01*
X81565144Y-87692607D01*
X81618452Y-87853481D01*
X81618457Y-87853492D01*
X81698516Y-87983286D01*
X81716957Y-88050678D01*
X81696035Y-88117342D01*
X81642393Y-88162111D01*
X81573062Y-88170773D01*
X81569099Y-88169922D01*
X81565893Y-88169500D01*
X81565892Y-88169500D01*
X81434108Y-88169500D01*
X81306812Y-88203608D01*
X81192686Y-88269500D01*
X81192683Y-88269502D01*
X81099502Y-88362683D01*
X81099500Y-88362686D01*
X81033608Y-88476812D01*
X81022794Y-88517172D01*
X80999500Y-88604108D01*
X80999500Y-88735892D01*
X81004125Y-88753152D01*
X81033608Y-88863187D01*
X81066554Y-88920250D01*
X81099500Y-88977314D01*
X81192686Y-89070500D01*
X81306814Y-89136392D01*
X81434108Y-89170500D01*
X81434110Y-89170500D01*
X81565890Y-89170500D01*
X81565892Y-89170500D01*
X81693186Y-89136392D01*
X81693193Y-89136387D01*
X81700419Y-89133395D01*
X81769889Y-89125925D01*
X81832369Y-89157198D01*
X81868022Y-89217286D01*
X81870223Y-89227949D01*
X81870278Y-89228119D01*
X81870280Y-89228124D01*
X81870281Y-89228126D01*
X81928930Y-89343231D01*
X81931473Y-89348221D01*
X81931476Y-89348225D01*
X82026774Y-89443523D01*
X82026778Y-89443526D01*
X82026780Y-89443528D01*
X82146874Y-89504719D01*
X82146876Y-89504719D01*
X82146878Y-89504720D01*
X82246507Y-89520500D01*
X82246512Y-89520500D01*
X82813493Y-89520500D01*
X82913121Y-89504720D01*
X82913121Y-89504719D01*
X82913126Y-89504719D01*
X83033220Y-89443528D01*
X83128528Y-89348220D01*
X83189719Y-89228126D01*
X83191436Y-89217286D01*
X83205500Y-89128493D01*
X83205500Y-88611506D01*
X83189720Y-88511878D01*
X83189719Y-88511876D01*
X83189719Y-88511874D01*
X83128528Y-88391780D01*
X83128526Y-88391778D01*
X83128523Y-88391774D01*
X83109575Y-88372826D01*
X83076090Y-88311503D01*
X83081074Y-88241811D01*
X83122946Y-88185878D01*
X83132160Y-88179606D01*
X83232731Y-88117573D01*
X83352572Y-87997732D01*
X83352575Y-87997728D01*
X83441542Y-87853492D01*
X83441547Y-87853481D01*
X83457794Y-87804452D01*
X83497566Y-87747007D01*
X83562082Y-87720184D01*
X83630858Y-87732499D01*
X83682058Y-87780042D01*
X83699500Y-87843456D01*
X83699500Y-88032869D01*
X83705287Y-88050678D01*
X83716013Y-88083689D01*
X83719979Y-88098489D01*
X83721907Y-88101828D01*
X83725393Y-88112556D01*
X83725393Y-88112559D01*
X83730625Y-88128663D01*
X83730628Y-88128670D01*
X83789836Y-88210163D01*
X83879226Y-88275108D01*
X83879118Y-88275256D01*
X83901672Y-88291643D01*
X84363181Y-88753152D01*
X84396666Y-88814475D01*
X84399500Y-88840833D01*
X84399500Y-89284752D01*
X84411131Y-89343229D01*
X84411132Y-89343230D01*
X84455447Y-89409552D01*
X84521769Y-89453867D01*
X84521770Y-89453868D01*
X84580247Y-89465499D01*
X84580250Y-89465500D01*
X85163444Y-89465500D01*
X85230483Y-89485185D01*
X85262710Y-89515189D01*
X85342809Y-89622187D01*
X85342812Y-89622190D01*
X85457906Y-89708350D01*
X85457913Y-89708354D01*
X85592620Y-89758596D01*
X85592627Y-89758598D01*
X85652155Y-89764999D01*
X85652172Y-89765000D01*
X85800000Y-89765000D01*
X86300000Y-89765000D01*
X86447828Y-89765000D01*
X86447844Y-89764999D01*
X86507372Y-89758598D01*
X86507379Y-89758596D01*
X86642086Y-89708354D01*
X86642093Y-89708350D01*
X86757187Y-89622190D01*
X86757190Y-89622187D01*
X86843350Y-89507093D01*
X86843354Y-89507086D01*
X86893596Y-89372379D01*
X86893598Y-89372372D01*
X86899999Y-89312844D01*
X86900000Y-89312827D01*
X86900000Y-89165000D01*
X86300000Y-89165000D01*
X86300000Y-89765000D01*
X85800000Y-89765000D01*
X85800000Y-88665000D01*
X86300000Y-88665000D01*
X86900000Y-88665000D01*
X86900000Y-88517172D01*
X86899999Y-88517155D01*
X86893598Y-88457627D01*
X86893596Y-88457620D01*
X86843354Y-88322913D01*
X86843350Y-88322906D01*
X86757190Y-88207812D01*
X86757187Y-88207809D01*
X86642093Y-88121649D01*
X86642086Y-88121645D01*
X86507379Y-88071403D01*
X86507372Y-88071401D01*
X86447844Y-88065000D01*
X86300000Y-88065000D01*
X86300000Y-88665000D01*
X85800000Y-88665000D01*
X85800000Y-88065000D01*
X85652155Y-88065000D01*
X85592627Y-88071401D01*
X85592620Y-88071403D01*
X85457913Y-88121645D01*
X85457906Y-88121649D01*
X85342812Y-88207809D01*
X85342809Y-88207812D01*
X85262710Y-88314811D01*
X85206777Y-88356682D01*
X85163444Y-88364500D01*
X84875833Y-88364500D01*
X84808794Y-88344815D01*
X84788152Y-88328181D01*
X84336819Y-87876848D01*
X84322115Y-87849920D01*
X84305523Y-87824102D01*
X84304631Y-87817901D01*
X84303334Y-87815525D01*
X84300500Y-87789167D01*
X84300500Y-87708007D01*
X84320185Y-87640968D01*
X84372989Y-87595213D01*
X84442147Y-87585269D01*
X84493392Y-87604906D01*
X84521768Y-87623867D01*
X84521770Y-87623868D01*
X84580247Y-87635499D01*
X84580250Y-87635500D01*
X84580252Y-87635500D01*
X85319750Y-87635500D01*
X85319751Y-87635499D01*
X85334568Y-87632552D01*
X85378229Y-87623868D01*
X85378231Y-87623867D01*
X85431108Y-87588535D01*
X85497785Y-87567656D01*
X85565165Y-87586140D01*
X85568892Y-87588535D01*
X85621768Y-87623867D01*
X85621770Y-87623868D01*
X85680247Y-87635499D01*
X85680250Y-87635500D01*
X85680252Y-87635500D01*
X86419750Y-87635500D01*
X86419751Y-87635499D01*
X86434568Y-87632552D01*
X86478229Y-87623868D01*
X86478229Y-87623867D01*
X86478231Y-87623867D01*
X86544552Y-87579552D01*
X86588867Y-87513231D01*
X86588867Y-87513229D01*
X86588868Y-87513229D01*
X86600499Y-87454752D01*
X86600500Y-87454750D01*
X86600500Y-86715249D01*
X86600499Y-86715247D01*
X86588868Y-86656770D01*
X86588867Y-86656769D01*
X86544552Y-86590447D01*
X86478230Y-86546132D01*
X86478229Y-86546131D01*
X86419752Y-86534500D01*
X86419748Y-86534500D01*
X86177833Y-86534500D01*
X86110794Y-86514815D01*
X86090152Y-86498181D01*
X85730091Y-86138120D01*
X85715350Y-86123378D01*
X85715349Y-86123377D01*
X85709820Y-86117474D01*
X85581804Y-85971499D01*
X85571931Y-85958631D01*
X85466340Y-85800602D01*
X85458230Y-85786556D01*
X85415300Y-85699503D01*
X85374162Y-85616083D01*
X85367960Y-85601112D01*
X85340498Y-85520211D01*
X85337591Y-85450405D01*
X85372885Y-85390105D01*
X85435177Y-85358459D01*
X85498794Y-85364916D01*
X85498963Y-85364288D01*
X85502842Y-85365327D01*
X85504690Y-85365515D01*
X85505365Y-85365792D01*
X85506810Y-85366390D01*
X85506811Y-85366390D01*
X85506814Y-85366392D01*
X85634108Y-85400500D01*
X85634110Y-85400500D01*
X85765890Y-85400500D01*
X85765892Y-85400500D01*
X85893186Y-85366392D01*
X86007314Y-85300500D01*
X86065995Y-85241819D01*
X86127318Y-85208334D01*
X86153676Y-85205500D01*
X87209795Y-85205500D01*
X87276834Y-85225185D01*
X87322589Y-85277989D01*
X87331412Y-85305309D01*
X87343131Y-85364229D01*
X87343132Y-85364230D01*
X87387447Y-85430552D01*
X87453769Y-85474867D01*
X87453770Y-85474868D01*
X87512247Y-85486499D01*
X87512250Y-85486500D01*
X87512252Y-85486500D01*
X89075750Y-85486500D01*
X89075751Y-85486499D01*
X89090568Y-85483552D01*
X89134229Y-85474868D01*
X89134229Y-85474867D01*
X89134231Y-85474867D01*
X89200552Y-85430552D01*
X89244867Y-85364231D01*
X89244867Y-85364229D01*
X89244868Y-85364229D01*
X89255304Y-85311761D01*
X89256500Y-85305748D01*
X89256500Y-84614509D01*
X89276185Y-84547470D01*
X89328989Y-84501715D01*
X89398147Y-84491771D01*
X89412581Y-84494731D01*
X89434108Y-84500500D01*
X89434110Y-84500500D01*
X89565890Y-84500500D01*
X89565892Y-84500500D01*
X89693186Y-84466392D01*
X89807314Y-84400500D01*
X89870995Y-84336819D01*
X89897922Y-84322115D01*
X89923741Y-84305523D01*
X89929941Y-84304631D01*
X89932318Y-84303334D01*
X89958676Y-84300500D01*
X90175500Y-84300500D01*
X90242539Y-84320185D01*
X90288294Y-84372989D01*
X90299500Y-84424500D01*
X90299500Y-84554269D01*
X90302353Y-84584699D01*
X90302353Y-84584701D01*
X90343499Y-84702286D01*
X90347207Y-84712882D01*
X90427850Y-84822150D01*
X90537118Y-84902793D01*
X90579845Y-84917744D01*
X90665299Y-84947646D01*
X90695730Y-84950500D01*
X90695734Y-84950500D01*
X91304270Y-84950500D01*
X91334699Y-84947646D01*
X91334701Y-84947646D01*
X91400804Y-84924515D01*
X91462882Y-84902793D01*
X91572150Y-84822150D01*
X91652793Y-84712882D01*
X91687215Y-84614509D01*
X91697646Y-84584701D01*
X91697646Y-84584699D01*
X91700500Y-84554269D01*
X91700500Y-83945730D01*
X91697646Y-83915300D01*
X91697646Y-83915298D01*
X91661432Y-83811807D01*
X91652793Y-83787118D01*
X91572150Y-83677850D01*
X91462882Y-83597207D01*
X91462880Y-83597206D01*
X91334700Y-83552353D01*
X91304270Y-83549500D01*
X91304266Y-83549500D01*
X90695734Y-83549500D01*
X90695730Y-83549500D01*
X90665300Y-83552353D01*
X90665298Y-83552353D01*
X90537119Y-83597206D01*
X90537113Y-83597209D01*
X90431345Y-83675270D01*
X90365716Y-83699241D01*
X90357712Y-83699500D01*
X89958676Y-83699500D01*
X89891637Y-83679815D01*
X89870995Y-83663181D01*
X89807316Y-83599502D01*
X89807314Y-83599500D01*
X89725655Y-83552354D01*
X89693187Y-83533608D01*
X89629539Y-83516554D01*
X89565892Y-83499500D01*
X89434108Y-83499500D01*
X89306812Y-83533608D01*
X89192686Y-83599500D01*
X89192683Y-83599502D01*
X89099502Y-83692683D01*
X89099500Y-83692686D01*
X89033608Y-83806812D01*
X88999500Y-83934108D01*
X88999500Y-84065892D01*
X89018052Y-84135131D01*
X89026701Y-84167407D01*
X89025038Y-84237257D01*
X88985875Y-84295119D01*
X88921647Y-84322623D01*
X88906926Y-84323500D01*
X87512247Y-84323500D01*
X87453770Y-84335131D01*
X87453769Y-84335132D01*
X87387447Y-84379447D01*
X87343132Y-84445769D01*
X87343131Y-84445770D01*
X87331412Y-84504691D01*
X87299027Y-84566602D01*
X87238312Y-84601176D01*
X87209795Y-84604500D01*
X86163677Y-84604500D01*
X86096638Y-84584815D01*
X86075996Y-84568182D01*
X86041922Y-84534108D01*
X86007314Y-84499500D01*
X85936624Y-84458687D01*
X85893187Y-84433608D01*
X85793188Y-84406814D01*
X85765892Y-84399500D01*
X85634108Y-84399500D01*
X85506814Y-84433608D01*
X85506813Y-84433608D01*
X85506811Y-84433609D01*
X85506810Y-84433609D01*
X85436500Y-84474203D01*
X85368600Y-84490676D01*
X85302573Y-84467823D01*
X85259382Y-84412902D01*
X85250500Y-84366816D01*
X85250500Y-81034108D01*
X86499500Y-81034108D01*
X86499500Y-81165892D01*
X86509259Y-81202313D01*
X86533608Y-81293187D01*
X86544801Y-81312573D01*
X86599500Y-81407314D01*
X86692686Y-81500500D01*
X86764793Y-81542131D01*
X86806810Y-81566390D01*
X86806814Y-81566392D01*
X86934108Y-81600500D01*
X86934110Y-81600500D01*
X87065890Y-81600500D01*
X87065892Y-81600500D01*
X87193186Y-81566392D01*
X87206672Y-81558606D01*
X87274572Y-81542131D01*
X87340599Y-81564982D01*
X87371776Y-81597099D01*
X87381650Y-81611875D01*
X87387448Y-81620552D01*
X87453769Y-81664867D01*
X87453770Y-81664868D01*
X87512247Y-81676499D01*
X87512250Y-81676500D01*
X87512252Y-81676500D01*
X89075750Y-81676500D01*
X89075751Y-81676499D01*
X89090976Y-81673471D01*
X89134229Y-81664868D01*
X89134229Y-81664867D01*
X89134231Y-81664867D01*
X89200552Y-81620552D01*
X89244867Y-81554231D01*
X89244867Y-81554229D01*
X89244868Y-81554229D01*
X89256588Y-81495309D01*
X89288973Y-81433398D01*
X89349688Y-81398824D01*
X89378205Y-81395500D01*
X89743918Y-81395500D01*
X89756073Y-81396097D01*
X89778780Y-81398333D01*
X89865741Y-81406900D01*
X89889576Y-81411641D01*
X89989172Y-81441856D01*
X90011615Y-81451151D01*
X90103415Y-81500220D01*
X90123621Y-81513723D01*
X90208873Y-81583689D01*
X90217886Y-81591858D01*
X90237904Y-81611875D01*
X90263181Y-81637152D01*
X90296666Y-81698475D01*
X90299500Y-81724833D01*
X90299500Y-82054269D01*
X90302353Y-82084699D01*
X90302353Y-82084701D01*
X90347206Y-82212880D01*
X90347207Y-82212882D01*
X90427850Y-82322150D01*
X90537118Y-82402793D01*
X90579845Y-82417744D01*
X90665299Y-82447646D01*
X90695730Y-82450500D01*
X90695734Y-82450500D01*
X91304270Y-82450500D01*
X91334699Y-82447646D01*
X91334701Y-82447646D01*
X91398790Y-82425219D01*
X91462882Y-82402793D01*
X91572150Y-82322150D01*
X91652793Y-82212882D01*
X91675219Y-82148790D01*
X91697646Y-82084701D01*
X91697646Y-82084699D01*
X91700500Y-82054269D01*
X91700500Y-81445730D01*
X91697646Y-81415300D01*
X91697646Y-81415298D01*
X91657476Y-81300501D01*
X91652793Y-81287118D01*
X91572150Y-81177850D01*
X91462882Y-81097207D01*
X91462880Y-81097206D01*
X91334700Y-81052353D01*
X91304270Y-81049500D01*
X91304266Y-81049500D01*
X90695734Y-81049500D01*
X90695730Y-81049500D01*
X90665305Y-81052353D01*
X90665298Y-81052354D01*
X90623917Y-81066834D01*
X90554138Y-81070395D01*
X90510079Y-81050110D01*
X90408552Y-80976346D01*
X90272085Y-80906812D01*
X90232341Y-80886561D01*
X90044249Y-80825444D01*
X90044247Y-80825443D01*
X90044245Y-80825443D01*
X89848908Y-80794501D01*
X89848912Y-80794501D01*
X89789585Y-80794500D01*
X89789584Y-80794500D01*
X89789582Y-80794500D01*
X89750026Y-80794500D01*
X89702432Y-80794499D01*
X89702429Y-80794500D01*
X89378205Y-80794500D01*
X89311166Y-80774815D01*
X89265411Y-80722011D01*
X89256588Y-80694691D01*
X89244868Y-80635770D01*
X89244867Y-80635769D01*
X89200552Y-80569447D01*
X89134230Y-80525132D01*
X89134229Y-80525131D01*
X89075752Y-80513500D01*
X89075748Y-80513500D01*
X87512252Y-80513500D01*
X87512247Y-80513500D01*
X87453770Y-80525131D01*
X87453769Y-80525132D01*
X87387447Y-80569448D01*
X87366953Y-80600118D01*
X87313340Y-80644921D01*
X87244015Y-80653627D01*
X87201854Y-80638612D01*
X87193188Y-80633608D01*
X87108323Y-80610869D01*
X87065892Y-80599500D01*
X86934108Y-80599500D01*
X86806812Y-80633608D01*
X86692686Y-80699500D01*
X86692683Y-80699502D01*
X86599502Y-80792683D01*
X86599500Y-80792686D01*
X86533608Y-80906812D01*
X86519118Y-80960891D01*
X86499500Y-81034108D01*
X85250500Y-81034108D01*
X85250500Y-79800807D01*
X85270185Y-79733768D01*
X85322989Y-79688013D01*
X85392147Y-79678069D01*
X85448814Y-79701542D01*
X85457913Y-79708354D01*
X85592620Y-79758596D01*
X85592627Y-79758598D01*
X85652155Y-79764999D01*
X85652172Y-79765000D01*
X85800000Y-79765000D01*
X86300000Y-79765000D01*
X86447828Y-79765000D01*
X86447844Y-79764999D01*
X86507372Y-79758598D01*
X86507379Y-79758596D01*
X86642086Y-79708354D01*
X86642093Y-79708350D01*
X86757187Y-79622190D01*
X86757190Y-79622187D01*
X86843350Y-79507093D01*
X86843354Y-79507086D01*
X86893596Y-79372379D01*
X86893598Y-79372372D01*
X86899999Y-79312844D01*
X86900000Y-79312827D01*
X86900000Y-79165000D01*
X86300000Y-79165000D01*
X86300000Y-79765000D01*
X85800000Y-79765000D01*
X85800000Y-78665000D01*
X86300000Y-78665000D01*
X86900000Y-78665000D01*
X86900000Y-78517172D01*
X86899999Y-78517155D01*
X86893598Y-78457627D01*
X86893596Y-78457620D01*
X86843354Y-78322913D01*
X86843350Y-78322906D01*
X86757190Y-78207812D01*
X86757187Y-78207809D01*
X86642093Y-78121649D01*
X86642086Y-78121645D01*
X86507379Y-78071403D01*
X86507372Y-78071401D01*
X86447844Y-78065000D01*
X86300000Y-78065000D01*
X86300000Y-78665000D01*
X85800000Y-78665000D01*
X85800000Y-78065000D01*
X85652155Y-78065000D01*
X85592627Y-78071401D01*
X85592620Y-78071403D01*
X85457913Y-78121645D01*
X85457906Y-78121649D01*
X85342812Y-78207809D01*
X85342809Y-78207812D01*
X85262710Y-78314811D01*
X85206777Y-78356682D01*
X85163444Y-78364500D01*
X84580247Y-78364500D01*
X84521770Y-78376131D01*
X84521769Y-78376132D01*
X84455447Y-78420447D01*
X84411132Y-78486769D01*
X84411131Y-78486770D01*
X84399500Y-78545247D01*
X84399500Y-79284752D01*
X84411131Y-79343229D01*
X84411132Y-79343230D01*
X84455447Y-79409552D01*
X84499762Y-79439162D01*
X84521769Y-79453867D01*
X84549690Y-79459421D01*
X84611601Y-79491804D01*
X84646176Y-79552519D01*
X84649500Y-79581038D01*
X84649500Y-80508892D01*
X84629815Y-80575931D01*
X84577011Y-80621686D01*
X84507853Y-80631630D01*
X84493407Y-80628667D01*
X84436462Y-80613409D01*
X84365892Y-80594500D01*
X84234108Y-80594500D01*
X84106812Y-80628608D01*
X83992686Y-80694500D01*
X83992683Y-80694502D01*
X83929005Y-80758181D01*
X83902077Y-80772884D01*
X83876259Y-80789477D01*
X83870058Y-80790368D01*
X83867682Y-80791666D01*
X83841324Y-80794500D01*
X83790205Y-80794500D01*
X83723166Y-80774815D01*
X83677411Y-80722011D01*
X83668588Y-80694691D01*
X83656868Y-80635770D01*
X83656867Y-80635769D01*
X83612552Y-80569447D01*
X83546230Y-80525132D01*
X83546229Y-80525131D01*
X83487752Y-80513500D01*
X83487748Y-80513500D01*
X81924252Y-80513500D01*
X81924247Y-80513500D01*
X81865770Y-80525131D01*
X81865769Y-80525132D01*
X81799447Y-80569447D01*
X81755132Y-80635769D01*
X81755131Y-80635770D01*
X81743500Y-80694247D01*
X81743500Y-81495752D01*
X81755131Y-81554229D01*
X81755132Y-81554230D01*
X81799447Y-81620552D01*
X81865769Y-81664867D01*
X81865770Y-81664868D01*
X81924247Y-81676499D01*
X81924250Y-81676500D01*
X81924252Y-81676500D01*
X83487750Y-81676500D01*
X83487751Y-81676499D01*
X83502976Y-81673471D01*
X83546229Y-81664868D01*
X83546229Y-81664867D01*
X83546231Y-81664867D01*
X83612552Y-81620552D01*
X83656867Y-81554231D01*
X83656867Y-81554229D01*
X83656868Y-81554229D01*
X83668588Y-81495309D01*
X83683298Y-81467185D01*
X83696492Y-81438297D01*
X83699381Y-81436439D01*
X83700973Y-81433398D01*
X83728555Y-81417691D01*
X83755270Y-81400523D01*
X83759864Y-81399862D01*
X83761688Y-81398824D01*
X83790205Y-81395500D01*
X83841324Y-81395500D01*
X83908363Y-81415185D01*
X83929005Y-81431819D01*
X83992686Y-81495500D01*
X84073453Y-81542131D01*
X84101988Y-81558606D01*
X84106814Y-81561392D01*
X84234108Y-81595500D01*
X84234110Y-81595500D01*
X84365889Y-81595500D01*
X84365892Y-81595500D01*
X84493186Y-81561392D01*
X84493189Y-81561390D01*
X84493406Y-81561332D01*
X84563256Y-81562995D01*
X84621119Y-81602157D01*
X84648623Y-81666386D01*
X84649500Y-81681107D01*
X84649500Y-83161192D01*
X84629815Y-83228231D01*
X84577011Y-83273986D01*
X84507853Y-83283930D01*
X84444297Y-83254905D01*
X84418113Y-83223193D01*
X84400500Y-83192686D01*
X84307314Y-83099500D01*
X84250250Y-83066554D01*
X84193187Y-83033608D01*
X84129539Y-83016554D01*
X84065892Y-82999500D01*
X83934108Y-82999500D01*
X83806814Y-83033608D01*
X83806811Y-83033609D01*
X83723192Y-83081887D01*
X83661192Y-83098500D01*
X78338808Y-83098500D01*
X78276808Y-83081887D01*
X78193188Y-83033609D01*
X78193187Y-83033608D01*
X78193186Y-83033608D01*
X78065892Y-82999500D01*
X77934108Y-82999500D01*
X77806812Y-83033608D01*
X77692686Y-83099500D01*
X77692683Y-83099502D01*
X77599502Y-83192683D01*
X77599500Y-83192686D01*
X77533608Y-83306812D01*
X77519494Y-83359487D01*
X77499500Y-83434108D01*
X77499500Y-83565892D01*
X77507891Y-83597207D01*
X77533608Y-83693187D01*
X77557032Y-83733757D01*
X77599500Y-83807314D01*
X77599502Y-83807316D01*
X77692686Y-83900500D01*
X77693503Y-83901127D01*
X77694017Y-83901831D01*
X77698433Y-83906247D01*
X77697744Y-83906935D01*
X77734704Y-83957556D01*
X77738856Y-84027303D01*
X77704641Y-84088222D01*
X77642923Y-84120972D01*
X77618013Y-84123500D01*
X76718247Y-84123500D01*
X76659770Y-84135131D01*
X76659769Y-84135132D01*
X76593447Y-84179447D01*
X76549132Y-84245769D01*
X76549131Y-84245770D01*
X76537412Y-84304691D01*
X76505027Y-84366602D01*
X76444312Y-84401176D01*
X76415795Y-84404500D01*
X75436647Y-84404500D01*
X75369608Y-84384815D01*
X75329260Y-84342500D01*
X75325006Y-84335132D01*
X75300500Y-84292686D01*
X75207314Y-84199500D01*
X75141126Y-84161286D01*
X75093187Y-84133608D01*
X74993188Y-84106814D01*
X74965892Y-84099500D01*
X74834108Y-84099500D01*
X74706812Y-84133608D01*
X74592686Y-84199500D01*
X74592683Y-84199502D01*
X74499502Y-84292683D01*
X74499500Y-84292686D01*
X74483597Y-84320232D01*
X74481887Y-84323193D01*
X74431319Y-84371408D01*
X74362712Y-84384630D01*
X74297848Y-84358662D01*
X74257320Y-84301748D01*
X74250500Y-84261192D01*
X74250500Y-80829108D01*
X75699500Y-80829108D01*
X75699500Y-80960891D01*
X75733608Y-81088187D01*
X75738816Y-81097207D01*
X75799500Y-81202314D01*
X75892686Y-81295500D01*
X75962874Y-81336023D01*
X76006810Y-81361390D01*
X76006814Y-81361392D01*
X76134108Y-81395500D01*
X76134110Y-81395500D01*
X76265890Y-81395500D01*
X76265892Y-81395500D01*
X76393186Y-81361392D01*
X76408593Y-81352496D01*
X76476491Y-81336023D01*
X76542518Y-81358874D01*
X76573696Y-81390992D01*
X76593447Y-81420552D01*
X76659769Y-81464867D01*
X76659770Y-81464868D01*
X76718247Y-81476499D01*
X76718250Y-81476500D01*
X76718252Y-81476500D01*
X78281750Y-81476500D01*
X78281751Y-81476499D01*
X78296568Y-81473552D01*
X78340229Y-81464868D01*
X78340229Y-81464867D01*
X78340231Y-81464867D01*
X78406552Y-81420552D01*
X78450867Y-81354231D01*
X78450867Y-81354229D01*
X78450868Y-81354229D01*
X78461552Y-81300513D01*
X78462500Y-81295748D01*
X78462500Y-80494252D01*
X78462500Y-80494249D01*
X78462499Y-80494247D01*
X78450868Y-80435770D01*
X78450867Y-80435769D01*
X78406552Y-80369447D01*
X78340230Y-80325132D01*
X78340229Y-80325131D01*
X78281752Y-80313500D01*
X78281748Y-80313500D01*
X76718252Y-80313500D01*
X76718247Y-80313500D01*
X76659770Y-80325131D01*
X76659769Y-80325132D01*
X76593446Y-80369448D01*
X76573695Y-80399008D01*
X76520082Y-80443813D01*
X76450757Y-80452519D01*
X76408595Y-80437504D01*
X76393187Y-80428608D01*
X76282716Y-80399008D01*
X76265892Y-80394500D01*
X76134108Y-80394500D01*
X76006812Y-80428608D01*
X75892686Y-80494500D01*
X75892683Y-80494502D01*
X75799502Y-80587683D01*
X75799500Y-80587686D01*
X75733608Y-80701812D01*
X75699500Y-80829108D01*
X74250500Y-80829108D01*
X74250500Y-79581038D01*
X74270185Y-79513999D01*
X74321450Y-79468959D01*
X74335288Y-79462408D01*
X74378231Y-79453867D01*
X74438701Y-79413461D01*
X74446950Y-79409557D01*
X74472807Y-79405477D01*
X74497785Y-79397656D01*
X74506765Y-79400119D01*
X74515966Y-79398668D01*
X74539924Y-79409215D01*
X74565165Y-79416140D01*
X74568892Y-79418535D01*
X74621768Y-79453867D01*
X74621770Y-79453868D01*
X74680247Y-79465499D01*
X74680250Y-79465500D01*
X74680252Y-79465500D01*
X75419750Y-79465500D01*
X75419751Y-79465499D01*
X75434568Y-79462552D01*
X75478229Y-79453868D01*
X75478229Y-79453867D01*
X75478231Y-79453867D01*
X75544552Y-79409552D01*
X75588867Y-79343231D01*
X75590765Y-79333686D01*
X75594422Y-79315308D01*
X75626807Y-79253397D01*
X75687523Y-79218823D01*
X75716039Y-79215500D01*
X76041324Y-79215500D01*
X76108363Y-79235185D01*
X76129005Y-79251819D01*
X76192686Y-79315500D01*
X76306814Y-79381392D01*
X76434108Y-79415500D01*
X76434110Y-79415500D01*
X76565890Y-79415500D01*
X76565892Y-79415500D01*
X76693186Y-79381392D01*
X76807314Y-79315500D01*
X76870995Y-79251819D01*
X76897922Y-79237115D01*
X76923741Y-79220523D01*
X76929941Y-79219631D01*
X76932318Y-79218334D01*
X76958676Y-79215500D01*
X77123912Y-79215500D01*
X77190951Y-79235185D01*
X77196793Y-79239179D01*
X77202775Y-79243524D01*
X77202777Y-79243525D01*
X77202780Y-79243528D01*
X77322874Y-79304719D01*
X77322876Y-79304719D01*
X77322878Y-79304720D01*
X77422507Y-79320500D01*
X77422512Y-79320500D01*
X77989493Y-79320500D01*
X78089121Y-79304720D01*
X78089121Y-79304719D01*
X78089126Y-79304719D01*
X78209220Y-79243528D01*
X78304528Y-79148220D01*
X78365719Y-79028126D01*
X78377567Y-78953322D01*
X81467001Y-78953322D01*
X81477144Y-79052607D01*
X81530452Y-79213481D01*
X81530457Y-79213492D01*
X81619424Y-79357728D01*
X81619427Y-79357732D01*
X81739267Y-79477572D01*
X81739271Y-79477575D01*
X81883507Y-79566542D01*
X81883518Y-79566547D01*
X82044393Y-79619855D01*
X82143683Y-79629999D01*
X82692000Y-79629999D01*
X82740308Y-79629999D01*
X82740322Y-79629998D01*
X82839607Y-79619855D01*
X83000481Y-79566547D01*
X83000492Y-79566542D01*
X83144728Y-79477575D01*
X83144732Y-79477572D01*
X83264572Y-79357732D01*
X83264575Y-79357728D01*
X83353542Y-79213492D01*
X83353547Y-79213481D01*
X83406855Y-79052606D01*
X83416999Y-78953322D01*
X83417000Y-78953309D01*
X83417000Y-78930000D01*
X82692000Y-78930000D01*
X82692000Y-79629999D01*
X82143683Y-79629999D01*
X82191999Y-79629998D01*
X82192000Y-79629998D01*
X82192000Y-78930000D01*
X81467001Y-78930000D01*
X81467001Y-78953322D01*
X78377567Y-78953322D01*
X78381261Y-78930000D01*
X78381500Y-78928493D01*
X78381500Y-78411506D01*
X78365720Y-78311878D01*
X78365719Y-78311876D01*
X78365719Y-78311874D01*
X78304528Y-78191780D01*
X78304526Y-78191778D01*
X78304523Y-78191774D01*
X78285575Y-78172826D01*
X78252090Y-78111503D01*
X78257074Y-78041811D01*
X78298946Y-77985878D01*
X78308160Y-77979606D01*
X78408731Y-77917573D01*
X78528572Y-77797732D01*
X78528575Y-77797728D01*
X78617542Y-77653492D01*
X78617547Y-77653481D01*
X78670855Y-77492606D01*
X78680999Y-77393322D01*
X78681000Y-77393309D01*
X78681000Y-77370000D01*
X76731001Y-77370000D01*
X76731001Y-77393322D01*
X76741144Y-77492607D01*
X76794452Y-77653481D01*
X76794457Y-77653492D01*
X76883424Y-77797728D01*
X76883427Y-77797732D01*
X77003266Y-77917571D01*
X77103840Y-77979606D01*
X77150564Y-78031554D01*
X77161787Y-78100517D01*
X77133943Y-78164599D01*
X77126426Y-78172825D01*
X77107473Y-78191778D01*
X77046279Y-78311878D01*
X77030500Y-78411506D01*
X77030500Y-78438324D01*
X77010815Y-78505363D01*
X76958011Y-78551118D01*
X76888853Y-78561062D01*
X76825297Y-78532037D01*
X76818819Y-78526005D01*
X76807316Y-78514502D01*
X76807314Y-78514500D01*
X76750250Y-78481554D01*
X76693187Y-78448608D01*
X76588090Y-78420448D01*
X76565892Y-78414500D01*
X76434108Y-78414500D01*
X76306812Y-78448608D01*
X76192686Y-78514500D01*
X76192683Y-78514502D01*
X76129005Y-78578181D01*
X76067682Y-78611666D01*
X76041324Y-78614500D01*
X75716039Y-78614500D01*
X75649000Y-78594815D01*
X75603245Y-78542011D01*
X75594422Y-78514692D01*
X75588867Y-78486770D01*
X75588867Y-78486769D01*
X75544552Y-78420447D01*
X75478230Y-78376132D01*
X75478229Y-78376131D01*
X75419752Y-78364500D01*
X75419748Y-78364500D01*
X74680252Y-78364500D01*
X74680247Y-78364500D01*
X74621770Y-78376131D01*
X74621769Y-78376132D01*
X74568891Y-78411465D01*
X74502214Y-78432343D01*
X74434834Y-78413859D01*
X74431109Y-78411465D01*
X74378230Y-78376132D01*
X74378229Y-78376131D01*
X74319752Y-78364500D01*
X74319748Y-78364500D01*
X73580252Y-78364500D01*
X73580247Y-78364500D01*
X73521770Y-78376131D01*
X73521769Y-78376132D01*
X73455447Y-78420447D01*
X73411132Y-78486769D01*
X73411131Y-78486770D01*
X73399500Y-78545247D01*
X73399500Y-79284752D01*
X73411131Y-79343229D01*
X73411132Y-79343230D01*
X73455447Y-79409552D01*
X73499762Y-79439162D01*
X73521769Y-79453867D01*
X73549690Y-79459421D01*
X73611601Y-79491804D01*
X73646176Y-79552519D01*
X73649500Y-79581038D01*
X73649500Y-80310232D01*
X73629815Y-80377271D01*
X73577011Y-80423026D01*
X73507853Y-80432970D01*
X73493407Y-80430007D01*
X73467353Y-80423026D01*
X73360892Y-80394500D01*
X73229108Y-80394500D01*
X73101814Y-80428608D01*
X73101813Y-80428608D01*
X73101811Y-80428609D01*
X73101806Y-80428610D01*
X73026510Y-80472083D01*
X72958610Y-80488556D01*
X72892583Y-80465703D01*
X72861409Y-80433587D01*
X72818552Y-80369447D01*
X72752230Y-80325132D01*
X72752229Y-80325131D01*
X72693752Y-80313500D01*
X72693748Y-80313500D01*
X71130252Y-80313500D01*
X71130247Y-80313500D01*
X71071770Y-80325131D01*
X71071769Y-80325132D01*
X71005447Y-80369447D01*
X70961132Y-80435769D01*
X70961131Y-80435770D01*
X70949500Y-80494247D01*
X70949500Y-80575500D01*
X70929815Y-80642539D01*
X70877011Y-80688294D01*
X70825500Y-80699500D01*
X70482941Y-80699500D01*
X70482754Y-80699511D01*
X70426729Y-80699511D01*
X70426728Y-80699511D01*
X70426724Y-80699511D01*
X70323996Y-80713033D01*
X70221264Y-80726555D01*
X70021110Y-80780183D01*
X69829651Y-80859485D01*
X69829647Y-80859487D01*
X69650183Y-80963098D01*
X69524662Y-81059414D01*
X69459493Y-81084608D01*
X69408222Y-81078080D01*
X69334697Y-81052353D01*
X69334699Y-81052353D01*
X69304270Y-81049500D01*
X69304266Y-81049500D01*
X68695734Y-81049500D01*
X68695730Y-81049500D01*
X68665300Y-81052353D01*
X68665298Y-81052353D01*
X68537119Y-81097206D01*
X68537117Y-81097207D01*
X68427850Y-81177850D01*
X68347207Y-81287117D01*
X68347206Y-81287119D01*
X68302353Y-81415298D01*
X68302353Y-81415300D01*
X68299500Y-81445730D01*
X65500500Y-81445730D01*
X65500500Y-77482844D01*
X73100000Y-77482844D01*
X73106401Y-77542372D01*
X73106403Y-77542379D01*
X73156645Y-77677086D01*
X73156649Y-77677093D01*
X73242809Y-77792187D01*
X73242812Y-77792190D01*
X73357906Y-77878350D01*
X73357913Y-77878354D01*
X73492620Y-77928596D01*
X73492627Y-77928598D01*
X73552155Y-77934999D01*
X73552172Y-77935000D01*
X73700000Y-77935000D01*
X73700000Y-77335000D01*
X73100000Y-77335000D01*
X73100000Y-77482844D01*
X65500500Y-77482844D01*
X65500500Y-76687155D01*
X73100000Y-76687155D01*
X73100000Y-76835000D01*
X73700000Y-76835000D01*
X73700000Y-76235000D01*
X73552155Y-76235000D01*
X73492627Y-76241401D01*
X73492620Y-76241403D01*
X73357913Y-76291645D01*
X73357906Y-76291649D01*
X73242812Y-76377809D01*
X73242809Y-76377812D01*
X73156649Y-76492906D01*
X73156645Y-76492913D01*
X73106403Y-76627620D01*
X73106401Y-76627627D01*
X73100000Y-76687155D01*
X65500500Y-76687155D01*
X65500500Y-71340730D01*
X68505500Y-71340730D01*
X68505500Y-71949269D01*
X68508353Y-71979699D01*
X68508353Y-71979701D01*
X68551979Y-72104373D01*
X68553207Y-72107882D01*
X68633850Y-72217150D01*
X68743118Y-72297793D01*
X68785845Y-72312744D01*
X68871299Y-72342646D01*
X68901730Y-72345500D01*
X68901734Y-72345500D01*
X69510270Y-72345500D01*
X69540699Y-72342646D01*
X69540701Y-72342646D01*
X69604790Y-72320219D01*
X69668882Y-72297793D01*
X69778150Y-72217150D01*
X69858793Y-72107882D01*
X69881219Y-72043790D01*
X69903646Y-71979701D01*
X69903646Y-71979699D01*
X69906500Y-71949269D01*
X69906500Y-71485989D01*
X69912132Y-71466807D01*
X69912846Y-71446830D01*
X69921774Y-71433970D01*
X69926185Y-71418950D01*
X69941291Y-71405860D01*
X69952694Y-71389437D01*
X69976643Y-71375227D01*
X69978989Y-71373195D01*
X69983005Y-71371445D01*
X70050683Y-71343412D01*
X70069176Y-71337403D01*
X70172363Y-71312629D01*
X70191564Y-71309587D01*
X70302159Y-71300882D01*
X70311889Y-71300500D01*
X70829784Y-71300500D01*
X70896823Y-71320185D01*
X70942578Y-71372989D01*
X70951401Y-71400309D01*
X70961131Y-71449229D01*
X70961132Y-71449230D01*
X71005447Y-71515552D01*
X71071769Y-71559867D01*
X71071770Y-71559868D01*
X71130247Y-71571499D01*
X71130250Y-71571500D01*
X71130252Y-71571500D01*
X72693750Y-71571500D01*
X72693751Y-71571499D01*
X72708568Y-71568552D01*
X72752229Y-71559868D01*
X72752229Y-71559867D01*
X72752231Y-71559867D01*
X72818552Y-71515552D01*
X72860018Y-71453493D01*
X72913628Y-71408690D01*
X72982953Y-71399983D01*
X73025119Y-71414999D01*
X73035529Y-71421009D01*
X73096814Y-71456392D01*
X73224108Y-71490500D01*
X73224110Y-71490500D01*
X73355890Y-71490500D01*
X73355892Y-71490500D01*
X73483186Y-71456392D01*
X73483187Y-71456391D01*
X73491037Y-71454288D01*
X73491776Y-71457046D01*
X73547503Y-71451049D01*
X73609986Y-71482317D01*
X73645645Y-71542401D01*
X73649500Y-71573081D01*
X73649500Y-72441323D01*
X73629815Y-72508362D01*
X73613182Y-72529004D01*
X73549500Y-72592686D01*
X73483608Y-72706812D01*
X73456680Y-72807313D01*
X73449500Y-72834108D01*
X73449500Y-72965892D01*
X73467644Y-73033608D01*
X73470270Y-73043407D01*
X73468607Y-73113257D01*
X73429444Y-73171119D01*
X73365216Y-73198623D01*
X73350495Y-73199500D01*
X70364653Y-73199500D01*
X70358425Y-73199499D01*
X70358404Y-73199493D01*
X70215214Y-73199495D01*
X70033054Y-73223479D01*
X69855596Y-73271031D01*
X69685847Y-73341345D01*
X69685843Y-73341347D01*
X69535954Y-73427887D01*
X69473953Y-73444500D01*
X68901730Y-73444500D01*
X68871300Y-73447353D01*
X68871298Y-73447353D01*
X68743119Y-73492206D01*
X68743117Y-73492207D01*
X68633850Y-73572850D01*
X68553207Y-73682117D01*
X68553206Y-73682119D01*
X68508353Y-73810298D01*
X68508353Y-73810300D01*
X68505500Y-73840730D01*
X68505500Y-74449269D01*
X68508353Y-74479699D01*
X68508353Y-74479701D01*
X68553206Y-74607880D01*
X68553207Y-74607882D01*
X68633850Y-74717150D01*
X68743118Y-74797793D01*
X68785188Y-74812514D01*
X68871299Y-74842646D01*
X68901730Y-74845500D01*
X68901734Y-74845500D01*
X69510270Y-74845500D01*
X69540699Y-74842646D01*
X69540701Y-74842646D01*
X69604790Y-74820219D01*
X69668882Y-74797793D01*
X69778150Y-74717150D01*
X69858793Y-74607882D01*
X69890917Y-74516077D01*
X69903646Y-74479701D01*
X69903646Y-74479699D01*
X69906500Y-74449269D01*
X69906500Y-73985989D01*
X69912132Y-73966807D01*
X69912846Y-73946830D01*
X69921774Y-73933970D01*
X69926185Y-73918950D01*
X69941291Y-73905860D01*
X69952694Y-73889437D01*
X69976643Y-73875227D01*
X69978989Y-73873195D01*
X69983005Y-73871445D01*
X70050683Y-73843412D01*
X70069176Y-73837403D01*
X70172363Y-73812629D01*
X70191564Y-73809587D01*
X70302159Y-73800882D01*
X70311889Y-73800500D01*
X72685611Y-73800500D01*
X72708574Y-73807242D01*
X72732387Y-73809661D01*
X72741489Y-73816907D01*
X72752650Y-73820185D01*
X72768321Y-73838270D01*
X72787048Y-73853180D01*
X72790787Y-73864198D01*
X72798405Y-73872989D01*
X72801810Y-73896676D01*
X72809504Y-73919343D01*
X72806693Y-73930632D01*
X72808349Y-73942147D01*
X72798405Y-73963919D01*
X72792624Y-73987143D01*
X72782623Y-73998477D01*
X72779324Y-74005703D01*
X72770641Y-74014755D01*
X72766075Y-74019056D01*
X72722647Y-74052380D01*
X72637513Y-74137513D01*
X72609539Y-74165488D01*
X72591525Y-74183501D01*
X72590195Y-74184755D01*
X72560626Y-74199774D01*
X72531527Y-74215665D01*
X72528757Y-74215962D01*
X72527901Y-74216398D01*
X72526260Y-74216231D01*
X72505165Y-74218500D01*
X71130247Y-74218500D01*
X71071770Y-74230131D01*
X71071769Y-74230132D01*
X71005447Y-74274447D01*
X70961132Y-74340769D01*
X70961131Y-74340770D01*
X70949500Y-74399247D01*
X70949500Y-75200752D01*
X70961131Y-75259229D01*
X70961132Y-75259230D01*
X71005447Y-75325552D01*
X71071769Y-75369867D01*
X71071770Y-75369868D01*
X71130247Y-75381499D01*
X71130250Y-75381500D01*
X71130252Y-75381500D01*
X72693750Y-75381500D01*
X72693751Y-75381499D01*
X72710836Y-75378101D01*
X72752229Y-75369868D01*
X72752229Y-75369867D01*
X72752231Y-75369867D01*
X72818552Y-75325552D01*
X72862867Y-75259231D01*
X72862867Y-75259229D01*
X72862868Y-75259229D01*
X72874499Y-75200752D01*
X72874500Y-75200750D01*
X72874500Y-74801831D01*
X72883144Y-74772390D01*
X72889668Y-74742404D01*
X72893422Y-74737388D01*
X72894185Y-74734792D01*
X72910819Y-74714150D01*
X73051477Y-74573492D01*
X73059045Y-74565923D01*
X73066173Y-74559334D01*
X73202536Y-74442869D01*
X73218276Y-74431434D01*
X73218278Y-74431433D01*
X73310711Y-74374789D01*
X73378156Y-74356545D01*
X73444758Y-74377661D01*
X73489372Y-74431433D01*
X73499500Y-74480517D01*
X73499500Y-74565892D01*
X73501659Y-74573948D01*
X73533608Y-74693187D01*
X73553217Y-74727150D01*
X73599500Y-74807314D01*
X73692686Y-74900500D01*
X73806814Y-74966392D01*
X73934108Y-75000500D01*
X73934110Y-75000500D01*
X74024167Y-75000500D01*
X74053607Y-75009144D01*
X74083594Y-75015668D01*
X74088609Y-75019422D01*
X74091206Y-75020185D01*
X74111848Y-75036819D01*
X74278858Y-75203829D01*
X74278859Y-75203831D01*
X74278860Y-75203831D01*
X74309648Y-75234620D01*
X74315193Y-75240541D01*
X74435830Y-75378101D01*
X74445704Y-75390968D01*
X74545105Y-75539729D01*
X74553215Y-75553777D01*
X74632340Y-75714225D01*
X74638547Y-75729209D01*
X74696057Y-75898623D01*
X74700255Y-75914290D01*
X74735161Y-76089758D01*
X74737278Y-76105839D01*
X74742538Y-76186068D01*
X74727282Y-76254251D01*
X74677584Y-76303363D01*
X74609225Y-76317809D01*
X74550065Y-76295543D01*
X74549872Y-76295897D01*
X74547357Y-76294523D01*
X74544491Y-76293445D01*
X74542090Y-76291647D01*
X74542086Y-76291645D01*
X74407379Y-76241403D01*
X74407372Y-76241401D01*
X74347844Y-76235000D01*
X74200000Y-76235000D01*
X74200000Y-77935000D01*
X74347828Y-77935000D01*
X74347844Y-77934999D01*
X74407372Y-77928598D01*
X74407379Y-77928596D01*
X74542086Y-77878354D01*
X74542093Y-77878350D01*
X74657187Y-77792190D01*
X74657190Y-77792187D01*
X74737290Y-77685189D01*
X74793223Y-77643318D01*
X74836556Y-77635500D01*
X75419750Y-77635500D01*
X75419751Y-77635499D01*
X75434568Y-77632552D01*
X75478229Y-77623868D01*
X75478229Y-77623867D01*
X75478231Y-77623867D01*
X75544552Y-77579552D01*
X75588867Y-77513231D01*
X75588867Y-77513229D01*
X75588868Y-77513229D01*
X75600499Y-77454752D01*
X75600500Y-77454750D01*
X75600500Y-76846677D01*
X76731000Y-76846677D01*
X76731000Y-76870000D01*
X77456000Y-76870000D01*
X77956000Y-76870000D01*
X78680999Y-76870000D01*
X78680999Y-76846692D01*
X78680998Y-76846677D01*
X78670855Y-76747392D01*
X78617547Y-76586518D01*
X78617542Y-76586507D01*
X78528575Y-76442271D01*
X78528572Y-76442267D01*
X78408732Y-76322427D01*
X78408728Y-76322424D01*
X78264492Y-76233457D01*
X78264481Y-76233452D01*
X78103606Y-76180144D01*
X78004322Y-76170000D01*
X77956000Y-76170000D01*
X77956000Y-76870000D01*
X77456000Y-76870000D01*
X77456000Y-76170000D01*
X77455999Y-76169999D01*
X77407693Y-76170000D01*
X77407675Y-76170001D01*
X77308392Y-76180144D01*
X77147518Y-76233452D01*
X77147507Y-76233457D01*
X77003271Y-76322424D01*
X77003267Y-76322427D01*
X76883427Y-76442267D01*
X76883424Y-76442271D01*
X76794457Y-76586507D01*
X76794452Y-76586518D01*
X76741144Y-76747393D01*
X76731000Y-76846677D01*
X75600500Y-76846677D01*
X75600500Y-76715249D01*
X75600499Y-76715247D01*
X75588868Y-76656770D01*
X75588867Y-76656769D01*
X75544552Y-76590447D01*
X75478230Y-76546132D01*
X75450308Y-76540578D01*
X75422177Y-76525863D01*
X75393297Y-76512674D01*
X75391440Y-76509784D01*
X75388397Y-76508193D01*
X75372684Y-76480600D01*
X75355523Y-76453896D01*
X75354862Y-76449302D01*
X75353823Y-76447477D01*
X75350500Y-76418961D01*
X75350500Y-76343852D01*
X75350515Y-76343797D01*
X75350514Y-76292456D01*
X75350515Y-76292456D01*
X75350513Y-76174918D01*
X75324188Y-75941320D01*
X75271876Y-75712139D01*
X75194232Y-75490255D01*
X75092235Y-75278460D01*
X75007798Y-75144082D01*
X74967166Y-75079417D01*
X74820597Y-74895627D01*
X74796071Y-74871101D01*
X74765461Y-74840491D01*
X74765460Y-74840489D01*
X74737485Y-74812514D01*
X74737486Y-74812514D01*
X74703831Y-74778860D01*
X74536819Y-74611848D01*
X74503334Y-74550525D01*
X74500500Y-74524167D01*
X74500500Y-74434110D01*
X74500500Y-74434108D01*
X74480608Y-74359869D01*
X74481314Y-74330185D01*
X74479408Y-74300555D01*
X74482137Y-74295640D01*
X74482271Y-74290021D01*
X74498913Y-74265432D01*
X74513330Y-74239473D01*
X74518283Y-74236814D01*
X74521434Y-74232159D01*
X74548730Y-74220469D01*
X74574891Y-74206427D01*
X74582697Y-74205924D01*
X74585662Y-74204655D01*
X74610107Y-74204160D01*
X74747211Y-74214950D01*
X74766427Y-74217994D01*
X74768535Y-74218500D01*
X74936035Y-74258714D01*
X74954525Y-74264722D01*
X75115676Y-74331472D01*
X75132997Y-74340297D01*
X75281722Y-74431436D01*
X75297463Y-74442873D01*
X75433820Y-74559333D01*
X75440963Y-74565936D01*
X75440967Y-74565939D01*
X75471169Y-74596140D01*
X75471173Y-74596142D01*
X75478242Y-74603210D01*
X75478243Y-74603212D01*
X75478249Y-74603217D01*
X75522644Y-74647613D01*
X75522650Y-74647618D01*
X75613266Y-74717150D01*
X75713683Y-74794203D01*
X75713690Y-74794207D01*
X75922206Y-74914594D01*
X75922207Y-74914595D01*
X75922210Y-74914596D01*
X75922215Y-74914599D01*
X76144678Y-75006747D01*
X76377266Y-75069069D01*
X76429685Y-75075970D01*
X76493580Y-75104234D01*
X76532052Y-75162558D01*
X76536868Y-75194691D01*
X76536903Y-75194688D01*
X76536970Y-75195378D01*
X76537500Y-75198908D01*
X76537500Y-75200752D01*
X76549131Y-75259229D01*
X76549132Y-75259230D01*
X76593447Y-75325552D01*
X76659769Y-75369867D01*
X76659770Y-75369868D01*
X76718247Y-75381499D01*
X76718250Y-75381500D01*
X76718252Y-75381500D01*
X78281750Y-75381500D01*
X78281751Y-75381499D01*
X78300526Y-75377764D01*
X78351309Y-75367664D01*
X78420900Y-75373891D01*
X78476078Y-75416754D01*
X78499322Y-75482644D01*
X78499500Y-75489281D01*
X78499500Y-75565891D01*
X78533608Y-75693187D01*
X78545755Y-75714225D01*
X78599500Y-75807314D01*
X78692686Y-75900500D01*
X78806814Y-75966392D01*
X78934108Y-76000500D01*
X78934110Y-76000500D01*
X79065890Y-76000500D01*
X79065892Y-76000500D01*
X79193186Y-75966392D01*
X79307314Y-75900500D01*
X79400500Y-75807314D01*
X79466392Y-75693186D01*
X79500500Y-75565892D01*
X79500500Y-75434108D01*
X79466392Y-75306814D01*
X79400500Y-75192686D01*
X79307314Y-75099500D01*
X79250250Y-75066554D01*
X79193187Y-75033608D01*
X79092938Y-75006747D01*
X79065892Y-74999500D01*
X78975833Y-74999500D01*
X78946392Y-74990855D01*
X78916406Y-74984332D01*
X78911390Y-74980577D01*
X78908794Y-74979815D01*
X78888152Y-74963181D01*
X78836049Y-74911078D01*
X78836047Y-74911075D01*
X78831647Y-74906675D01*
X78831640Y-74906663D01*
X78777622Y-74852646D01*
X78724864Y-74799888D01*
X78563624Y-74682743D01*
X78530203Y-74665714D01*
X78479408Y-74617739D01*
X78462500Y-74555230D01*
X78462500Y-74399249D01*
X78462499Y-74399247D01*
X78450868Y-74340770D01*
X78450867Y-74340769D01*
X78406552Y-74274447D01*
X78340230Y-74230132D01*
X78340229Y-74230131D01*
X78281752Y-74218500D01*
X78281748Y-74218500D01*
X76718252Y-74218500D01*
X76718247Y-74218500D01*
X76659770Y-74230131D01*
X76659769Y-74230132D01*
X76593447Y-74274447D01*
X76549132Y-74340769D01*
X76546770Y-74352645D01*
X76541444Y-74362824D01*
X76540380Y-74374265D01*
X76525541Y-74393225D01*
X76514384Y-74414555D01*
X76504400Y-74420239D01*
X76497319Y-74429289D01*
X76474587Y-74437216D01*
X76453668Y-74449129D01*
X76440498Y-74449105D01*
X76431347Y-74452297D01*
X76396205Y-74449026D01*
X76363971Y-74441287D01*
X76345466Y-74435274D01*
X76184326Y-74368527D01*
X76166989Y-74359693D01*
X76018278Y-74268563D01*
X76002536Y-74257126D01*
X75866179Y-74140666D01*
X75859036Y-74134063D01*
X75859035Y-74134062D01*
X75859032Y-74134060D01*
X75856361Y-74131389D01*
X75828831Y-74103860D01*
X75828825Y-74103857D01*
X75822978Y-74098010D01*
X75822977Y-74098008D01*
X75822971Y-74098003D01*
X75777355Y-74052386D01*
X75777349Y-74052381D01*
X75738897Y-74022876D01*
X75697694Y-73966449D01*
X75693539Y-73896703D01*
X75727751Y-73835782D01*
X75789468Y-73803029D01*
X75814383Y-73800500D01*
X80303582Y-73800500D01*
X81541324Y-73800500D01*
X81608363Y-73820185D01*
X81629005Y-73836819D01*
X81692686Y-73900500D01*
X81750658Y-73933970D01*
X81802530Y-73963919D01*
X81806814Y-73966392D01*
X81875237Y-73984725D01*
X81934897Y-74021090D01*
X81965426Y-74083937D01*
X81957131Y-74153312D01*
X81912646Y-74207190D01*
X81846094Y-74228465D01*
X81843143Y-74228500D01*
X81836247Y-74228500D01*
X81777770Y-74240131D01*
X81777769Y-74240132D01*
X81711447Y-74284447D01*
X81667132Y-74350769D01*
X81667131Y-74350770D01*
X81655500Y-74409247D01*
X81655500Y-74516077D01*
X81635815Y-74583116D01*
X81583011Y-74628871D01*
X81578955Y-74630637D01*
X81524298Y-74653277D01*
X81524284Y-74653284D01*
X81363011Y-74746395D01*
X81215267Y-74859762D01*
X81149417Y-74925611D01*
X81115761Y-74959266D01*
X80930945Y-75144082D01*
X80930804Y-75144241D01*
X80914007Y-75161037D01*
X80913996Y-75161050D01*
X80830356Y-75276159D01*
X80830351Y-75276167D01*
X80765743Y-75402952D01*
X80765741Y-75402959D01*
X80721761Y-75538302D01*
X80720625Y-75543036D01*
X80719173Y-75542687D01*
X80692080Y-75599820D01*
X80687229Y-75604955D01*
X80599503Y-75692682D01*
X80599500Y-75692686D01*
X80533608Y-75806812D01*
X80499500Y-75934108D01*
X80499500Y-76065891D01*
X80533608Y-76193187D01*
X80557749Y-76235000D01*
X80599500Y-76307314D01*
X80692686Y-76400500D01*
X80806814Y-76466392D01*
X80934108Y-76500500D01*
X80934110Y-76500500D01*
X81065890Y-76500500D01*
X81065892Y-76500500D01*
X81193186Y-76466392D01*
X81307314Y-76400500D01*
X81400500Y-76307314D01*
X81466392Y-76193186D01*
X81500500Y-76065892D01*
X81500500Y-75934108D01*
X81466392Y-75806814D01*
X81400500Y-75692686D01*
X81400495Y-75692681D01*
X81395553Y-75686240D01*
X81396247Y-75685707D01*
X81392493Y-75682897D01*
X81383254Y-75658131D01*
X81370589Y-75634937D01*
X81371234Y-75625911D01*
X81368072Y-75617434D01*
X81373687Y-75591608D01*
X81375573Y-75565245D01*
X81381388Y-75556195D01*
X81382918Y-75549160D01*
X81404047Y-75520934D01*
X81404064Y-75520907D01*
X81422905Y-75502070D01*
X81422910Y-75502059D01*
X81530524Y-75394445D01*
X81530529Y-75394441D01*
X81540731Y-75384238D01*
X81540733Y-75384238D01*
X81566337Y-75358632D01*
X81627659Y-75325147D01*
X81697351Y-75330131D01*
X81722910Y-75343211D01*
X81777769Y-75379867D01*
X81777770Y-75379868D01*
X81836247Y-75391499D01*
X81836250Y-75391500D01*
X81836252Y-75391500D01*
X83399750Y-75391500D01*
X83399751Y-75391499D01*
X83414568Y-75388552D01*
X83458229Y-75379868D01*
X83458229Y-75379867D01*
X83458231Y-75379867D01*
X83524552Y-75335552D01*
X83568867Y-75269231D01*
X83568867Y-75269229D01*
X83568868Y-75269229D01*
X83580499Y-75210752D01*
X83580500Y-75210750D01*
X83580500Y-74429084D01*
X83586131Y-74409904D01*
X83586845Y-74389926D01*
X83595774Y-74377064D01*
X83600185Y-74362045D01*
X83615290Y-74348955D01*
X83626693Y-74332533D01*
X83650645Y-74318320D01*
X83652989Y-74316290D01*
X83657015Y-74314536D01*
X83775278Y-74265548D01*
X83793770Y-74259541D01*
X83965978Y-74218194D01*
X83985180Y-74215152D01*
X84166455Y-74200881D01*
X84176186Y-74200500D01*
X85400495Y-74200500D01*
X85467534Y-74220185D01*
X85513289Y-74272989D01*
X85523233Y-74342147D01*
X85520270Y-74356591D01*
X85499500Y-74434108D01*
X85499500Y-74565892D01*
X85501659Y-74573948D01*
X85533608Y-74693187D01*
X85553217Y-74727150D01*
X85599500Y-74807314D01*
X85692686Y-74900500D01*
X85692688Y-74900501D01*
X85699137Y-74905450D01*
X85697324Y-74907812D01*
X85735710Y-74948062D01*
X85749500Y-75004893D01*
X85749500Y-76418961D01*
X85729815Y-76486000D01*
X85677011Y-76531755D01*
X85649692Y-76540578D01*
X85621770Y-76546132D01*
X85621769Y-76546132D01*
X85568891Y-76581465D01*
X85549815Y-76587437D01*
X85532806Y-76597945D01*
X85517152Y-76597665D01*
X85502214Y-76602343D01*
X85482936Y-76597054D01*
X85462947Y-76596698D01*
X85437830Y-76584681D01*
X85434834Y-76583859D01*
X85431109Y-76581465D01*
X85374048Y-76543338D01*
X85329243Y-76489726D01*
X85320536Y-76420401D01*
X85350690Y-76357373D01*
X85355240Y-76352573D01*
X85400500Y-76307314D01*
X85466392Y-76193186D01*
X85500500Y-76065892D01*
X85500500Y-75934108D01*
X85466392Y-75806814D01*
X85400500Y-75692686D01*
X85307314Y-75599500D01*
X85220123Y-75549160D01*
X85193187Y-75533608D01*
X85075442Y-75502059D01*
X85065892Y-75499500D01*
X84934108Y-75499500D01*
X84806812Y-75533608D01*
X84692686Y-75599500D01*
X84692683Y-75599502D01*
X84599502Y-75692683D01*
X84599500Y-75692686D01*
X84533608Y-75806812D01*
X84499500Y-75934108D01*
X84499500Y-76065891D01*
X84533608Y-76193187D01*
X84557749Y-76235000D01*
X84599500Y-76307314D01*
X84599502Y-76307316D01*
X84613181Y-76320995D01*
X84627884Y-76347922D01*
X84644477Y-76373741D01*
X84645368Y-76379941D01*
X84646666Y-76382318D01*
X84649500Y-76408676D01*
X84649500Y-76418961D01*
X84629815Y-76486000D01*
X84577011Y-76531755D01*
X84549692Y-76540578D01*
X84521770Y-76546132D01*
X84521769Y-76546132D01*
X84455447Y-76590447D01*
X84411132Y-76656769D01*
X84411131Y-76656770D01*
X84399500Y-76715244D01*
X84399263Y-76717658D01*
X84398785Y-76718840D01*
X84398311Y-76721226D01*
X84397858Y-76721135D01*
X84373100Y-76782444D01*
X84316064Y-76822802D01*
X84275860Y-76829500D01*
X83207068Y-76829500D01*
X83140029Y-76809815D01*
X83096583Y-76761795D01*
X83089245Y-76747393D01*
X83040528Y-76651780D01*
X83040524Y-76651776D01*
X83040523Y-76651774D01*
X82945225Y-76556476D01*
X82945221Y-76556473D01*
X82945220Y-76556472D01*
X82825126Y-76495281D01*
X82825124Y-76495280D01*
X82825121Y-76495279D01*
X82725493Y-76479500D01*
X82725488Y-76479500D01*
X82158512Y-76479500D01*
X82158507Y-76479500D01*
X82058878Y-76495279D01*
X82058874Y-76495280D01*
X82058874Y-76495281D01*
X81987290Y-76531755D01*
X81938778Y-76556473D01*
X81938774Y-76556476D01*
X81843476Y-76651774D01*
X81843473Y-76651778D01*
X81782279Y-76771878D01*
X81766500Y-76871506D01*
X81766500Y-77388493D01*
X81782279Y-77488121D01*
X81782280Y-77488124D01*
X81782281Y-77488126D01*
X81822804Y-77567656D01*
X81843473Y-77608221D01*
X81843476Y-77608225D01*
X81862424Y-77627173D01*
X81895909Y-77688496D01*
X81890925Y-77758188D01*
X81849053Y-77814121D01*
X81839841Y-77820392D01*
X81739268Y-77882426D01*
X81619427Y-78002267D01*
X81619424Y-78002271D01*
X81530457Y-78146507D01*
X81530452Y-78146518D01*
X81477144Y-78307393D01*
X81467000Y-78406677D01*
X81467000Y-78430000D01*
X83416999Y-78430000D01*
X83416999Y-78406692D01*
X83416998Y-78406677D01*
X83406855Y-78307392D01*
X83353547Y-78146518D01*
X83353542Y-78146507D01*
X83264575Y-78002271D01*
X83264572Y-78002267D01*
X83144732Y-77882427D01*
X83144728Y-77882424D01*
X83044159Y-77820392D01*
X82997434Y-77768444D01*
X82986213Y-77699482D01*
X83003396Y-77650282D01*
X83011106Y-77637641D01*
X83040528Y-77608220D01*
X83098735Y-77493981D01*
X83101208Y-77489928D01*
X83123693Y-77469500D01*
X83144558Y-77447409D01*
X83149474Y-77446079D01*
X83152923Y-77442946D01*
X83174351Y-77439349D01*
X83207068Y-77430500D01*
X84294010Y-77430500D01*
X84361049Y-77450185D01*
X84406804Y-77502989D01*
X84408570Y-77507044D01*
X84411133Y-77513231D01*
X84455447Y-77579552D01*
X84521769Y-77623867D01*
X84521770Y-77623868D01*
X84580247Y-77635499D01*
X84580250Y-77635500D01*
X84580252Y-77635500D01*
X85319750Y-77635500D01*
X85319751Y-77635499D01*
X85334568Y-77632552D01*
X85378229Y-77623868D01*
X85378231Y-77623867D01*
X85431108Y-77588534D01*
X85497785Y-77567656D01*
X85565165Y-77586140D01*
X85568892Y-77588535D01*
X85621768Y-77623867D01*
X85621770Y-77623868D01*
X85680247Y-77635499D01*
X85680250Y-77635500D01*
X85680252Y-77635500D01*
X86419750Y-77635500D01*
X86419751Y-77635499D01*
X86434568Y-77632552D01*
X86478229Y-77623868D01*
X86478229Y-77623867D01*
X86478231Y-77623867D01*
X86544552Y-77579552D01*
X86588867Y-77513231D01*
X86588867Y-77513229D01*
X86588868Y-77513229D01*
X86600499Y-77454752D01*
X86600500Y-77454750D01*
X86600500Y-76715249D01*
X86600499Y-76715247D01*
X86588868Y-76656770D01*
X86588867Y-76656769D01*
X86544552Y-76590447D01*
X86478230Y-76546132D01*
X86450308Y-76540578D01*
X86388397Y-76508193D01*
X86353823Y-76447477D01*
X86350500Y-76418961D01*
X86350500Y-74908676D01*
X86370185Y-74841637D01*
X86386819Y-74820995D01*
X86400500Y-74807314D01*
X86466392Y-74693186D01*
X86500500Y-74565892D01*
X86500500Y-74434108D01*
X86479730Y-74356592D01*
X86480325Y-74331598D01*
X86476767Y-74306853D01*
X86481142Y-74297272D01*
X86481393Y-74286743D01*
X86495405Y-74266039D01*
X86505792Y-74243297D01*
X86514653Y-74237602D01*
X86520556Y-74228881D01*
X86543536Y-74219039D01*
X86564570Y-74205523D01*
X86580425Y-74203243D01*
X86584784Y-74201377D01*
X86599505Y-74200500D01*
X86647648Y-74200500D01*
X86657378Y-74200881D01*
X86838815Y-74215165D01*
X86858009Y-74218205D01*
X87030244Y-74259557D01*
X87048710Y-74265557D01*
X87166958Y-74314539D01*
X87221357Y-74358378D01*
X87243421Y-74424673D01*
X87243500Y-74429097D01*
X87243500Y-75210752D01*
X87255131Y-75269229D01*
X87255132Y-75269230D01*
X87299447Y-75335552D01*
X87365769Y-75379867D01*
X87365770Y-75379868D01*
X87424247Y-75391499D01*
X87424250Y-75391500D01*
X87424252Y-75391500D01*
X88987750Y-75391500D01*
X88987751Y-75391499D01*
X89002568Y-75388552D01*
X89046229Y-75379868D01*
X89046229Y-75379867D01*
X89046231Y-75379867D01*
X89112552Y-75335552D01*
X89156867Y-75269231D01*
X89156867Y-75269229D01*
X89156868Y-75269229D01*
X89168499Y-75210752D01*
X89168500Y-75210750D01*
X89168500Y-74409249D01*
X89168499Y-74409247D01*
X89156868Y-74350770D01*
X89156867Y-74350769D01*
X89112552Y-74284447D01*
X89046230Y-74240132D01*
X89046229Y-74240131D01*
X88987752Y-74228500D01*
X88987748Y-74228500D01*
X88100833Y-74228500D01*
X88071392Y-74219855D01*
X88041406Y-74213332D01*
X88036390Y-74209577D01*
X88033794Y-74208815D01*
X88013152Y-74192181D01*
X87986457Y-74165486D01*
X87946050Y-74125077D01*
X87946043Y-74125072D01*
X87929843Y-74108872D01*
X87929688Y-74108736D01*
X87877560Y-74056607D01*
X87877552Y-74056600D01*
X87833601Y-74022875D01*
X87792399Y-73966447D01*
X87788244Y-73896701D01*
X87822457Y-73835781D01*
X87884174Y-73803029D01*
X87909088Y-73800500D01*
X90082964Y-73800500D01*
X90092696Y-73800883D01*
X90108570Y-73802132D01*
X90206017Y-73809805D01*
X90225221Y-73812847D01*
X90331020Y-73838250D01*
X90349509Y-73844258D01*
X90428956Y-73877168D01*
X90483358Y-73921009D01*
X90505421Y-73987304D01*
X90505500Y-73991727D01*
X90505500Y-74459269D01*
X90508353Y-74489699D01*
X90508353Y-74489701D01*
X90553157Y-74617739D01*
X90553207Y-74617882D01*
X90633850Y-74727150D01*
X90743118Y-74807793D01*
X90780847Y-74820995D01*
X90871299Y-74852646D01*
X90901730Y-74855500D01*
X90901734Y-74855500D01*
X91510270Y-74855500D01*
X91540699Y-74852646D01*
X91540701Y-74852646D01*
X91604790Y-74830219D01*
X91668882Y-74807793D01*
X91778150Y-74727150D01*
X91858793Y-74617882D01*
X91894416Y-74516077D01*
X91903646Y-74489701D01*
X91903646Y-74489699D01*
X91906500Y-74459269D01*
X91906500Y-73850730D01*
X91903646Y-73820300D01*
X91903646Y-73820298D01*
X91858793Y-73692119D01*
X91858792Y-73692117D01*
X91851413Y-73682119D01*
X91778150Y-73582850D01*
X91668882Y-73502207D01*
X91668880Y-73502206D01*
X91540700Y-73457353D01*
X91510270Y-73454500D01*
X91510266Y-73454500D01*
X90942837Y-73454500D01*
X90880836Y-73437886D01*
X90716652Y-73343091D01*
X90716635Y-73343083D01*
X90544849Y-73271923D01*
X90544837Y-73271918D01*
X90365213Y-73223783D01*
X90180837Y-73199502D01*
X90135016Y-73199501D01*
X90135016Y-73199500D01*
X90127407Y-73199500D01*
X90087858Y-73199500D01*
X90087852Y-73199499D01*
X90040263Y-73199498D01*
X90040261Y-73199498D01*
X90030283Y-73199498D01*
X90030259Y-73199500D01*
X86252206Y-73199500D01*
X86185167Y-73179815D01*
X86139412Y-73127011D01*
X86129468Y-73057853D01*
X86158493Y-72994297D01*
X86190206Y-72968113D01*
X86262087Y-72926611D01*
X86307314Y-72900500D01*
X86400500Y-72807314D01*
X86466392Y-72693186D01*
X86500500Y-72565892D01*
X86500500Y-72434108D01*
X86466392Y-72306814D01*
X86400500Y-72192686D01*
X86307314Y-72099500D01*
X86250250Y-72066554D01*
X86193187Y-72033608D01*
X86129539Y-72016554D01*
X86065892Y-71999500D01*
X85975833Y-71999500D01*
X85946392Y-71990855D01*
X85916406Y-71984332D01*
X85911390Y-71980577D01*
X85908794Y-71979815D01*
X85888152Y-71963181D01*
X85715461Y-71790490D01*
X85715460Y-71790488D01*
X85690351Y-71765378D01*
X85684806Y-71759458D01*
X85611611Y-71675995D01*
X85582208Y-71612613D01*
X85591740Y-71543397D01*
X85637180Y-71490321D01*
X85704101Y-71470238D01*
X85736923Y-71474459D01*
X85834108Y-71500500D01*
X85834111Y-71500500D01*
X85965890Y-71500500D01*
X85965892Y-71500500D01*
X86093186Y-71466392D01*
X86207314Y-71400500D01*
X86270995Y-71336819D01*
X86332318Y-71303334D01*
X86358676Y-71300500D01*
X87121795Y-71300500D01*
X87188834Y-71320185D01*
X87234589Y-71372989D01*
X87243412Y-71400309D01*
X87255131Y-71459229D01*
X87255132Y-71459230D01*
X87299447Y-71525552D01*
X87365769Y-71569867D01*
X87365770Y-71569868D01*
X87424247Y-71581499D01*
X87424250Y-71581500D01*
X87424252Y-71581500D01*
X88987750Y-71581500D01*
X88987751Y-71581499D01*
X89002568Y-71578552D01*
X89046229Y-71569868D01*
X89046229Y-71569867D01*
X89046231Y-71569867D01*
X89112552Y-71525552D01*
X89156867Y-71459231D01*
X89156867Y-71459229D01*
X89156868Y-71459229D01*
X89168588Y-71400309D01*
X89200973Y-71338398D01*
X89261688Y-71303824D01*
X89290205Y-71300500D01*
X90082964Y-71300500D01*
X90092696Y-71300883D01*
X90108570Y-71302132D01*
X90206017Y-71309805D01*
X90225221Y-71312847D01*
X90331020Y-71338250D01*
X90349509Y-71344258D01*
X90428956Y-71377168D01*
X90483358Y-71421009D01*
X90505421Y-71487304D01*
X90505500Y-71491727D01*
X90505500Y-71959269D01*
X90508353Y-71989699D01*
X90508353Y-71989701D01*
X90553206Y-72117880D01*
X90553207Y-72117882D01*
X90633850Y-72227150D01*
X90743118Y-72307793D01*
X90785845Y-72322744D01*
X90871299Y-72352646D01*
X90901730Y-72355500D01*
X90901734Y-72355500D01*
X91510270Y-72355500D01*
X91540699Y-72352646D01*
X91540701Y-72352646D01*
X91604790Y-72330219D01*
X91668882Y-72307793D01*
X91778150Y-72227150D01*
X91858793Y-72117882D01*
X91888282Y-72033608D01*
X91903646Y-71989701D01*
X91903646Y-71989699D01*
X91906500Y-71959269D01*
X91906500Y-71350730D01*
X91903646Y-71320300D01*
X91903646Y-71320298D01*
X91870006Y-71224163D01*
X91858793Y-71192118D01*
X91778150Y-71082850D01*
X91668882Y-71002207D01*
X91668880Y-71002206D01*
X91540700Y-70957353D01*
X91510270Y-70954500D01*
X91510266Y-70954500D01*
X90942837Y-70954500D01*
X90880836Y-70937886D01*
X90716652Y-70843091D01*
X90716635Y-70843083D01*
X90544849Y-70771923D01*
X90544837Y-70771918D01*
X90365213Y-70723783D01*
X90180837Y-70699502D01*
X90135016Y-70699501D01*
X90135016Y-70699500D01*
X90127407Y-70699500D01*
X90087858Y-70699500D01*
X90087852Y-70699499D01*
X90040263Y-70699498D01*
X90040261Y-70699498D01*
X90030283Y-70699498D01*
X90030259Y-70699500D01*
X89290205Y-70699500D01*
X89223166Y-70679815D01*
X89177411Y-70627011D01*
X89168588Y-70599691D01*
X89156868Y-70540770D01*
X89156867Y-70540769D01*
X89112552Y-70474447D01*
X89046230Y-70430132D01*
X89046229Y-70430131D01*
X88987752Y-70418500D01*
X88987748Y-70418500D01*
X87424252Y-70418500D01*
X87424247Y-70418500D01*
X87365770Y-70430131D01*
X87365769Y-70430132D01*
X87299447Y-70474447D01*
X87255132Y-70540769D01*
X87255131Y-70540770D01*
X87243412Y-70599691D01*
X87211027Y-70661602D01*
X87150312Y-70696176D01*
X87121795Y-70699500D01*
X86358676Y-70699500D01*
X86291637Y-70679815D01*
X86270995Y-70663181D01*
X86207316Y-70599502D01*
X86207314Y-70599500D01*
X86136508Y-70558620D01*
X86093187Y-70533608D01*
X86029539Y-70516554D01*
X85965892Y-70499500D01*
X85834108Y-70499500D01*
X85706812Y-70533608D01*
X85592686Y-70599500D01*
X85592683Y-70599502D01*
X85499502Y-70692683D01*
X85499500Y-70692686D01*
X85481887Y-70723193D01*
X85431319Y-70771408D01*
X85362712Y-70784630D01*
X85297848Y-70758662D01*
X85257320Y-70701748D01*
X85250500Y-70661192D01*
X85250500Y-69800807D01*
X85270185Y-69733768D01*
X85322989Y-69688013D01*
X85392147Y-69678069D01*
X85448814Y-69701542D01*
X85457913Y-69708354D01*
X85592620Y-69758596D01*
X85592627Y-69758598D01*
X85652155Y-69764999D01*
X85652172Y-69765000D01*
X85800000Y-69765000D01*
X86300000Y-69765000D01*
X86447828Y-69765000D01*
X86447844Y-69764999D01*
X86507372Y-69758598D01*
X86507379Y-69758596D01*
X86642086Y-69708354D01*
X86642093Y-69708350D01*
X86757187Y-69622190D01*
X86757190Y-69622187D01*
X86843350Y-69507093D01*
X86843354Y-69507086D01*
X86893596Y-69372379D01*
X86893598Y-69372372D01*
X86899999Y-69312844D01*
X86900000Y-69312827D01*
X86900000Y-69165000D01*
X86300000Y-69165000D01*
X86300000Y-69765000D01*
X85800000Y-69765000D01*
X85800000Y-68986582D01*
X90231001Y-68986582D01*
X90237408Y-69057102D01*
X90237409Y-69057107D01*
X90287981Y-69219396D01*
X90375927Y-69364877D01*
X90496122Y-69485072D01*
X90641604Y-69573019D01*
X90641603Y-69573019D01*
X90803894Y-69623590D01*
X90803892Y-69623590D01*
X90874418Y-69629999D01*
X91456000Y-69629999D01*
X91537581Y-69629999D01*
X91608102Y-69623591D01*
X91608107Y-69623590D01*
X91770396Y-69573018D01*
X91915877Y-69485072D01*
X92036072Y-69364877D01*
X92124019Y-69219395D01*
X92174590Y-69057106D01*
X92181000Y-68986572D01*
X92181000Y-68980000D01*
X91456000Y-68980000D01*
X91456000Y-69629999D01*
X90874418Y-69629999D01*
X90955999Y-69629998D01*
X90956000Y-69629998D01*
X90956000Y-68980000D01*
X90231001Y-68980000D01*
X90231001Y-68986582D01*
X85800000Y-68986582D01*
X85800000Y-68665000D01*
X86300000Y-68665000D01*
X86900000Y-68665000D01*
X86900000Y-68517172D01*
X86899999Y-68517155D01*
X86893598Y-68457627D01*
X86893596Y-68457620D01*
X86843354Y-68322913D01*
X86843350Y-68322906D01*
X86757190Y-68207812D01*
X86757187Y-68207809D01*
X86642093Y-68121649D01*
X86642086Y-68121645D01*
X86507379Y-68071403D01*
X86507372Y-68071401D01*
X86447844Y-68065000D01*
X86300000Y-68065000D01*
X86300000Y-68665000D01*
X85800000Y-68665000D01*
X85800000Y-68065000D01*
X85652155Y-68065000D01*
X85592627Y-68071401D01*
X85592620Y-68071403D01*
X85457913Y-68121645D01*
X85457906Y-68121649D01*
X85342812Y-68207809D01*
X85342809Y-68207812D01*
X85262710Y-68314811D01*
X85206777Y-68356682D01*
X85163444Y-68364500D01*
X84580247Y-68364500D01*
X84521770Y-68376131D01*
X84521769Y-68376132D01*
X84455447Y-68420447D01*
X84411132Y-68486769D01*
X84411131Y-68486770D01*
X84399500Y-68545247D01*
X84399500Y-69284752D01*
X84411131Y-69343229D01*
X84411132Y-69343230D01*
X84455447Y-69409552D01*
X84499762Y-69439162D01*
X84521769Y-69453867D01*
X84549690Y-69459421D01*
X84611601Y-69491804D01*
X84646176Y-69552519D01*
X84649500Y-69581038D01*
X84649500Y-70466816D01*
X84629815Y-70533855D01*
X84577011Y-70579610D01*
X84507853Y-70589554D01*
X84463500Y-70574203D01*
X84393189Y-70533609D01*
X84393186Y-70533608D01*
X84265892Y-70499500D01*
X84134108Y-70499500D01*
X84006812Y-70533608D01*
X83892686Y-70599500D01*
X83892683Y-70599502D01*
X83829005Y-70663181D01*
X83802077Y-70677884D01*
X83776259Y-70694477D01*
X83770058Y-70695368D01*
X83767682Y-70696666D01*
X83741324Y-70699500D01*
X83702205Y-70699500D01*
X83635166Y-70679815D01*
X83589411Y-70627011D01*
X83580588Y-70599691D01*
X83568868Y-70540770D01*
X83568867Y-70540769D01*
X83524552Y-70474447D01*
X83458230Y-70430132D01*
X83458229Y-70430131D01*
X83399752Y-70418500D01*
X83399748Y-70418500D01*
X81836252Y-70418500D01*
X81836247Y-70418500D01*
X81777770Y-70430131D01*
X81777769Y-70430132D01*
X81711447Y-70474447D01*
X81667132Y-70540769D01*
X81667131Y-70540770D01*
X81655500Y-70599247D01*
X81655500Y-71400752D01*
X81667131Y-71459229D01*
X81667132Y-71459230D01*
X81711447Y-71525552D01*
X81777769Y-71569867D01*
X81777770Y-71569868D01*
X81836247Y-71581499D01*
X81836250Y-71581500D01*
X81836252Y-71581500D01*
X83399750Y-71581500D01*
X83399751Y-71581499D01*
X83414568Y-71578552D01*
X83458229Y-71569868D01*
X83458229Y-71569867D01*
X83458231Y-71569867D01*
X83524552Y-71525552D01*
X83568867Y-71459231D01*
X83568867Y-71459229D01*
X83568868Y-71459229D01*
X83580588Y-71400309D01*
X83595298Y-71372185D01*
X83608492Y-71343297D01*
X83611381Y-71341439D01*
X83612973Y-71338398D01*
X83640555Y-71322691D01*
X83667270Y-71305523D01*
X83671864Y-71304862D01*
X83673688Y-71303824D01*
X83702205Y-71300500D01*
X83741324Y-71300500D01*
X83808363Y-71320185D01*
X83829005Y-71336819D01*
X83892686Y-71400500D01*
X84006814Y-71466392D01*
X84134108Y-71500500D01*
X84134110Y-71500500D01*
X84265890Y-71500500D01*
X84265892Y-71500500D01*
X84393186Y-71466392D01*
X84507314Y-71400500D01*
X84560543Y-71347270D01*
X84621864Y-71313786D01*
X84691556Y-71318770D01*
X84747489Y-71360641D01*
X84765264Y-71393996D01*
X84805766Y-71509740D01*
X84907765Y-71721540D01*
X85032833Y-71920582D01*
X85179402Y-72104372D01*
X85230205Y-72155175D01*
X85245078Y-72170050D01*
X85245079Y-72170052D01*
X85292165Y-72217137D01*
X85292180Y-72217151D01*
X85463181Y-72388152D01*
X85496666Y-72449475D01*
X85499500Y-72475833D01*
X85499500Y-72565892D01*
X85516554Y-72629539D01*
X85533608Y-72693187D01*
X85541475Y-72706812D01*
X85599500Y-72807314D01*
X85692686Y-72900500D01*
X85692687Y-72900501D01*
X85692689Y-72900502D01*
X85809794Y-72968113D01*
X85858010Y-73018680D01*
X85871232Y-73087287D01*
X85845264Y-73152152D01*
X85788350Y-73192680D01*
X85747794Y-73199500D01*
X82458676Y-73199500D01*
X82391637Y-73179815D01*
X82370995Y-73163181D01*
X82307316Y-73099502D01*
X82307314Y-73099500D01*
X82250250Y-73066554D01*
X82193187Y-73033608D01*
X82129539Y-73016554D01*
X82065892Y-72999500D01*
X81934108Y-72999500D01*
X81806812Y-73033608D01*
X81692686Y-73099500D01*
X81692683Y-73099502D01*
X81629005Y-73163181D01*
X81567682Y-73196666D01*
X81541324Y-73199500D01*
X74549505Y-73199500D01*
X74482466Y-73179815D01*
X74436711Y-73127011D01*
X74426767Y-73057853D01*
X74429730Y-73043407D01*
X74450500Y-72965892D01*
X74450500Y-72834108D01*
X74416392Y-72706814D01*
X74350500Y-72592686D01*
X74286818Y-72529004D01*
X74253334Y-72467680D01*
X74250500Y-72441323D01*
X74250500Y-70924108D01*
X75689500Y-70924108D01*
X75689500Y-71055892D01*
X75694044Y-71072850D01*
X75723608Y-71183187D01*
X75756554Y-71240250D01*
X75789500Y-71297314D01*
X75882686Y-71390500D01*
X75957978Y-71433970D01*
X75996810Y-71456390D01*
X75996814Y-71456392D01*
X76124108Y-71490500D01*
X76124110Y-71490500D01*
X76255890Y-71490500D01*
X76255892Y-71490500D01*
X76383186Y-71456392D01*
X76383190Y-71456390D01*
X76405808Y-71443331D01*
X76473708Y-71426857D01*
X76539735Y-71449708D01*
X76570912Y-71481825D01*
X76593448Y-71515552D01*
X76659769Y-71559867D01*
X76659770Y-71559868D01*
X76718247Y-71571499D01*
X76718250Y-71571500D01*
X76718252Y-71571500D01*
X78281750Y-71571500D01*
X78281751Y-71571499D01*
X78296568Y-71568552D01*
X78340229Y-71559868D01*
X78340229Y-71559867D01*
X78340231Y-71559867D01*
X78406552Y-71515552D01*
X78450867Y-71449231D01*
X78450867Y-71449229D01*
X78450868Y-71449229D01*
X78462499Y-71390752D01*
X78462500Y-71390750D01*
X78462500Y-70589249D01*
X78462499Y-70589247D01*
X78450868Y-70530770D01*
X78450867Y-70530769D01*
X78406552Y-70464447D01*
X78340230Y-70420132D01*
X78340229Y-70420131D01*
X78281752Y-70408500D01*
X78281748Y-70408500D01*
X76718252Y-70408500D01*
X76718247Y-70408500D01*
X76659770Y-70420131D01*
X76659769Y-70420132D01*
X76593447Y-70464447D01*
X76570911Y-70498175D01*
X76517298Y-70542979D01*
X76447972Y-70551685D01*
X76405811Y-70536670D01*
X76383188Y-70523608D01*
X76288268Y-70498175D01*
X76255892Y-70489500D01*
X76124108Y-70489500D01*
X75996812Y-70523608D01*
X75882686Y-70589500D01*
X75882683Y-70589502D01*
X75789502Y-70682683D01*
X75789500Y-70682686D01*
X75723608Y-70796812D01*
X75711210Y-70843083D01*
X75689500Y-70924108D01*
X74250500Y-70924108D01*
X74250500Y-69581038D01*
X74270185Y-69513999D01*
X74321450Y-69468959D01*
X74335288Y-69462408D01*
X74378231Y-69453867D01*
X74438701Y-69413461D01*
X74446950Y-69409557D01*
X74472807Y-69405477D01*
X74497785Y-69397656D01*
X74506765Y-69400119D01*
X74515966Y-69398668D01*
X74539924Y-69409215D01*
X74565165Y-69416140D01*
X74568892Y-69418535D01*
X74621768Y-69453867D01*
X74621770Y-69453868D01*
X74680247Y-69465499D01*
X74680250Y-69465500D01*
X74680252Y-69465500D01*
X75419750Y-69465500D01*
X75419751Y-69465499D01*
X75434568Y-69462552D01*
X75478229Y-69453868D01*
X75478229Y-69453867D01*
X75478231Y-69453867D01*
X75544552Y-69409552D01*
X75588867Y-69343231D01*
X75590765Y-69333686D01*
X75594422Y-69315308D01*
X75626807Y-69253397D01*
X75687523Y-69218823D01*
X75716039Y-69215500D01*
X76041324Y-69215500D01*
X76108363Y-69235185D01*
X76129005Y-69251819D01*
X76192686Y-69315500D01*
X76306814Y-69381392D01*
X76434108Y-69415500D01*
X76434110Y-69415500D01*
X76565890Y-69415500D01*
X76565892Y-69415500D01*
X76693186Y-69381392D01*
X76807314Y-69315500D01*
X76870995Y-69251819D01*
X76897922Y-69237115D01*
X76923741Y-69220523D01*
X76929941Y-69219631D01*
X76932318Y-69218334D01*
X76958676Y-69215500D01*
X77123912Y-69215500D01*
X77190951Y-69235185D01*
X77196793Y-69239179D01*
X77202775Y-69243524D01*
X77202777Y-69243525D01*
X77202780Y-69243528D01*
X77322874Y-69304719D01*
X77322876Y-69304719D01*
X77322878Y-69304720D01*
X77422507Y-69320500D01*
X77422512Y-69320500D01*
X77989493Y-69320500D01*
X78089121Y-69304720D01*
X78089121Y-69304719D01*
X78089126Y-69304719D01*
X78209220Y-69243528D01*
X78304528Y-69148220D01*
X78365719Y-69028126D01*
X78372299Y-68986582D01*
X78377567Y-68953322D01*
X81467001Y-68953322D01*
X81477144Y-69052607D01*
X81530452Y-69213481D01*
X81530457Y-69213492D01*
X81619424Y-69357728D01*
X81619427Y-69357732D01*
X81739267Y-69477572D01*
X81739271Y-69477575D01*
X81883507Y-69566542D01*
X81883518Y-69566547D01*
X82044393Y-69619855D01*
X82143683Y-69629999D01*
X82692000Y-69629999D01*
X82740308Y-69629999D01*
X82740322Y-69629998D01*
X82839607Y-69619855D01*
X83000481Y-69566547D01*
X83000492Y-69566542D01*
X83144728Y-69477575D01*
X83144732Y-69477572D01*
X83264572Y-69357732D01*
X83264575Y-69357728D01*
X83353542Y-69213492D01*
X83353547Y-69213481D01*
X83406855Y-69052606D01*
X83416999Y-68953322D01*
X83417000Y-68953309D01*
X83417000Y-68930000D01*
X82692000Y-68930000D01*
X82692000Y-69629999D01*
X82143683Y-69629999D01*
X82191999Y-69629998D01*
X82192000Y-69629998D01*
X82192000Y-68930000D01*
X81467001Y-68930000D01*
X81467001Y-68953322D01*
X78377567Y-68953322D01*
X78381500Y-68928493D01*
X78381500Y-68411515D01*
X78381498Y-68411497D01*
X78380735Y-68406677D01*
X81467000Y-68406677D01*
X81467000Y-68430000D01*
X83416999Y-68430000D01*
X83416999Y-68406692D01*
X83416998Y-68406677D01*
X83406855Y-68307392D01*
X83353547Y-68146518D01*
X83353542Y-68146507D01*
X83264575Y-68002271D01*
X83264572Y-68002267D01*
X83144732Y-67882427D01*
X83144728Y-67882424D01*
X83044159Y-67820392D01*
X82997434Y-67768444D01*
X82986213Y-67699482D01*
X83003396Y-67650282D01*
X83011106Y-67637641D01*
X83040528Y-67608220D01*
X83098735Y-67493981D01*
X83101208Y-67489928D01*
X83123693Y-67469500D01*
X83144558Y-67447409D01*
X83149474Y-67446079D01*
X83152923Y-67442946D01*
X83174351Y-67439349D01*
X83207068Y-67430500D01*
X83541324Y-67430500D01*
X83608363Y-67450185D01*
X83629005Y-67466819D01*
X83692686Y-67530500D01*
X83806814Y-67596392D01*
X83934108Y-67630500D01*
X83934110Y-67630500D01*
X84065890Y-67630500D01*
X84065892Y-67630500D01*
X84193186Y-67596392D01*
X84289980Y-67540507D01*
X84357878Y-67524035D01*
X84423905Y-67546887D01*
X84455079Y-67579001D01*
X84455447Y-67579551D01*
X84455448Y-67579552D01*
X84520461Y-67622993D01*
X84521769Y-67623867D01*
X84521770Y-67623868D01*
X84580247Y-67635499D01*
X84580250Y-67635500D01*
X84580252Y-67635500D01*
X85319750Y-67635500D01*
X85319751Y-67635499D01*
X85344890Y-67630499D01*
X85378229Y-67623868D01*
X85378231Y-67623867D01*
X85379539Y-67622993D01*
X85431108Y-67588534D01*
X85497785Y-67567656D01*
X85565165Y-67586140D01*
X85568892Y-67588535D01*
X85621768Y-67623867D01*
X85621770Y-67623868D01*
X85680247Y-67635499D01*
X85680250Y-67635500D01*
X85680252Y-67635500D01*
X86419750Y-67635500D01*
X86419751Y-67635499D01*
X86444890Y-67630499D01*
X86478229Y-67623868D01*
X86478229Y-67623867D01*
X86478231Y-67623867D01*
X86544552Y-67579552D01*
X86588867Y-67513231D01*
X86588867Y-67513229D01*
X86588868Y-67513229D01*
X86600499Y-67454752D01*
X86600500Y-67454750D01*
X86600500Y-66715249D01*
X86600499Y-66715247D01*
X86588868Y-66656770D01*
X86588867Y-66656769D01*
X86544552Y-66590447D01*
X86478230Y-66546132D01*
X86478229Y-66546131D01*
X86419752Y-66534500D01*
X86419748Y-66534500D01*
X85680252Y-66534500D01*
X85680247Y-66534500D01*
X85621770Y-66546131D01*
X85621769Y-66546132D01*
X85568891Y-66581465D01*
X85502214Y-66602343D01*
X85434834Y-66583859D01*
X85431109Y-66581465D01*
X85378230Y-66546132D01*
X85378229Y-66546131D01*
X85319752Y-66534500D01*
X85319748Y-66534500D01*
X84580252Y-66534500D01*
X84580247Y-66534500D01*
X84521770Y-66546131D01*
X84521769Y-66546132D01*
X84455446Y-66590448D01*
X84411684Y-66655942D01*
X84358071Y-66700747D01*
X84288746Y-66709453D01*
X84246585Y-66694438D01*
X84193186Y-66663608D01*
X84065892Y-66629500D01*
X83934108Y-66629500D01*
X83806812Y-66663608D01*
X83692686Y-66729500D01*
X83692683Y-66729502D01*
X83629005Y-66793181D01*
X83567682Y-66826666D01*
X83541324Y-66829500D01*
X83207068Y-66829500D01*
X83140029Y-66809815D01*
X83096583Y-66761795D01*
X83040528Y-66651780D01*
X83040524Y-66651776D01*
X83040523Y-66651774D01*
X82945225Y-66556476D01*
X82945221Y-66556473D01*
X82945220Y-66556472D01*
X82825126Y-66495281D01*
X82825124Y-66495280D01*
X82825121Y-66495279D01*
X82725493Y-66479500D01*
X82725488Y-66479500D01*
X82158512Y-66479500D01*
X82158507Y-66479500D01*
X82058878Y-66495279D01*
X81938778Y-66556473D01*
X81938774Y-66556476D01*
X81843476Y-66651774D01*
X81843473Y-66651778D01*
X81782279Y-66771878D01*
X81766500Y-66871506D01*
X81766500Y-67388493D01*
X81782279Y-67488121D01*
X81782280Y-67488124D01*
X81782281Y-67488126D01*
X81843472Y-67608220D01*
X81843473Y-67608221D01*
X81843476Y-67608225D01*
X81862424Y-67627173D01*
X81895909Y-67688496D01*
X81890925Y-67758188D01*
X81849053Y-67814121D01*
X81839841Y-67820392D01*
X81739268Y-67882426D01*
X81619427Y-68002267D01*
X81619424Y-68002271D01*
X81530457Y-68146507D01*
X81530452Y-68146518D01*
X81477144Y-68307393D01*
X81467000Y-68406677D01*
X78380735Y-68406677D01*
X78365720Y-68311878D01*
X78365719Y-68311876D01*
X78365719Y-68311874D01*
X78304528Y-68191780D01*
X78304526Y-68191778D01*
X78304523Y-68191774D01*
X78285575Y-68172826D01*
X78252090Y-68111503D01*
X78257074Y-68041811D01*
X78298946Y-67985878D01*
X78308160Y-67979606D01*
X78408731Y-67917573D01*
X78528572Y-67797732D01*
X78528575Y-67797728D01*
X78617542Y-67653492D01*
X78617547Y-67653481D01*
X78670855Y-67492606D01*
X78680999Y-67393322D01*
X78681000Y-67393309D01*
X78681000Y-67370000D01*
X76731001Y-67370000D01*
X76731001Y-67393322D01*
X76741144Y-67492607D01*
X76794452Y-67653481D01*
X76794457Y-67653492D01*
X76883424Y-67797728D01*
X76883427Y-67797732D01*
X77003266Y-67917571D01*
X77103840Y-67979606D01*
X77150564Y-68031554D01*
X77161787Y-68100517D01*
X77133943Y-68164599D01*
X77126426Y-68172825D01*
X77107473Y-68191778D01*
X77046279Y-68311878D01*
X77030500Y-68411506D01*
X77030500Y-68438324D01*
X77010815Y-68505363D01*
X76958011Y-68551118D01*
X76888853Y-68561062D01*
X76825297Y-68532037D01*
X76818819Y-68526005D01*
X76807316Y-68514502D01*
X76807314Y-68514500D01*
X76736174Y-68473427D01*
X76693187Y-68448608D01*
X76588090Y-68420448D01*
X76565892Y-68414500D01*
X76434108Y-68414500D01*
X76306812Y-68448608D01*
X76192686Y-68514500D01*
X76192683Y-68514502D01*
X76129005Y-68578181D01*
X76067682Y-68611666D01*
X76041324Y-68614500D01*
X75716039Y-68614500D01*
X75649000Y-68594815D01*
X75603245Y-68542011D01*
X75594422Y-68514692D01*
X75588867Y-68486770D01*
X75588867Y-68486769D01*
X75544552Y-68420447D01*
X75478230Y-68376132D01*
X75478229Y-68376131D01*
X75419752Y-68364500D01*
X75419748Y-68364500D01*
X74680252Y-68364500D01*
X74680247Y-68364500D01*
X74621770Y-68376131D01*
X74621769Y-68376132D01*
X74568891Y-68411465D01*
X74502214Y-68432343D01*
X74434834Y-68413859D01*
X74431109Y-68411465D01*
X74378230Y-68376132D01*
X74378229Y-68376131D01*
X74319752Y-68364500D01*
X74319748Y-68364500D01*
X73580252Y-68364500D01*
X73580247Y-68364500D01*
X73521770Y-68376131D01*
X73521769Y-68376132D01*
X73455447Y-68420447D01*
X73411132Y-68486769D01*
X73411131Y-68486770D01*
X73399500Y-68545247D01*
X73399500Y-69284752D01*
X73411131Y-69343229D01*
X73411132Y-69343230D01*
X73455447Y-69409552D01*
X73499762Y-69439162D01*
X73521769Y-69453867D01*
X73549690Y-69459421D01*
X73611601Y-69491804D01*
X73646176Y-69552519D01*
X73649500Y-69581038D01*
X73649500Y-70406918D01*
X73629815Y-70473957D01*
X73577011Y-70519712D01*
X73507853Y-70529656D01*
X73491203Y-70525090D01*
X73491037Y-70525712D01*
X73483187Y-70523608D01*
X73483186Y-70523608D01*
X73355892Y-70489500D01*
X73224108Y-70489500D01*
X73096814Y-70523608D01*
X73096813Y-70523608D01*
X73096811Y-70523609D01*
X73096806Y-70523610D01*
X73025118Y-70565000D01*
X72957218Y-70581473D01*
X72891191Y-70558620D01*
X72860017Y-70526504D01*
X72818552Y-70464447D01*
X72752230Y-70420132D01*
X72752229Y-70420131D01*
X72693752Y-70408500D01*
X72693748Y-70408500D01*
X71130252Y-70408500D01*
X71130247Y-70408500D01*
X71071770Y-70420131D01*
X71071769Y-70420132D01*
X71005447Y-70464447D01*
X70961132Y-70530769D01*
X70961131Y-70530770D01*
X70948311Y-70595226D01*
X70946727Y-70594911D01*
X70923492Y-70652446D01*
X70866456Y-70692802D01*
X70826254Y-70699500D01*
X70364653Y-70699500D01*
X70358425Y-70699499D01*
X70358404Y-70699493D01*
X70215214Y-70699495D01*
X70033054Y-70723479D01*
X69855596Y-70771031D01*
X69685847Y-70841345D01*
X69685843Y-70841347D01*
X69535954Y-70927887D01*
X69473953Y-70944500D01*
X68901730Y-70944500D01*
X68871300Y-70947353D01*
X68871298Y-70947353D01*
X68743119Y-70992206D01*
X68743117Y-70992207D01*
X68633850Y-71072850D01*
X68553207Y-71182117D01*
X68553206Y-71182119D01*
X68508353Y-71310298D01*
X68508353Y-71310300D01*
X68505500Y-71340730D01*
X65500500Y-71340730D01*
X65500500Y-68976582D01*
X68231001Y-68976582D01*
X68237408Y-69047102D01*
X68237409Y-69047107D01*
X68287981Y-69209396D01*
X68375927Y-69354877D01*
X68496122Y-69475072D01*
X68641604Y-69563019D01*
X68641603Y-69563019D01*
X68803894Y-69613590D01*
X68803892Y-69613590D01*
X68874418Y-69619999D01*
X69456000Y-69619999D01*
X69537581Y-69619999D01*
X69608102Y-69613591D01*
X69608107Y-69613590D01*
X69770396Y-69563018D01*
X69915877Y-69475072D01*
X70036072Y-69354877D01*
X70124019Y-69209395D01*
X70174590Y-69047106D01*
X70181000Y-68976572D01*
X70181000Y-68970000D01*
X69456000Y-68970000D01*
X69456000Y-69619999D01*
X68874418Y-69619999D01*
X68955999Y-69619998D01*
X68956000Y-69619998D01*
X68956000Y-68970000D01*
X68231001Y-68970000D01*
X68231001Y-68976582D01*
X65500500Y-68976582D01*
X65500500Y-68463427D01*
X68231000Y-68463427D01*
X68231000Y-68470000D01*
X70180999Y-68470000D01*
X70180999Y-68463417D01*
X70174591Y-68392897D01*
X70174590Y-68392892D01*
X70124018Y-68230603D01*
X70036072Y-68085122D01*
X69915877Y-67964927D01*
X69770395Y-67876980D01*
X69770396Y-67876980D01*
X69689791Y-67851863D01*
X69631643Y-67813126D01*
X69603669Y-67749100D01*
X69614751Y-67680115D01*
X69661369Y-67628072D01*
X69670369Y-67623002D01*
X69719342Y-67598050D01*
X69809050Y-67508342D01*
X69822042Y-67482844D01*
X73100000Y-67482844D01*
X73106401Y-67542372D01*
X73106403Y-67542379D01*
X73156645Y-67677086D01*
X73156649Y-67677093D01*
X73242809Y-67792187D01*
X73242812Y-67792190D01*
X73357906Y-67878350D01*
X73357913Y-67878354D01*
X73492620Y-67928596D01*
X73492627Y-67928598D01*
X73552155Y-67934999D01*
X73552172Y-67935000D01*
X73700000Y-67935000D01*
X73700000Y-67335000D01*
X73100000Y-67335000D01*
X73100000Y-67482844D01*
X69822042Y-67482844D01*
X69866646Y-67395304D01*
X69875190Y-67341355D01*
X69889704Y-67310737D01*
X69903695Y-67279847D01*
X69904736Y-67279029D01*
X69905118Y-67278224D01*
X69930296Y-67256651D01*
X69935667Y-67253174D01*
X69976253Y-67232498D01*
X70097679Y-67144286D01*
X70119211Y-67122754D01*
X70119227Y-67122742D01*
X70122781Y-67119187D01*
X70122783Y-67119187D01*
X70151526Y-67090443D01*
X70151532Y-67090440D01*
X70151531Y-67090439D01*
X70151533Y-67090436D01*
X70184402Y-67057573D01*
X70184403Y-67057569D01*
X70192267Y-67049707D01*
X70192292Y-67049676D01*
X70554814Y-66687155D01*
X73100000Y-66687155D01*
X73100000Y-66835000D01*
X73700000Y-66835000D01*
X73700000Y-66235000D01*
X73552155Y-66235000D01*
X73492627Y-66241401D01*
X73492620Y-66241403D01*
X73357913Y-66291645D01*
X73357906Y-66291649D01*
X73242812Y-66377809D01*
X73242809Y-66377812D01*
X73156649Y-66492906D01*
X73156645Y-66492913D01*
X73106403Y-66627620D01*
X73106401Y-66627627D01*
X73100000Y-66687155D01*
X70554814Y-66687155D01*
X71719152Y-65522819D01*
X71780475Y-65489334D01*
X71806833Y-65486500D01*
X72693750Y-65486500D01*
X72693751Y-65486499D01*
X72708568Y-65483552D01*
X72752229Y-65474868D01*
X72752229Y-65474867D01*
X72752231Y-65474867D01*
X72818552Y-65430552D01*
X72862867Y-65364231D01*
X72862867Y-65364229D01*
X72862868Y-65364229D01*
X72874588Y-65305309D01*
X72906973Y-65243398D01*
X72967688Y-65208824D01*
X72996205Y-65205500D01*
X76415795Y-65205500D01*
X76482834Y-65225185D01*
X76528589Y-65277989D01*
X76537412Y-65305309D01*
X76549131Y-65364229D01*
X76549132Y-65364230D01*
X76593447Y-65430552D01*
X76659769Y-65474867D01*
X76659770Y-65474868D01*
X76718247Y-65486499D01*
X76718250Y-65486500D01*
X76718252Y-65486500D01*
X78281750Y-65486500D01*
X78281751Y-65486499D01*
X78296485Y-65483568D01*
X78352210Y-65472485D01*
X78352975Y-65476331D01*
X78400433Y-65471213D01*
X78462922Y-65502467D01*
X78498231Y-65561156D01*
X78533609Y-65693189D01*
X78595051Y-65799609D01*
X78600681Y-65822816D01*
X78610490Y-65844588D01*
X78608767Y-65856147D01*
X78611524Y-65867509D01*
X78603712Y-65890079D01*
X78600194Y-65913695D01*
X78592495Y-65922488D01*
X78588672Y-65933536D01*
X78569900Y-65948298D01*
X78554171Y-65966265D01*
X78537505Y-65973773D01*
X78533750Y-65976727D01*
X78521992Y-65980763D01*
X78423667Y-66009090D01*
X78410110Y-66012184D01*
X78170371Y-66052918D01*
X78156553Y-66054475D01*
X77910314Y-66068305D01*
X77903361Y-66068500D01*
X76329860Y-66068500D01*
X76323631Y-66068499D01*
X76323617Y-66068495D01*
X76172474Y-66068496D01*
X75974575Y-66094553D01*
X75974567Y-66094554D01*
X75781751Y-66146220D01*
X75597330Y-66222611D01*
X75597326Y-66222613D01*
X75424457Y-66322420D01*
X75424446Y-66322427D01*
X75266099Y-66443932D01*
X75266089Y-66443941D01*
X75227829Y-66482200D01*
X75227828Y-66482201D01*
X75211844Y-66498184D01*
X75187635Y-66511402D01*
X75150524Y-66531666D01*
X75150521Y-66531666D01*
X75150520Y-66531667D01*
X75150516Y-66531666D01*
X75124166Y-66534500D01*
X74836556Y-66534500D01*
X74769517Y-66514815D01*
X74737290Y-66484811D01*
X74657190Y-66377812D01*
X74657187Y-66377809D01*
X74542093Y-66291649D01*
X74542086Y-66291645D01*
X74407379Y-66241403D01*
X74407372Y-66241401D01*
X74347844Y-66235000D01*
X74200000Y-66235000D01*
X74200000Y-67935000D01*
X74347828Y-67935000D01*
X74347844Y-67934999D01*
X74407372Y-67928598D01*
X74407379Y-67928596D01*
X74542086Y-67878354D01*
X74542093Y-67878350D01*
X74657187Y-67792190D01*
X74657190Y-67792187D01*
X74737290Y-67685189D01*
X74793223Y-67643318D01*
X74836556Y-67635500D01*
X75419750Y-67635500D01*
X75419751Y-67635499D01*
X75444890Y-67630499D01*
X75478229Y-67623868D01*
X75478229Y-67623867D01*
X75478231Y-67623867D01*
X75544552Y-67579552D01*
X75588867Y-67513231D01*
X75588867Y-67513229D01*
X75588868Y-67513229D01*
X75600499Y-67454752D01*
X75600500Y-67454750D01*
X75600500Y-67013719D01*
X75600629Y-67013277D01*
X75600503Y-67012834D01*
X75610474Y-66979750D01*
X75620185Y-66946680D01*
X75620577Y-66946230D01*
X75620666Y-66945936D01*
X75643966Y-66919431D01*
X75723059Y-66851880D01*
X75738781Y-66840456D01*
X75845502Y-66775057D01*
X75862813Y-66766237D01*
X75978425Y-66718348D01*
X75996925Y-66712337D01*
X76118606Y-66683123D01*
X76137815Y-66680080D01*
X76267387Y-66669882D01*
X76277117Y-66669500D01*
X76319886Y-66669500D01*
X76611788Y-66669500D01*
X76678827Y-66689185D01*
X76724582Y-66741989D01*
X76735146Y-66806103D01*
X76731000Y-66846677D01*
X76731000Y-66870000D01*
X77456000Y-66870000D01*
X77456000Y-66793500D01*
X77475685Y-66726461D01*
X77528489Y-66680706D01*
X77580000Y-66669500D01*
X77832000Y-66669500D01*
X77899039Y-66689185D01*
X77944794Y-66741989D01*
X77956000Y-66793500D01*
X77956000Y-66870000D01*
X78680999Y-66870000D01*
X78680999Y-66846692D01*
X78680998Y-66846677D01*
X78670855Y-66747392D01*
X78656831Y-66705068D01*
X78654429Y-66635239D01*
X78690161Y-66575197D01*
X78738537Y-66547405D01*
X78882839Y-66503632D01*
X79145512Y-66394829D01*
X79396256Y-66260803D01*
X79632656Y-66102846D01*
X79852436Y-65922477D01*
X79911696Y-65863214D01*
X79916652Y-65858261D01*
X79916658Y-65858257D01*
X79952957Y-65821957D01*
X79986611Y-65788302D01*
X80287909Y-65487003D01*
X80349229Y-65453520D01*
X80418920Y-65458504D01*
X80474854Y-65500375D01*
X80498525Y-65558492D01*
X80499499Y-65565887D01*
X80533608Y-65693187D01*
X80566554Y-65750250D01*
X80599500Y-65807314D01*
X80692686Y-65900500D01*
X80806814Y-65966392D01*
X80934108Y-66000500D01*
X80934110Y-66000500D01*
X81065890Y-66000500D01*
X81065892Y-66000500D01*
X81193186Y-65966392D01*
X81307314Y-65900500D01*
X81400500Y-65807314D01*
X81466392Y-65693186D01*
X81500500Y-65565892D01*
X81500500Y-65475833D01*
X81509144Y-65446393D01*
X81515667Y-65416408D01*
X81519422Y-65411390D01*
X81520185Y-65408794D01*
X81536817Y-65388153D01*
X81540732Y-65384238D01*
X81540733Y-65384238D01*
X81566338Y-65358631D01*
X81627659Y-65325147D01*
X81697351Y-65330131D01*
X81722910Y-65343211D01*
X81777769Y-65379867D01*
X81777770Y-65379868D01*
X81836247Y-65391499D01*
X81836250Y-65391500D01*
X81836252Y-65391500D01*
X83399750Y-65391500D01*
X83399751Y-65391499D01*
X83414568Y-65388552D01*
X83458229Y-65379868D01*
X83458229Y-65379867D01*
X83458231Y-65379867D01*
X83524552Y-65335552D01*
X83568867Y-65269231D01*
X83568867Y-65269229D01*
X83568868Y-65269229D01*
X83580588Y-65210309D01*
X83612973Y-65148398D01*
X83673688Y-65113824D01*
X83702205Y-65110500D01*
X87121795Y-65110500D01*
X87188834Y-65130185D01*
X87234589Y-65182989D01*
X87243412Y-65210309D01*
X87255131Y-65269229D01*
X87255132Y-65269230D01*
X87299447Y-65335552D01*
X87365769Y-65379867D01*
X87365770Y-65379868D01*
X87424247Y-65391499D01*
X87424250Y-65391500D01*
X87424252Y-65391500D01*
X88311167Y-65391500D01*
X88378206Y-65411185D01*
X88398848Y-65427819D01*
X89969075Y-66998046D01*
X89969076Y-66998048D01*
X89969127Y-66998099D01*
X89969131Y-66998107D01*
X90005420Y-67034395D01*
X90005420Y-67034396D01*
X90071182Y-67100157D01*
X90221661Y-67209485D01*
X90221665Y-67209487D01*
X90221668Y-67209489D01*
X90296336Y-67247533D01*
X90387390Y-67293926D01*
X90387392Y-67293926D01*
X90387393Y-67293927D01*
X90463449Y-67318639D01*
X90521124Y-67358076D01*
X90543060Y-67398245D01*
X90545352Y-67405299D01*
X90545353Y-67405302D01*
X90545354Y-67405304D01*
X90602950Y-67518342D01*
X90602952Y-67518344D01*
X90602954Y-67518347D01*
X90692652Y-67608045D01*
X90692654Y-67608046D01*
X90692658Y-67608050D01*
X90741612Y-67632993D01*
X90792408Y-67680968D01*
X90809203Y-67748789D01*
X90786665Y-67814924D01*
X90731950Y-67858375D01*
X90722208Y-67861863D01*
X90641603Y-67886981D01*
X90496122Y-67974927D01*
X90375927Y-68095122D01*
X90287980Y-68240604D01*
X90237409Y-68402893D01*
X90231000Y-68473427D01*
X90231000Y-68480000D01*
X92180999Y-68480000D01*
X92180999Y-68473417D01*
X92174591Y-68402897D01*
X92174590Y-68402892D01*
X92124018Y-68240603D01*
X92036072Y-68095122D01*
X91915877Y-67974927D01*
X91770395Y-67886980D01*
X91770396Y-67886980D01*
X91689791Y-67861863D01*
X91631643Y-67823126D01*
X91603669Y-67759100D01*
X91614751Y-67690115D01*
X91661369Y-67638072D01*
X91670369Y-67633002D01*
X91719342Y-67608050D01*
X91809050Y-67518342D01*
X91866646Y-67405304D01*
X91866646Y-67405302D01*
X91866647Y-67405301D01*
X91881499Y-67311524D01*
X91881500Y-67311519D01*
X91881499Y-66848482D01*
X91866646Y-66754696D01*
X91809050Y-66641658D01*
X91809046Y-66641654D01*
X91809045Y-66641652D01*
X91719347Y-66551954D01*
X91719344Y-66551952D01*
X91719342Y-66551950D01*
X91642517Y-66512805D01*
X91606301Y-66494352D01*
X91512524Y-66479500D01*
X90899482Y-66479500D01*
X90818519Y-66492323D01*
X90805696Y-66494354D01*
X90692658Y-66551950D01*
X90692657Y-66551951D01*
X90692656Y-66551951D01*
X90622341Y-66622266D01*
X90619824Y-66623639D01*
X90618340Y-66626092D01*
X90589343Y-66640283D01*
X90561017Y-66655750D01*
X90558158Y-66655545D01*
X90555583Y-66656806D01*
X90523508Y-66653067D01*
X90491326Y-66650765D01*
X90488166Y-66648947D01*
X90486184Y-66648716D01*
X90455993Y-66630435D01*
X90435126Y-66613309D01*
X90426113Y-66605141D01*
X90396735Y-66575764D01*
X90396735Y-66575763D01*
X90396733Y-66575762D01*
X89192673Y-65371702D01*
X89159188Y-65310379D01*
X89158737Y-65259828D01*
X89162006Y-65243398D01*
X89168500Y-65210748D01*
X89168500Y-64409252D01*
X89168500Y-64409249D01*
X89168499Y-64409247D01*
X89156868Y-64350770D01*
X89156867Y-64350769D01*
X89112552Y-64284447D01*
X89046230Y-64240132D01*
X89046229Y-64240131D01*
X88987752Y-64228500D01*
X88987748Y-64228500D01*
X87424252Y-64228500D01*
X87424247Y-64228500D01*
X87365770Y-64240131D01*
X87365769Y-64240132D01*
X87299447Y-64284447D01*
X87255132Y-64350769D01*
X87255131Y-64350770D01*
X87243412Y-64409691D01*
X87211027Y-64471602D01*
X87150312Y-64506176D01*
X87121795Y-64509500D01*
X83702205Y-64509500D01*
X83635166Y-64489815D01*
X83589411Y-64437011D01*
X83580588Y-64409691D01*
X83568868Y-64350770D01*
X83568867Y-64350769D01*
X83524552Y-64284447D01*
X83458230Y-64240132D01*
X83458229Y-64240131D01*
X83399752Y-64228500D01*
X83399748Y-64228500D01*
X81836252Y-64228500D01*
X81836247Y-64228500D01*
X81777770Y-64240131D01*
X81777769Y-64240132D01*
X81711447Y-64284447D01*
X81667132Y-64350769D01*
X81667131Y-64350770D01*
X81655500Y-64409247D01*
X81655500Y-64516077D01*
X81635815Y-64583116D01*
X81583011Y-64628871D01*
X81578955Y-64630637D01*
X81524298Y-64653277D01*
X81524284Y-64653284D01*
X81363011Y-64746395D01*
X81215258Y-64859769D01*
X81181721Y-64893306D01*
X81177390Y-64897636D01*
X81177390Y-64897637D01*
X81111844Y-64963182D01*
X81050524Y-64996666D01*
X81024165Y-64999500D01*
X81004315Y-64999500D01*
X80937276Y-64979815D01*
X80891521Y-64927011D01*
X80881577Y-64857853D01*
X80896928Y-64813499D01*
X80900497Y-64807316D01*
X80900500Y-64807314D01*
X80966392Y-64693186D01*
X81000500Y-64565892D01*
X81000500Y-64434108D01*
X80966392Y-64306814D01*
X80900500Y-64192686D01*
X80807314Y-64099500D01*
X80807312Y-64099499D01*
X80807310Y-64099497D01*
X80690206Y-64031887D01*
X80641990Y-63981320D01*
X80628768Y-63912713D01*
X80654736Y-63847848D01*
X80711650Y-63807320D01*
X80752206Y-63800500D01*
X90082964Y-63800500D01*
X90092696Y-63800883D01*
X90108570Y-63802132D01*
X90206017Y-63809805D01*
X90225221Y-63812847D01*
X90331020Y-63838250D01*
X90349509Y-63844258D01*
X90428956Y-63877168D01*
X90483358Y-63921009D01*
X90505421Y-63987304D01*
X90505500Y-63991727D01*
X90505500Y-64459269D01*
X90508353Y-64489699D01*
X90508353Y-64489701D01*
X90547361Y-64601176D01*
X90553207Y-64617882D01*
X90633850Y-64727150D01*
X90743118Y-64807793D01*
X90759425Y-64813499D01*
X90871299Y-64852646D01*
X90901730Y-64855500D01*
X90901734Y-64855500D01*
X91510270Y-64855500D01*
X91540699Y-64852646D01*
X91540701Y-64852646D01*
X91604790Y-64830219D01*
X91668882Y-64807793D01*
X91778150Y-64727150D01*
X91858793Y-64617882D01*
X91882710Y-64549530D01*
X91903646Y-64489701D01*
X91903646Y-64489699D01*
X91906500Y-64459269D01*
X91906500Y-63850730D01*
X91903646Y-63820300D01*
X91903646Y-63820298D01*
X91867133Y-63715953D01*
X91858793Y-63692118D01*
X91778150Y-63582850D01*
X91668882Y-63502207D01*
X91668880Y-63502206D01*
X91540700Y-63457353D01*
X91510270Y-63454500D01*
X91510266Y-63454500D01*
X90942837Y-63454500D01*
X90880836Y-63437886D01*
X90716652Y-63343091D01*
X90716635Y-63343083D01*
X90544849Y-63271923D01*
X90544837Y-63271918D01*
X90365213Y-63223783D01*
X90180837Y-63199502D01*
X90135016Y-63199501D01*
X90135016Y-63199500D01*
X90127407Y-63199500D01*
X90087858Y-63199500D01*
X90087852Y-63199499D01*
X90040263Y-63199498D01*
X90040261Y-63199498D01*
X90030283Y-63199498D01*
X90030259Y-63199500D01*
X80458676Y-63199500D01*
X80429231Y-63190854D01*
X80399248Y-63184331D01*
X80394233Y-63180577D01*
X80391637Y-63179815D01*
X80370998Y-63163184D01*
X80336817Y-63129003D01*
X80303333Y-63067679D01*
X80300500Y-63041323D01*
X80300500Y-61700236D01*
X80320185Y-61633197D01*
X80372989Y-61587442D01*
X80442147Y-61577498D01*
X80456571Y-61580456D01*
X80535108Y-61601500D01*
X80535111Y-61601500D01*
X80666890Y-61601500D01*
X80666892Y-61601500D01*
X80794186Y-61567392D01*
X80908314Y-61501500D01*
X81001500Y-61408314D01*
X81067392Y-61294186D01*
X81101500Y-61166892D01*
X81101500Y-61076831D01*
X81121185Y-61009792D01*
X81137815Y-60989154D01*
X81421919Y-60705050D01*
X81421921Y-60705050D01*
X81443822Y-60683147D01*
X81474447Y-60666427D01*
X81505140Y-60649667D01*
X81505144Y-60649667D01*
X81505147Y-60649666D01*
X81539194Y-60652102D01*
X81574832Y-60654651D01*
X81574834Y-60654652D01*
X81574838Y-60654653D01*
X81605823Y-60677850D01*
X81630766Y-60696521D01*
X81630767Y-60696523D01*
X81630770Y-60696526D01*
X81641230Y-60724575D01*
X81655184Y-60761985D01*
X81655500Y-60770833D01*
X81655500Y-61400752D01*
X81667131Y-61459229D01*
X81667132Y-61459230D01*
X81711447Y-61525552D01*
X81777769Y-61569867D01*
X81777770Y-61569868D01*
X81836247Y-61581499D01*
X81836250Y-61581500D01*
X81836252Y-61581500D01*
X83399750Y-61581500D01*
X83399751Y-61581499D01*
X83414568Y-61578552D01*
X83458229Y-61569868D01*
X83458229Y-61569867D01*
X83458231Y-61569867D01*
X83524552Y-61525552D01*
X83568867Y-61459231D01*
X83568867Y-61459229D01*
X83568868Y-61459229D01*
X83580588Y-61400309D01*
X83612973Y-61338398D01*
X83673688Y-61303824D01*
X83702205Y-61300500D01*
X87121795Y-61300500D01*
X87188834Y-61320185D01*
X87234589Y-61372989D01*
X87243412Y-61400309D01*
X87255131Y-61459229D01*
X87255132Y-61459230D01*
X87299447Y-61525552D01*
X87365769Y-61569867D01*
X87365770Y-61569868D01*
X87424247Y-61581499D01*
X87424250Y-61581500D01*
X87424252Y-61581500D01*
X88987750Y-61581500D01*
X88987751Y-61581499D01*
X89002568Y-61578552D01*
X89046229Y-61569868D01*
X89046229Y-61569867D01*
X89046231Y-61569867D01*
X89112552Y-61525552D01*
X89156867Y-61459231D01*
X89156867Y-61459229D01*
X89156868Y-61459229D01*
X89168588Y-61400309D01*
X89200973Y-61338398D01*
X89261688Y-61303824D01*
X89290205Y-61300500D01*
X90082964Y-61300500D01*
X90092696Y-61300883D01*
X90108570Y-61302132D01*
X90206017Y-61309805D01*
X90225221Y-61312847D01*
X90331020Y-61338250D01*
X90349509Y-61344258D01*
X90428956Y-61377168D01*
X90483358Y-61421009D01*
X90505421Y-61487304D01*
X90505500Y-61491727D01*
X90505500Y-61959269D01*
X90508353Y-61989699D01*
X90508353Y-61989701D01*
X90553206Y-62117880D01*
X90553207Y-62117882D01*
X90633850Y-62227150D01*
X90743118Y-62307793D01*
X90784145Y-62322149D01*
X90871299Y-62352646D01*
X90901730Y-62355500D01*
X90901734Y-62355500D01*
X91510270Y-62355500D01*
X91540699Y-62352646D01*
X91540701Y-62352646D01*
X91604790Y-62330219D01*
X91668882Y-62307793D01*
X91778150Y-62227150D01*
X91858793Y-62117882D01*
X91881219Y-62053790D01*
X91903646Y-61989701D01*
X91903646Y-61989699D01*
X91906500Y-61959269D01*
X91906500Y-61350730D01*
X91903646Y-61320300D01*
X91903646Y-61320298D01*
X91858793Y-61192119D01*
X91858792Y-61192117D01*
X91778150Y-61082850D01*
X91668882Y-61002207D01*
X91668880Y-61002206D01*
X91540700Y-60957353D01*
X91510270Y-60954500D01*
X91510266Y-60954500D01*
X90942837Y-60954500D01*
X90880836Y-60937886D01*
X90716652Y-60843091D01*
X90716635Y-60843083D01*
X90544849Y-60771923D01*
X90544837Y-60771918D01*
X90365213Y-60723783D01*
X90180837Y-60699502D01*
X90135016Y-60699501D01*
X90135016Y-60699500D01*
X90127407Y-60699500D01*
X90087858Y-60699500D01*
X90087852Y-60699499D01*
X90040263Y-60699498D01*
X90040261Y-60699498D01*
X90030283Y-60699498D01*
X90030259Y-60699500D01*
X89290205Y-60699500D01*
X89223166Y-60679815D01*
X89177411Y-60627011D01*
X89168588Y-60599691D01*
X89156868Y-60540770D01*
X89156867Y-60540769D01*
X89112552Y-60474447D01*
X89046230Y-60430132D01*
X89046229Y-60430131D01*
X88987752Y-60418500D01*
X88987748Y-60418500D01*
X87424252Y-60418500D01*
X87424247Y-60418500D01*
X87365770Y-60430131D01*
X87365769Y-60430132D01*
X87299447Y-60474447D01*
X87255132Y-60540769D01*
X87255131Y-60540770D01*
X87243412Y-60599691D01*
X87211027Y-60661602D01*
X87150312Y-60696176D01*
X87121795Y-60699500D01*
X83702205Y-60699500D01*
X83635166Y-60679815D01*
X83589411Y-60627011D01*
X83580588Y-60599691D01*
X83568868Y-60540770D01*
X83568867Y-60540769D01*
X83524552Y-60474447D01*
X83458230Y-60430132D01*
X83458229Y-60430131D01*
X83399752Y-60418500D01*
X83399748Y-60418500D01*
X83208428Y-60418500D01*
X83141389Y-60398815D01*
X83095634Y-60346011D01*
X83085690Y-60276853D01*
X83114715Y-60213297D01*
X83152132Y-60184016D01*
X83251306Y-60133482D01*
X83313977Y-60087948D01*
X83401741Y-60024183D01*
X83467547Y-60000702D01*
X83474627Y-60000500D01*
X83565890Y-60000500D01*
X83565892Y-60000500D01*
X83693186Y-59966392D01*
X83807314Y-59900500D01*
X83900500Y-59807314D01*
X83966392Y-59693186D01*
X84000500Y-59565892D01*
X84000500Y-59434108D01*
X83966392Y-59306814D01*
X83900500Y-59192686D01*
X83807314Y-59099500D01*
X83749100Y-59065890D01*
X83693187Y-59033608D01*
X83629539Y-59016554D01*
X83565892Y-58999500D01*
X83434108Y-58999500D01*
X83306812Y-59033608D01*
X83192686Y-59099500D01*
X83192683Y-59099502D01*
X83099502Y-59192683D01*
X83099500Y-59192686D01*
X83033608Y-59306812D01*
X82999500Y-59434108D01*
X82999500Y-59507496D01*
X82995551Y-59520942D01*
X82996427Y-59534933D01*
X82985901Y-59553806D01*
X82979815Y-59574535D01*
X82968538Y-59584940D01*
X82962396Y-59595955D01*
X82933955Y-59616853D01*
X82868851Y-59651653D01*
X82846396Y-59660955D01*
X82766017Y-59685341D01*
X82742177Y-59690084D01*
X82652692Y-59698902D01*
X82640532Y-59699500D01*
X82402369Y-59699500D01*
X82402345Y-59699493D01*
X82351000Y-59699493D01*
X82228608Y-59699493D01*
X82228600Y-59699493D01*
X81985923Y-59731443D01*
X81749479Y-59794798D01*
X81523328Y-59888475D01*
X81523324Y-59888477D01*
X81311339Y-60010868D01*
X81117145Y-60159881D01*
X81117144Y-60159881D01*
X81041135Y-60235892D01*
X81041134Y-60235891D01*
X81041132Y-60235895D01*
X80712847Y-60564181D01*
X80692488Y-60575297D01*
X80674689Y-60590182D01*
X80659393Y-60593368D01*
X80651524Y-60597666D01*
X80640655Y-60599529D01*
X80632942Y-60600500D01*
X80535108Y-60600500D01*
X80448400Y-60623733D01*
X80439989Y-60624792D01*
X80413535Y-60620512D01*
X80386743Y-60619875D01*
X80379567Y-60615018D01*
X80371016Y-60613635D01*
X80351075Y-60595733D01*
X80328881Y-60580712D01*
X80325470Y-60572748D01*
X80319023Y-60566960D01*
X80311925Y-60541116D01*
X80301377Y-60516484D01*
X80300500Y-60501763D01*
X80300500Y-59911143D01*
X80300503Y-59911094D01*
X80300502Y-59901130D01*
X80300503Y-59901129D01*
X80300500Y-59859625D01*
X80301096Y-59847476D01*
X80309925Y-59757784D01*
X80314664Y-59733957D01*
X80339045Y-59653570D01*
X80348339Y-59631131D01*
X80383126Y-59566046D01*
X80432087Y-59516203D01*
X80492484Y-59500500D01*
X80565890Y-59500500D01*
X80565892Y-59500500D01*
X80693186Y-59466392D01*
X80807314Y-59400500D01*
X80900500Y-59307314D01*
X80966392Y-59193186D01*
X81000500Y-59065892D01*
X81000500Y-58934108D01*
X80966392Y-58806814D01*
X80900500Y-58692686D01*
X80807314Y-58599500D01*
X80750250Y-58566554D01*
X80693187Y-58533608D01*
X80629539Y-58516554D01*
X80565892Y-58499500D01*
X80434108Y-58499500D01*
X80306812Y-58533608D01*
X80192686Y-58599500D01*
X80192683Y-58599502D01*
X80099502Y-58692683D01*
X80099500Y-58692686D01*
X80033608Y-58806812D01*
X79999500Y-58934108D01*
X79999500Y-59025337D01*
X79979815Y-59092376D01*
X79975819Y-59098221D01*
X79866499Y-59248691D01*
X79784034Y-59410546D01*
X79784030Y-59410557D01*
X79727906Y-59583310D01*
X79727903Y-59583322D01*
X79699495Y-59762740D01*
X79699500Y-59853535D01*
X79699500Y-63041323D01*
X79679815Y-63108362D01*
X79663182Y-63129004D01*
X79599500Y-63192686D01*
X79531887Y-63309794D01*
X79481319Y-63358009D01*
X79412712Y-63371231D01*
X79347848Y-63345263D01*
X79307320Y-63288349D01*
X79300500Y-63247793D01*
X79300500Y-61612032D01*
X79300516Y-61611974D01*
X79300515Y-61560655D01*
X79300516Y-61560655D01*
X79300514Y-61420096D01*
X79272956Y-61140330D01*
X79218109Y-60864613D01*
X79196827Y-60794457D01*
X79136505Y-60595606D01*
X79107313Y-60525132D01*
X79028920Y-60335879D01*
X78896400Y-60087955D01*
X78740217Y-59854213D01*
X78561876Y-59636905D01*
X78531269Y-59606298D01*
X78462485Y-59537514D01*
X78462486Y-59537514D01*
X78428831Y-59503860D01*
X78036819Y-59111848D01*
X78003334Y-59050525D01*
X78000500Y-59024167D01*
X78000500Y-58934110D01*
X78000500Y-58934108D01*
X77966392Y-58806814D01*
X77900500Y-58692686D01*
X77807314Y-58599500D01*
X77750250Y-58566554D01*
X77693187Y-58533608D01*
X77629539Y-58516554D01*
X77565892Y-58499500D01*
X77434108Y-58499500D01*
X77306812Y-58533608D01*
X77192686Y-58599500D01*
X77192683Y-58599502D01*
X77099502Y-58692683D01*
X77099500Y-58692686D01*
X77033608Y-58806812D01*
X76999500Y-58934108D01*
X76999500Y-59065892D01*
X77008505Y-59099500D01*
X77033608Y-59193187D01*
X77065654Y-59248691D01*
X77099500Y-59307314D01*
X77192686Y-59400500D01*
X77306814Y-59466392D01*
X77434108Y-59500500D01*
X77434110Y-59500500D01*
X77524167Y-59500500D01*
X77591206Y-59520185D01*
X77611848Y-59536819D01*
X78003860Y-59928831D01*
X78035065Y-59960037D01*
X78039841Y-59965090D01*
X78201765Y-60146282D01*
X78210435Y-60157154D01*
X78324381Y-60317745D01*
X78347121Y-60383810D01*
X78330534Y-60451682D01*
X78279885Y-60499812D01*
X78223252Y-60513500D01*
X76718247Y-60513500D01*
X76659770Y-60525131D01*
X76659769Y-60525132D01*
X76593447Y-60569447D01*
X76549132Y-60635769D01*
X76549131Y-60635770D01*
X76537412Y-60694691D01*
X76505027Y-60756602D01*
X76444312Y-60791176D01*
X76415795Y-60794500D01*
X72996205Y-60794500D01*
X72929166Y-60774815D01*
X72883411Y-60722011D01*
X72874588Y-60694691D01*
X72862868Y-60635770D01*
X72862867Y-60635769D01*
X72818552Y-60569447D01*
X72752230Y-60525132D01*
X72752229Y-60525131D01*
X72693752Y-60513500D01*
X72693748Y-60513500D01*
X71130252Y-60513500D01*
X71130247Y-60513500D01*
X71071770Y-60525131D01*
X71071769Y-60525132D01*
X71005447Y-60569447D01*
X70961132Y-60635769D01*
X70961131Y-60635770D01*
X70949412Y-60694691D01*
X70917027Y-60756602D01*
X70856312Y-60791176D01*
X70827795Y-60794500D01*
X70381700Y-60794500D01*
X70375508Y-60794498D01*
X70375348Y-60794451D01*
X70231157Y-60794456D01*
X70046777Y-60818738D01*
X70046777Y-60818739D01*
X69867147Y-60866880D01*
X69695337Y-60938056D01*
X69695335Y-60938057D01*
X69531112Y-61032884D01*
X69469106Y-61049500D01*
X68901730Y-61049500D01*
X68871300Y-61052353D01*
X68871298Y-61052353D01*
X68743119Y-61097206D01*
X68743117Y-61097207D01*
X68633850Y-61177850D01*
X68553207Y-61287117D01*
X68553206Y-61287119D01*
X68508353Y-61415298D01*
X68508353Y-61415300D01*
X68505500Y-61445730D01*
X68505500Y-62054269D01*
X68508353Y-62084699D01*
X68508353Y-62084701D01*
X68553206Y-62212880D01*
X68553207Y-62212882D01*
X68633850Y-62322150D01*
X68743118Y-62402793D01*
X68785845Y-62417744D01*
X68871299Y-62447646D01*
X68901730Y-62450500D01*
X68901734Y-62450500D01*
X69510270Y-62450500D01*
X69540699Y-62447646D01*
X69540701Y-62447646D01*
X69604790Y-62425219D01*
X69668882Y-62402793D01*
X69778150Y-62322150D01*
X69858793Y-62212882D01*
X69892036Y-62117880D01*
X69903646Y-62084701D01*
X69903646Y-62084699D01*
X69906500Y-62054269D01*
X69906500Y-61586686D01*
X69912130Y-61567509D01*
X69912843Y-61547534D01*
X69921773Y-61534669D01*
X69926185Y-61519647D01*
X69941288Y-61506560D01*
X69952688Y-61490139D01*
X69976644Y-61475923D01*
X69978989Y-61473892D01*
X69983041Y-61472128D01*
X70035025Y-61450592D01*
X70062482Y-61439217D01*
X70080974Y-61433207D01*
X70186779Y-61407800D01*
X70205972Y-61404759D01*
X70310060Y-61396563D01*
X70318706Y-61395883D01*
X70328439Y-61395500D01*
X70827795Y-61395500D01*
X70894834Y-61415185D01*
X70940589Y-61467989D01*
X70949412Y-61495309D01*
X70961131Y-61554229D01*
X70961132Y-61554230D01*
X71005447Y-61620552D01*
X71071769Y-61664867D01*
X71071770Y-61664868D01*
X71130247Y-61676499D01*
X71130250Y-61676500D01*
X71130252Y-61676500D01*
X72693750Y-61676500D01*
X72693751Y-61676499D01*
X72708568Y-61673552D01*
X72752229Y-61664868D01*
X72752229Y-61664867D01*
X72752231Y-61664867D01*
X72818552Y-61620552D01*
X72862867Y-61554231D01*
X72862867Y-61554229D01*
X72862868Y-61554229D01*
X72874588Y-61495309D01*
X72906973Y-61433398D01*
X72967688Y-61398824D01*
X72996205Y-61395500D01*
X76415795Y-61395500D01*
X76482834Y-61415185D01*
X76528589Y-61467989D01*
X76537412Y-61495309D01*
X76549131Y-61554229D01*
X76549132Y-61554230D01*
X76593447Y-61620552D01*
X76659769Y-61664867D01*
X76659770Y-61664868D01*
X76718247Y-61676499D01*
X76718250Y-61676500D01*
X76718252Y-61676500D01*
X78281750Y-61676500D01*
X78281751Y-61676499D01*
X78296568Y-61673552D01*
X78340229Y-61664868D01*
X78340229Y-61664867D01*
X78340231Y-61664867D01*
X78406552Y-61620552D01*
X78450867Y-61554231D01*
X78453855Y-61539205D01*
X78463003Y-61521716D01*
X78467462Y-61502488D01*
X78478863Y-61491393D01*
X78486238Y-61477295D01*
X78503391Y-61467526D01*
X78517537Y-61453762D01*
X78533126Y-61450592D01*
X78546953Y-61442719D01*
X78566663Y-61443775D01*
X78586006Y-61439843D01*
X78600835Y-61445605D01*
X78616722Y-61446457D01*
X78632731Y-61458000D01*
X78651131Y-61465151D01*
X78660490Y-61478016D01*
X78673396Y-61487322D01*
X78680623Y-61505690D01*
X78692235Y-61521651D01*
X78697932Y-61549680D01*
X78698979Y-61552339D01*
X78699266Y-61556238D01*
X78699293Y-61556705D01*
X78699500Y-61563862D01*
X78699500Y-63247793D01*
X78679815Y-63314832D01*
X78627011Y-63360587D01*
X78557853Y-63370531D01*
X78494297Y-63341506D01*
X78468113Y-63309794D01*
X78420054Y-63226555D01*
X78400500Y-63192686D01*
X78307314Y-63099500D01*
X78250250Y-63066554D01*
X78193187Y-63033608D01*
X78129539Y-63016554D01*
X78065892Y-62999500D01*
X77934108Y-62999500D01*
X77806812Y-63033608D01*
X77692686Y-63099500D01*
X77692683Y-63099502D01*
X77629005Y-63163181D01*
X77567682Y-63196666D01*
X77541324Y-63199500D01*
X70438941Y-63199500D01*
X70438754Y-63199511D01*
X70382729Y-63199511D01*
X70382728Y-63199511D01*
X70382724Y-63199511D01*
X70279996Y-63213033D01*
X70177264Y-63226555D01*
X69977110Y-63280183D01*
X69785651Y-63359485D01*
X69785647Y-63359487D01*
X69606183Y-63463098D01*
X69526977Y-63523876D01*
X69461808Y-63549070D01*
X69451491Y-63549500D01*
X68901730Y-63549500D01*
X68871300Y-63552353D01*
X68871298Y-63552353D01*
X68743119Y-63597206D01*
X68743117Y-63597207D01*
X68633850Y-63677850D01*
X68553207Y-63787117D01*
X68553206Y-63787119D01*
X68508353Y-63915298D01*
X68508353Y-63915300D01*
X68505500Y-63945730D01*
X68505500Y-64554269D01*
X68508353Y-64584699D01*
X68508353Y-64584701D01*
X68546646Y-64694132D01*
X68553207Y-64712882D01*
X68633850Y-64822150D01*
X68743118Y-64902793D01*
X68785845Y-64917744D01*
X68871299Y-64947646D01*
X68901730Y-64950500D01*
X68901734Y-64950500D01*
X69510270Y-64950500D01*
X69540699Y-64947646D01*
X69540701Y-64947646D01*
X69604790Y-64925219D01*
X69668882Y-64902793D01*
X69778150Y-64822150D01*
X69858793Y-64712882D01*
X69892036Y-64617880D01*
X69903646Y-64584701D01*
X69903646Y-64584699D01*
X69906500Y-64554269D01*
X69906500Y-64059466D01*
X69909425Y-64049503D01*
X69908168Y-64039194D01*
X69919101Y-64016549D01*
X69926185Y-63992427D01*
X69934839Y-63983955D01*
X69938548Y-63976275D01*
X69965710Y-63953739D01*
X70023866Y-63918101D01*
X70033173Y-63912397D01*
X70050503Y-63903567D01*
X70174530Y-63852195D01*
X70193029Y-63846185D01*
X70323565Y-63814848D01*
X70342762Y-63811808D01*
X70481635Y-63800881D01*
X70491354Y-63800500D01*
X70533918Y-63800501D01*
X70533921Y-63800500D01*
X77541324Y-63800500D01*
X77608363Y-63820185D01*
X77629005Y-63836819D01*
X77692686Y-63900500D01*
X77806814Y-63966392D01*
X77934108Y-64000500D01*
X77934110Y-64000500D01*
X78065890Y-64000500D01*
X78065892Y-64000500D01*
X78193186Y-63966392D01*
X78307314Y-63900500D01*
X78400500Y-63807314D01*
X78435723Y-63746306D01*
X78468113Y-63690206D01*
X78518680Y-63641990D01*
X78587287Y-63628768D01*
X78652152Y-63654736D01*
X78692680Y-63711650D01*
X78699500Y-63752206D01*
X78699500Y-64436736D01*
X78679815Y-64503775D01*
X78627011Y-64549530D01*
X78557853Y-64559474D01*
X78494297Y-64530449D01*
X78456523Y-64471671D01*
X78453883Y-64460928D01*
X78450867Y-64445770D01*
X78450867Y-64445769D01*
X78406552Y-64379447D01*
X78340230Y-64335132D01*
X78340229Y-64335131D01*
X78281752Y-64323500D01*
X78281748Y-64323500D01*
X76718252Y-64323500D01*
X76718247Y-64323500D01*
X76659770Y-64335131D01*
X76659769Y-64335132D01*
X76593447Y-64379447D01*
X76549132Y-64445769D01*
X76549131Y-64445770D01*
X76537412Y-64504691D01*
X76505027Y-64566602D01*
X76444312Y-64601176D01*
X76415795Y-64604500D01*
X72996205Y-64604500D01*
X72929166Y-64584815D01*
X72883411Y-64532011D01*
X72874588Y-64504691D01*
X72862868Y-64445770D01*
X72862867Y-64445769D01*
X72818552Y-64379447D01*
X72752230Y-64335132D01*
X72752229Y-64335131D01*
X72693752Y-64323500D01*
X72693748Y-64323500D01*
X71130252Y-64323500D01*
X71130247Y-64323500D01*
X71071770Y-64335131D01*
X71071769Y-64335132D01*
X71005447Y-64379447D01*
X70961132Y-64445769D01*
X70961131Y-64445770D01*
X70949500Y-64504247D01*
X70949500Y-65305752D01*
X70959262Y-65354829D01*
X70953035Y-65424421D01*
X70925326Y-65466701D01*
X69869653Y-66522374D01*
X69808330Y-66555859D01*
X69738638Y-66550875D01*
X69725677Y-66545178D01*
X69606301Y-66484352D01*
X69512524Y-66469500D01*
X68899482Y-66469500D01*
X68819297Y-66482200D01*
X68805696Y-66484354D01*
X68692658Y-66541950D01*
X68692657Y-66541951D01*
X68692652Y-66541954D01*
X68602954Y-66631652D01*
X68602951Y-66631657D01*
X68602950Y-66631658D01*
X68586671Y-66663608D01*
X68545352Y-66744698D01*
X68530500Y-66838475D01*
X68530500Y-67301517D01*
X68536911Y-67341993D01*
X68545354Y-67395304D01*
X68602950Y-67508342D01*
X68602952Y-67508344D01*
X68602954Y-67508347D01*
X68692652Y-67598045D01*
X68692654Y-67598046D01*
X68692658Y-67598050D01*
X68741612Y-67622993D01*
X68792408Y-67670968D01*
X68809203Y-67738789D01*
X68786665Y-67804924D01*
X68731950Y-67848375D01*
X68722208Y-67851863D01*
X68641603Y-67876981D01*
X68496122Y-67964927D01*
X68375927Y-68085122D01*
X68287980Y-68230604D01*
X68237409Y-68392893D01*
X68231000Y-68463427D01*
X65500500Y-68463427D01*
X65500500Y-55003051D01*
X65500649Y-54996966D01*
X65506459Y-54878711D01*
X67149500Y-54878711D01*
X67149500Y-55121288D01*
X67181161Y-55361785D01*
X67243947Y-55596104D01*
X67336773Y-55820205D01*
X67336776Y-55820212D01*
X67458064Y-56030289D01*
X67458066Y-56030292D01*
X67458067Y-56030293D01*
X67605733Y-56222736D01*
X67605739Y-56222743D01*
X67777256Y-56394260D01*
X67777262Y-56394265D01*
X67969711Y-56541936D01*
X68179788Y-56663224D01*
X68403900Y-56756054D01*
X68638211Y-56818838D01*
X68818586Y-56842584D01*
X68878711Y-56850500D01*
X68878712Y-56850500D01*
X69121289Y-56850500D01*
X69169388Y-56844167D01*
X69361789Y-56818838D01*
X69596100Y-56756054D01*
X69820212Y-56663224D01*
X70030289Y-56541936D01*
X70222738Y-56394265D01*
X70394265Y-56222738D01*
X70541936Y-56030289D01*
X70663224Y-55820212D01*
X70756054Y-55596100D01*
X70818838Y-55361789D01*
X70850500Y-55121288D01*
X70850500Y-54878712D01*
X70850500Y-54878711D01*
X89649500Y-54878711D01*
X89649500Y-55121288D01*
X89681161Y-55361785D01*
X89743947Y-55596104D01*
X89836773Y-55820205D01*
X89836776Y-55820212D01*
X89958064Y-56030289D01*
X89958066Y-56030292D01*
X89958067Y-56030293D01*
X90105733Y-56222736D01*
X90105739Y-56222743D01*
X90277256Y-56394260D01*
X90277262Y-56394265D01*
X90469711Y-56541936D01*
X90679788Y-56663224D01*
X90903900Y-56756054D01*
X91138211Y-56818838D01*
X91318586Y-56842584D01*
X91378711Y-56850500D01*
X91378712Y-56850500D01*
X91621289Y-56850500D01*
X91669388Y-56844167D01*
X91861789Y-56818838D01*
X92096100Y-56756054D01*
X92320212Y-56663224D01*
X92530289Y-56541936D01*
X92722738Y-56394265D01*
X92894265Y-56222738D01*
X93041936Y-56030289D01*
X93163224Y-55820212D01*
X93256054Y-55596100D01*
X93318838Y-55361789D01*
X93350500Y-55121288D01*
X93350500Y-54878712D01*
X93349164Y-54868567D01*
X93322111Y-54663072D01*
X93318838Y-54638211D01*
X93256054Y-54403900D01*
X93163224Y-54179788D01*
X93041936Y-53969711D01*
X92894265Y-53777262D01*
X92894260Y-53777256D01*
X92722743Y-53605739D01*
X92722736Y-53605733D01*
X92530293Y-53458067D01*
X92530292Y-53458066D01*
X92530289Y-53458064D01*
X92320212Y-53336776D01*
X92320205Y-53336773D01*
X92096104Y-53243947D01*
X91861785Y-53181161D01*
X91621289Y-53149500D01*
X91621288Y-53149500D01*
X91378712Y-53149500D01*
X91378711Y-53149500D01*
X91138214Y-53181161D01*
X90903895Y-53243947D01*
X90679794Y-53336773D01*
X90679785Y-53336777D01*
X90469706Y-53458067D01*
X90277263Y-53605733D01*
X90277256Y-53605739D01*
X90105739Y-53777256D01*
X90105733Y-53777263D01*
X89958067Y-53969706D01*
X89836777Y-54179785D01*
X89836773Y-54179794D01*
X89743947Y-54403895D01*
X89681161Y-54638214D01*
X89649500Y-54878711D01*
X70850500Y-54878711D01*
X70849164Y-54868567D01*
X70822111Y-54663072D01*
X70818838Y-54638211D01*
X70756054Y-54403900D01*
X70663224Y-54179788D01*
X70541936Y-53969711D01*
X70394265Y-53777262D01*
X70394260Y-53777256D01*
X70222743Y-53605739D01*
X70222736Y-53605733D01*
X70030293Y-53458067D01*
X70030292Y-53458066D01*
X70030289Y-53458064D01*
X69820212Y-53336776D01*
X69820205Y-53336773D01*
X69596104Y-53243947D01*
X69361785Y-53181161D01*
X69121289Y-53149500D01*
X69121288Y-53149500D01*
X68878712Y-53149500D01*
X68878711Y-53149500D01*
X68638214Y-53181161D01*
X68403895Y-53243947D01*
X68179794Y-53336773D01*
X68179785Y-53336777D01*
X67969706Y-53458067D01*
X67777263Y-53605733D01*
X67777256Y-53605739D01*
X67605739Y-53777256D01*
X67605733Y-53777263D01*
X67458067Y-53969706D01*
X67336777Y-54179785D01*
X67336773Y-54179794D01*
X67243947Y-54403895D01*
X67181161Y-54638214D01*
X67149500Y-54878711D01*
X65506459Y-54878711D01*
X65506957Y-54868568D01*
X65506957Y-54868567D01*
X65517052Y-54663072D01*
X65518245Y-54650962D01*
X65520136Y-54638211D01*
X65566849Y-54323296D01*
X65569218Y-54311385D01*
X65649710Y-53990043D01*
X65653240Y-53978411D01*
X65725212Y-53777263D01*
X65764835Y-53666525D01*
X65769476Y-53655318D01*
X65911124Y-53355828D01*
X65916840Y-53345136D01*
X66087145Y-53060998D01*
X66093888Y-53050905D01*
X66291232Y-52784818D01*
X66298935Y-52775433D01*
X66521405Y-52529975D01*
X66529975Y-52521405D01*
X66775433Y-52298935D01*
X66784818Y-52291232D01*
X67050905Y-52093888D01*
X67060998Y-52087145D01*
X67345136Y-51916840D01*
X67355828Y-51911124D01*
X67655318Y-51769476D01*
X67666525Y-51764835D01*
X67978412Y-51653239D01*
X67990043Y-51649710D01*
X68311385Y-51569218D01*
X68323296Y-51566849D01*
X68650962Y-51518244D01*
X68663068Y-51517052D01*
X68996967Y-51500648D01*
X69003051Y-51500500D01*
X69065892Y-51500500D01*
X91434108Y-51500500D01*
X91496949Y-51500500D01*
X91503032Y-51500648D01*
G37*
%TD.AperFunction*%
%TD*%
M02*
