%TF.GenerationSoftware,KiCad,Pcbnew,9.0.5*%
%TF.CreationDate,2026-03-26T21:22:33+08:00*%
%TF.ProjectId,pump_matrix,70756d70-5f6d-4617-9472-69782e6b6963,rev?*%
%TF.SameCoordinates,Original*%
%TF.FileFunction,Legend,Top*%
%TF.FilePolarity,Positive*%
%FSLAX46Y46*%
G04 Gerber Fmt 4.6, Leading zero omitted, Abs format (unit mm)*
G04 Created by KiCad (PCBNEW 9.0.5) date 2026-03-26 21:22:33*
%MOMM*%
%LPD*%
G01*
G04 APERTURE LIST*
%ADD10C,0.150000*%
%ADD11C,0.127000*%
%ADD12C,0.200000*%
%ADD13C,0.120000*%
%ADD14C,0.203200*%
G04 APERTURE END LIST*
D10*
X93454819Y-73738094D02*
X92454819Y-73738094D01*
X92454819Y-73738094D02*
X92454819Y-73499999D01*
X92454819Y-73499999D02*
X92502438Y-73357142D01*
X92502438Y-73357142D02*
X92597676Y-73261904D01*
X92597676Y-73261904D02*
X92692914Y-73214285D01*
X92692914Y-73214285D02*
X92883390Y-73166666D01*
X92883390Y-73166666D02*
X93026247Y-73166666D01*
X93026247Y-73166666D02*
X93216723Y-73214285D01*
X93216723Y-73214285D02*
X93311961Y-73261904D01*
X93311961Y-73261904D02*
X93407200Y-73357142D01*
X93407200Y-73357142D02*
X93454819Y-73499999D01*
X93454819Y-73499999D02*
X93454819Y-73738094D01*
X92454819Y-72261904D02*
X92454819Y-72738094D01*
X92454819Y-72738094D02*
X92931009Y-72785713D01*
X92931009Y-72785713D02*
X92883390Y-72738094D01*
X92883390Y-72738094D02*
X92835771Y-72642856D01*
X92835771Y-72642856D02*
X92835771Y-72404761D01*
X92835771Y-72404761D02*
X92883390Y-72309523D01*
X92883390Y-72309523D02*
X92931009Y-72261904D01*
X92931009Y-72261904D02*
X93026247Y-72214285D01*
X93026247Y-72214285D02*
X93264342Y-72214285D01*
X93264342Y-72214285D02*
X93359580Y-72261904D01*
X93359580Y-72261904D02*
X93407200Y-72309523D01*
X93407200Y-72309523D02*
X93454819Y-72404761D01*
X93454819Y-72404761D02*
X93454819Y-72642856D01*
X93454819Y-72642856D02*
X93407200Y-72738094D01*
X93407200Y-72738094D02*
X93359580Y-72785713D01*
X79238095Y-96454819D02*
X79238095Y-97264342D01*
X79238095Y-97264342D02*
X79285714Y-97359580D01*
X79285714Y-97359580D02*
X79333333Y-97407200D01*
X79333333Y-97407200D02*
X79428571Y-97454819D01*
X79428571Y-97454819D02*
X79619047Y-97454819D01*
X79619047Y-97454819D02*
X79714285Y-97407200D01*
X79714285Y-97407200D02*
X79761904Y-97359580D01*
X79761904Y-97359580D02*
X79809523Y-97264342D01*
X79809523Y-97264342D02*
X79809523Y-96454819D01*
X80809523Y-97454819D02*
X80238095Y-97454819D01*
X80523809Y-97454819D02*
X80523809Y-96454819D01*
X80523809Y-96454819D02*
X80428571Y-96597676D01*
X80428571Y-96597676D02*
X80333333Y-96692914D01*
X80333333Y-96692914D02*
X80238095Y-96740533D01*
X67810819Y-73633094D02*
X66810819Y-73633094D01*
X66810819Y-73633094D02*
X66810819Y-73394999D01*
X66810819Y-73394999D02*
X66858438Y-73252142D01*
X66858438Y-73252142D02*
X66953676Y-73156904D01*
X66953676Y-73156904D02*
X67048914Y-73109285D01*
X67048914Y-73109285D02*
X67239390Y-73061666D01*
X67239390Y-73061666D02*
X67382247Y-73061666D01*
X67382247Y-73061666D02*
X67572723Y-73109285D01*
X67572723Y-73109285D02*
X67667961Y-73156904D01*
X67667961Y-73156904D02*
X67763200Y-73252142D01*
X67763200Y-73252142D02*
X67810819Y-73394999D01*
X67810819Y-73394999D02*
X67810819Y-73633094D01*
X66906057Y-72680713D02*
X66858438Y-72633094D01*
X66858438Y-72633094D02*
X66810819Y-72537856D01*
X66810819Y-72537856D02*
X66810819Y-72299761D01*
X66810819Y-72299761D02*
X66858438Y-72204523D01*
X66858438Y-72204523D02*
X66906057Y-72156904D01*
X66906057Y-72156904D02*
X67001295Y-72109285D01*
X67001295Y-72109285D02*
X67096533Y-72109285D01*
X67096533Y-72109285D02*
X67239390Y-72156904D01*
X67239390Y-72156904D02*
X67810819Y-72728332D01*
X67810819Y-72728332D02*
X67810819Y-72109285D01*
X93454819Y-83738094D02*
X92454819Y-83738094D01*
X92454819Y-83738094D02*
X92454819Y-83499999D01*
X92454819Y-83499999D02*
X92502438Y-83357142D01*
X92502438Y-83357142D02*
X92597676Y-83261904D01*
X92597676Y-83261904D02*
X92692914Y-83214285D01*
X92692914Y-83214285D02*
X92883390Y-83166666D01*
X92883390Y-83166666D02*
X93026247Y-83166666D01*
X93026247Y-83166666D02*
X93216723Y-83214285D01*
X93216723Y-83214285D02*
X93311961Y-83261904D01*
X93311961Y-83261904D02*
X93407200Y-83357142D01*
X93407200Y-83357142D02*
X93454819Y-83499999D01*
X93454819Y-83499999D02*
X93454819Y-83738094D01*
X92454819Y-82309523D02*
X92454819Y-82499999D01*
X92454819Y-82499999D02*
X92502438Y-82595237D01*
X92502438Y-82595237D02*
X92550057Y-82642856D01*
X92550057Y-82642856D02*
X92692914Y-82738094D01*
X92692914Y-82738094D02*
X92883390Y-82785713D01*
X92883390Y-82785713D02*
X93264342Y-82785713D01*
X93264342Y-82785713D02*
X93359580Y-82738094D01*
X93359580Y-82738094D02*
X93407200Y-82690475D01*
X93407200Y-82690475D02*
X93454819Y-82595237D01*
X93454819Y-82595237D02*
X93454819Y-82404761D01*
X93454819Y-82404761D02*
X93407200Y-82309523D01*
X93407200Y-82309523D02*
X93359580Y-82261904D01*
X93359580Y-82261904D02*
X93264342Y-82214285D01*
X93264342Y-82214285D02*
X93026247Y-82214285D01*
X93026247Y-82214285D02*
X92931009Y-82261904D01*
X92931009Y-82261904D02*
X92883390Y-82309523D01*
X92883390Y-82309523D02*
X92835771Y-82404761D01*
X92835771Y-82404761D02*
X92835771Y-82595237D01*
X92835771Y-82595237D02*
X92883390Y-82690475D01*
X92883390Y-82690475D02*
X92931009Y-82738094D01*
X92931009Y-82738094D02*
X93026247Y-82785713D01*
X67604819Y-83738094D02*
X66604819Y-83738094D01*
X66604819Y-83738094D02*
X66604819Y-83499999D01*
X66604819Y-83499999D02*
X66652438Y-83357142D01*
X66652438Y-83357142D02*
X66747676Y-83261904D01*
X66747676Y-83261904D02*
X66842914Y-83214285D01*
X66842914Y-83214285D02*
X67033390Y-83166666D01*
X67033390Y-83166666D02*
X67176247Y-83166666D01*
X67176247Y-83166666D02*
X67366723Y-83214285D01*
X67366723Y-83214285D02*
X67461961Y-83261904D01*
X67461961Y-83261904D02*
X67557200Y-83357142D01*
X67557200Y-83357142D02*
X67604819Y-83499999D01*
X67604819Y-83499999D02*
X67604819Y-83738094D01*
X66604819Y-82833332D02*
X66604819Y-82214285D01*
X66604819Y-82214285D02*
X66985771Y-82547618D01*
X66985771Y-82547618D02*
X66985771Y-82404761D01*
X66985771Y-82404761D02*
X67033390Y-82309523D01*
X67033390Y-82309523D02*
X67081009Y-82261904D01*
X67081009Y-82261904D02*
X67176247Y-82214285D01*
X67176247Y-82214285D02*
X67414342Y-82214285D01*
X67414342Y-82214285D02*
X67509580Y-82261904D01*
X67509580Y-82261904D02*
X67557200Y-82309523D01*
X67557200Y-82309523D02*
X67604819Y-82404761D01*
X67604819Y-82404761D02*
X67604819Y-82690475D01*
X67604819Y-82690475D02*
X67557200Y-82785713D01*
X67557200Y-82785713D02*
X67509580Y-82833332D01*
X67810819Y-63738094D02*
X66810819Y-63738094D01*
X66810819Y-63738094D02*
X66810819Y-63499999D01*
X66810819Y-63499999D02*
X66858438Y-63357142D01*
X66858438Y-63357142D02*
X66953676Y-63261904D01*
X66953676Y-63261904D02*
X67048914Y-63214285D01*
X67048914Y-63214285D02*
X67239390Y-63166666D01*
X67239390Y-63166666D02*
X67382247Y-63166666D01*
X67382247Y-63166666D02*
X67572723Y-63214285D01*
X67572723Y-63214285D02*
X67667961Y-63261904D01*
X67667961Y-63261904D02*
X67763200Y-63357142D01*
X67763200Y-63357142D02*
X67810819Y-63499999D01*
X67810819Y-63499999D02*
X67810819Y-63738094D01*
X67810819Y-62214285D02*
X67810819Y-62785713D01*
X67810819Y-62499999D02*
X66810819Y-62499999D01*
X66810819Y-62499999D02*
X66953676Y-62595237D01*
X66953676Y-62595237D02*
X67048914Y-62690475D01*
X67048914Y-62690475D02*
X67096533Y-62785713D01*
X93454819Y-63738094D02*
X92454819Y-63738094D01*
X92454819Y-63738094D02*
X92454819Y-63499999D01*
X92454819Y-63499999D02*
X92502438Y-63357142D01*
X92502438Y-63357142D02*
X92597676Y-63261904D01*
X92597676Y-63261904D02*
X92692914Y-63214285D01*
X92692914Y-63214285D02*
X92883390Y-63166666D01*
X92883390Y-63166666D02*
X93026247Y-63166666D01*
X93026247Y-63166666D02*
X93216723Y-63214285D01*
X93216723Y-63214285D02*
X93311961Y-63261904D01*
X93311961Y-63261904D02*
X93407200Y-63357142D01*
X93407200Y-63357142D02*
X93454819Y-63499999D01*
X93454819Y-63499999D02*
X93454819Y-63738094D01*
X92788152Y-62309523D02*
X93454819Y-62309523D01*
X92407200Y-62547618D02*
X93121485Y-62785713D01*
X93121485Y-62785713D02*
X93121485Y-62166666D01*
D11*
%TO.C,D11*%
X84400000Y-79100000D02*
X84400000Y-76900000D01*
X85600000Y-76900000D02*
X85400000Y-76900000D01*
X85600000Y-79100000D02*
X85400000Y-79100000D01*
X86600000Y-76900000D02*
X86600000Y-79100000D01*
D12*
X85627000Y-76399800D02*
G75*
G02*
X85427000Y-76399800I-100000J0D01*
G01*
X85427000Y-76399800D02*
G75*
G02*
X85627000Y-76399800I100000J0D01*
G01*
D13*
%TO.C,R1*%
X68683500Y-67657742D02*
X68683500Y-68132258D01*
X69728500Y-67657742D02*
X69728500Y-68132258D01*
%TO.C,D5*%
X90356000Y-74915000D02*
X90356000Y-71655000D01*
X90356000Y-74915000D02*
X92056000Y-74915000D01*
X92056000Y-74915000D02*
X92056000Y-71655000D01*
D14*
%TO.C,SW1*%
X72166000Y-64240000D02*
X72166000Y-61730000D01*
X73166000Y-60460000D02*
X76246000Y-60460000D01*
X76246000Y-65540000D02*
X73166000Y-65540000D01*
X77246000Y-61760000D02*
X77246000Y-64240000D01*
X75976000Y-63000000D02*
G75*
G02*
X73436000Y-63000000I-1270000J0D01*
G01*
X73436000Y-63000000D02*
G75*
G02*
X75976000Y-63000000I1270000J0D01*
G01*
D13*
%TO.C,C1*%
X77196000Y-67754420D02*
X77196000Y-68035580D01*
X78216000Y-67754420D02*
X78216000Y-68035580D01*
%TO.C,U1*%
X78400000Y-93350000D02*
X78400000Y-95150000D01*
X78400000Y-95150000D02*
X79450000Y-95150000D01*
X81700000Y-93290000D02*
X81700000Y-95150000D01*
X81700000Y-95150000D02*
X80650000Y-95150000D01*
X81991676Y-93080000D02*
X81661676Y-92840000D01*
X81991676Y-92600000D01*
X81991676Y-93080000D01*
G36*
X81991676Y-93080000D02*
G01*
X81661676Y-92840000D01*
X81991676Y-92600000D01*
X81991676Y-93080000D01*
G37*
D14*
%TO.C,SW4*%
X82872000Y-74145000D02*
X82872000Y-71635000D01*
X83872000Y-70365000D02*
X86952000Y-70365000D01*
X86952000Y-75445000D02*
X83872000Y-75445000D01*
X87952000Y-71665000D02*
X87952000Y-74145000D01*
X86682000Y-72905000D02*
G75*
G02*
X84142000Y-72905000I-1270000J0D01*
G01*
X84142000Y-72905000D02*
G75*
G02*
X86682000Y-72905000I1270000J0D01*
G01*
D13*
%TO.C,C6*%
X82020000Y-87954420D02*
X82020000Y-88235580D01*
X83040000Y-87954420D02*
X83040000Y-88235580D01*
%TO.C,D2*%
X68356000Y-74905000D02*
X68356000Y-71645000D01*
X68356000Y-74905000D02*
X70056000Y-74905000D01*
X70056000Y-74905000D02*
X70056000Y-71645000D01*
D14*
%TO.C,SW3*%
X72166000Y-74135000D02*
X72166000Y-71625000D01*
X73166000Y-70355000D02*
X76246000Y-70355000D01*
X76246000Y-75435000D02*
X73166000Y-75435000D01*
X77246000Y-71655000D02*
X77246000Y-74135000D01*
X75976000Y-72895000D02*
G75*
G02*
X73436000Y-72895000I-1270000J0D01*
G01*
X73436000Y-72895000D02*
G75*
G02*
X75976000Y-72895000I1270000J0D01*
G01*
D13*
%TO.C,C5*%
X77196000Y-87754420D02*
X77196000Y-88035580D01*
X78216000Y-87754420D02*
X78216000Y-88035580D01*
D14*
%TO.C,SW5*%
X72166000Y-84040000D02*
X72166000Y-81530000D01*
X73166000Y-80260000D02*
X76246000Y-80260000D01*
X76246000Y-85340000D02*
X73166000Y-85340000D01*
X77246000Y-81560000D02*
X77246000Y-84040000D01*
X75976000Y-82800000D02*
G75*
G02*
X73436000Y-82800000I-1270000J0D01*
G01*
X73436000Y-82800000D02*
G75*
G02*
X75976000Y-82800000I1270000J0D01*
G01*
D13*
%TO.C,C7*%
X82540000Y-94259420D02*
X82540000Y-94540580D01*
X83560000Y-94259420D02*
X83560000Y-94540580D01*
D11*
%TO.C,D12*%
X84400000Y-69100000D02*
X84400000Y-66900000D01*
X85600000Y-66900000D02*
X85400000Y-66900000D01*
X85600000Y-69100000D02*
X85400000Y-69100000D01*
X86600000Y-66900000D02*
X86600000Y-69100000D01*
D12*
X85627000Y-66399800D02*
G75*
G02*
X85427000Y-66399800I-100000J0D01*
G01*
X85427000Y-66399800D02*
G75*
G02*
X85627000Y-66399800I100000J0D01*
G01*
D14*
%TO.C,SW6*%
X82960000Y-84240000D02*
X82960000Y-81730000D01*
X83960000Y-80460000D02*
X87040000Y-80460000D01*
X87040000Y-85540000D02*
X83960000Y-85540000D01*
X88040000Y-81760000D02*
X88040000Y-84240000D01*
X86770000Y-83000000D02*
G75*
G02*
X84230000Y-83000000I-1270000J0D01*
G01*
X84230000Y-83000000D02*
G75*
G02*
X86770000Y-83000000I1270000J0D01*
G01*
D11*
%TO.C,D7*%
X73400000Y-69100000D02*
X73400000Y-66900000D01*
X74400000Y-66900000D02*
X74600000Y-66900000D01*
X74400000Y-69100000D02*
X74600000Y-69100000D01*
X75600000Y-66900000D02*
X75600000Y-69100000D01*
D12*
X74573000Y-69600200D02*
G75*
G02*
X74373000Y-69600200I-100000J0D01*
G01*
X74373000Y-69600200D02*
G75*
G02*
X74573000Y-69600200I100000J0D01*
G01*
D13*
%TO.C,D6*%
X90150000Y-85010000D02*
X90150000Y-81750000D01*
X90150000Y-85010000D02*
X91850000Y-85010000D01*
X91850000Y-85010000D02*
X91850000Y-81750000D01*
D11*
%TO.C,D9*%
X73400000Y-89100000D02*
X73400000Y-86900000D01*
X74600000Y-86900000D02*
X74400000Y-86900000D01*
X74600000Y-89100000D02*
X74400000Y-89100000D01*
X75600000Y-86900000D02*
X75600000Y-89100000D01*
D12*
X74627000Y-86399800D02*
G75*
G02*
X74427000Y-86399800I-100000J0D01*
G01*
X74427000Y-86399800D02*
G75*
G02*
X74627000Y-86399800I100000J0D01*
G01*
D13*
%TO.C,C4*%
X81932000Y-78045580D02*
X81932000Y-77764420D01*
X82952000Y-78045580D02*
X82952000Y-77764420D01*
%TO.C,D3*%
X68150000Y-85010000D02*
X68150000Y-81750000D01*
X68150000Y-85010000D02*
X69850000Y-85010000D01*
X69850000Y-85010000D02*
X69850000Y-81750000D01*
%TO.C,C2*%
X81932000Y-68045580D02*
X81932000Y-67764420D01*
X82952000Y-68045580D02*
X82952000Y-67764420D01*
%TO.C,R2*%
X90683500Y-67667742D02*
X90683500Y-68142258D01*
X91728500Y-67667742D02*
X91728500Y-68142258D01*
D14*
%TO.C,SW2*%
X82872000Y-64145000D02*
X82872000Y-61635000D01*
X83872000Y-60365000D02*
X86952000Y-60365000D01*
X86952000Y-65445000D02*
X83872000Y-65445000D01*
X87952000Y-61665000D02*
X87952000Y-64145000D01*
X86682000Y-62905000D02*
G75*
G02*
X84142000Y-62905000I-1270000J0D01*
G01*
X84142000Y-62905000D02*
G75*
G02*
X86682000Y-62905000I1270000J0D01*
G01*
D13*
%TO.C,D1*%
X68356000Y-65010000D02*
X68356000Y-61750000D01*
X68356000Y-65010000D02*
X70056000Y-65010000D01*
X70056000Y-65010000D02*
X70056000Y-61750000D01*
D11*
%TO.C,D8*%
X73400000Y-79100000D02*
X73400000Y-76900000D01*
X74400000Y-76900000D02*
X74600000Y-76900000D01*
X74400000Y-79100000D02*
X74600000Y-79100000D01*
X75600000Y-76900000D02*
X75600000Y-79100000D01*
D12*
X74573000Y-79600200D02*
G75*
G02*
X74373000Y-79600200I-100000J0D01*
G01*
X74373000Y-79600200D02*
G75*
G02*
X74573000Y-79600200I100000J0D01*
G01*
D13*
%TO.C,C3*%
X77196000Y-77754420D02*
X77196000Y-78035580D01*
X78216000Y-77754420D02*
X78216000Y-78035580D01*
%TO.C,R3*%
X76477500Y-94262742D02*
X76477500Y-94737258D01*
X77522500Y-94262742D02*
X77522500Y-94737258D01*
%TO.C,D4*%
X90356000Y-64915000D02*
X90356000Y-61655000D01*
X90356000Y-64915000D02*
X92056000Y-64915000D01*
X92056000Y-64915000D02*
X92056000Y-61655000D01*
D11*
%TO.C,D10*%
X84400000Y-89100000D02*
X84400000Y-86900000D01*
X85600000Y-86900000D02*
X85400000Y-86900000D01*
X85600000Y-89100000D02*
X85400000Y-89100000D01*
X86600000Y-86900000D02*
X86600000Y-89100000D01*
D12*
X85627000Y-86399800D02*
G75*
G02*
X85427000Y-86399800I-100000J0D01*
G01*
X85427000Y-86399800D02*
G75*
G02*
X85627000Y-86399800I100000J0D01*
G01*
%TD*%
M02*
