%TF.GenerationSoftware,KiCad,Pcbnew,9.0.5*%
%TF.CreationDate,2026-03-26T21:22:33+08:00*%
%TF.ProjectId,pump_matrix,70756d70-5f6d-4617-9472-69782e6b6963,rev?*%
%TF.SameCoordinates,Original*%
%TF.FileFunction,Soldermask,Top*%
%TF.FilePolarity,Negative*%
%FSLAX46Y46*%
G04 Gerber Fmt 4.6, Leading zero omitted, Abs format (unit mm)*
G04 Created by KiCad (PCBNEW 9.0.5) date 2026-03-26 21:22:33*
%MOMM*%
%LPD*%
G01*
G04 APERTURE LIST*
G04 Aperture macros list*
%AMRoundRect*
0 Rectangle with rounded corners*
0 $1 Rounding radius*
0 $2 $3 $4 $5 $6 $7 $8 $9 X,Y pos of 4 corners*
0 Add a 4 corners polygon primitive as box body*
4,1,4,$2,$3,$4,$5,$6,$7,$8,$9,$2,$3,0*
0 Add four circle primitives for the rounded corners*
1,1,$1+$1,$2,$3*
1,1,$1+$1,$4,$5*
1,1,$1+$1,$6,$7*
1,1,$1+$1,$8,$9*
0 Add four rect primitives between the rounded corners*
20,1,$1+$1,$2,$3,$4,$5,0*
20,1,$1+$1,$4,$5,$6,$7,0*
20,1,$1+$1,$6,$7,$8,$9,0*
20,1,$1+$1,$8,$9,$2,$3,0*%
G04 Aperture macros list end*
%ADD10R,0.700000X0.700000*%
%ADD11RoundRect,0.200000X-0.275000X0.200000X-0.275000X-0.200000X0.275000X-0.200000X0.275000X0.200000X0*%
%ADD12RoundRect,0.250000X0.250000X-0.250000X0.250000X0.250000X-0.250000X0.250000X-0.250000X-0.250000X0*%
%ADD13R,1.524000X0.762000*%
%ADD14RoundRect,0.225000X-0.250000X0.225000X-0.250000X-0.225000X0.250000X-0.225000X0.250000X0.225000X0*%
%ADD15RoundRect,0.200000X-0.200000X0.250000X-0.200000X-0.250000X0.200000X-0.250000X0.200000X0.250000X0*%
%ADD16C,3.200000*%
%ADD17RoundRect,0.225000X0.250000X-0.225000X0.250000X0.225000X-0.250000X0.225000X-0.250000X-0.225000X0*%
G04 APERTURE END LIST*
D10*
%TO.C,D11*%
X86050000Y-77085000D03*
X84950000Y-77085000D03*
X84950000Y-78915000D03*
X86050000Y-78915000D03*
%TD*%
D11*
%TO.C,R1*%
X69206000Y-67070000D03*
X69206000Y-68720000D03*
%TD*%
D12*
%TO.C,D5*%
X91206000Y-74155000D03*
X91206000Y-71655000D03*
%TD*%
D13*
%TO.C,SW1*%
X71912000Y-61095000D03*
X77500000Y-61095000D03*
X71912000Y-64905000D03*
X77500000Y-64905000D03*
%TD*%
D14*
%TO.C,C1*%
X77706000Y-67120000D03*
X77706000Y-68670000D03*
%TD*%
D15*
%TO.C,U1*%
X81000000Y-93000000D03*
X79100000Y-93000000D03*
X80050000Y-95400000D03*
%TD*%
D16*
%TO.C,H2*%
X91500000Y-94500000D03*
%TD*%
D13*
%TO.C,SW4*%
X82618000Y-71000000D03*
X88206000Y-71000000D03*
X82618000Y-74810000D03*
X88206000Y-74810000D03*
%TD*%
D14*
%TO.C,C6*%
X82530000Y-87320000D03*
X82530000Y-88870000D03*
%TD*%
D12*
%TO.C,D2*%
X69206000Y-74145000D03*
X69206000Y-71645000D03*
%TD*%
D13*
%TO.C,SW3*%
X71912000Y-70990000D03*
X77500000Y-70990000D03*
X71912000Y-74800000D03*
X77500000Y-74800000D03*
%TD*%
D14*
%TO.C,C5*%
X77706000Y-87120000D03*
X77706000Y-88670000D03*
%TD*%
D13*
%TO.C,SW5*%
X71912000Y-80895000D03*
X77500000Y-80895000D03*
X71912000Y-84705000D03*
X77500000Y-84705000D03*
%TD*%
D16*
%TO.C,H3*%
X91500000Y-55000000D03*
%TD*%
D14*
%TO.C,C7*%
X83050000Y-93625000D03*
X83050000Y-95175000D03*
%TD*%
D16*
%TO.C,H1*%
X69000000Y-94500000D03*
%TD*%
D10*
%TO.C,D12*%
X86050000Y-67085000D03*
X84950000Y-67085000D03*
X84950000Y-68915000D03*
X86050000Y-68915000D03*
%TD*%
D13*
%TO.C,SW6*%
X82706000Y-81095000D03*
X88294000Y-81095000D03*
X82706000Y-84905000D03*
X88294000Y-84905000D03*
%TD*%
D10*
%TO.C,D7*%
X73950000Y-68915000D03*
X75050000Y-68915000D03*
X75050000Y-67085000D03*
X73950000Y-67085000D03*
%TD*%
D12*
%TO.C,D6*%
X91000000Y-84250000D03*
X91000000Y-81750000D03*
%TD*%
D10*
%TO.C,D9*%
X75050000Y-87085000D03*
X73950000Y-87085000D03*
X73950000Y-88915000D03*
X75050000Y-88915000D03*
%TD*%
D17*
%TO.C,C4*%
X82442000Y-78680000D03*
X82442000Y-77130000D03*
%TD*%
D12*
%TO.C,D3*%
X69000000Y-84250000D03*
X69000000Y-81750000D03*
%TD*%
D17*
%TO.C,C2*%
X82442000Y-68680000D03*
X82442000Y-67130000D03*
%TD*%
D11*
%TO.C,R2*%
X91206000Y-67080000D03*
X91206000Y-68730000D03*
%TD*%
D13*
%TO.C,SW2*%
X82618000Y-61000000D03*
X88206000Y-61000000D03*
X82618000Y-64810000D03*
X88206000Y-64810000D03*
%TD*%
D12*
%TO.C,D1*%
X69206000Y-64250000D03*
X69206000Y-61750000D03*
%TD*%
D10*
%TO.C,D8*%
X73950000Y-78915000D03*
X75050000Y-78915000D03*
X75050000Y-77085000D03*
X73950000Y-77085000D03*
%TD*%
D14*
%TO.C,C3*%
X77706000Y-77120000D03*
X77706000Y-78670000D03*
%TD*%
D11*
%TO.C,R3*%
X77000000Y-93675000D03*
X77000000Y-95325000D03*
%TD*%
D12*
%TO.C,D4*%
X91206000Y-64155000D03*
X91206000Y-61655000D03*
%TD*%
D10*
%TO.C,D10*%
X86050000Y-87085000D03*
X84950000Y-87085000D03*
X84950000Y-88915000D03*
X86050000Y-88915000D03*
%TD*%
D16*
%TO.C,H4*%
X69000000Y-55000000D03*
%TD*%
M02*
