%TF.GenerationSoftware,KiCad,Pcbnew,9.0.6*%
%TF.CreationDate,2026-05-15T19:00:06+08:00*%
%TF.ProjectId,pump,70756d70-2e6b-4696-9361-645f70636258,rev?*%
%TF.SameCoordinates,Original*%
%TF.FileFunction,Paste,Top*%
%TF.FilePolarity,Positive*%
%FSLAX46Y46*%
G04 Gerber Fmt 4.6, Leading zero omitted, Abs format (unit mm)*
G04 Created by KiCad (PCBNEW 9.0.6) date 2026-05-15 19:00:06*
%MOMM*%
%LPD*%
G01*
G04 APERTURE LIST*
G04 Aperture macros list*
%AMRoundRect*
0 Rectangle with rounded corners*
0 $1 Rounding radius*
0 $2 $3 $4 $5 $6 $7 $8 $9 X,Y pos of 4 corners*
0 Add a 4 corners polygon primitive as box body*
4,1,4,$2,$3,$4,$5,$6,$7,$8,$9,$2,$3,0*
0 Add four circle primitives for the rounded corners*
1,1,$1+$1,$2,$3*
1,1,$1+$1,$4,$5*
1,1,$1+$1,$6,$7*
1,1,$1+$1,$8,$9*
0 Add four rect primitives between the rounded corners*
20,1,$1+$1,$2,$3,$4,$5,0*
20,1,$1+$1,$4,$5,$6,$7,0*
20,1,$1+$1,$6,$7,$8,$9,0*
20,1,$1+$1,$8,$9,$2,$3,0*%
G04 Aperture macros list end*
%ADD10C,0.000000*%
%ADD11RoundRect,0.250000X0.325000X0.650000X-0.325000X0.650000X-0.325000X-0.650000X0.325000X-0.650000X0*%
%ADD12RoundRect,0.135000X0.035355X-0.226274X0.226274X-0.035355X-0.035355X0.226274X-0.226274X0.035355X0*%
%ADD13RoundRect,0.140000X-0.219203X-0.021213X-0.021213X-0.219203X0.219203X0.021213X0.021213X0.219203X0*%
%ADD14R,5.300000X1.900000*%
%ADD15RoundRect,0.250001X0.159099X0.866204X-0.866204X-0.159099X-0.159099X-0.866204X0.866204X0.159099X0*%
%ADD16RoundRect,0.150000X0.587500X0.150000X-0.587500X0.150000X-0.587500X-0.150000X0.587500X-0.150000X0*%
%ADD17RoundRect,0.140000X0.021213X-0.219203X0.219203X-0.021213X-0.021213X0.219203X-0.219203X0.021213X0*%
%ADD18RoundRect,0.250000X0.250000X-0.250000X0.250000X0.250000X-0.250000X0.250000X-0.250000X-0.250000X0*%
%ADD19R,1.200000X1.200000*%
%ADD20R,1.200000X0.550000*%
%ADD21RoundRect,0.140000X0.219203X0.021213X0.021213X0.219203X-0.219203X-0.021213X-0.021213X-0.219203X0*%
%ADD22RoundRect,0.135000X0.226274X0.035355X0.035355X0.226274X-0.226274X-0.035355X-0.035355X-0.226274X0*%
%ADD23RoundRect,0.200000X0.200000X0.275000X-0.200000X0.275000X-0.200000X-0.275000X0.200000X-0.275000X0*%
%ADD24RoundRect,0.200000X-0.053033X0.335876X-0.335876X0.053033X0.053033X-0.335876X0.335876X-0.053033X0*%
%ADD25R,0.600000X1.700000*%
%ADD26R,1.000000X2.700000*%
%ADD27RoundRect,0.162500X-0.344715X-0.574524X0.574524X0.344715X0.344715X0.574524X-0.574524X-0.344715X0*%
%ADD28RoundRect,0.375000X0.375000X-0.625000X0.375000X0.625000X-0.375000X0.625000X-0.375000X-0.625000X0*%
%ADD29RoundRect,0.500000X1.400000X-0.500000X1.400000X0.500000X-1.400000X0.500000X-1.400000X-0.500000X0*%
%ADD30R,0.600000X1.550000*%
%ADD31R,1.200000X2.000000*%
%ADD32RoundRect,0.200000X0.275000X-0.200000X0.275000X0.200000X-0.275000X0.200000X-0.275000X-0.200000X0*%
%ADD33RoundRect,0.218750X-0.256250X0.218750X-0.256250X-0.218750X0.256250X-0.218750X0.256250X0.218750X0*%
%ADD34R,0.700000X0.700000*%
%ADD35RoundRect,0.135000X-0.185000X0.135000X-0.185000X-0.135000X0.185000X-0.135000X0.185000X0.135000X0*%
%ADD36R,0.600000X1.350000*%
%ADD37R,0.700000X1.000000*%
%ADD38RoundRect,0.250000X-0.250000X-0.250000X0.250000X-0.250000X0.250000X0.250000X-0.250000X0.250000X0*%
%ADD39RoundRect,0.225000X0.225000X0.250000X-0.225000X0.250000X-0.225000X-0.250000X0.225000X-0.250000X0*%
%ADD40RoundRect,0.225000X0.250000X-0.225000X0.250000X0.225000X-0.250000X0.225000X-0.250000X-0.225000X0*%
%ADD41RoundRect,0.135000X0.185000X-0.135000X0.185000X0.135000X-0.185000X0.135000X-0.185000X-0.135000X0*%
%ADD42RoundRect,0.200000X-0.200000X-0.275000X0.200000X-0.275000X0.200000X0.275000X-0.200000X0.275000X0*%
%ADD43RoundRect,0.225000X0.017678X-0.335876X0.335876X-0.017678X-0.017678X0.335876X-0.335876X0.017678X0*%
%ADD44RoundRect,0.225000X-0.250000X0.225000X-0.250000X-0.225000X0.250000X-0.225000X0.250000X0.225000X0*%
%ADD45RoundRect,0.200000X-0.275000X0.200000X-0.275000X-0.200000X0.275000X-0.200000X0.275000X0.200000X0*%
%ADD46RoundRect,0.250000X-0.342947X1.184404X-1.184404X0.342947X0.342947X-1.184404X1.184404X-0.342947X0*%
%ADD47RoundRect,0.150000X0.380070X0.592202X-0.592202X-0.380070X-0.380070X-0.592202X0.592202X0.380070X0*%
%ADD48RoundRect,0.135000X-0.226274X-0.035355X-0.035355X-0.226274X0.226274X0.035355X0.035355X0.226274X0*%
%ADD49RoundRect,0.249999X0.000000X-0.558616X0.558616X0.000000X0.000000X0.558616X-0.558616X0.000000X0*%
%ADD50RoundRect,0.050000X-0.238649X-0.309359X0.309359X0.238649X0.238649X0.309359X-0.309359X-0.238649X0*%
%ADD51RoundRect,0.050000X0.238649X-0.309359X0.309359X-0.238649X-0.238649X0.309359X-0.309359X0.238649X0*%
%ADD52R,0.300000X1.000000*%
%ADD53O,1.000000X1.600000*%
%ADD54O,1.000000X2.100000*%
G04 APERTURE END LIST*
D10*
%TO.C,J1*%
G36*
X91974999Y-111760001D02*
G01*
X91574999Y-111760000D01*
X91575000Y-110760001D01*
X91974999Y-110760001D01*
X91974999Y-111760001D01*
G37*
G36*
X92749998Y-110760002D02*
G01*
X92749999Y-111760000D01*
X92349999Y-111760001D01*
X92349999Y-110760001D01*
X92749998Y-110760002D01*
G37*
G36*
X97649999Y-110760002D02*
G01*
X97649999Y-111760001D01*
X97249998Y-111760000D01*
X97249999Y-110760001D01*
X97649999Y-110760002D01*
G37*
G36*
X98424999Y-111760001D02*
G01*
X98024999Y-111760001D01*
X98024999Y-110760001D01*
X98424999Y-110760001D01*
X98424999Y-111760001D01*
G37*
%TD*%
D11*
%TO.C,C19*%
X108775000Y-115600000D03*
X105825000Y-115600000D03*
%TD*%
D12*
%TO.C,R16*%
X109339375Y-140860625D03*
X110060625Y-140139375D03*
%TD*%
D13*
%TO.C,C10*%
X113412061Y-137209117D03*
X114090883Y-137887939D03*
%TD*%
D14*
%TO.C,L1*%
X112900000Y-120600000D03*
X112900000Y-124000000D03*
%TD*%
D15*
%TO.C,Y1*%
X112757195Y-140679201D03*
X110741941Y-142694454D03*
X112368289Y-144320799D03*
X114383543Y-142305546D03*
%TD*%
D16*
%TO.C,Q2*%
X71655000Y-126024999D03*
X71655000Y-124124999D03*
X69779999Y-125074999D03*
%TD*%
D17*
%TO.C,C7*%
X112700000Y-130300000D03*
X113378822Y-129621178D03*
%TD*%
D18*
%TO.C,D1*%
X97500000Y-115750000D03*
X97500000Y-113250000D03*
%TD*%
D16*
%TO.C,Q1*%
X71654998Y-118624999D03*
X71654998Y-116724999D03*
X69779997Y-117674999D03*
%TD*%
D11*
%TO.C,C18*%
X108675000Y-122138000D03*
X105725000Y-122138000D03*
%TD*%
D17*
%TO.C,C8*%
X113693485Y-131293486D03*
X114372307Y-130614664D03*
%TD*%
D19*
%TO.C,D4*%
X58017498Y-131274997D03*
X58017500Y-134474999D03*
%TD*%
D20*
%TO.C,U5*%
X105999900Y-117950000D03*
X105999900Y-118900000D03*
X105999900Y-119850000D03*
X108600100Y-119850000D03*
X108600000Y-118900000D03*
X108600100Y-117950000D03*
%TD*%
D17*
%TO.C,C6*%
X111706514Y-129306515D03*
X112385336Y-128627693D03*
%TD*%
%TO.C,C9*%
X110094311Y-130947003D03*
X110773133Y-130268181D03*
%TD*%
D16*
%TO.C,Q3*%
X71654999Y-133724999D03*
X71654999Y-131824999D03*
X69779998Y-132774999D03*
%TD*%
D13*
%TO.C,C12*%
X114260589Y-136360589D03*
X114939411Y-137039411D03*
%TD*%
D21*
%TO.C,C1*%
X115439411Y-140339411D03*
X114760589Y-139660589D03*
%TD*%
D22*
%TO.C,R22*%
X88560625Y-121760625D03*
X87839375Y-121039375D03*
%TD*%
D19*
%TO.C,D3*%
X57917498Y-123474999D03*
X57917500Y-126675001D03*
%TD*%
D23*
%TO.C,R9*%
X75624999Y-135400000D03*
X73975001Y-135400000D03*
%TD*%
D24*
%TO.C,R3*%
X92383363Y-122916638D03*
X91216637Y-124083362D03*
%TD*%
D25*
%TO.C,J6*%
X69500000Y-139500000D03*
X70750000Y-139500000D03*
X72000000Y-139500000D03*
X73250000Y-139500000D03*
X74500000Y-139500000D03*
X75750000Y-139500000D03*
X77000000Y-139500000D03*
X78250000Y-139500000D03*
X79500000Y-139500000D03*
D26*
X67650000Y-142700000D03*
X81350000Y-142700000D03*
%TD*%
D27*
%TO.C,U2*%
X96078958Y-131089707D03*
X96976984Y-131987731D03*
X97875009Y-132885757D03*
X98773035Y-133783784D03*
X103846526Y-128710293D03*
X102948500Y-127812269D03*
X102050475Y-126914243D03*
X101152449Y-126016216D03*
%TD*%
D19*
%TO.C,D2*%
X58117498Y-115875000D03*
X58117500Y-119075002D03*
%TD*%
D28*
%TO.C,U4*%
X120200000Y-123250000D03*
X122500000Y-123250001D03*
D29*
X122500000Y-116949999D03*
D28*
X124800000Y-123250001D03*
%TD*%
D13*
%TO.C,C2*%
X109760589Y-144660589D03*
X110439411Y-145339411D03*
%TD*%
D30*
%TO.C,J7*%
X89200000Y-140689000D03*
X88200001Y-140689001D03*
X87199999Y-140689001D03*
X86199999Y-140688999D03*
D31*
X90500000Y-143114000D03*
X84900000Y-143114001D03*
%TD*%
D23*
%TO.C,R8*%
X75624999Y-133700000D03*
X73975001Y-133700000D03*
%TD*%
D32*
%TO.C,R11*%
X92700000Y-133424999D03*
X92700000Y-131775001D03*
%TD*%
D33*
%TO.C,D5*%
X101500004Y-109824996D03*
X101500000Y-111400000D03*
%TD*%
D23*
%TO.C,R7*%
X75624999Y-127699999D03*
X73975001Y-127699999D03*
%TD*%
D34*
%TO.C,D7*%
X104072600Y-142949999D03*
X104072601Y-144049999D03*
X105902600Y-144050001D03*
X105902599Y-142950001D03*
%TD*%
D35*
%TO.C,R1*%
X105900000Y-128589999D03*
X105900000Y-129610001D03*
%TD*%
D36*
%TO.C,J9*%
X118500000Y-111300000D03*
X117500000Y-111299998D03*
X116500000Y-111300002D03*
X115500000Y-111300000D03*
D31*
X114200001Y-107624999D03*
X119800000Y-107625000D03*
%TD*%
D17*
%TO.C,C5*%
X113074766Y-133927458D03*
X113753588Y-133248636D03*
%TD*%
D37*
%TO.C,SW1*%
X81375000Y-131100001D03*
X81375000Y-126700001D03*
X83575000Y-131100001D03*
X83525000Y-126700001D03*
%TD*%
D22*
%TO.C,R23*%
X94660625Y-115060625D03*
X93939375Y-114339375D03*
%TD*%
D38*
%TO.C,D6*%
X81050000Y-133400000D03*
X83550000Y-133400000D03*
%TD*%
D39*
%TO.C,C20*%
X108775000Y-124400000D03*
X107225000Y-124400000D03*
%TD*%
D40*
%TO.C,C14*%
X117700000Y-117875000D03*
X117700000Y-116325000D03*
%TD*%
D18*
%TO.C,D8*%
X111600000Y-118000000D03*
X111600000Y-115500000D03*
%TD*%
D41*
%TO.C,R17*%
X112500000Y-109010001D03*
X112500000Y-107989999D03*
%TD*%
D23*
%TO.C,R6*%
X75624999Y-126000000D03*
X73975001Y-126000000D03*
%TD*%
D41*
%TO.C,R20*%
X103900000Y-119610001D03*
X103900000Y-118589999D03*
%TD*%
D37*
%TO.C,SW2*%
X85825000Y-131100000D03*
X85825000Y-126700000D03*
X88025000Y-131100000D03*
X87975000Y-126700000D03*
%TD*%
D42*
%TO.C,R14*%
X85675000Y-133400000D03*
X87325000Y-133400000D03*
%TD*%
D43*
%TO.C,C16*%
X96351992Y-127448008D03*
X97448008Y-126351992D03*
%TD*%
D44*
%TO.C,C15*%
X117700000Y-122225000D03*
X117700000Y-123775000D03*
%TD*%
D45*
%TO.C,R10*%
X89900000Y-128075001D03*
X89900000Y-129724999D03*
%TD*%
D36*
%TO.C,J8*%
X109600000Y-111300000D03*
X108600000Y-111299998D03*
X107600000Y-111300002D03*
X106600000Y-111300000D03*
D31*
X105300001Y-107624999D03*
X110900000Y-107625000D03*
%TD*%
D46*
%TO.C,U3*%
X91379209Y-118149220D03*
D47*
X94658418Y-117698439D03*
X93951310Y-116991333D03*
X93244203Y-116284226D03*
X92537097Y-115577118D03*
X91829989Y-114870012D03*
X88100000Y-118600001D03*
X88807108Y-119307107D03*
X89514215Y-120014214D03*
X90221321Y-120721322D03*
X90928429Y-121428428D03*
%TD*%
D24*
%TO.C,R12*%
X94083363Y-124616638D03*
X92916637Y-125783362D03*
%TD*%
D35*
%TO.C,R2*%
X106993087Y-128605027D03*
X106993087Y-129625029D03*
%TD*%
D17*
%TO.C,C13*%
X114760589Y-132339411D03*
X115439411Y-131660589D03*
%TD*%
%TO.C,C4*%
X112081280Y-132933973D03*
X112760102Y-132255151D03*
%TD*%
D41*
%TO.C,R21*%
X103900000Y-122110001D03*
X103900000Y-121089999D03*
%TD*%
D48*
%TO.C,R24*%
X95939375Y-119039375D03*
X96660625Y-119760625D03*
%TD*%
D17*
%TO.C,C3*%
X111087795Y-131940488D03*
X111766617Y-131261666D03*
%TD*%
D43*
%TO.C,C17*%
X94300000Y-121900000D03*
X95396016Y-120803984D03*
%TD*%
D23*
%TO.C,R4*%
X75549999Y-118700000D03*
X73900001Y-118700000D03*
%TD*%
D45*
%TO.C,R13*%
X101500000Y-106075001D03*
X101500000Y-107724999D03*
%TD*%
D23*
%TO.C,R5*%
X75549999Y-120400000D03*
X73900001Y-120400000D03*
%TD*%
D35*
%TO.C,R15*%
X112500000Y-110189999D03*
X112500000Y-111210001D03*
%TD*%
D13*
%TO.C,C11*%
X115060589Y-135560589D03*
X115739411Y-136239411D03*
%TD*%
D49*
%TO.C,U1*%
X105400000Y-136500000D03*
X106531371Y-137631371D03*
X106531371Y-135368629D03*
X107662742Y-136500000D03*
D50*
X102262214Y-137092202D03*
X102545057Y-137375044D03*
X102827899Y-137657887D03*
X103110742Y-137940730D03*
X103393585Y-138223573D03*
X103676427Y-138506416D03*
X103959270Y-138789258D03*
X104242113Y-139072101D03*
X104524955Y-139354944D03*
X104807799Y-139637786D03*
X105090641Y-139920629D03*
X105373483Y-140203471D03*
X105656327Y-140486314D03*
X105939169Y-140769157D03*
D51*
X107123573Y-140769157D03*
X107406415Y-140486314D03*
X107689258Y-140203472D03*
X107972101Y-139920629D03*
X108254944Y-139637786D03*
X108537787Y-139354944D03*
X108820629Y-139072101D03*
X109103472Y-138789258D03*
X109386315Y-138506416D03*
X109669157Y-138223572D03*
X109952000Y-137940730D03*
X110234842Y-137657888D03*
X110517685Y-137375044D03*
X110800528Y-137092202D03*
D50*
X110800528Y-135907798D03*
X110517685Y-135624956D03*
X110234843Y-135342113D03*
X109952000Y-135059270D03*
X109669157Y-134776427D03*
X109386315Y-134493584D03*
X109103472Y-134210742D03*
X108820629Y-133927899D03*
X108537787Y-133645056D03*
X108254943Y-133362214D03*
X107972101Y-133079371D03*
X107689259Y-132796529D03*
X107406415Y-132513686D03*
X107123573Y-132230843D03*
D51*
X105939169Y-132230843D03*
X105656327Y-132513686D03*
X105373484Y-132796528D03*
X105090641Y-133079371D03*
X104807798Y-133362214D03*
X104524955Y-133645056D03*
X104242113Y-133927899D03*
X103959270Y-134210742D03*
X103676427Y-134493584D03*
X103393585Y-134776428D03*
X103110742Y-135059270D03*
X102827900Y-135342112D03*
X102545057Y-135624956D03*
X102262214Y-135907798D03*
%TD*%
D52*
%TO.C,J1*%
X96249998Y-111260000D03*
X95249999Y-111260001D03*
X94749999Y-111260001D03*
X93750000Y-111260000D03*
X93249998Y-111260001D03*
X94249999Y-111260001D03*
X95749999Y-111260001D03*
X96749999Y-111260001D03*
D53*
X99317999Y-106505001D03*
D54*
X99317999Y-110685001D03*
X90681999Y-110685001D03*
D53*
X90681999Y-106505001D03*
%TD*%
M02*
