M48
; DRILL file {KiCad 9.0.6} date 2026-05-15T19:00:12+0800
; FORMAT={-:-/ absolute / inch / decimal}
; #@! TF.CreationDate,2026-05-15T19:00:12+08:00
; #@! TF.GenerationSoftware,Kicad,Pcbnew,9.0.6
; #@! TF.FileFunction,Plated,1,2,PTH
FMAT,2
INCH
; #@! TA.AperFunction,Plated,PTH,ViaDrill
T1C0.0118
; #@! TA.AperFunction,Plated,PTH,ComponentDrill
T2C0.0236
; #@! TA.AperFunction,Plated,PTH,ComponentDrill
T3C0.0256
; #@! TA.AperFunction,Plated,PTH,ComponentDrill
T4C0.0472
%
G90
G05
T1
X2.122Y-4.7402
X2.122Y-4.8661
X2.122Y-4.6772
X2.122Y-4.8031
X2.122Y-4.9331
X2.122Y-4.9961
X2.122Y-5.0591
X2.1235Y-5.1117
X2.1535Y-4.622
X2.1681Y-5.1562
X2.1981Y-4.5775
X2.2126Y-5.2008
X2.2426Y-4.533
X2.6693Y-4.4764
X2.685Y-4.5472
X2.7323Y-4.4764
X2.748Y-4.5472
X2.7953Y-4.4764
X2.811Y-4.5472
X2.8583Y-4.4764
X2.874Y-4.5472
X2.874Y-4.5955
X2.874Y-4.8868
X2.874Y-5.19
X2.9252Y-4.4764
X2.9409Y-4.5472
X2.9882Y-4.4764
X3.0039Y-4.5472
X3.0157Y-4.7402
X3.0157Y-5.0276
X3.0157Y-5.3307
X3.0512Y-4.4764
X3.0669Y-4.5472
X3.1142Y-4.4764
X3.1299Y-4.5472
X3.1654Y-5.4764
X3.1736Y-4.4406
X3.2012Y-4.5351
X3.2037Y-5.0748
X3.2182Y-4.396
X3.2457Y-4.4905
X3.2627Y-4.3515
X3.2903Y-4.446
X3.3072Y-4.3069
X3.3348Y-4.4014
X3.3546Y-4.2596
X3.3789Y-5.0748
X3.3821Y-4.3541
X3.3937Y-5.4882
X3.3991Y-4.2151
X3.4267Y-4.3096
X3.4331Y-4.7362
X3.4331Y-5.4882
X3.4436Y-4.1705
X3.4712Y-4.265
X3.4882Y-4.126
X3.4995Y-5.2013
X3.5039Y-4.626
X3.5157Y-4.2205
X3.5276Y-4.6024
X3.5492Y-4.5807
X3.5551Y-5.5669
X3.5876Y-4.4223
X3.6398Y-4.7303
X3.6581Y-4.712
X3.6693Y-4.4488
X3.6772Y-4.6929
X3.689Y-4.5315
X3.7185Y-5.2303
X3.7195Y-4.4724
X3.7244Y-4.7244
X3.7303Y-4.313
X3.7543Y-4.4347
X3.7894Y-4.5728
X3.7913Y-4.6151
X3.7977Y-5.3204
X3.8307Y-4.6894
X3.8366Y-4.4173
X3.8622Y-4.9488
X3.8998Y-4.427
X3.9252Y-5.2283
X3.9311Y-5.4075
X3.9961Y-4.5551
X4.0353Y-5.4785
X4.0354Y-4.8209
X4.0551Y-4.6457
X4.0591Y-5.6732
X4.1147Y-4.8696
X4.122Y-4.8075
X4.1433Y-5.0125
X4.1811Y-4.8976
X4.1969Y-5.0315
X4.2244Y-4.6457
X4.2244Y-4.6811
X4.2279Y-4.7158
X4.2717Y-5.5591
X4.2756Y-4.748
X4.3Y-5.7165
X4.3189Y-4.8819
X4.3228Y-5.5787
X4.3268Y-4.9488
X4.3465Y-4.3819
X4.3622Y-4.9488
X4.38Y-5.1475
X4.3937Y-4.5984
X4.3976Y-4.9488
X4.4194Y-5.1869
X4.4232Y-5.3523
X4.4331Y-4.9488
X4.444Y-5.0835
X4.4588Y-5.2263
X4.4685Y-4.9488
X4.4834Y-5.1229
X4.5039Y-4.9488
X4.5232Y-5.1618
X4.5394Y-4.9488
X4.5433Y-5.6417
X4.5669Y-5.5472
X4.5709Y-4.937
X4.5787Y-5.3425
X4.5827Y-4.878
X4.5827Y-4.9094
X4.6142Y-4.7047
X4.622Y-5.2244
X4.6535Y-4.7047
X4.6732Y-4.5787
X4.6772Y-4.873
X4.6772Y-5.1998
X4.6969Y-4.3819
X4.7165Y-4.7047
X4.7165Y-4.7677
X4.7638Y-4.7677
X4.7795Y-4.7047
X4.8031Y-4.7874
X4.8346Y-4.7244
X4.8701Y-4.7559
X4.9982Y-5.1199
T3
X4.7343Y-5.1203
X4.7343Y-5.1703
X4.7843Y-5.1203
X4.7843Y-5.1703
X4.8343Y-5.1203
X4.8343Y-5.1703
X4.8843Y-5.1203
X4.8843Y-5.1703
X4.9343Y-5.1203
X4.9343Y-5.1703
T4
X2.5118Y-4.8764
X2.5118Y-4.9764
X2.5118Y-4.5756
X2.5118Y-4.6756
X2.5118Y-5.1772
X2.5118Y-5.2772
T2
G00X3.5702Y-4.2049
M15
G01X3.5702Y-4.1813
M16
G05
G00X3.5702Y-4.3793
M15
G01X3.5702Y-4.336
M16
G05
G00X3.9102Y-4.2049
M15
G01X3.9102Y-4.1813
M16
G05
G00X3.9102Y-4.3793
M15
G01X3.9102Y-4.336
M16
G05
M30
