%TF.GenerationSoftware,KiCad,Pcbnew,9.0.6*%
%TF.CreationDate,2026-05-15T19:00:06+08:00*%
%TF.ProjectId,pump,70756d70-2e6b-4696-9361-645f70636258,rev?*%
%TF.SameCoordinates,Original*%
%TF.FileFunction,Copper,L2,Bot*%
%TF.FilePolarity,Positive*%
%FSLAX46Y46*%
G04 Gerber Fmt 4.6, Leading zero omitted, Abs format (unit mm)*
G04 Created by KiCad (PCBNEW 9.0.6) date 2026-05-15 19:00:06*
%MOMM*%
%LPD*%
G01*
G04 APERTURE LIST*
G04 Aperture macros list*
%AMRoundRect*
0 Rectangle with rounded corners*
0 $1 Rounding radius*
0 $2 $3 $4 $5 $6 $7 $8 $9 X,Y pos of 4 corners*
0 Add a 4 corners polygon primitive as box body*
4,1,4,$2,$3,$4,$5,$6,$7,$8,$9,$2,$3,0*
0 Add four circle primitives for the rounded corners*
1,1,$1+$1,$2,$3*
1,1,$1+$1,$4,$5*
1,1,$1+$1,$6,$7*
1,1,$1+$1,$8,$9*
0 Add four rect primitives between the rounded corners*
20,1,$1+$1,$2,$3,$4,$5,0*
20,1,$1+$1,$4,$5,$6,$7,0*
20,1,$1+$1,$6,$7,$8,$9,0*
20,1,$1+$1,$8,$9,$2,$3,0*%
G04 Aperture macros list end*
%TA.AperFunction,ComponentPad*%
%ADD10RoundRect,0.250000X-0.750000X0.750000X-0.750000X-0.750000X0.750000X-0.750000X0.750000X0.750000X0*%
%TD*%
%TA.AperFunction,ComponentPad*%
%ADD11C,2.000000*%
%TD*%
%TA.AperFunction,ComponentPad*%
%ADD12R,1.000000X1.000000*%
%TD*%
%TA.AperFunction,ComponentPad*%
%ADD13O,1.000000X1.000000*%
%TD*%
%TA.AperFunction,ComponentPad*%
%ADD14O,1.000000X1.600000*%
%TD*%
%TA.AperFunction,ComponentPad*%
%ADD15O,1.000000X2.100000*%
%TD*%
%TA.AperFunction,SMDPad,CuDef*%
%ADD16RoundRect,0.625000X-0.000010X0.000010X-0.000010X-0.000010X0.000010X-0.000010X0.000010X0.000010X0*%
%TD*%
%TA.AperFunction,ViaPad*%
%ADD17C,0.600000*%
%TD*%
%TA.AperFunction,Conductor*%
%ADD18C,0.400000*%
%TD*%
%TA.AperFunction,Conductor*%
%ADD19C,0.200000*%
%TD*%
%TA.AperFunction,Conductor*%
%ADD20C,0.100000*%
%TD*%
G04 APERTURE END LIST*
D10*
%TO.P,J3,1,Pin_1*%
%TO.N,VCC*%
X63800001Y-116219997D03*
D11*
%TO.P,J3,2,Pin_2*%
%TO.N,Net-(D2-A)*%
X63800001Y-118759997D03*
%TD*%
D10*
%TO.P,J4,1,Pin_1*%
%TO.N,VCC*%
X63800000Y-123860000D03*
D11*
%TO.P,J4,2,Pin_2*%
%TO.N,Net-(D3-A)*%
X63800000Y-126400000D03*
%TD*%
D12*
%TO.P,J2,1,VCC*%
%TO.N,+3V3*%
X120250000Y-131325001D03*
D13*
%TO.P,J2,2,SWDIO*%
%TO.N,/SWDIO*%
X120250000Y-130055000D03*
%TO.P,J2,3,GND*%
%TO.N,GND*%
X121520001Y-131325001D03*
%TO.P,J2,4,SWDCLK*%
%TO.N,/SWCLK*%
X121520000Y-130055001D03*
%TO.P,J2,5,GND*%
%TO.N,GND*%
X122790000Y-131325001D03*
%TO.P,J2,6,SWO*%
%TO.N,unconnected-(J2-SWO-Pad6)*%
X122790000Y-130055001D03*
%TO.P,J2,7*%
%TO.N,N/C*%
X124060000Y-131325001D03*
%TO.P,J2,8*%
X124060000Y-130055000D03*
%TO.P,J2,9,GND*%
%TO.N,GND*%
X125330000Y-131325000D03*
%TO.P,J2,10,~{RESET}*%
%TO.N,/RST*%
X125330000Y-130055001D03*
%TD*%
D10*
%TO.P,J5,1,Pin_1*%
%TO.N,VCC*%
X63800001Y-131499999D03*
D11*
%TO.P,J5,2,Pin_2*%
%TO.N,Net-(D4-A)*%
X63800001Y-134039999D03*
%TD*%
D14*
%TO.P,J1,NC1,NC*%
%TO.N,unconnected-(J1-NC-PadNC1)*%
X99317999Y-106505001D03*
D15*
%TO.P,J1,NC2,NC*%
%TO.N,unconnected-(J1-NC-PadNC2)*%
X99317999Y-110685001D03*
%TO.P,J1,NC3,NC*%
%TO.N,unconnected-(J1-NC-PadNC3)*%
X90681999Y-110685001D03*
D14*
%TO.P,J1,S,SHIELD*%
%TO.N,GND*%
X90681999Y-106505001D03*
%TD*%
D16*
%TO.P,TP3,1,1*%
%TO.N,/USB+*%
X93707780Y-106599999D03*
%TD*%
%TO.P,TP4,1,1*%
%TO.N,/USB-*%
X96200000Y-106600000D03*
%TD*%
D17*
%TO.N,*%
X82872435Y-110527565D03*
X115300000Y-125700000D03*
X110800000Y-125700000D03*
X85905887Y-110594112D03*
X67800000Y-113700000D03*
X84703806Y-111796194D03*
X53900000Y-122000000D03*
X56200000Y-132100000D03*
X117200000Y-119500000D03*
X118200000Y-119500000D03*
X112600000Y-125700000D03*
X77900000Y-115500000D03*
X114400000Y-125700000D03*
X53899999Y-120400000D03*
X53899999Y-123600000D03*
X54700000Y-117400000D03*
X116400000Y-124700000D03*
X85205887Y-108194112D03*
X111700000Y-125700000D03*
X74700000Y-115500000D03*
X119800000Y-121100000D03*
X53900000Y-126900000D03*
X81309693Y-115190307D03*
X88168629Y-108331370D03*
X80609693Y-112790307D03*
X122800000Y-120000000D03*
X116400000Y-123900000D03*
X109900000Y-125700000D03*
X77500000Y-113700000D03*
X72600000Y-113700000D03*
X69800000Y-115500000D03*
X81741065Y-111658935D03*
X53900000Y-125300000D03*
X74300000Y-113700000D03*
X56962742Y-115137258D03*
X119800000Y-119500000D03*
X75900000Y-113700000D03*
X87037258Y-109462742D03*
X71000000Y-113700000D03*
X87468629Y-105931370D03*
X53937258Y-129837258D03*
X123700000Y-120800000D03*
X86337258Y-107062742D03*
X89300000Y-107200000D03*
X84003806Y-109396194D03*
X69400000Y-113700000D03*
X83572435Y-112927565D03*
X79500000Y-115500000D03*
X88600000Y-104800000D03*
X73000000Y-115500000D03*
X53900000Y-118800000D03*
X82441065Y-114058935D03*
X68200000Y-115500000D03*
X55068629Y-130968630D03*
X55831372Y-116268628D03*
X79100000Y-113700000D03*
X121400000Y-119500000D03*
X71400000Y-115500000D03*
X76300000Y-115500000D03*
X116100000Y-125400000D03*
X122000000Y-121600000D03*
X121000000Y-121100000D03*
X53900000Y-128499999D03*
X113500000Y-125700000D03*
%TO.N,GND*%
X119300000Y-111300000D03*
X109221178Y-145200000D03*
X107300000Y-118000000D03*
X118700000Y-116300000D03*
X73000000Y-124124999D03*
X111600000Y-116800000D03*
X91125735Y-112325735D03*
X115400000Y-143300000D03*
X89600000Y-116900000D03*
X113252476Y-132747524D03*
X99055001Y-112444999D03*
X107300000Y-118900000D03*
X81375000Y-128900000D03*
X114889411Y-131110589D03*
X76600000Y-120400000D03*
X76600000Y-135400000D03*
X93700000Y-115100000D03*
X92450000Y-120150000D03*
X109800000Y-141700000D03*
X94600000Y-120000000D03*
X73000000Y-116724999D03*
X116300000Y-135700000D03*
X92914994Y-119685006D03*
X106200000Y-124400000D03*
X73000000Y-131824999D03*
X108500000Y-141200000D03*
X87200000Y-120300000D03*
X107388349Y-119782330D03*
X111252476Y-130747524D03*
X90150000Y-116350000D03*
X112252476Y-131747524D03*
X103100000Y-144100000D03*
X104700000Y-122110001D03*
X93400000Y-119200000D03*
X80400000Y-139100000D03*
X112878821Y-129121179D03*
X113878821Y-130121179D03*
X85825000Y-128900000D03*
X76600000Y-127700000D03*
X98100000Y-125700000D03*
X110400000Y-111300000D03*
X116000000Y-140900000D03*
X118800000Y-123775000D03*
X99700000Y-132800000D03*
X90300000Y-141400000D03*
%TO.N,VBUS*%
X97449998Y-112200000D03*
X96300000Y-117224265D03*
%TO.N,VCC*%
X101500000Y-115700000D03*
X108600100Y-120600000D03*
X96250000Y-116150000D03*
%TO.N,/CC1*%
X94750000Y-109550000D03*
X89000000Y-117500000D03*
%TO.N,/USB+*%
X93200000Y-113000000D03*
%TO.N,/USB-*%
X95358429Y-112641569D03*
X94475735Y-113600000D03*
X105239640Y-127317459D03*
X106600000Y-127800000D03*
%TO.N,/RST*%
X126955001Y-130044999D03*
X112348959Y-135948959D03*
X88887500Y-132112500D03*
%TO.N,/SWCLK*%
X117400000Y-132700000D03*
X118800000Y-132076001D03*
%TO.N,/SCL*%
X86200000Y-139400000D03*
X102500000Y-122450000D03*
%TO.N,/SDA*%
X87200000Y-139400000D03*
X104512132Y-123687868D03*
%TO.N,VDD*%
X103000000Y-118000000D03*
X97300000Y-119110625D03*
X109700000Y-124000000D03*
%TO.N,/USB_BOOT*%
X99850000Y-137350000D03*
X96461091Y-135138909D03*
X102497421Y-139153541D03*
X94450000Y-132850000D03*
%TD*%
D18*
%TO.N,VBUS*%
X95400000Y-115400000D02*
X95400000Y-116300000D01*
X97400000Y-112300000D02*
X96300000Y-113400000D01*
X95700000Y-116600000D02*
X95700000Y-116624265D01*
X96300000Y-113400000D02*
X96300000Y-114500000D01*
X96300000Y-114500000D02*
X95400000Y-115400000D01*
X95400000Y-116300000D02*
X95700000Y-116600000D01*
X95700000Y-116624265D02*
X96300000Y-117224265D01*
%TO.N,VCC*%
X108600000Y-120600000D02*
X107100000Y-120600000D01*
X102200000Y-115700000D02*
X101500000Y-115700000D01*
X107100000Y-120600000D02*
X102200000Y-115700000D01*
X96300000Y-116050000D02*
X96650000Y-115700000D01*
D19*
X96300000Y-116050000D02*
X96300000Y-116200000D01*
D18*
X96650000Y-115700000D02*
X101500000Y-115700000D01*
D19*
%TO.N,/CC1*%
X88500000Y-117000000D02*
X88500000Y-115800000D01*
X89000000Y-117500000D02*
X88500000Y-117000000D01*
X88500000Y-115800000D02*
X94750000Y-109550000D01*
%TO.N,/USB+*%
X96400000Y-109800000D02*
X93200000Y-113000000D01*
X96400000Y-109292219D02*
X96400000Y-109800000D01*
X93707780Y-106599999D02*
X96400000Y-109292219D01*
%TO.N,/USB-*%
X97000000Y-111000000D02*
X94475735Y-113524265D01*
D20*
X105722181Y-127800000D02*
X105239640Y-127317459D01*
D19*
X106600000Y-127800000D02*
X106700000Y-127900000D01*
X97000000Y-107400000D02*
X97000000Y-111000000D01*
X96200000Y-106600000D02*
X97000000Y-107400000D01*
D20*
X106600000Y-127800000D02*
X105722181Y-127800000D01*
D19*
X94475735Y-113524265D02*
X94475735Y-113600000D01*
D20*
%TO.N,/RST*%
X125330000Y-130055001D02*
X124578999Y-129304000D01*
X126944999Y-130055001D02*
X126955001Y-130044999D01*
X126900000Y-130100000D02*
X126955001Y-130044999D01*
X92475000Y-135700000D02*
X112100000Y-135700000D01*
X118993918Y-129304000D02*
X112348959Y-135948959D01*
X124578999Y-129304000D02*
X118993918Y-129304000D01*
X88887500Y-132112500D02*
X92475000Y-135700000D01*
X125330000Y-130055001D02*
X126944999Y-130055001D01*
X112100000Y-135700000D02*
X112348959Y-135948959D01*
%TO.N,/SWCLK*%
X118123999Y-132076001D02*
X118800000Y-132076001D01*
X117500000Y-132700000D02*
X118123999Y-132076001D01*
X117400000Y-132700000D02*
X117500000Y-132700000D01*
%TO.N,/SCL*%
X86200000Y-133500000D02*
X97300000Y-122400000D01*
X97300000Y-122400000D02*
X102450000Y-122400000D01*
X102450000Y-122400000D02*
X102500000Y-122450000D01*
X86200000Y-139400000D02*
X86200000Y-133500000D01*
%TO.N,/SDA*%
X97200000Y-123000000D02*
X103800000Y-123000000D01*
X87200000Y-133000000D02*
X97200000Y-123000000D01*
X103800000Y-123000000D02*
X104500000Y-123700000D01*
X87200000Y-139400000D02*
X87200000Y-133000000D01*
D18*
%TO.N,VDD*%
X98910625Y-117500000D02*
X102500000Y-117500000D01*
X102500000Y-117500000D02*
X103000000Y-118000000D01*
X97300000Y-119110625D02*
X98910625Y-117500000D01*
X103000000Y-118000000D02*
X109000000Y-124000000D01*
X109000000Y-124000000D02*
X109700000Y-124000000D01*
D20*
%TO.N,/USB_BOOT*%
X102496421Y-139154541D02*
X102497421Y-139153541D01*
X99850000Y-137350000D02*
X101654541Y-139154541D01*
X96511091Y-135088909D02*
X96461091Y-135138909D01*
X101654541Y-139154541D02*
X102496421Y-139154541D01*
X96511091Y-134911091D02*
X96511091Y-135088909D01*
X102496421Y-139153541D02*
X102497421Y-139153541D01*
X102442880Y-139100000D02*
X102496421Y-139153541D01*
X94450000Y-132850000D02*
X96511091Y-134911091D01*
%TD*%
%TA.AperFunction,Conductor*%
%TO.N,GND*%
G36*
X117875741Y-103700617D02*
G01*
X118259119Y-103717330D01*
X118269865Y-103718268D01*
X118647696Y-103767925D01*
X118658295Y-103769790D01*
X119030374Y-103852131D01*
X119040774Y-103854912D01*
X119404281Y-103969313D01*
X119414420Y-103972998D01*
X119766554Y-104118575D01*
X119776335Y-104123126D01*
X120114493Y-104298800D01*
X120123835Y-104304182D01*
X120273783Y-104399500D01*
X120445420Y-104508606D01*
X120454273Y-104514791D01*
X120595249Y-104622709D01*
X120756853Y-104746419D01*
X120765121Y-104753340D01*
X120873866Y-104852726D01*
X121046391Y-105010404D01*
X121054037Y-105018029D01*
X121313081Y-105299902D01*
X121316621Y-105303925D01*
X121327051Y-105316317D01*
X128723885Y-114104635D01*
X128723885Y-114104636D01*
X128723886Y-114104636D01*
X128740714Y-114124630D01*
X128744110Y-114128849D01*
X128977509Y-114432142D01*
X128979053Y-114434148D01*
X128985283Y-114443021D01*
X129191206Y-114765395D01*
X129196637Y-114774777D01*
X129373615Y-115113900D01*
X129378205Y-115123721D01*
X129524883Y-115476998D01*
X129528599Y-115487182D01*
X129643866Y-115851936D01*
X129646677Y-115862405D01*
X129729643Y-116235814D01*
X129731530Y-116246490D01*
X129781566Y-116625741D01*
X129782512Y-116636540D01*
X129799381Y-117022117D01*
X129799500Y-117027537D01*
X129799500Y-136998046D01*
X129799439Y-137001941D01*
X129780877Y-137592582D01*
X129780388Y-137600356D01*
X129724959Y-138186732D01*
X129723982Y-138194461D01*
X129631849Y-138776169D01*
X129630390Y-138783821D01*
X129501903Y-139358638D01*
X129499965Y-139366183D01*
X129335648Y-139931765D01*
X129333241Y-139939174D01*
X129133735Y-140493323D01*
X129130868Y-140500565D01*
X128896952Y-141041113D01*
X128893635Y-141048162D01*
X128626241Y-141572951D01*
X128622488Y-141579777D01*
X128322675Y-142086734D01*
X128318501Y-142093311D01*
X127987444Y-142580446D01*
X127982865Y-142586748D01*
X127621887Y-143052118D01*
X127616922Y-143058121D01*
X127227406Y-143499940D01*
X127222073Y-143505618D01*
X126805618Y-143922073D01*
X126799940Y-143927406D01*
X126358121Y-144316922D01*
X126352118Y-144321887D01*
X125886748Y-144682865D01*
X125880446Y-144687444D01*
X125393311Y-145018501D01*
X125386734Y-145022675D01*
X124879777Y-145322488D01*
X124872951Y-145326241D01*
X124348162Y-145593635D01*
X124341113Y-145596952D01*
X123800565Y-145830868D01*
X123793323Y-145833735D01*
X123411504Y-145971198D01*
X123239168Y-146033242D01*
X123231765Y-146035648D01*
X122666183Y-146199965D01*
X122658638Y-146201903D01*
X122083821Y-146330390D01*
X122076169Y-146331849D01*
X121494461Y-146423982D01*
X121486732Y-146424959D01*
X120900356Y-146480388D01*
X120892582Y-146480877D01*
X120301941Y-146499439D01*
X120298046Y-146499500D01*
X62301954Y-146499500D01*
X62298059Y-146499439D01*
X61707417Y-146480877D01*
X61699643Y-146480388D01*
X61113267Y-146424959D01*
X61105538Y-146423982D01*
X60523830Y-146331849D01*
X60516178Y-146330390D01*
X59941361Y-146201903D01*
X59933816Y-146199965D01*
X59368234Y-146035648D01*
X59360840Y-146033246D01*
X58806676Y-145833735D01*
X58799434Y-145830868D01*
X58258886Y-145596952D01*
X58251837Y-145593635D01*
X57727048Y-145326241D01*
X57720222Y-145322488D01*
X57213265Y-145022675D01*
X57206688Y-145018501D01*
X56719553Y-144687444D01*
X56713251Y-144682865D01*
X56247881Y-144321887D01*
X56241878Y-144316922D01*
X55800059Y-143927406D01*
X55794381Y-143922073D01*
X55377926Y-143505618D01*
X55372593Y-143499940D01*
X54983077Y-143058121D01*
X54978112Y-143052118D01*
X54617134Y-142586748D01*
X54612555Y-142580446D01*
X54281498Y-142093311D01*
X54277324Y-142086734D01*
X53977511Y-141579777D01*
X53973758Y-141572951D01*
X53834937Y-141300500D01*
X53706363Y-141048160D01*
X53703047Y-141041113D01*
X53469131Y-140500565D01*
X53466266Y-140493327D01*
X53387317Y-140274038D01*
X57599500Y-140274038D01*
X57599500Y-140525962D01*
X57601541Y-140538848D01*
X57638910Y-140774785D01*
X57716760Y-141014383D01*
X57831132Y-141238848D01*
X57979201Y-141442649D01*
X57979205Y-141442654D01*
X58157345Y-141620794D01*
X58157350Y-141620798D01*
X58335117Y-141749952D01*
X58361155Y-141768870D01*
X58504184Y-141841747D01*
X58585616Y-141883239D01*
X58585618Y-141883239D01*
X58585621Y-141883241D01*
X58825215Y-141961090D01*
X59074038Y-142000500D01*
X59074039Y-142000500D01*
X59325961Y-142000500D01*
X59325962Y-142000500D01*
X59574785Y-141961090D01*
X59814379Y-141883241D01*
X60038845Y-141768870D01*
X60242656Y-141620793D01*
X60420793Y-141442656D01*
X60568870Y-141238845D01*
X60683241Y-141014379D01*
X60761090Y-140774785D01*
X60800500Y-140525962D01*
X60800500Y-140274038D01*
X60761090Y-140025215D01*
X60683241Y-139785621D01*
X60683239Y-139785618D01*
X60683239Y-139785616D01*
X60641747Y-139704184D01*
X60568870Y-139561155D01*
X60543871Y-139526747D01*
X60460526Y-139412031D01*
X60420798Y-139357349D01*
X60410722Y-139347273D01*
X85799500Y-139347273D01*
X85799500Y-139452727D01*
X85826793Y-139554587D01*
X85879520Y-139645913D01*
X85954087Y-139720480D01*
X86045413Y-139773207D01*
X86147273Y-139800500D01*
X86147275Y-139800500D01*
X86252725Y-139800500D01*
X86252727Y-139800500D01*
X86354587Y-139773207D01*
X86445913Y-139720480D01*
X86520480Y-139645913D01*
X86573207Y-139554587D01*
X86580225Y-139528393D01*
X86616589Y-139468733D01*
X86679436Y-139438203D01*
X86748812Y-139446497D01*
X86802690Y-139490982D01*
X86819775Y-139528394D01*
X86826792Y-139554585D01*
X86826793Y-139554587D01*
X86879520Y-139645913D01*
X86954087Y-139720480D01*
X87045413Y-139773207D01*
X87147273Y-139800500D01*
X87147275Y-139800500D01*
X87252725Y-139800500D01*
X87252727Y-139800500D01*
X87354587Y-139773207D01*
X87445913Y-139720480D01*
X87520480Y-139645913D01*
X87561977Y-139574038D01*
X121099500Y-139574038D01*
X121099500Y-139825961D01*
X121138910Y-140074785D01*
X121216760Y-140314383D01*
X121274069Y-140426856D01*
X121324565Y-140525961D01*
X121331132Y-140538848D01*
X121479201Y-140742649D01*
X121479205Y-140742654D01*
X121657345Y-140920794D01*
X121657350Y-140920798D01*
X121786154Y-141014379D01*
X121861155Y-141068870D01*
X122004184Y-141141747D01*
X122085616Y-141183239D01*
X122085618Y-141183239D01*
X122085621Y-141183241D01*
X122325215Y-141261090D01*
X122574038Y-141300500D01*
X122574039Y-141300500D01*
X122825961Y-141300500D01*
X122825962Y-141300500D01*
X123074785Y-141261090D01*
X123314379Y-141183241D01*
X123538845Y-141068870D01*
X123742656Y-140920793D01*
X123920793Y-140742656D01*
X124068870Y-140538845D01*
X124183241Y-140314379D01*
X124261090Y-140074785D01*
X124300500Y-139825962D01*
X124300500Y-139574038D01*
X124261090Y-139325215D01*
X124183241Y-139085621D01*
X124183239Y-139085618D01*
X124183239Y-139085616D01*
X124131644Y-138984356D01*
X124068870Y-138861155D01*
X123990321Y-138753041D01*
X123920798Y-138657350D01*
X123920794Y-138657345D01*
X123742654Y-138479205D01*
X123742649Y-138479201D01*
X123538848Y-138331132D01*
X123538847Y-138331131D01*
X123538845Y-138331130D01*
X123468747Y-138295413D01*
X123314383Y-138216760D01*
X123074785Y-138138910D01*
X122825962Y-138099500D01*
X122574038Y-138099500D01*
X122449626Y-138119205D01*
X122325214Y-138138910D01*
X122085616Y-138216760D01*
X121861151Y-138331132D01*
X121657350Y-138479201D01*
X121657345Y-138479205D01*
X121479205Y-138657345D01*
X121479201Y-138657350D01*
X121331132Y-138861151D01*
X121216760Y-139085616D01*
X121138910Y-139325214D01*
X121099500Y-139574038D01*
X87561977Y-139574038D01*
X87573207Y-139554587D01*
X87600500Y-139452727D01*
X87600500Y-139347273D01*
X87573207Y-139245413D01*
X87520480Y-139154087D01*
X87445913Y-139079520D01*
X87412499Y-139060228D01*
X87364284Y-139009661D01*
X87350500Y-138952842D01*
X87350500Y-137297273D01*
X99449500Y-137297273D01*
X99449500Y-137402727D01*
X99476793Y-137504587D01*
X99529520Y-137595913D01*
X99604087Y-137670480D01*
X99695413Y-137723207D01*
X99797273Y-137750500D01*
X99797275Y-137750500D01*
X99902725Y-137750500D01*
X99902727Y-137750500D01*
X99939995Y-137740514D01*
X100009841Y-137742175D01*
X100059765Y-137772605D01*
X101569289Y-139282128D01*
X101585481Y-139288834D01*
X101585489Y-139288840D01*
X101585491Y-139288838D01*
X101624605Y-139305041D01*
X102050841Y-139305041D01*
X102117880Y-139324726D01*
X102158226Y-139367039D01*
X102176941Y-139399454D01*
X102251508Y-139474021D01*
X102342834Y-139526748D01*
X102444694Y-139554041D01*
X102444696Y-139554041D01*
X102550146Y-139554041D01*
X102550148Y-139554041D01*
X102652008Y-139526748D01*
X102743334Y-139474021D01*
X102817901Y-139399454D01*
X102870628Y-139308128D01*
X102897921Y-139206268D01*
X102897921Y-139100814D01*
X102870628Y-138998954D01*
X102817901Y-138907628D01*
X102743334Y-138833061D01*
X102652008Y-138780334D01*
X102550148Y-138753041D01*
X102444694Y-138753041D01*
X102342834Y-138780334D01*
X102342831Y-138780335D01*
X102251506Y-138833062D01*
X102176942Y-138907626D01*
X102157073Y-138942041D01*
X102106506Y-138990257D01*
X102049686Y-139004041D01*
X101768242Y-139004041D01*
X101701203Y-138984356D01*
X101680561Y-138967722D01*
X101043969Y-138331130D01*
X100272605Y-137559765D01*
X100239122Y-137498445D01*
X100240513Y-137439996D01*
X100250500Y-137402727D01*
X100250500Y-137297273D01*
X100223207Y-137195413D01*
X100170480Y-137104087D01*
X100095913Y-137029520D01*
X100004587Y-136976793D01*
X99902727Y-136949500D01*
X99797273Y-136949500D01*
X99695413Y-136976793D01*
X99695410Y-136976794D01*
X99604085Y-137029521D01*
X99529521Y-137104085D01*
X99476794Y-137195410D01*
X99476793Y-137195413D01*
X99449500Y-137297273D01*
X87350500Y-137297273D01*
X87350500Y-133113701D01*
X87370185Y-133046662D01*
X87386819Y-133026020D01*
X87822267Y-132590572D01*
X88284545Y-132128293D01*
X88345866Y-132094810D01*
X88415557Y-132099794D01*
X88471491Y-132141666D01*
X88491998Y-132183882D01*
X88514293Y-132267087D01*
X88567020Y-132358413D01*
X88641587Y-132432980D01*
X88732913Y-132485707D01*
X88834773Y-132513000D01*
X88834775Y-132513000D01*
X88940225Y-132513000D01*
X88940227Y-132513000D01*
X88977495Y-132503014D01*
X89047343Y-132504677D01*
X89097268Y-132535108D01*
X92389748Y-135827587D01*
X92405940Y-135834293D01*
X92405948Y-135834299D01*
X92405950Y-135834297D01*
X92445064Y-135850500D01*
X111824459Y-135850500D01*
X111891498Y-135870185D01*
X111937253Y-135922989D01*
X111948459Y-135974500D01*
X111948459Y-136001686D01*
X111975752Y-136103546D01*
X112028479Y-136194872D01*
X112103046Y-136269439D01*
X112194372Y-136322166D01*
X112296232Y-136349459D01*
X112296234Y-136349459D01*
X112401684Y-136349459D01*
X112401686Y-136349459D01*
X112503546Y-136322166D01*
X112594872Y-136269439D01*
X112669439Y-136194872D01*
X112722166Y-136103546D01*
X112749459Y-136001686D01*
X112749459Y-135896232D01*
X112739473Y-135858963D01*
X112741134Y-135789116D01*
X112771564Y-135739192D01*
X115863483Y-132647273D01*
X116999500Y-132647273D01*
X116999500Y-132752727D01*
X117026793Y-132854587D01*
X117079520Y-132945913D01*
X117154087Y-133020480D01*
X117245413Y-133073207D01*
X117347273Y-133100500D01*
X117347275Y-133100500D01*
X117452725Y-133100500D01*
X117452727Y-133100500D01*
X117554587Y-133073207D01*
X117645913Y-133020480D01*
X117720480Y-132945913D01*
X117773207Y-132854587D01*
X117800500Y-132752727D01*
X117800500Y-132663701D01*
X117820185Y-132596662D01*
X117836819Y-132576020D01*
X117992360Y-132420480D01*
X118150020Y-132262820D01*
X118176947Y-132248116D01*
X118202766Y-132231524D01*
X118208966Y-132230632D01*
X118211343Y-132229335D01*
X118237701Y-132226501D01*
X118352842Y-132226501D01*
X118419881Y-132246186D01*
X118460228Y-132288500D01*
X118463902Y-132294863D01*
X118479520Y-132321914D01*
X118554087Y-132396481D01*
X118645413Y-132449208D01*
X118747273Y-132476501D01*
X118747275Y-132476501D01*
X118852725Y-132476501D01*
X118852727Y-132476501D01*
X118954587Y-132449208D01*
X119045913Y-132396481D01*
X119120480Y-132321914D01*
X119173207Y-132230588D01*
X119200500Y-132128728D01*
X119200500Y-132023274D01*
X119173207Y-131921414D01*
X119120480Y-131830088D01*
X119045913Y-131755521D01*
X118954587Y-131702794D01*
X118852727Y-131675501D01*
X118747273Y-131675501D01*
X118645413Y-131702794D01*
X118645410Y-131702795D01*
X118554085Y-131755522D01*
X118479520Y-131830087D01*
X118460228Y-131863502D01*
X118409661Y-131911717D01*
X118352842Y-131925501D01*
X118094060Y-131925501D01*
X118073293Y-131934104D01*
X118073292Y-131934104D01*
X118038746Y-131948413D01*
X118038744Y-131948414D01*
X117687970Y-132299188D01*
X117626647Y-132332673D01*
X117562652Y-132328096D01*
X117562438Y-132328897D01*
X117558284Y-132327784D01*
X117556955Y-132327689D01*
X117554877Y-132326871D01*
X117554587Y-132326793D01*
X117452727Y-132299500D01*
X117347273Y-132299500D01*
X117245413Y-132326793D01*
X117245410Y-132326794D01*
X117154085Y-132379521D01*
X117079521Y-132454085D01*
X117026794Y-132545410D01*
X117026793Y-132545413D01*
X116999500Y-132647273D01*
X115863483Y-132647273D01*
X119019938Y-129490819D01*
X119081261Y-129457334D01*
X119107619Y-129454500D01*
X119701902Y-129454500D01*
X119768941Y-129474185D01*
X119814696Y-129526989D01*
X119824640Y-129596147D01*
X119795615Y-129659703D01*
X119789583Y-129666181D01*
X119769481Y-129686282D01*
X119769475Y-129686290D01*
X119690426Y-129823209D01*
X119690424Y-129823214D01*
X119690423Y-129823216D01*
X119649500Y-129975943D01*
X119649500Y-130134057D01*
X119677287Y-130237757D01*
X119690423Y-130286783D01*
X119690426Y-130286790D01*
X119769475Y-130423709D01*
X119769481Y-130423717D01*
X119858584Y-130512820D01*
X119892069Y-130574143D01*
X119887085Y-130643835D01*
X119845213Y-130699768D01*
X119779749Y-130724185D01*
X119770906Y-130724501D01*
X119740106Y-130724501D01*
X119740097Y-130724502D01*
X119710787Y-130730331D01*
X119677542Y-130752543D01*
X119655332Y-130785786D01*
X119655329Y-130785792D01*
X119649500Y-130815099D01*
X119649500Y-131834895D01*
X119649501Y-131834903D01*
X119655330Y-131864213D01*
X119677542Y-131897458D01*
X119694219Y-131908600D01*
X119710787Y-131919670D01*
X119710790Y-131919670D01*
X119710791Y-131919671D01*
X119720647Y-131921631D01*
X119740101Y-131925501D01*
X120654923Y-131925500D01*
X120721962Y-131945184D01*
X120742604Y-131961819D01*
X120882534Y-132101749D01*
X120882538Y-132101752D01*
X121046316Y-132211186D01*
X121046329Y-132211193D01*
X121228309Y-132286570D01*
X121270001Y-132294863D01*
X121770001Y-132294863D01*
X121811691Y-132286570D01*
X121811693Y-132286570D01*
X121993674Y-132211192D01*
X121993677Y-132211190D01*
X122086107Y-132149430D01*
X122152784Y-132128551D01*
X122220165Y-132147035D01*
X122223890Y-132149429D01*
X122316315Y-132211186D01*
X122316328Y-132211193D01*
X122498308Y-132286570D01*
X122540000Y-132294863D01*
X122540000Y-131575001D01*
X121770001Y-131575001D01*
X121770001Y-132294863D01*
X121270001Y-132294863D01*
X121270001Y-131534619D01*
X121320447Y-131585065D01*
X121394556Y-131627852D01*
X121477214Y-131650001D01*
X121562788Y-131650001D01*
X121645446Y-131627852D01*
X121719555Y-131585065D01*
X121780065Y-131524555D01*
X121822852Y-131450446D01*
X121845001Y-131367788D01*
X121845001Y-131282214D01*
X121822852Y-131199556D01*
X121780065Y-131125447D01*
X121729619Y-131075001D01*
X122580382Y-131075001D01*
X122529936Y-131125447D01*
X122487149Y-131199556D01*
X122465000Y-131282214D01*
X122465000Y-131367788D01*
X122487149Y-131450446D01*
X122529936Y-131524555D01*
X122590446Y-131585065D01*
X122664555Y-131627852D01*
X122747213Y-131650001D01*
X122832787Y-131650001D01*
X122915445Y-131627852D01*
X122989554Y-131585065D01*
X123040000Y-131534619D01*
X123040000Y-132294863D01*
X123081690Y-132286570D01*
X123081692Y-132286570D01*
X123263671Y-132211193D01*
X123263684Y-132211186D01*
X123427462Y-132101752D01*
X123427466Y-132101749D01*
X123566749Y-131962466D01*
X123612568Y-131893893D01*
X123666180Y-131849087D01*
X123735505Y-131840380D01*
X123777670Y-131855395D01*
X123828216Y-131884578D01*
X123980943Y-131925501D01*
X123980945Y-131925501D01*
X124139055Y-131925501D01*
X124139057Y-131925501D01*
X124291784Y-131884578D01*
X124342330Y-131855395D01*
X124410228Y-131838922D01*
X124476255Y-131861774D01*
X124507432Y-131893892D01*
X124553250Y-131962465D01*
X124692533Y-132101748D01*
X124692537Y-132101751D01*
X124856315Y-132211185D01*
X124856328Y-132211192D01*
X125038308Y-132286569D01*
X125080000Y-132294862D01*
X125580000Y-132294862D01*
X125621690Y-132286569D01*
X125621692Y-132286569D01*
X125803671Y-132211192D01*
X125803684Y-132211185D01*
X125967462Y-132101751D01*
X125967466Y-132101748D01*
X126106748Y-131962466D01*
X126106751Y-131962462D01*
X126216185Y-131798684D01*
X126216192Y-131798671D01*
X126291569Y-131616692D01*
X126291569Y-131616690D01*
X126299862Y-131575000D01*
X125580000Y-131575000D01*
X125580000Y-132294862D01*
X125080000Y-132294862D01*
X125080000Y-131534618D01*
X125130446Y-131585064D01*
X125204555Y-131627851D01*
X125287213Y-131650000D01*
X125372787Y-131650000D01*
X125455445Y-131627851D01*
X125529554Y-131585064D01*
X125590064Y-131524554D01*
X125632851Y-131450445D01*
X125655000Y-131367787D01*
X125655000Y-131282213D01*
X125632851Y-131199555D01*
X125590064Y-131125446D01*
X125539618Y-131075000D01*
X126299862Y-131075000D01*
X126291569Y-131033309D01*
X126291569Y-131033307D01*
X126216192Y-130851328D01*
X126216185Y-130851315D01*
X126106751Y-130687537D01*
X126106748Y-130687533D01*
X125967465Y-130548250D01*
X125898892Y-130502432D01*
X125896603Y-130499694D01*
X125893265Y-130498441D01*
X125874371Y-130473092D01*
X125854086Y-130448820D01*
X125853641Y-130445279D01*
X125851510Y-130442420D01*
X125849319Y-130410870D01*
X125845379Y-130379495D01*
X125846845Y-130375231D01*
X125846671Y-130372719D01*
X125855854Y-130349036D01*
X125859074Y-130339676D01*
X125859714Y-130338509D01*
X125889577Y-130286785D01*
X125890988Y-130281517D01*
X125897392Y-130269848D01*
X125917539Y-130249783D01*
X125935380Y-130227645D01*
X125941974Y-130225450D01*
X125946900Y-130220545D01*
X125974695Y-130214559D01*
X126001674Y-130205580D01*
X126006100Y-130205501D01*
X126513618Y-130205501D01*
X126580657Y-130225186D01*
X126621002Y-130267497D01*
X126634521Y-130290912D01*
X126709088Y-130365479D01*
X126800414Y-130418206D01*
X126902274Y-130445499D01*
X126902276Y-130445499D01*
X127007726Y-130445499D01*
X127007728Y-130445499D01*
X127109588Y-130418206D01*
X127200914Y-130365479D01*
X127275481Y-130290912D01*
X127328208Y-130199586D01*
X127355501Y-130097726D01*
X127355501Y-129992272D01*
X127328208Y-129890412D01*
X127275481Y-129799086D01*
X127200914Y-129724519D01*
X127109588Y-129671792D01*
X127007728Y-129644499D01*
X126902274Y-129644499D01*
X126800414Y-129671792D01*
X126800411Y-129671793D01*
X126709086Y-129724520D01*
X126634522Y-129799084D01*
X126634521Y-129799086D01*
X126609454Y-129842502D01*
X126558889Y-129890717D01*
X126502069Y-129904501D01*
X126006100Y-129904501D01*
X125939061Y-129884816D01*
X125893306Y-129832012D01*
X125891539Y-129827953D01*
X125889576Y-129823214D01*
X125810524Y-129686291D01*
X125810518Y-129686283D01*
X125698717Y-129574482D01*
X125698709Y-129574476D01*
X125561790Y-129495427D01*
X125561786Y-129495425D01*
X125561784Y-129495424D01*
X125409057Y-129454501D01*
X125250943Y-129454501D01*
X125098216Y-129495424D01*
X125093475Y-129497388D01*
X125024005Y-129504854D01*
X124961527Y-129473577D01*
X124958345Y-129470506D01*
X124664250Y-129176411D01*
X124631847Y-129162990D01*
X124631847Y-129162989D01*
X124608938Y-129153501D01*
X124608937Y-129153500D01*
X124608935Y-129153500D01*
X118963982Y-129153500D01*
X118963981Y-129153500D01*
X118924868Y-129169702D01*
X118924866Y-129169702D01*
X118908668Y-129176410D01*
X118908666Y-129176412D01*
X112558726Y-135526350D01*
X112497403Y-135559835D01*
X112438953Y-135558444D01*
X112401687Y-135548459D01*
X112401686Y-135548459D01*
X112296232Y-135548459D01*
X112296227Y-135548459D01*
X112234386Y-135565029D01*
X112211557Y-135564485D01*
X112189081Y-135568548D01*
X112169179Y-135563475D01*
X112164536Y-135563365D01*
X112154880Y-135559831D01*
X112152884Y-135559005D01*
X112152849Y-135558990D01*
X112129939Y-135549501D01*
X112129938Y-135549500D01*
X112129936Y-135549500D01*
X112129933Y-135549500D01*
X96901268Y-135549500D01*
X96834229Y-135529815D01*
X96788474Y-135477011D01*
X96778530Y-135407853D01*
X96793881Y-135363500D01*
X96834298Y-135293496D01*
X96861591Y-135191636D01*
X96861591Y-135086182D01*
X96834298Y-134984322D01*
X96781571Y-134892996D01*
X96707004Y-134818429D01*
X96615678Y-134765702D01*
X96597038Y-134760707D01*
X96541454Y-134728614D01*
X94872608Y-133059768D01*
X94839123Y-132998445D01*
X94840514Y-132939994D01*
X94840647Y-132939499D01*
X94850500Y-132902727D01*
X94850500Y-132797273D01*
X94823207Y-132695413D01*
X94770480Y-132604087D01*
X94695913Y-132529520D01*
X94604587Y-132476793D01*
X94502727Y-132449500D01*
X94397273Y-132449500D01*
X94295413Y-132476793D01*
X94295410Y-132476794D01*
X94204085Y-132529521D01*
X94129521Y-132604085D01*
X94076794Y-132695410D01*
X94076793Y-132695413D01*
X94049500Y-132797273D01*
X94049500Y-132902727D01*
X94076793Y-133004587D01*
X94129520Y-133095913D01*
X94204087Y-133170480D01*
X94295413Y-133223207D01*
X94397273Y-133250500D01*
X94397275Y-133250500D01*
X94502725Y-133250500D01*
X94502727Y-133250500D01*
X94539995Y-133240514D01*
X94609843Y-133242177D01*
X94659768Y-133272608D01*
X96124407Y-134737247D01*
X96157892Y-134798570D01*
X96152908Y-134868262D01*
X96144114Y-134886927D01*
X96087884Y-134984321D01*
X96087884Y-134984322D01*
X96060591Y-135086182D01*
X96060591Y-135191635D01*
X96087884Y-135293495D01*
X96087885Y-135293498D01*
X96128301Y-135363500D01*
X96144774Y-135431400D01*
X96121922Y-135497427D01*
X96067000Y-135540618D01*
X96020914Y-135549500D01*
X92588701Y-135549500D01*
X92521662Y-135529815D01*
X92501020Y-135513181D01*
X89310108Y-132322268D01*
X89276623Y-132260945D01*
X89278014Y-132202494D01*
X89288000Y-132165227D01*
X89288000Y-132059773D01*
X89260707Y-131957913D01*
X89207980Y-131866587D01*
X89133413Y-131792020D01*
X89042087Y-131739293D01*
X88958882Y-131716998D01*
X88899222Y-131680634D01*
X88868693Y-131617787D01*
X88876988Y-131548412D01*
X88903292Y-131509546D01*
X93148107Y-127264732D01*
X104839140Y-127264732D01*
X104839140Y-127370186D01*
X104866433Y-127472046D01*
X104919160Y-127563372D01*
X104993727Y-127637939D01*
X105085053Y-127690666D01*
X105186913Y-127717959D01*
X105186915Y-127717959D01*
X105292364Y-127717959D01*
X105292367Y-127717959D01*
X105329635Y-127707973D01*
X105399482Y-127709636D01*
X105449407Y-127740067D01*
X105636927Y-127927587D01*
X105636928Y-127927587D01*
X105636929Y-127927588D01*
X105669329Y-127941007D01*
X105669332Y-127941010D01*
X105669333Y-127941010D01*
X105692240Y-127950498D01*
X105692245Y-127950500D01*
X106152842Y-127950500D01*
X106219881Y-127970185D01*
X106260228Y-128012499D01*
X106279520Y-128045913D01*
X106354087Y-128120480D01*
X106445413Y-128173207D01*
X106547273Y-128200500D01*
X106547275Y-128200500D01*
X106652725Y-128200500D01*
X106652727Y-128200500D01*
X106754587Y-128173207D01*
X106845913Y-128120480D01*
X106920480Y-128045913D01*
X106973207Y-127954587D01*
X107000500Y-127852727D01*
X107000500Y-127747273D01*
X106973207Y-127645413D01*
X106920480Y-127554087D01*
X106845913Y-127479520D01*
X106754587Y-127426793D01*
X106652727Y-127399500D01*
X106547273Y-127399500D01*
X106445413Y-127426793D01*
X106445410Y-127426794D01*
X106354085Y-127479521D01*
X106279520Y-127554086D01*
X106260228Y-127587501D01*
X106209661Y-127635716D01*
X106152842Y-127649500D01*
X105835883Y-127649500D01*
X105806442Y-127640855D01*
X105776456Y-127634332D01*
X105771440Y-127630577D01*
X105768844Y-127629815D01*
X105748202Y-127613181D01*
X105662248Y-127527227D01*
X105628763Y-127465904D01*
X105630154Y-127407453D01*
X105632285Y-127399500D01*
X105640140Y-127370186D01*
X105640140Y-127264732D01*
X105612847Y-127162872D01*
X105560120Y-127071546D01*
X105485553Y-126996979D01*
X105408906Y-126952727D01*
X105394229Y-126944253D01*
X105394228Y-126944252D01*
X105394227Y-126944252D01*
X105292367Y-126916959D01*
X105186913Y-126916959D01*
X105085053Y-126944252D01*
X105085050Y-126944253D01*
X104993725Y-126996980D01*
X104919161Y-127071544D01*
X104866434Y-127162869D01*
X104866433Y-127162872D01*
X104839140Y-127264732D01*
X93148107Y-127264732D01*
X94765566Y-125647273D01*
X109499500Y-125647273D01*
X109499500Y-125752727D01*
X109526793Y-125854587D01*
X109579520Y-125945913D01*
X109654087Y-126020480D01*
X109745413Y-126073207D01*
X109847273Y-126100500D01*
X109847275Y-126100500D01*
X109952725Y-126100500D01*
X109952727Y-126100500D01*
X110054587Y-126073207D01*
X110145913Y-126020480D01*
X110220480Y-125945913D01*
X110242614Y-125907574D01*
X110293179Y-125859361D01*
X110361786Y-125846137D01*
X110426651Y-125872105D01*
X110457384Y-125907573D01*
X110479520Y-125945913D01*
X110554087Y-126020480D01*
X110645413Y-126073207D01*
X110747273Y-126100500D01*
X110747275Y-126100500D01*
X110852725Y-126100500D01*
X110852727Y-126100500D01*
X110954587Y-126073207D01*
X111045913Y-126020480D01*
X111120480Y-125945913D01*
X111142614Y-125907574D01*
X111193179Y-125859361D01*
X111261786Y-125846137D01*
X111326651Y-125872105D01*
X111357384Y-125907573D01*
X111379520Y-125945913D01*
X111454087Y-126020480D01*
X111545413Y-126073207D01*
X111647273Y-126100500D01*
X111647275Y-126100500D01*
X111752725Y-126100500D01*
X111752727Y-126100500D01*
X111854587Y-126073207D01*
X111945913Y-126020480D01*
X112020480Y-125945913D01*
X112042614Y-125907574D01*
X112093179Y-125859361D01*
X112161786Y-125846137D01*
X112226651Y-125872105D01*
X112257384Y-125907573D01*
X112279520Y-125945913D01*
X112354087Y-126020480D01*
X112445413Y-126073207D01*
X112547273Y-126100500D01*
X112547275Y-126100500D01*
X112652725Y-126100500D01*
X112652727Y-126100500D01*
X112754587Y-126073207D01*
X112845913Y-126020480D01*
X112920480Y-125945913D01*
X112942614Y-125907574D01*
X112993179Y-125859361D01*
X113061786Y-125846137D01*
X113126651Y-125872105D01*
X113157384Y-125907573D01*
X113179520Y-125945913D01*
X113254087Y-126020480D01*
X113345413Y-126073207D01*
X113447273Y-126100500D01*
X113447275Y-126100500D01*
X113552725Y-126100500D01*
X113552727Y-126100500D01*
X113654587Y-126073207D01*
X113745913Y-126020480D01*
X113820480Y-125945913D01*
X113842614Y-125907574D01*
X113893179Y-125859361D01*
X113961786Y-125846137D01*
X114026651Y-125872105D01*
X114057384Y-125907573D01*
X114079520Y-125945913D01*
X114154087Y-126020480D01*
X114245413Y-126073207D01*
X114347273Y-126100500D01*
X114347275Y-126100500D01*
X114452725Y-126100500D01*
X114452727Y-126100500D01*
X114554587Y-126073207D01*
X114645913Y-126020480D01*
X114720480Y-125945913D01*
X114742614Y-125907574D01*
X114793179Y-125859361D01*
X114861786Y-125846137D01*
X114926651Y-125872105D01*
X114957384Y-125907573D01*
X114979520Y-125945913D01*
X115054087Y-126020480D01*
X115145413Y-126073207D01*
X115247273Y-126100500D01*
X115247275Y-126100500D01*
X115352725Y-126100500D01*
X115352727Y-126100500D01*
X115454587Y-126073207D01*
X115545913Y-126020480D01*
X115620480Y-125945913D01*
X115673207Y-125854587D01*
X115686734Y-125804099D01*
X115723098Y-125744440D01*
X115785945Y-125713910D01*
X115855320Y-125722204D01*
X115868502Y-125728802D01*
X115945413Y-125773207D01*
X116047273Y-125800500D01*
X116047275Y-125800500D01*
X116152725Y-125800500D01*
X116152727Y-125800500D01*
X116254587Y-125773207D01*
X116345913Y-125720480D01*
X116420480Y-125645913D01*
X116473207Y-125554587D01*
X116500500Y-125452727D01*
X116500500Y-125347273D01*
X116473207Y-125245413D01*
X116473205Y-125245409D01*
X116471241Y-125240666D01*
X116463774Y-125171196D01*
X116495050Y-125108718D01*
X116547449Y-125077208D01*
X116547080Y-125076316D01*
X116553036Y-125073848D01*
X116553715Y-125073440D01*
X116554587Y-125073207D01*
X116645913Y-125020480D01*
X116720480Y-124945913D01*
X116773207Y-124854587D01*
X116800500Y-124752727D01*
X116800500Y-124647273D01*
X116773207Y-124545413D01*
X116720480Y-124454087D01*
X116654074Y-124387681D01*
X116620589Y-124326358D01*
X116625573Y-124256666D01*
X116654074Y-124212319D01*
X116681882Y-124184511D01*
X116720480Y-124145913D01*
X116773207Y-124054587D01*
X116800500Y-123952727D01*
X116800500Y-123847273D01*
X116773207Y-123745413D01*
X116720480Y-123654087D01*
X116645913Y-123579520D01*
X116565825Y-123533281D01*
X116554589Y-123526794D01*
X116554588Y-123526793D01*
X116554587Y-123526793D01*
X116452727Y-123499500D01*
X116347273Y-123499500D01*
X116245413Y-123526793D01*
X116245410Y-123526794D01*
X116154085Y-123579521D01*
X116079521Y-123654085D01*
X116026794Y-123745410D01*
X116026793Y-123745413D01*
X115999500Y-123847273D01*
X115999500Y-123952727D01*
X116026295Y-124052726D01*
X116026793Y-124054586D01*
X116026794Y-124054589D01*
X116079521Y-124145914D01*
X116145926Y-124212319D01*
X116179411Y-124273642D01*
X116174427Y-124343334D01*
X116145926Y-124387681D01*
X116079521Y-124454085D01*
X116026794Y-124545410D01*
X116026793Y-124545413D01*
X115999500Y-124647273D01*
X115999500Y-124752727D01*
X116016583Y-124816483D01*
X116026795Y-124854593D01*
X116028760Y-124859338D01*
X116036224Y-124928808D01*
X116004945Y-124991285D01*
X115952551Y-125022794D01*
X115952920Y-125023684D01*
X115946984Y-125026142D01*
X115946297Y-125026556D01*
X115945416Y-125026792D01*
X115945410Y-125026794D01*
X115854085Y-125079521D01*
X115779521Y-125154085D01*
X115726794Y-125245410D01*
X115726791Y-125245417D01*
X115713264Y-125295901D01*
X115676899Y-125355561D01*
X115614052Y-125386089D01*
X115544676Y-125377794D01*
X115531490Y-125371193D01*
X115454589Y-125326794D01*
X115454588Y-125326793D01*
X115454587Y-125326793D01*
X115352727Y-125299500D01*
X115247273Y-125299500D01*
X115145413Y-125326793D01*
X115145410Y-125326794D01*
X115054085Y-125379521D01*
X114979522Y-125454084D01*
X114979520Y-125454086D01*
X114979520Y-125454087D01*
X114957385Y-125492425D01*
X114906820Y-125540639D01*
X114838212Y-125553861D01*
X114773348Y-125527893D01*
X114742615Y-125492426D01*
X114720480Y-125454087D01*
X114645913Y-125379520D01*
X114554587Y-125326793D01*
X114452727Y-125299500D01*
X114347273Y-125299500D01*
X114245413Y-125326793D01*
X114245410Y-125326794D01*
X114154085Y-125379521D01*
X114079522Y-125454084D01*
X114079520Y-125454086D01*
X114079520Y-125454087D01*
X114057385Y-125492425D01*
X114006820Y-125540639D01*
X113938212Y-125553861D01*
X113873348Y-125527893D01*
X113842615Y-125492426D01*
X113820480Y-125454087D01*
X113745913Y-125379520D01*
X113654587Y-125326793D01*
X113552727Y-125299500D01*
X113447273Y-125299500D01*
X113345413Y-125326793D01*
X113345410Y-125326794D01*
X113254085Y-125379521D01*
X113179522Y-125454084D01*
X113179520Y-125454086D01*
X113179520Y-125454087D01*
X113157385Y-125492425D01*
X113106820Y-125540639D01*
X113038212Y-125553861D01*
X112973348Y-125527893D01*
X112942615Y-125492426D01*
X112920480Y-125454087D01*
X112845913Y-125379520D01*
X112754587Y-125326793D01*
X112652727Y-125299500D01*
X112547273Y-125299500D01*
X112445413Y-125326793D01*
X112445410Y-125326794D01*
X112354085Y-125379521D01*
X112279522Y-125454084D01*
X112279520Y-125454086D01*
X112279520Y-125454087D01*
X112257385Y-125492425D01*
X112206820Y-125540639D01*
X112138212Y-125553861D01*
X112073348Y-125527893D01*
X112042615Y-125492426D01*
X112020480Y-125454087D01*
X111945913Y-125379520D01*
X111854587Y-125326793D01*
X111752727Y-125299500D01*
X111647273Y-125299500D01*
X111545413Y-125326793D01*
X111545410Y-125326794D01*
X111454085Y-125379521D01*
X111379522Y-125454084D01*
X111379520Y-125454086D01*
X111379520Y-125454087D01*
X111357385Y-125492425D01*
X111306820Y-125540639D01*
X111238212Y-125553861D01*
X111173348Y-125527893D01*
X111142615Y-125492426D01*
X111120480Y-125454087D01*
X111045913Y-125379520D01*
X110954587Y-125326793D01*
X110852727Y-125299500D01*
X110747273Y-125299500D01*
X110645413Y-125326793D01*
X110645410Y-125326794D01*
X110554085Y-125379521D01*
X110479522Y-125454084D01*
X110479520Y-125454086D01*
X110479520Y-125454087D01*
X110457385Y-125492425D01*
X110406820Y-125540639D01*
X110338212Y-125553861D01*
X110273348Y-125527893D01*
X110242615Y-125492426D01*
X110220480Y-125454087D01*
X110145913Y-125379520D01*
X110054587Y-125326793D01*
X109952727Y-125299500D01*
X109847273Y-125299500D01*
X109745413Y-125326793D01*
X109745410Y-125326794D01*
X109654085Y-125379521D01*
X109579521Y-125454085D01*
X109526794Y-125545410D01*
X109526793Y-125545413D01*
X109499500Y-125647273D01*
X94765566Y-125647273D01*
X97226020Y-123186819D01*
X97287343Y-123153334D01*
X97313701Y-123150500D01*
X103686298Y-123150500D01*
X103753337Y-123170185D01*
X103773979Y-123186819D01*
X104084396Y-123497235D01*
X104117881Y-123558558D01*
X104116491Y-123617006D01*
X104111632Y-123635141D01*
X104111632Y-123740595D01*
X104138925Y-123842455D01*
X104191652Y-123933781D01*
X104266219Y-124008348D01*
X104357545Y-124061075D01*
X104459405Y-124088368D01*
X104459407Y-124088368D01*
X104564857Y-124088368D01*
X104564859Y-124088368D01*
X104666719Y-124061075D01*
X104758045Y-124008348D01*
X104832612Y-123933781D01*
X104885339Y-123842455D01*
X104912632Y-123740595D01*
X104912632Y-123635141D01*
X104885339Y-123533281D01*
X104832612Y-123441955D01*
X104758045Y-123367388D01*
X104666719Y-123314661D01*
X104564859Y-123287368D01*
X104459405Y-123287368D01*
X104459403Y-123287368D01*
X104402999Y-123302481D01*
X104333149Y-123300817D01*
X104283226Y-123270387D01*
X104089579Y-123076740D01*
X103885252Y-122872412D01*
X103885251Y-122872411D01*
X103852848Y-122858990D01*
X103852848Y-122858989D01*
X103829939Y-122849501D01*
X103829938Y-122849500D01*
X103829936Y-122849500D01*
X103829933Y-122849500D01*
X102946580Y-122849500D01*
X102879541Y-122829815D01*
X102833786Y-122777011D01*
X102823842Y-122707853D01*
X102839191Y-122663504D01*
X102873207Y-122604587D01*
X102900500Y-122502727D01*
X102900500Y-122397273D01*
X102873207Y-122295413D01*
X102820480Y-122204087D01*
X102745913Y-122129520D01*
X102654587Y-122076793D01*
X102552727Y-122049500D01*
X102447273Y-122049500D01*
X102345413Y-122076793D01*
X102345410Y-122076794D01*
X102254085Y-122129521D01*
X102173773Y-122209834D01*
X102172088Y-122208149D01*
X102125477Y-122242187D01*
X102083524Y-122249500D01*
X97329936Y-122249500D01*
X97270064Y-122249500D01*
X97270062Y-122249500D01*
X97270060Y-122249501D01*
X97214751Y-122272409D01*
X97214749Y-122272411D01*
X86072413Y-133414745D01*
X86072412Y-133414748D01*
X86058990Y-133447151D01*
X86058989Y-133447154D01*
X86058988Y-133447153D01*
X86049500Y-133470062D01*
X86049500Y-138952842D01*
X86029815Y-139019881D01*
X85987501Y-139060228D01*
X85954086Y-139079520D01*
X85879521Y-139154085D01*
X85826794Y-139245410D01*
X85826793Y-139245413D01*
X85799500Y-139347273D01*
X60410722Y-139347273D01*
X60242654Y-139179205D01*
X60242649Y-139179201D01*
X60038848Y-139031132D01*
X60038847Y-139031131D01*
X60038845Y-139031130D01*
X59914400Y-138967722D01*
X59814383Y-138916760D01*
X59574785Y-138838910D01*
X59537856Y-138833061D01*
X59325962Y-138799500D01*
X59074038Y-138799500D01*
X58949626Y-138819205D01*
X58825214Y-138838910D01*
X58585616Y-138916760D01*
X58361151Y-139031132D01*
X58157350Y-139179201D01*
X58157345Y-139179205D01*
X57979205Y-139357345D01*
X57979201Y-139357350D01*
X57831132Y-139561151D01*
X57716760Y-139785616D01*
X57668058Y-139935507D01*
X57638910Y-140025215D01*
X57599500Y-140274038D01*
X53387317Y-140274038D01*
X53266746Y-139939139D01*
X53264358Y-139931789D01*
X53100031Y-139366172D01*
X53098096Y-139358638D01*
X53090516Y-139324726D01*
X52969605Y-138783802D01*
X52968153Y-138776188D01*
X52876016Y-138194459D01*
X52875040Y-138186732D01*
X52819610Y-137600340D01*
X52819123Y-137592598D01*
X52800561Y-137001941D01*
X52800500Y-136998046D01*
X52800500Y-133953388D01*
X62699501Y-133953388D01*
X62699501Y-134126610D01*
X62726599Y-134297700D01*
X62780128Y-134462444D01*
X62858769Y-134616787D01*
X62960587Y-134756927D01*
X63083073Y-134879413D01*
X63223213Y-134981231D01*
X63377556Y-135059872D01*
X63542300Y-135113401D01*
X63713390Y-135140499D01*
X63713391Y-135140499D01*
X63886611Y-135140499D01*
X63886612Y-135140499D01*
X64057702Y-135113401D01*
X64222446Y-135059872D01*
X64376789Y-134981231D01*
X64516929Y-134879413D01*
X64639415Y-134756927D01*
X64741233Y-134616787D01*
X64819874Y-134462444D01*
X64873403Y-134297700D01*
X64900501Y-134126610D01*
X64900501Y-133953388D01*
X64873403Y-133782298D01*
X64819874Y-133617554D01*
X64741233Y-133463211D01*
X64639415Y-133323071D01*
X64516929Y-133200585D01*
X64376789Y-133098767D01*
X64305294Y-133062339D01*
X64222448Y-133020127D01*
X64222447Y-133020126D01*
X64222446Y-133020126D01*
X64057702Y-132966597D01*
X64057700Y-132966596D01*
X64057699Y-132966596D01*
X63926272Y-132945780D01*
X63886612Y-132939499D01*
X63713390Y-132939499D01*
X63673729Y-132945780D01*
X63542303Y-132966596D01*
X63377553Y-133020127D01*
X63223212Y-133098767D01*
X63147391Y-133153855D01*
X63083073Y-133200585D01*
X63083071Y-133200587D01*
X63083070Y-133200587D01*
X62960589Y-133323068D01*
X62960589Y-133323069D01*
X62960587Y-133323071D01*
X62916860Y-133383255D01*
X62858769Y-133463210D01*
X62780129Y-133617551D01*
X62726598Y-133782301D01*
X62699501Y-133953388D01*
X52800500Y-133953388D01*
X52800500Y-132047273D01*
X55799500Y-132047273D01*
X55799500Y-132152727D01*
X55826793Y-132254587D01*
X55879520Y-132345913D01*
X55954087Y-132420480D01*
X56045413Y-132473207D01*
X56147273Y-132500500D01*
X56147275Y-132500500D01*
X56252725Y-132500500D01*
X56252727Y-132500500D01*
X56354587Y-132473207D01*
X56445913Y-132420480D01*
X56520480Y-132345913D01*
X56573207Y-132254587D01*
X56600500Y-132152727D01*
X56600500Y-132047273D01*
X56573207Y-131945413D01*
X56520480Y-131854087D01*
X56445913Y-131779520D01*
X56354587Y-131726793D01*
X56252727Y-131699500D01*
X56147273Y-131699500D01*
X56045413Y-131726793D01*
X56045410Y-131726794D01*
X55954085Y-131779521D01*
X55879521Y-131854085D01*
X55826794Y-131945410D01*
X55826793Y-131945413D01*
X55799500Y-132047273D01*
X52800500Y-132047273D01*
X52800500Y-130915903D01*
X54668129Y-130915903D01*
X54668129Y-131021357D01*
X54695422Y-131123217D01*
X54748149Y-131214543D01*
X54822716Y-131289110D01*
X54914042Y-131341837D01*
X55015902Y-131369130D01*
X55015904Y-131369130D01*
X55121354Y-131369130D01*
X55121356Y-131369130D01*
X55223216Y-131341837D01*
X55314542Y-131289110D01*
X55389109Y-131214543D01*
X55441836Y-131123217D01*
X55469129Y-131021357D01*
X55469129Y-130915903D01*
X55441836Y-130814043D01*
X55389109Y-130722717D01*
X55383130Y-130716738D01*
X62699501Y-130716738D01*
X62699501Y-132283259D01*
X62709427Y-132351390D01*
X62709428Y-132351392D01*
X62757246Y-132449207D01*
X62760804Y-132456484D01*
X62843515Y-132539195D01*
X62843516Y-132539195D01*
X62843518Y-132539197D01*
X62948608Y-132590572D01*
X62982674Y-132595535D01*
X63016740Y-132600499D01*
X63016741Y-132600499D01*
X64583262Y-132600499D01*
X64609596Y-132596662D01*
X64651394Y-132590572D01*
X64756484Y-132539197D01*
X64839199Y-132456482D01*
X64890574Y-132351392D01*
X64900501Y-132283259D01*
X64900501Y-130716739D01*
X64890574Y-130648606D01*
X64839199Y-130543516D01*
X64839197Y-130543514D01*
X64839197Y-130543513D01*
X64756486Y-130460802D01*
X64651392Y-130409425D01*
X64583262Y-130399499D01*
X64583261Y-130399499D01*
X63016741Y-130399499D01*
X63016740Y-130399499D01*
X62948609Y-130409425D01*
X62843515Y-130460802D01*
X62760804Y-130543513D01*
X62709427Y-130648607D01*
X62699501Y-130716738D01*
X55383130Y-130716738D01*
X55314542Y-130648150D01*
X55223216Y-130595423D01*
X55121356Y-130568130D01*
X55015902Y-130568130D01*
X54914042Y-130595423D01*
X54914039Y-130595424D01*
X54822714Y-130648151D01*
X54748150Y-130722715D01*
X54695423Y-130814040D01*
X54695422Y-130814043D01*
X54668129Y-130915903D01*
X52800500Y-130915903D01*
X52800500Y-129784531D01*
X53536758Y-129784531D01*
X53536758Y-129889985D01*
X53559791Y-129975944D01*
X53564051Y-129991844D01*
X53564052Y-129991847D01*
X53564299Y-129992274D01*
X53616778Y-130083171D01*
X53691345Y-130157738D01*
X53782671Y-130210465D01*
X53884531Y-130237758D01*
X53884533Y-130237758D01*
X53989983Y-130237758D01*
X53989985Y-130237758D01*
X54091845Y-130210465D01*
X54183171Y-130157738D01*
X54257738Y-130083171D01*
X54310465Y-129991845D01*
X54337758Y-129889985D01*
X54337758Y-129784531D01*
X54310465Y-129682671D01*
X54257738Y-129591345D01*
X54183171Y-129516778D01*
X54108345Y-129473577D01*
X54091847Y-129464052D01*
X54091846Y-129464051D01*
X54091845Y-129464051D01*
X53989985Y-129436758D01*
X53884531Y-129436758D01*
X53782671Y-129464051D01*
X53782668Y-129464052D01*
X53691343Y-129516779D01*
X53616779Y-129591343D01*
X53564052Y-129682668D01*
X53564051Y-129682671D01*
X53536758Y-129784531D01*
X52800500Y-129784531D01*
X52800500Y-128447272D01*
X53499500Y-128447272D01*
X53499500Y-128552726D01*
X53526793Y-128654586D01*
X53579520Y-128745912D01*
X53654087Y-128820479D01*
X53745413Y-128873206D01*
X53847273Y-128900499D01*
X53847275Y-128900499D01*
X53952725Y-128900499D01*
X53952727Y-128900499D01*
X54054587Y-128873206D01*
X54145913Y-128820479D01*
X54220480Y-128745912D01*
X54273207Y-128654586D01*
X54300500Y-128552726D01*
X54300500Y-128447272D01*
X54273207Y-128345412D01*
X54220480Y-128254086D01*
X54145913Y-128179519D01*
X54054587Y-128126792D01*
X53952727Y-128099499D01*
X53847273Y-128099499D01*
X53745413Y-128126792D01*
X53745410Y-128126793D01*
X53654085Y-128179520D01*
X53579521Y-128254084D01*
X53526794Y-128345409D01*
X53526793Y-128345412D01*
X53499500Y-128447272D01*
X52800500Y-128447272D01*
X52800500Y-126847273D01*
X53499500Y-126847273D01*
X53499500Y-126952727D01*
X53526793Y-127054587D01*
X53579520Y-127145913D01*
X53654087Y-127220480D01*
X53745413Y-127273207D01*
X53847273Y-127300500D01*
X53847275Y-127300500D01*
X53952725Y-127300500D01*
X53952727Y-127300500D01*
X54054587Y-127273207D01*
X54145913Y-127220480D01*
X54220480Y-127145913D01*
X54273207Y-127054587D01*
X54300500Y-126952727D01*
X54300500Y-126847273D01*
X54273207Y-126745413D01*
X54220480Y-126654087D01*
X54145913Y-126579520D01*
X54054587Y-126526793D01*
X53952727Y-126499500D01*
X53847273Y-126499500D01*
X53745413Y-126526793D01*
X53745410Y-126526794D01*
X53654085Y-126579521D01*
X53579521Y-126654085D01*
X53526794Y-126745410D01*
X53526793Y-126745413D01*
X53499500Y-126847273D01*
X52800500Y-126847273D01*
X52800500Y-126313389D01*
X62699500Y-126313389D01*
X62699500Y-126486611D01*
X62705864Y-126526793D01*
X62726025Y-126654087D01*
X62726598Y-126657701D01*
X62780127Y-126822445D01*
X62858768Y-126976788D01*
X62960586Y-127116928D01*
X63083072Y-127239414D01*
X63223212Y-127341232D01*
X63377555Y-127419873D01*
X63542299Y-127473402D01*
X63713389Y-127500500D01*
X63713390Y-127500500D01*
X63886610Y-127500500D01*
X63886611Y-127500500D01*
X64057701Y-127473402D01*
X64222445Y-127419873D01*
X64376788Y-127341232D01*
X64516928Y-127239414D01*
X64639414Y-127116928D01*
X64741232Y-126976788D01*
X64819873Y-126822445D01*
X64873402Y-126657701D01*
X64900500Y-126486611D01*
X64900500Y-126313389D01*
X64873402Y-126142299D01*
X64819873Y-125977555D01*
X64741232Y-125823212D01*
X64639414Y-125683072D01*
X64516928Y-125560586D01*
X64376788Y-125458768D01*
X64222445Y-125380127D01*
X64057701Y-125326598D01*
X64057699Y-125326597D01*
X64057698Y-125326597D01*
X63926271Y-125305781D01*
X63886611Y-125299500D01*
X63713389Y-125299500D01*
X63673728Y-125305781D01*
X63542302Y-125326597D01*
X63377552Y-125380128D01*
X63223211Y-125458768D01*
X63143256Y-125516859D01*
X63083072Y-125560586D01*
X63083070Y-125560588D01*
X63083069Y-125560588D01*
X62960588Y-125683069D01*
X62960588Y-125683070D01*
X62960586Y-125683072D01*
X62932155Y-125722204D01*
X62858768Y-125823211D01*
X62780128Y-125977552D01*
X62726597Y-126142302D01*
X62699500Y-126313389D01*
X52800500Y-126313389D01*
X52800500Y-125247273D01*
X53499500Y-125247273D01*
X53499500Y-125352727D01*
X53526793Y-125454587D01*
X53579520Y-125545913D01*
X53654087Y-125620480D01*
X53745413Y-125673207D01*
X53847273Y-125700500D01*
X53847275Y-125700500D01*
X53952725Y-125700500D01*
X53952727Y-125700500D01*
X54054587Y-125673207D01*
X54145913Y-125620480D01*
X54220480Y-125545913D01*
X54273207Y-125454587D01*
X54300500Y-125352727D01*
X54300500Y-125247273D01*
X54273207Y-125145413D01*
X54220480Y-125054087D01*
X54145913Y-124979520D01*
X54054587Y-124926793D01*
X53952727Y-124899500D01*
X53847273Y-124899500D01*
X53745413Y-124926793D01*
X53745410Y-124926794D01*
X53654085Y-124979521D01*
X53579521Y-125054085D01*
X53526794Y-125145410D01*
X53526793Y-125145413D01*
X53499500Y-125247273D01*
X52800500Y-125247273D01*
X52800500Y-123547273D01*
X53499499Y-123547273D01*
X53499499Y-123652727D01*
X53526792Y-123754587D01*
X53579519Y-123845913D01*
X53654086Y-123920480D01*
X53745412Y-123973207D01*
X53847272Y-124000500D01*
X53847274Y-124000500D01*
X53952724Y-124000500D01*
X53952726Y-124000500D01*
X54054586Y-123973207D01*
X54145912Y-123920480D01*
X54220479Y-123845913D01*
X54273206Y-123754587D01*
X54300499Y-123652727D01*
X54300499Y-123547273D01*
X54273206Y-123445413D01*
X54220479Y-123354087D01*
X54145912Y-123279520D01*
X54054586Y-123226793D01*
X53952726Y-123199500D01*
X53847272Y-123199500D01*
X53745412Y-123226793D01*
X53745409Y-123226794D01*
X53654084Y-123279521D01*
X53579520Y-123354085D01*
X53526793Y-123445410D01*
X53526792Y-123445413D01*
X53499499Y-123547273D01*
X52800500Y-123547273D01*
X52800500Y-123076739D01*
X62699500Y-123076739D01*
X62699500Y-124643260D01*
X62709426Y-124711391D01*
X62760803Y-124816485D01*
X62843514Y-124899196D01*
X62843515Y-124899196D01*
X62843517Y-124899198D01*
X62948607Y-124950573D01*
X62982673Y-124955536D01*
X63016739Y-124960500D01*
X63016740Y-124960500D01*
X64583261Y-124960500D01*
X64605971Y-124957191D01*
X64651393Y-124950573D01*
X64756483Y-124899198D01*
X64839198Y-124816483D01*
X64890573Y-124711393D01*
X64900500Y-124643260D01*
X64900500Y-123076740D01*
X64890573Y-123008607D01*
X64839198Y-122903517D01*
X64839196Y-122903515D01*
X64839196Y-122903514D01*
X64756485Y-122820803D01*
X64651391Y-122769426D01*
X64583261Y-122759500D01*
X64583260Y-122759500D01*
X63016740Y-122759500D01*
X63016739Y-122759500D01*
X62948608Y-122769426D01*
X62843514Y-122820803D01*
X62760803Y-122903514D01*
X62709426Y-123008608D01*
X62699500Y-123076739D01*
X52800500Y-123076739D01*
X52800500Y-121947273D01*
X53499500Y-121947273D01*
X53499500Y-122052727D01*
X53526793Y-122154587D01*
X53579520Y-122245913D01*
X53654087Y-122320480D01*
X53745413Y-122373207D01*
X53847273Y-122400500D01*
X53847275Y-122400500D01*
X53952725Y-122400500D01*
X53952727Y-122400500D01*
X54054587Y-122373207D01*
X54145913Y-122320480D01*
X54220480Y-122245913D01*
X54273207Y-122154587D01*
X54300500Y-122052727D01*
X54300500Y-121947273D01*
X54273207Y-121845413D01*
X54220480Y-121754087D01*
X54145913Y-121679520D01*
X54054587Y-121626793D01*
X53952727Y-121599500D01*
X53847273Y-121599500D01*
X53745413Y-121626793D01*
X53745410Y-121626794D01*
X53654085Y-121679521D01*
X53579521Y-121754085D01*
X53526794Y-121845410D01*
X53526793Y-121845413D01*
X53499500Y-121947273D01*
X52800500Y-121947273D01*
X52800500Y-120347273D01*
X53499499Y-120347273D01*
X53499499Y-120452727D01*
X53526792Y-120554587D01*
X53579519Y-120645913D01*
X53654086Y-120720480D01*
X53745412Y-120773207D01*
X53847272Y-120800500D01*
X53847274Y-120800500D01*
X53952724Y-120800500D01*
X53952726Y-120800500D01*
X54054586Y-120773207D01*
X54145912Y-120720480D01*
X54220479Y-120645913D01*
X54273206Y-120554587D01*
X54300499Y-120452727D01*
X54300499Y-120347273D01*
X54273206Y-120245413D01*
X54220479Y-120154087D01*
X54145912Y-120079520D01*
X54054586Y-120026793D01*
X53952726Y-119999500D01*
X53847272Y-119999500D01*
X53745412Y-120026793D01*
X53745409Y-120026794D01*
X53654084Y-120079521D01*
X53579520Y-120154085D01*
X53526793Y-120245410D01*
X53526792Y-120245413D01*
X53499499Y-120347273D01*
X52800500Y-120347273D01*
X52800500Y-118747273D01*
X53499500Y-118747273D01*
X53499500Y-118852727D01*
X53526793Y-118954587D01*
X53579520Y-119045913D01*
X53654087Y-119120480D01*
X53745413Y-119173207D01*
X53847273Y-119200500D01*
X53847275Y-119200500D01*
X53952725Y-119200500D01*
X53952727Y-119200500D01*
X54054587Y-119173207D01*
X54145913Y-119120480D01*
X54220480Y-119045913D01*
X54273207Y-118954587D01*
X54300500Y-118852727D01*
X54300500Y-118747273D01*
X54293540Y-118721301D01*
X54287998Y-118700613D01*
X54287996Y-118700608D01*
X54280702Y-118673386D01*
X62699501Y-118673386D01*
X62699501Y-118846607D01*
X62716832Y-118956035D01*
X62726599Y-119017698D01*
X62780128Y-119182442D01*
X62858769Y-119336785D01*
X62960587Y-119476925D01*
X63083073Y-119599411D01*
X63223213Y-119701229D01*
X63377556Y-119779870D01*
X63542300Y-119833399D01*
X63713390Y-119860497D01*
X63713391Y-119860497D01*
X63886611Y-119860497D01*
X63886612Y-119860497D01*
X64057702Y-119833399D01*
X64222446Y-119779870D01*
X64376789Y-119701229D01*
X64516929Y-119599411D01*
X64639415Y-119476925D01*
X64741233Y-119336785D01*
X64819874Y-119182442D01*
X64860341Y-119057898D01*
X96899500Y-119057898D01*
X96899500Y-119163352D01*
X96926793Y-119265212D01*
X96979520Y-119356538D01*
X97054087Y-119431105D01*
X97145413Y-119483832D01*
X97247273Y-119511125D01*
X97247275Y-119511125D01*
X97352725Y-119511125D01*
X97352727Y-119511125D01*
X97454587Y-119483832D01*
X97545913Y-119431105D01*
X97620480Y-119356538D01*
X97673207Y-119265212D01*
X97700500Y-119163352D01*
X97700500Y-119163348D01*
X97702242Y-119156847D01*
X97734334Y-119101261D01*
X98998777Y-117836819D01*
X99060100Y-117803334D01*
X99086458Y-117800500D01*
X102324167Y-117800500D01*
X102353607Y-117809144D01*
X102383594Y-117815668D01*
X102388609Y-117819422D01*
X102391206Y-117820185D01*
X102411848Y-117836819D01*
X102565663Y-117990634D01*
X102597757Y-118046221D01*
X102626793Y-118154588D01*
X102626794Y-118154589D01*
X102679520Y-118245913D01*
X102754087Y-118320480D01*
X102845413Y-118373207D01*
X102947273Y-118400500D01*
X102947276Y-118400500D01*
X102953777Y-118402242D01*
X103009365Y-118434336D01*
X108759540Y-124184511D01*
X108815489Y-124240460D01*
X108815491Y-124240461D01*
X108815495Y-124240464D01*
X108872209Y-124273207D01*
X108884011Y-124280021D01*
X108960438Y-124300500D01*
X109386256Y-124300500D01*
X109448256Y-124317113D01*
X109454085Y-124320478D01*
X109454087Y-124320480D01*
X109545413Y-124373207D01*
X109647273Y-124400500D01*
X109647275Y-124400500D01*
X109752725Y-124400500D01*
X109752727Y-124400500D01*
X109854587Y-124373207D01*
X109945913Y-124320480D01*
X110020480Y-124245913D01*
X110073207Y-124154587D01*
X110100500Y-124052727D01*
X110100500Y-123947273D01*
X110073207Y-123845413D01*
X110020480Y-123754087D01*
X109945913Y-123679520D01*
X109854587Y-123626793D01*
X109752727Y-123599500D01*
X109647273Y-123599500D01*
X109545413Y-123626793D01*
X109545410Y-123626794D01*
X109500494Y-123652727D01*
X109454087Y-123679520D01*
X109454086Y-123679520D01*
X109448256Y-123682887D01*
X109432767Y-123687037D01*
X109421191Y-123694477D01*
X109386256Y-123699500D01*
X109175833Y-123699500D01*
X109108794Y-123679815D01*
X109088152Y-123663181D01*
X106972244Y-121547273D01*
X121599500Y-121547273D01*
X121599500Y-121652727D01*
X121626793Y-121754587D01*
X121679520Y-121845913D01*
X121754087Y-121920480D01*
X121845413Y-121973207D01*
X121947273Y-122000500D01*
X121947275Y-122000500D01*
X122052725Y-122000500D01*
X122052727Y-122000500D01*
X122154587Y-121973207D01*
X122245913Y-121920480D01*
X122320480Y-121845913D01*
X122373207Y-121754587D01*
X122400500Y-121652727D01*
X122400500Y-121547273D01*
X122373207Y-121445413D01*
X122320480Y-121354087D01*
X122245913Y-121279520D01*
X122154587Y-121226793D01*
X122052727Y-121199500D01*
X121947273Y-121199500D01*
X121845413Y-121226793D01*
X121845410Y-121226794D01*
X121754085Y-121279521D01*
X121679521Y-121354085D01*
X121626794Y-121445410D01*
X121626793Y-121445413D01*
X121599500Y-121547273D01*
X106972244Y-121547273D01*
X106472244Y-121047273D01*
X119399500Y-121047273D01*
X119399500Y-121152727D01*
X119426793Y-121254587D01*
X119479520Y-121345913D01*
X119554087Y-121420480D01*
X119645413Y-121473207D01*
X119747273Y-121500500D01*
X119747275Y-121500500D01*
X119852725Y-121500500D01*
X119852727Y-121500500D01*
X119954587Y-121473207D01*
X120045913Y-121420480D01*
X120120480Y-121345913D01*
X120173207Y-121254587D01*
X120200500Y-121152727D01*
X120200500Y-121047273D01*
X120599500Y-121047273D01*
X120599500Y-121152727D01*
X120626793Y-121254587D01*
X120679520Y-121345913D01*
X120754087Y-121420480D01*
X120845413Y-121473207D01*
X120947273Y-121500500D01*
X120947275Y-121500500D01*
X121052725Y-121500500D01*
X121052727Y-121500500D01*
X121154587Y-121473207D01*
X121245913Y-121420480D01*
X121320480Y-121345913D01*
X121373207Y-121254587D01*
X121400500Y-121152727D01*
X121400500Y-121047273D01*
X121373207Y-120945413D01*
X121320480Y-120854087D01*
X121245913Y-120779520D01*
X121190059Y-120747273D01*
X123299500Y-120747273D01*
X123299500Y-120852727D01*
X123326793Y-120954587D01*
X123379520Y-121045913D01*
X123454087Y-121120480D01*
X123545413Y-121173207D01*
X123647273Y-121200500D01*
X123647275Y-121200500D01*
X123752725Y-121200500D01*
X123752727Y-121200500D01*
X123854587Y-121173207D01*
X123945913Y-121120480D01*
X124020480Y-121045913D01*
X124073207Y-120954587D01*
X124100500Y-120852727D01*
X124100500Y-120747273D01*
X124073207Y-120645413D01*
X124020480Y-120554087D01*
X123945913Y-120479520D01*
X123854587Y-120426793D01*
X123752727Y-120399500D01*
X123647273Y-120399500D01*
X123545413Y-120426793D01*
X123545410Y-120426794D01*
X123454085Y-120479521D01*
X123379521Y-120554085D01*
X123326794Y-120645410D01*
X123326793Y-120645413D01*
X123299500Y-120747273D01*
X121190059Y-120747273D01*
X121154587Y-120726793D01*
X121052727Y-120699500D01*
X120947273Y-120699500D01*
X120845413Y-120726793D01*
X120845410Y-120726794D01*
X120754085Y-120779521D01*
X120679521Y-120854085D01*
X120626794Y-120945410D01*
X120626793Y-120945413D01*
X120599500Y-121047273D01*
X120200500Y-121047273D01*
X120173207Y-120945413D01*
X120120480Y-120854087D01*
X120045913Y-120779520D01*
X119954587Y-120726793D01*
X119852727Y-120699500D01*
X119747273Y-120699500D01*
X119645413Y-120726793D01*
X119645410Y-120726794D01*
X119554085Y-120779521D01*
X119479521Y-120854085D01*
X119426794Y-120945410D01*
X119426793Y-120945413D01*
X119399500Y-121047273D01*
X106472244Y-121047273D01*
X103434336Y-118009365D01*
X103402242Y-117953777D01*
X103400500Y-117947275D01*
X103400500Y-117947273D01*
X103373207Y-117845413D01*
X103320480Y-117754087D01*
X103245913Y-117679520D01*
X103154589Y-117626794D01*
X103154588Y-117626793D01*
X103099377Y-117611999D01*
X103052727Y-117599500D01*
X103052726Y-117599500D01*
X103046221Y-117597757D01*
X102990634Y-117565663D01*
X102684510Y-117259539D01*
X102675066Y-117254087D01*
X102660042Y-117245413D01*
X102660041Y-117245412D01*
X102638015Y-117232696D01*
X102615990Y-117219979D01*
X102590513Y-117213152D01*
X102539562Y-117199500D01*
X98950187Y-117199500D01*
X98871063Y-117199500D01*
X98794635Y-117219978D01*
X98726114Y-117259540D01*
X98726111Y-117259542D01*
X97309365Y-118676288D01*
X97253778Y-118708382D01*
X97145411Y-118737418D01*
X97145410Y-118737419D01*
X97054085Y-118790146D01*
X96979521Y-118864710D01*
X96926794Y-118956035D01*
X96926793Y-118956038D01*
X96899500Y-119057898D01*
X64860341Y-119057898D01*
X64873403Y-119017698D01*
X64900501Y-118846608D01*
X64900501Y-118673386D01*
X64873403Y-118502296D01*
X64819874Y-118337552D01*
X64741233Y-118183209D01*
X64639415Y-118043069D01*
X64516929Y-117920583D01*
X64376789Y-117818765D01*
X64302091Y-117780705D01*
X64222448Y-117740125D01*
X64222447Y-117740124D01*
X64222446Y-117740124D01*
X64057702Y-117686595D01*
X64057700Y-117686594D01*
X64057699Y-117686594D01*
X63926272Y-117665778D01*
X63886612Y-117659497D01*
X63713390Y-117659497D01*
X63673729Y-117665778D01*
X63542303Y-117686594D01*
X63377553Y-117740125D01*
X63223212Y-117818765D01*
X63186535Y-117845413D01*
X63083073Y-117920583D01*
X63083071Y-117920585D01*
X63083070Y-117920585D01*
X62960589Y-118043066D01*
X62960589Y-118043067D01*
X62960587Y-118043069D01*
X62958297Y-118046221D01*
X62858769Y-118183208D01*
X62780129Y-118337549D01*
X62726598Y-118502299D01*
X62699501Y-118673386D01*
X54280702Y-118673386D01*
X54273207Y-118645413D01*
X54220480Y-118554087D01*
X54145913Y-118479520D01*
X54054587Y-118426793D01*
X53952727Y-118399500D01*
X53847273Y-118399500D01*
X53745413Y-118426793D01*
X53745410Y-118426794D01*
X53654085Y-118479521D01*
X53579521Y-118554085D01*
X53526794Y-118645410D01*
X53526794Y-118645411D01*
X53526793Y-118645413D01*
X53499500Y-118747273D01*
X52800500Y-118747273D01*
X52800500Y-117780705D01*
X52800612Y-117775443D01*
X52804686Y-117679521D01*
X52816482Y-117401812D01*
X52817374Y-117391335D01*
X52818972Y-117378853D01*
X52823015Y-117347273D01*
X54299500Y-117347273D01*
X54299500Y-117452727D01*
X54326793Y-117554587D01*
X54379520Y-117645913D01*
X54454087Y-117720480D01*
X54545413Y-117773207D01*
X54647273Y-117800500D01*
X54647275Y-117800500D01*
X54752725Y-117800500D01*
X54752727Y-117800500D01*
X54854587Y-117773207D01*
X54945913Y-117720480D01*
X55020480Y-117645913D01*
X55073207Y-117554587D01*
X55100500Y-117452727D01*
X55100500Y-117347273D01*
X55073207Y-117245413D01*
X55020480Y-117154087D01*
X54945913Y-117079520D01*
X54854587Y-117026793D01*
X54752727Y-116999500D01*
X54647273Y-116999500D01*
X54545413Y-117026793D01*
X54545410Y-117026794D01*
X54454085Y-117079521D01*
X54379521Y-117154085D01*
X54326794Y-117245410D01*
X54326793Y-117245413D01*
X54299500Y-117347273D01*
X52823015Y-117347273D01*
X52864537Y-117022986D01*
X52866310Y-117012643D01*
X52944541Y-116649605D01*
X52947192Y-116639425D01*
X53055914Y-116284360D01*
X53059417Y-116274446D01*
X53082939Y-116215901D01*
X55430872Y-116215901D01*
X55430872Y-116321355D01*
X55458165Y-116423215D01*
X55510892Y-116514541D01*
X55585459Y-116589108D01*
X55676785Y-116641835D01*
X55778645Y-116669128D01*
X55778647Y-116669128D01*
X55884097Y-116669128D01*
X55884099Y-116669128D01*
X55985959Y-116641835D01*
X56077285Y-116589108D01*
X56151852Y-116514541D01*
X56204579Y-116423215D01*
X56231872Y-116321355D01*
X56231872Y-116215901D01*
X56204579Y-116114041D01*
X56151852Y-116022715D01*
X56077285Y-115948148D01*
X55994756Y-115900500D01*
X55985961Y-115895422D01*
X55985960Y-115895421D01*
X55985959Y-115895421D01*
X55884099Y-115868128D01*
X55778645Y-115868128D01*
X55676785Y-115895421D01*
X55676782Y-115895422D01*
X55585457Y-115948149D01*
X55510893Y-116022713D01*
X55458166Y-116114038D01*
X55458165Y-116114041D01*
X55430872Y-116215901D01*
X53082939Y-116215901D01*
X53197863Y-115929859D01*
X53202182Y-115920301D01*
X53369370Y-115588650D01*
X53374468Y-115579525D01*
X53569159Y-115263273D01*
X53575032Y-115254582D01*
X53700777Y-115084531D01*
X56562242Y-115084531D01*
X56562242Y-115189985D01*
X56589535Y-115291845D01*
X56642262Y-115383171D01*
X56716829Y-115457738D01*
X56808155Y-115510465D01*
X56910015Y-115537758D01*
X56910017Y-115537758D01*
X57015467Y-115537758D01*
X57015469Y-115537758D01*
X57117329Y-115510465D01*
X57208655Y-115457738D01*
X57229657Y-115436736D01*
X62699501Y-115436736D01*
X62699501Y-117003257D01*
X62709427Y-117071388D01*
X62760804Y-117176482D01*
X62843515Y-117259193D01*
X62843516Y-117259193D01*
X62843518Y-117259195D01*
X62948608Y-117310570D01*
X62982674Y-117315533D01*
X63016740Y-117320497D01*
X63016741Y-117320497D01*
X64583262Y-117320497D01*
X64605972Y-117317188D01*
X64651394Y-117310570D01*
X64756484Y-117259195D01*
X64839199Y-117176480D01*
X64890574Y-117071390D01*
X64900501Y-117003257D01*
X64900501Y-115447273D01*
X67799500Y-115447273D01*
X67799500Y-115552727D01*
X67826793Y-115654587D01*
X67879520Y-115745913D01*
X67954087Y-115820480D01*
X68045413Y-115873207D01*
X68147273Y-115900500D01*
X68147275Y-115900500D01*
X68252725Y-115900500D01*
X68252727Y-115900500D01*
X68354587Y-115873207D01*
X68445913Y-115820480D01*
X68520480Y-115745913D01*
X68573207Y-115654587D01*
X68600500Y-115552727D01*
X68600500Y-115447273D01*
X69399500Y-115447273D01*
X69399500Y-115552727D01*
X69426793Y-115654587D01*
X69479520Y-115745913D01*
X69554087Y-115820480D01*
X69645413Y-115873207D01*
X69747273Y-115900500D01*
X69747275Y-115900500D01*
X69852725Y-115900500D01*
X69852727Y-115900500D01*
X69954587Y-115873207D01*
X70045913Y-115820480D01*
X70120480Y-115745913D01*
X70173207Y-115654587D01*
X70200500Y-115552727D01*
X70200500Y-115447273D01*
X70999500Y-115447273D01*
X70999500Y-115552727D01*
X71026793Y-115654587D01*
X71079520Y-115745913D01*
X71154087Y-115820480D01*
X71245413Y-115873207D01*
X71347273Y-115900500D01*
X71347275Y-115900500D01*
X71452725Y-115900500D01*
X71452727Y-115900500D01*
X71554587Y-115873207D01*
X71645913Y-115820480D01*
X71720480Y-115745913D01*
X71773207Y-115654587D01*
X71800500Y-115552727D01*
X71800500Y-115447273D01*
X72599500Y-115447273D01*
X72599500Y-115552727D01*
X72626793Y-115654587D01*
X72679520Y-115745913D01*
X72754087Y-115820480D01*
X72845413Y-115873207D01*
X72947273Y-115900500D01*
X72947275Y-115900500D01*
X73052725Y-115900500D01*
X73052727Y-115900500D01*
X73154587Y-115873207D01*
X73245913Y-115820480D01*
X73320480Y-115745913D01*
X73373207Y-115654587D01*
X73400500Y-115552727D01*
X73400500Y-115447273D01*
X74299500Y-115447273D01*
X74299500Y-115552727D01*
X74326793Y-115654587D01*
X74379520Y-115745913D01*
X74454087Y-115820480D01*
X74545413Y-115873207D01*
X74647273Y-115900500D01*
X74647275Y-115900500D01*
X74752725Y-115900500D01*
X74752727Y-115900500D01*
X74854587Y-115873207D01*
X74945913Y-115820480D01*
X75020480Y-115745913D01*
X75073207Y-115654587D01*
X75100500Y-115552727D01*
X75100500Y-115447273D01*
X75899500Y-115447273D01*
X75899500Y-115552727D01*
X75926793Y-115654587D01*
X75979520Y-115745913D01*
X76054087Y-115820480D01*
X76145413Y-115873207D01*
X76247273Y-115900500D01*
X76247275Y-115900500D01*
X76352725Y-115900500D01*
X76352727Y-115900500D01*
X76454587Y-115873207D01*
X76545913Y-115820480D01*
X76620480Y-115745913D01*
X76673207Y-115654587D01*
X76700500Y-115552727D01*
X76700500Y-115447273D01*
X77499500Y-115447273D01*
X77499500Y-115552727D01*
X77526793Y-115654587D01*
X77579520Y-115745913D01*
X77654087Y-115820480D01*
X77745413Y-115873207D01*
X77847273Y-115900500D01*
X77847275Y-115900500D01*
X77952725Y-115900500D01*
X77952727Y-115900500D01*
X78054587Y-115873207D01*
X78145913Y-115820480D01*
X78220480Y-115745913D01*
X78273207Y-115654587D01*
X78300500Y-115552727D01*
X78300500Y-115447273D01*
X79099500Y-115447273D01*
X79099500Y-115552727D01*
X79126793Y-115654587D01*
X79179520Y-115745913D01*
X79254087Y-115820480D01*
X79345413Y-115873207D01*
X79447273Y-115900500D01*
X79447275Y-115900500D01*
X79552725Y-115900500D01*
X79552727Y-115900500D01*
X79654587Y-115873207D01*
X79745913Y-115820480D01*
X79806275Y-115760118D01*
X88299500Y-115760118D01*
X88299500Y-115782228D01*
X88299500Y-117039883D01*
X88330024Y-117113574D01*
X88563731Y-117347281D01*
X88597216Y-117408604D01*
X88598492Y-117439146D01*
X88599500Y-117439146D01*
X88599500Y-117447273D01*
X88599500Y-117552727D01*
X88626793Y-117654587D01*
X88679520Y-117745913D01*
X88754087Y-117820480D01*
X88845413Y-117873207D01*
X88947273Y-117900500D01*
X88947275Y-117900500D01*
X89052725Y-117900500D01*
X89052727Y-117900500D01*
X89154587Y-117873207D01*
X89245913Y-117820480D01*
X89320480Y-117745913D01*
X89373207Y-117654587D01*
X89400500Y-117552727D01*
X89400500Y-117447273D01*
X89373207Y-117345413D01*
X89320480Y-117254087D01*
X89245913Y-117179520D01*
X89154587Y-117126793D01*
X89052727Y-117099500D01*
X88947273Y-117099500D01*
X88944435Y-117099500D01*
X88943808Y-117099734D01*
X88942732Y-117099500D01*
X88939146Y-117099500D01*
X88939146Y-117098719D01*
X88913118Y-117093057D01*
X88882090Y-117088213D01*
X88878168Y-117085454D01*
X88875535Y-117084882D01*
X88847281Y-117063731D01*
X88736819Y-116953269D01*
X88703334Y-116891946D01*
X88700500Y-116865588D01*
X88700500Y-115934411D01*
X88720185Y-115867372D01*
X88736814Y-115846735D01*
X89223111Y-115360438D01*
X95099500Y-115360438D01*
X95099500Y-116339562D01*
X95119979Y-116415989D01*
X95124151Y-116423215D01*
X95159539Y-116484509D01*
X95159541Y-116484512D01*
X95414849Y-116739820D01*
X95434555Y-116765501D01*
X95459537Y-116808772D01*
X95459541Y-116808777D01*
X95865663Y-117214899D01*
X95897757Y-117270486D01*
X95926793Y-117378853D01*
X95926794Y-117378854D01*
X95979520Y-117470178D01*
X96054087Y-117544745D01*
X96145413Y-117597472D01*
X96247273Y-117624765D01*
X96247275Y-117624765D01*
X96352725Y-117624765D01*
X96352727Y-117624765D01*
X96454587Y-117597472D01*
X96545913Y-117544745D01*
X96620480Y-117470178D01*
X96673207Y-117378852D01*
X96700500Y-117276992D01*
X96700500Y-117171538D01*
X96673207Y-117069678D01*
X96620480Y-116978352D01*
X96545913Y-116903785D01*
X96454589Y-116851059D01*
X96454588Y-116851058D01*
X96399377Y-116836264D01*
X96352727Y-116823765D01*
X96352726Y-116823765D01*
X96346221Y-116822022D01*
X96332333Y-116814003D01*
X96318888Y-116811079D01*
X96290634Y-116789928D01*
X96256226Y-116755520D01*
X96222741Y-116694197D01*
X96227725Y-116624505D01*
X96269597Y-116568572D01*
X96311810Y-116548066D01*
X96404587Y-116523207D01*
X96495913Y-116470480D01*
X96570480Y-116395913D01*
X96623207Y-116304587D01*
X96650500Y-116202727D01*
X96650500Y-116175833D01*
X96659144Y-116146392D01*
X96665668Y-116116406D01*
X96669422Y-116111390D01*
X96670185Y-116108794D01*
X96686819Y-116088152D01*
X96738152Y-116036819D01*
X96799475Y-116003334D01*
X96825833Y-116000500D01*
X101186256Y-116000500D01*
X101248256Y-116017113D01*
X101254085Y-116020478D01*
X101254087Y-116020480D01*
X101345413Y-116073207D01*
X101447273Y-116100500D01*
X101447275Y-116100500D01*
X101552725Y-116100500D01*
X101552727Y-116100500D01*
X101654587Y-116073207D01*
X101745913Y-116020480D01*
X101745914Y-116020478D01*
X101751744Y-116017113D01*
X101767232Y-116012962D01*
X101778809Y-116005523D01*
X101813744Y-116000500D01*
X102024167Y-116000500D01*
X102091206Y-116020185D01*
X102111848Y-116036819D01*
X106859540Y-120784511D01*
X106915489Y-120840460D01*
X106915491Y-120840461D01*
X106915495Y-120840464D01*
X106984004Y-120880017D01*
X106984011Y-120880021D01*
X107060438Y-120900500D01*
X107139562Y-120900500D01*
X108286356Y-120900500D01*
X108348356Y-120917113D01*
X108354185Y-120920478D01*
X108354187Y-120920480D01*
X108445513Y-120973207D01*
X108547373Y-121000500D01*
X108547375Y-121000500D01*
X108652825Y-121000500D01*
X108652827Y-121000500D01*
X108754687Y-120973207D01*
X108846013Y-120920480D01*
X108920580Y-120845913D01*
X108973307Y-120754587D01*
X109000600Y-120652727D01*
X109000600Y-120547273D01*
X108973307Y-120445413D01*
X108920580Y-120354087D01*
X108846013Y-120279520D01*
X108754687Y-120226793D01*
X108652827Y-120199500D01*
X108547373Y-120199500D01*
X108445513Y-120226793D01*
X108445510Y-120226794D01*
X108413267Y-120245410D01*
X108354187Y-120279520D01*
X108354186Y-120279520D01*
X108348356Y-120282887D01*
X108286356Y-120299500D01*
X107275833Y-120299500D01*
X107208794Y-120279815D01*
X107188152Y-120263181D01*
X106872244Y-119947273D01*
X122399500Y-119947273D01*
X122399500Y-120052727D01*
X122426793Y-120154587D01*
X122479520Y-120245913D01*
X122554087Y-120320480D01*
X122645413Y-120373207D01*
X122747273Y-120400500D01*
X122747275Y-120400500D01*
X122852725Y-120400500D01*
X122852727Y-120400500D01*
X122954587Y-120373207D01*
X123045913Y-120320480D01*
X123120480Y-120245913D01*
X123173207Y-120154587D01*
X123200500Y-120052727D01*
X123200500Y-119947273D01*
X123173207Y-119845413D01*
X123120480Y-119754087D01*
X123045913Y-119679520D01*
X122954587Y-119626793D01*
X122852727Y-119599500D01*
X122747273Y-119599500D01*
X122645413Y-119626793D01*
X122645410Y-119626794D01*
X122554085Y-119679521D01*
X122479521Y-119754085D01*
X122426794Y-119845410D01*
X122426793Y-119845413D01*
X122399500Y-119947273D01*
X106872244Y-119947273D01*
X106372244Y-119447273D01*
X116799500Y-119447273D01*
X116799500Y-119552727D01*
X116826793Y-119654587D01*
X116879520Y-119745913D01*
X116954087Y-119820480D01*
X117045413Y-119873207D01*
X117147273Y-119900500D01*
X117147275Y-119900500D01*
X117252725Y-119900500D01*
X117252727Y-119900500D01*
X117354587Y-119873207D01*
X117445913Y-119820480D01*
X117520480Y-119745913D01*
X117573207Y-119654587D01*
X117580225Y-119628393D01*
X117616589Y-119568733D01*
X117679436Y-119538203D01*
X117748812Y-119546497D01*
X117802690Y-119590982D01*
X117819775Y-119628394D01*
X117826792Y-119654585D01*
X117826793Y-119654587D01*
X117879520Y-119745913D01*
X117954087Y-119820480D01*
X118045413Y-119873207D01*
X118147273Y-119900500D01*
X118147275Y-119900500D01*
X118252725Y-119900500D01*
X118252727Y-119900500D01*
X118354587Y-119873207D01*
X118445913Y-119820480D01*
X118520480Y-119745913D01*
X118573207Y-119654587D01*
X118600500Y-119552727D01*
X118600500Y-119447273D01*
X119399500Y-119447273D01*
X119399500Y-119552727D01*
X119426793Y-119654587D01*
X119479520Y-119745913D01*
X119554087Y-119820480D01*
X119645413Y-119873207D01*
X119747273Y-119900500D01*
X119747275Y-119900500D01*
X119852725Y-119900500D01*
X119852727Y-119900500D01*
X119954587Y-119873207D01*
X120045913Y-119820480D01*
X120120480Y-119745913D01*
X120173207Y-119654587D01*
X120200500Y-119552727D01*
X120200500Y-119447273D01*
X120999500Y-119447273D01*
X120999500Y-119552727D01*
X121026793Y-119654587D01*
X121079520Y-119745913D01*
X121154087Y-119820480D01*
X121245413Y-119873207D01*
X121347273Y-119900500D01*
X121347275Y-119900500D01*
X121452725Y-119900500D01*
X121452727Y-119900500D01*
X121554587Y-119873207D01*
X121645913Y-119820480D01*
X121720480Y-119745913D01*
X121773207Y-119654587D01*
X121800500Y-119552727D01*
X121800500Y-119447273D01*
X121773207Y-119345413D01*
X121720480Y-119254087D01*
X121645913Y-119179520D01*
X121554587Y-119126793D01*
X121452727Y-119099500D01*
X121347273Y-119099500D01*
X121245413Y-119126793D01*
X121245410Y-119126794D01*
X121154085Y-119179521D01*
X121079521Y-119254085D01*
X121026794Y-119345410D01*
X121026793Y-119345413D01*
X120999500Y-119447273D01*
X120200500Y-119447273D01*
X120173207Y-119345413D01*
X120120480Y-119254087D01*
X120045913Y-119179520D01*
X119954587Y-119126793D01*
X119852727Y-119099500D01*
X119747273Y-119099500D01*
X119645413Y-119126793D01*
X119645410Y-119126794D01*
X119554085Y-119179521D01*
X119479521Y-119254085D01*
X119426794Y-119345410D01*
X119426793Y-119345413D01*
X119399500Y-119447273D01*
X118600500Y-119447273D01*
X118573207Y-119345413D01*
X118520480Y-119254087D01*
X118445913Y-119179520D01*
X118354587Y-119126793D01*
X118252727Y-119099500D01*
X118147273Y-119099500D01*
X118045413Y-119126793D01*
X118045410Y-119126794D01*
X117954085Y-119179521D01*
X117879521Y-119254085D01*
X117826794Y-119345410D01*
X117826793Y-119345413D01*
X117819775Y-119371606D01*
X117783410Y-119431267D01*
X117720563Y-119461796D01*
X117651188Y-119453501D01*
X117597310Y-119409016D01*
X117580225Y-119371606D01*
X117573207Y-119345413D01*
X117520480Y-119254087D01*
X117445913Y-119179520D01*
X117354587Y-119126793D01*
X117252727Y-119099500D01*
X117147273Y-119099500D01*
X117045413Y-119126793D01*
X117045410Y-119126794D01*
X116954085Y-119179521D01*
X116879521Y-119254085D01*
X116826794Y-119345410D01*
X116826793Y-119345413D01*
X116799500Y-119447273D01*
X106372244Y-119447273D01*
X102384512Y-115459541D01*
X102384504Y-115459535D01*
X102352064Y-115440806D01*
X102352060Y-115440805D01*
X102339474Y-115433538D01*
X102315990Y-115419979D01*
X102315991Y-115419979D01*
X102277775Y-115409739D01*
X102239562Y-115399500D01*
X102239560Y-115399500D01*
X101813744Y-115399500D01*
X101751744Y-115382887D01*
X101745914Y-115379521D01*
X101745913Y-115379520D01*
X101654587Y-115326793D01*
X101552727Y-115299500D01*
X101447273Y-115299500D01*
X101345413Y-115326793D01*
X101345410Y-115326794D01*
X101313167Y-115345410D01*
X101254087Y-115379520D01*
X101254086Y-115379520D01*
X101248256Y-115382887D01*
X101186256Y-115399500D01*
X96610438Y-115399500D01*
X96534010Y-115419978D01*
X96465490Y-115459539D01*
X96191064Y-115733964D01*
X96135479Y-115766056D01*
X96095415Y-115776792D01*
X96095413Y-115776792D01*
X96004084Y-115829522D01*
X95929519Y-115904087D01*
X95924574Y-115910533D01*
X95922498Y-115908940D01*
X95881315Y-115948206D01*
X95812708Y-115961426D01*
X95747844Y-115935455D01*
X95707318Y-115878539D01*
X95700500Y-115837988D01*
X95700500Y-115575833D01*
X95720185Y-115508794D01*
X95736819Y-115488152D01*
X96125471Y-115099500D01*
X96540460Y-114684511D01*
X96580021Y-114615989D01*
X96600500Y-114539562D01*
X96600500Y-113575832D01*
X96620185Y-113508793D01*
X96636815Y-113488155D01*
X97508936Y-112616033D01*
X97564521Y-112583941D01*
X97604585Y-112573207D01*
X97695911Y-112520480D01*
X97770478Y-112445913D01*
X97823205Y-112354587D01*
X97850498Y-112252727D01*
X97850498Y-112147273D01*
X97823205Y-112045413D01*
X97770478Y-111954087D01*
X97695911Y-111879520D01*
X97604585Y-111826793D01*
X97502725Y-111799500D01*
X97397271Y-111799500D01*
X97295411Y-111826793D01*
X97295408Y-111826794D01*
X97204083Y-111879521D01*
X97129519Y-111954085D01*
X97076792Y-112045410D01*
X97076791Y-112045413D01*
X97049498Y-112147273D01*
X97049498Y-112174169D01*
X97029813Y-112241208D01*
X97013179Y-112261850D01*
X96059541Y-113215487D01*
X96059535Y-113215495D01*
X96019982Y-113284004D01*
X96019979Y-113284009D01*
X96006326Y-113334962D01*
X96001203Y-113354085D01*
X95999500Y-113360439D01*
X95999500Y-114324167D01*
X95979815Y-114391206D01*
X95963181Y-114411848D01*
X95159541Y-115215487D01*
X95159535Y-115215495D01*
X95119982Y-115284004D01*
X95119979Y-115284009D01*
X95108515Y-115326793D01*
X95099500Y-115360438D01*
X89223111Y-115360438D01*
X91636276Y-112947273D01*
X92799500Y-112947273D01*
X92799500Y-113052727D01*
X92815057Y-113110785D01*
X92826793Y-113154586D01*
X92826794Y-113154589D01*
X92831755Y-113163181D01*
X92879520Y-113245913D01*
X92954087Y-113320480D01*
X93045413Y-113373207D01*
X93147273Y-113400500D01*
X93147275Y-113400500D01*
X93252725Y-113400500D01*
X93252727Y-113400500D01*
X93354587Y-113373207D01*
X93445913Y-113320480D01*
X93520480Y-113245913D01*
X93573207Y-113154587D01*
X93600500Y-113052727D01*
X93600500Y-112947273D01*
X93600500Y-112939146D01*
X93602881Y-112939146D01*
X93611775Y-112882112D01*
X93636265Y-112847283D01*
X96513572Y-109969976D01*
X96513574Y-109969976D01*
X96569976Y-109913574D01*
X96572715Y-109906960D01*
X96585713Y-109893315D01*
X96607075Y-109880966D01*
X96626007Y-109865144D01*
X96636792Y-109863789D01*
X96646204Y-109858349D01*
X96670850Y-109859510D01*
X96695332Y-109856435D01*
X96705138Y-109861126D01*
X96715997Y-109861638D01*
X96736101Y-109875939D01*
X96758360Y-109886588D01*
X96764074Y-109895837D01*
X96772931Y-109902138D01*
X96782111Y-109925035D01*
X96795081Y-109946030D01*
X96797383Y-109963127D01*
X96798932Y-109966989D01*
X96798327Y-109970134D01*
X96799500Y-109978839D01*
X96799500Y-110865587D01*
X96779815Y-110932626D01*
X96763181Y-110953268D01*
X95511148Y-112205300D01*
X95449825Y-112238785D01*
X95419283Y-112240060D01*
X95419283Y-112241069D01*
X95305702Y-112241069D01*
X95203842Y-112268362D01*
X95203839Y-112268363D01*
X95112514Y-112321090D01*
X95037950Y-112395654D01*
X94985223Y-112486979D01*
X94985222Y-112486982D01*
X94957929Y-112588842D01*
X94957929Y-112702423D01*
X94955551Y-112702423D01*
X94946642Y-112759479D01*
X94922160Y-112794288D01*
X94553269Y-113163181D01*
X94491946Y-113196666D01*
X94465588Y-113199500D01*
X94423008Y-113199500D01*
X94321148Y-113226793D01*
X94321145Y-113226794D01*
X94229820Y-113279521D01*
X94155256Y-113354085D01*
X94102529Y-113445410D01*
X94102528Y-113445413D01*
X94075235Y-113547273D01*
X94075235Y-113652727D01*
X94102528Y-113754587D01*
X94155255Y-113845913D01*
X94229822Y-113920480D01*
X94321148Y-113973207D01*
X94423008Y-114000500D01*
X94423010Y-114000500D01*
X94528460Y-114000500D01*
X94528462Y-114000500D01*
X94630322Y-113973207D01*
X94721648Y-113920480D01*
X94796215Y-113845913D01*
X94848942Y-113754587D01*
X94876235Y-113652727D01*
X94876235Y-113547273D01*
X94868801Y-113519530D01*
X94865187Y-113506040D01*
X94866850Y-113436191D01*
X94897279Y-113386269D01*
X95205713Y-113077835D01*
X95267034Y-113044352D01*
X95297574Y-113043080D01*
X95297574Y-113042069D01*
X95411154Y-113042069D01*
X95411156Y-113042069D01*
X95513016Y-113014776D01*
X95604342Y-112962049D01*
X95678909Y-112887482D01*
X95731636Y-112796156D01*
X95758929Y-112694296D01*
X95758929Y-112588842D01*
X95758929Y-112580714D01*
X95761313Y-112580714D01*
X95770199Y-112523693D01*
X95794694Y-112488854D01*
X97169976Y-111113574D01*
X97200500Y-111039882D01*
X97200500Y-110960118D01*
X97200500Y-110098983D01*
X97464499Y-110098983D01*
X97464499Y-110211019D01*
X97493496Y-110319238D01*
X97549514Y-110416264D01*
X97628736Y-110495486D01*
X97725762Y-110551504D01*
X97833981Y-110580501D01*
X97833983Y-110580501D01*
X97946015Y-110580501D01*
X97946017Y-110580501D01*
X98054236Y-110551504D01*
X98151262Y-110495486D01*
X98230484Y-110416264D01*
X98286502Y-110319238D01*
X98315499Y-110211019D01*
X98315499Y-110098983D01*
X98303967Y-110055944D01*
X98717499Y-110055944D01*
X98717499Y-111314058D01*
X98746687Y-111422987D01*
X98758422Y-111466784D01*
X98758425Y-111466791D01*
X98837474Y-111603710D01*
X98837478Y-111603715D01*
X98837479Y-111603717D01*
X98949283Y-111715521D01*
X98949285Y-111715522D01*
X98949289Y-111715525D01*
X99086208Y-111794574D01*
X99086215Y-111794578D01*
X99238942Y-111835501D01*
X99238944Y-111835501D01*
X99397054Y-111835501D01*
X99397056Y-111835501D01*
X99549783Y-111794578D01*
X99686715Y-111715521D01*
X99798519Y-111603717D01*
X99877576Y-111466785D01*
X99918499Y-111314058D01*
X99918499Y-110055944D01*
X99877576Y-109903217D01*
X99871859Y-109893315D01*
X99798523Y-109766290D01*
X99798517Y-109766283D01*
X99686716Y-109654482D01*
X99686708Y-109654476D01*
X99549789Y-109575427D01*
X99549785Y-109575425D01*
X99549783Y-109575424D01*
X99397056Y-109534501D01*
X99238942Y-109534501D01*
X99086215Y-109575424D01*
X99086208Y-109575427D01*
X98949289Y-109654476D01*
X98949281Y-109654482D01*
X98837480Y-109766283D01*
X98837475Y-109766290D01*
X98758425Y-109903210D01*
X98758422Y-109903217D01*
X98717499Y-110055944D01*
X98303967Y-110055944D01*
X98286502Y-109990764D01*
X98230484Y-109893738D01*
X98151262Y-109814516D01*
X98067732Y-109766290D01*
X98054238Y-109758499D01*
X98054237Y-109758498D01*
X98054236Y-109758498D01*
X97946017Y-109729501D01*
X97833981Y-109729501D01*
X97725762Y-109758498D01*
X97725759Y-109758499D01*
X97628739Y-109814514D01*
X97628733Y-109814518D01*
X97549516Y-109893735D01*
X97549512Y-109893741D01*
X97493497Y-109990761D01*
X97493496Y-109990764D01*
X97464499Y-110098983D01*
X97200500Y-110098983D01*
X97200500Y-107360118D01*
X97169976Y-107286426D01*
X97113574Y-107230024D01*
X96898722Y-107015172D01*
X96865238Y-106953850D01*
X96868697Y-106888493D01*
X96915349Y-106747708D01*
X96925500Y-106648345D01*
X96925499Y-106551656D01*
X96915349Y-106452292D01*
X96862003Y-106291303D01*
X96861999Y-106291297D01*
X96861998Y-106291294D01*
X96795149Y-106182916D01*
X96795148Y-106182915D01*
X96772968Y-106146956D01*
X96751956Y-106125944D01*
X98717499Y-106125944D01*
X98717499Y-106884058D01*
X98756908Y-107031132D01*
X98758422Y-107036784D01*
X98758425Y-107036791D01*
X98837474Y-107173710D01*
X98837478Y-107173715D01*
X98837479Y-107173717D01*
X98949283Y-107285521D01*
X98949285Y-107285522D01*
X98949289Y-107285525D01*
X99078490Y-107360118D01*
X99086215Y-107364578D01*
X99238942Y-107405501D01*
X99238944Y-107405501D01*
X99397054Y-107405501D01*
X99397056Y-107405501D01*
X99549783Y-107364578D01*
X99686715Y-107285521D01*
X99798519Y-107173717D01*
X99877576Y-107036785D01*
X99918499Y-106884058D01*
X99918499Y-106125944D01*
X99877576Y-105973217D01*
X99857242Y-105937997D01*
X99798523Y-105836291D01*
X99798517Y-105836283D01*
X99686716Y-105724482D01*
X99686708Y-105724476D01*
X99549789Y-105645427D01*
X99549785Y-105645425D01*
X99549783Y-105645424D01*
X99397056Y-105604501D01*
X99238942Y-105604501D01*
X99086215Y-105645424D01*
X99086208Y-105645427D01*
X98949289Y-105724476D01*
X98949281Y-105724482D01*
X98837480Y-105836283D01*
X98837474Y-105836291D01*
X98758425Y-105973210D01*
X98758422Y-105973217D01*
X98717499Y-106125944D01*
X96751956Y-106125944D01*
X96653044Y-106027032D01*
X96653040Y-106027029D01*
X96508705Y-105938001D01*
X96508699Y-105937998D01*
X96508697Y-105937997D01*
X96470817Y-105925445D01*
X96347709Y-105884651D01*
X96248346Y-105874500D01*
X96151663Y-105874500D01*
X96151644Y-105874501D01*
X96052292Y-105884650D01*
X96052289Y-105884651D01*
X95891305Y-105937996D01*
X95891294Y-105938001D01*
X95746959Y-106027029D01*
X95746955Y-106027032D01*
X95627032Y-106146955D01*
X95627029Y-106146959D01*
X95538001Y-106291294D01*
X95537996Y-106291305D01*
X95484651Y-106452290D01*
X95474500Y-106551648D01*
X95474500Y-106648336D01*
X95474501Y-106648355D01*
X95484650Y-106747707D01*
X95484651Y-106747710D01*
X95537996Y-106908694D01*
X95538001Y-106908705D01*
X95627029Y-107053040D01*
X95627032Y-107053044D01*
X95746955Y-107172967D01*
X95746959Y-107172970D01*
X95891294Y-107261998D01*
X95891297Y-107261999D01*
X95891303Y-107262003D01*
X96052292Y-107315349D01*
X96151655Y-107325500D01*
X96248344Y-107325499D01*
X96248352Y-107325498D01*
X96248355Y-107325498D01*
X96302760Y-107319940D01*
X96347708Y-107315349D01*
X96488493Y-107268697D01*
X96504054Y-107268162D01*
X96518646Y-107262720D01*
X96538256Y-107266985D01*
X96558315Y-107266296D01*
X96572639Y-107274465D01*
X96586919Y-107277572D01*
X96615173Y-107298723D01*
X96763181Y-107446731D01*
X96796666Y-107508054D01*
X96799500Y-107534412D01*
X96799500Y-109113379D01*
X96779815Y-109180418D01*
X96727011Y-109226173D01*
X96657853Y-109236117D01*
X96594297Y-109207092D01*
X96572398Y-109182271D01*
X96569977Y-109178648D01*
X96569976Y-109178645D01*
X96513574Y-109122243D01*
X94406503Y-107015172D01*
X94373018Y-106953849D01*
X94376477Y-106888492D01*
X94423129Y-106747707D01*
X94433280Y-106648344D01*
X94433279Y-106551655D01*
X94423129Y-106452291D01*
X94369783Y-106291302D01*
X94369778Y-106291294D01*
X94369778Y-106291293D01*
X94280750Y-106146958D01*
X94280749Y-106146956D01*
X94280748Y-106146955D01*
X94160824Y-106027031D01*
X94160821Y-106027029D01*
X94160820Y-106027028D01*
X94016485Y-105938000D01*
X94016479Y-105937997D01*
X94016477Y-105937996D01*
X94016474Y-105937995D01*
X93855489Y-105884650D01*
X93756126Y-105874499D01*
X93659443Y-105874499D01*
X93659424Y-105874500D01*
X93560072Y-105884649D01*
X93560069Y-105884650D01*
X93399085Y-105937995D01*
X93399074Y-105938000D01*
X93254739Y-106027028D01*
X93254735Y-106027031D01*
X93134812Y-106146954D01*
X93134809Y-106146958D01*
X93045781Y-106291293D01*
X93045776Y-106291304D01*
X92992431Y-106452289D01*
X92982280Y-106551647D01*
X92982280Y-106648335D01*
X92982281Y-106648354D01*
X92992430Y-106747706D01*
X92992431Y-106747709D01*
X93045776Y-106908693D01*
X93045781Y-106908704D01*
X93134809Y-107053039D01*
X93134812Y-107053043D01*
X93254735Y-107172966D01*
X93254739Y-107172969D01*
X93399074Y-107261997D01*
X93399077Y-107261998D01*
X93399083Y-107262002D01*
X93560072Y-107315348D01*
X93659435Y-107325499D01*
X93756124Y-107325498D01*
X93756132Y-107325497D01*
X93756135Y-107325497D01*
X93810540Y-107319939D01*
X93855488Y-107315348D01*
X93996273Y-107268696D01*
X94066095Y-107266295D01*
X94122953Y-107298722D01*
X96163181Y-109338950D01*
X96177884Y-109365877D01*
X96194477Y-109391696D01*
X96195368Y-109397896D01*
X96196666Y-109400273D01*
X96199500Y-109426631D01*
X96199500Y-109665587D01*
X96179815Y-109732626D01*
X96163181Y-109753268D01*
X93352717Y-112563731D01*
X93291394Y-112597216D01*
X93260854Y-112598490D01*
X93260854Y-112599500D01*
X93147273Y-112599500D01*
X93045413Y-112626793D01*
X93045410Y-112626794D01*
X92954085Y-112679521D01*
X92879521Y-112754085D01*
X92826794Y-112845410D01*
X92826793Y-112845413D01*
X92799500Y-112947273D01*
X91636276Y-112947273D01*
X94597282Y-109986266D01*
X94658603Y-109952783D01*
X94689146Y-109951510D01*
X94689146Y-109950500D01*
X94802725Y-109950500D01*
X94802727Y-109950500D01*
X94904587Y-109923207D01*
X94995913Y-109870480D01*
X95070480Y-109795913D01*
X95123207Y-109704587D01*
X95150500Y-109602727D01*
X95150500Y-109497273D01*
X95123207Y-109395413D01*
X95070480Y-109304087D01*
X94995913Y-109229520D01*
X94904587Y-109176793D01*
X94802727Y-109149500D01*
X94697273Y-109149500D01*
X94595413Y-109176793D01*
X94595410Y-109176794D01*
X94504085Y-109229521D01*
X94429521Y-109304085D01*
X94376794Y-109395410D01*
X94376793Y-109395413D01*
X94349500Y-109497273D01*
X94349500Y-109610854D01*
X94347120Y-109610854D01*
X94338216Y-109667901D01*
X94313731Y-109702717D01*
X88397234Y-115619215D01*
X88397232Y-115619217D01*
X88386426Y-115630024D01*
X88330024Y-115686426D01*
X88299500Y-115760118D01*
X79806275Y-115760118D01*
X79820480Y-115745913D01*
X79873207Y-115654587D01*
X79900500Y-115552727D01*
X79900500Y-115447273D01*
X79873207Y-115345413D01*
X79820480Y-115254087D01*
X79745913Y-115179520D01*
X79673271Y-115137580D01*
X80909193Y-115137580D01*
X80909193Y-115243034D01*
X80922273Y-115291847D01*
X80936486Y-115344893D01*
X80936487Y-115344896D01*
X80945460Y-115360438D01*
X80989213Y-115436220D01*
X81063780Y-115510787D01*
X81155106Y-115563514D01*
X81256966Y-115590807D01*
X81256968Y-115590807D01*
X81362418Y-115590807D01*
X81362420Y-115590807D01*
X81464280Y-115563514D01*
X81555606Y-115510787D01*
X81630173Y-115436220D01*
X81682900Y-115344894D01*
X81710193Y-115243034D01*
X81710193Y-115137580D01*
X81682900Y-115035720D01*
X81630173Y-114944394D01*
X81555606Y-114869827D01*
X81464280Y-114817100D01*
X81362420Y-114789807D01*
X81256966Y-114789807D01*
X81155106Y-114817100D01*
X81155103Y-114817101D01*
X81063778Y-114869828D01*
X80989214Y-114944392D01*
X80936487Y-115035717D01*
X80936486Y-115035720D01*
X80909193Y-115137580D01*
X79673271Y-115137580D01*
X79659144Y-115129424D01*
X79654589Y-115126794D01*
X79654588Y-115126793D01*
X79654587Y-115126793D01*
X79552727Y-115099500D01*
X79447273Y-115099500D01*
X79345413Y-115126793D01*
X79345410Y-115126794D01*
X79254085Y-115179521D01*
X79179521Y-115254085D01*
X79126794Y-115345410D01*
X79126793Y-115345413D01*
X79099500Y-115447273D01*
X78300500Y-115447273D01*
X78273207Y-115345413D01*
X78220480Y-115254087D01*
X78145913Y-115179520D01*
X78059144Y-115129424D01*
X78054589Y-115126794D01*
X78054588Y-115126793D01*
X78054587Y-115126793D01*
X77952727Y-115099500D01*
X77847273Y-115099500D01*
X77745413Y-115126793D01*
X77745410Y-115126794D01*
X77654085Y-115179521D01*
X77579521Y-115254085D01*
X77526794Y-115345410D01*
X77526793Y-115345413D01*
X77499500Y-115447273D01*
X76700500Y-115447273D01*
X76673207Y-115345413D01*
X76620480Y-115254087D01*
X76545913Y-115179520D01*
X76459144Y-115129424D01*
X76454589Y-115126794D01*
X76454588Y-115126793D01*
X76454587Y-115126793D01*
X76352727Y-115099500D01*
X76247273Y-115099500D01*
X76145413Y-115126793D01*
X76145410Y-115126794D01*
X76054085Y-115179521D01*
X75979521Y-115254085D01*
X75926794Y-115345410D01*
X75926793Y-115345413D01*
X75899500Y-115447273D01*
X75100500Y-115447273D01*
X75073207Y-115345413D01*
X75020480Y-115254087D01*
X74945913Y-115179520D01*
X74859144Y-115129424D01*
X74854589Y-115126794D01*
X74854588Y-115126793D01*
X74854587Y-115126793D01*
X74752727Y-115099500D01*
X74647273Y-115099500D01*
X74545413Y-115126793D01*
X74545410Y-115126794D01*
X74454085Y-115179521D01*
X74379521Y-115254085D01*
X74326794Y-115345410D01*
X74326793Y-115345413D01*
X74299500Y-115447273D01*
X73400500Y-115447273D01*
X73373207Y-115345413D01*
X73320480Y-115254087D01*
X73245913Y-115179520D01*
X73159144Y-115129424D01*
X73154589Y-115126794D01*
X73154588Y-115126793D01*
X73154587Y-115126793D01*
X73052727Y-115099500D01*
X72947273Y-115099500D01*
X72845413Y-115126793D01*
X72845410Y-115126794D01*
X72754085Y-115179521D01*
X72679521Y-115254085D01*
X72626794Y-115345410D01*
X72626793Y-115345413D01*
X72599500Y-115447273D01*
X71800500Y-115447273D01*
X71773207Y-115345413D01*
X71720480Y-115254087D01*
X71645913Y-115179520D01*
X71559144Y-115129424D01*
X71554589Y-115126794D01*
X71554588Y-115126793D01*
X71554587Y-115126793D01*
X71452727Y-115099500D01*
X71347273Y-115099500D01*
X71245413Y-115126793D01*
X71245410Y-115126794D01*
X71154085Y-115179521D01*
X71079521Y-115254085D01*
X71026794Y-115345410D01*
X71026793Y-115345413D01*
X70999500Y-115447273D01*
X70200500Y-115447273D01*
X70173207Y-115345413D01*
X70120480Y-115254087D01*
X70045913Y-115179520D01*
X69959144Y-115129424D01*
X69954589Y-115126794D01*
X69954588Y-115126793D01*
X69954587Y-115126793D01*
X69852727Y-115099500D01*
X69747273Y-115099500D01*
X69645413Y-115126793D01*
X69645410Y-115126794D01*
X69554085Y-115179521D01*
X69479521Y-115254085D01*
X69426794Y-115345410D01*
X69426793Y-115345413D01*
X69399500Y-115447273D01*
X68600500Y-115447273D01*
X68573207Y-115345413D01*
X68520480Y-115254087D01*
X68445913Y-115179520D01*
X68359144Y-115129424D01*
X68354589Y-115126794D01*
X68354588Y-115126793D01*
X68354587Y-115126793D01*
X68252727Y-115099500D01*
X68147273Y-115099500D01*
X68045413Y-115126793D01*
X68045410Y-115126794D01*
X67954085Y-115179521D01*
X67879521Y-115254085D01*
X67826794Y-115345410D01*
X67826793Y-115345413D01*
X67799500Y-115447273D01*
X64900501Y-115447273D01*
X64900501Y-115436737D01*
X64890574Y-115368604D01*
X64839199Y-115263514D01*
X64839197Y-115263512D01*
X64839197Y-115263511D01*
X64756486Y-115180800D01*
X64651392Y-115129423D01*
X64583262Y-115119497D01*
X64583261Y-115119497D01*
X63016741Y-115119497D01*
X63016740Y-115119497D01*
X62948609Y-115129423D01*
X62843515Y-115180800D01*
X62760804Y-115263511D01*
X62709427Y-115368605D01*
X62699501Y-115436736D01*
X57229657Y-115436736D01*
X57283222Y-115383171D01*
X57335949Y-115291845D01*
X57363242Y-115189985D01*
X57363242Y-115084531D01*
X57335949Y-114982671D01*
X57283222Y-114891345D01*
X57208655Y-114816778D01*
X57135907Y-114774777D01*
X57117331Y-114764052D01*
X57117330Y-114764051D01*
X57117329Y-114764051D01*
X57015469Y-114736758D01*
X56910015Y-114736758D01*
X56808155Y-114764051D01*
X56808152Y-114764052D01*
X56716827Y-114816779D01*
X56642263Y-114891343D01*
X56589536Y-114982668D01*
X56589535Y-114982671D01*
X56562242Y-115084531D01*
X53700777Y-115084531D01*
X53795841Y-114955972D01*
X53802420Y-114947822D01*
X54047769Y-114668996D01*
X54055000Y-114661449D01*
X54323120Y-114404419D01*
X54330967Y-114397512D01*
X54619896Y-114164159D01*
X54628315Y-114157929D01*
X54935977Y-113949926D01*
X54944925Y-113944415D01*
X55271766Y-113761766D01*
X55276374Y-113759319D01*
X55276373Y-113759319D01*
X55300539Y-113747130D01*
X55332510Y-113731006D01*
X55332511Y-113731004D01*
X55350367Y-113721999D01*
X55350373Y-113721994D01*
X55498516Y-113647273D01*
X67399500Y-113647273D01*
X67399500Y-113752727D01*
X67426793Y-113854587D01*
X67479520Y-113945913D01*
X67554087Y-114020480D01*
X67645413Y-114073207D01*
X67747273Y-114100500D01*
X67747275Y-114100500D01*
X67852725Y-114100500D01*
X67852727Y-114100500D01*
X67954587Y-114073207D01*
X68045913Y-114020480D01*
X68120480Y-113945913D01*
X68173207Y-113854587D01*
X68200500Y-113752727D01*
X68200500Y-113647273D01*
X68999500Y-113647273D01*
X68999500Y-113752727D01*
X69026793Y-113854587D01*
X69079520Y-113945913D01*
X69154087Y-114020480D01*
X69245413Y-114073207D01*
X69347273Y-114100500D01*
X69347275Y-114100500D01*
X69452725Y-114100500D01*
X69452727Y-114100500D01*
X69554587Y-114073207D01*
X69645913Y-114020480D01*
X69720480Y-113945913D01*
X69773207Y-113854587D01*
X69800500Y-113752727D01*
X69800500Y-113647273D01*
X70599500Y-113647273D01*
X70599500Y-113752727D01*
X70626793Y-113854587D01*
X70679520Y-113945913D01*
X70754087Y-114020480D01*
X70845413Y-114073207D01*
X70947273Y-114100500D01*
X70947275Y-114100500D01*
X71052725Y-114100500D01*
X71052727Y-114100500D01*
X71154587Y-114073207D01*
X71245913Y-114020480D01*
X71320480Y-113945913D01*
X71373207Y-113854587D01*
X71400500Y-113752727D01*
X71400500Y-113647273D01*
X72199500Y-113647273D01*
X72199500Y-113752727D01*
X72226793Y-113854587D01*
X72279520Y-113945913D01*
X72354087Y-114020480D01*
X72445413Y-114073207D01*
X72547273Y-114100500D01*
X72547275Y-114100500D01*
X72652725Y-114100500D01*
X72652727Y-114100500D01*
X72754587Y-114073207D01*
X72845913Y-114020480D01*
X72920480Y-113945913D01*
X72973207Y-113854587D01*
X73000500Y-113752727D01*
X73000500Y-113647273D01*
X73899500Y-113647273D01*
X73899500Y-113752727D01*
X73926793Y-113854587D01*
X73979520Y-113945913D01*
X74054087Y-114020480D01*
X74145413Y-114073207D01*
X74247273Y-114100500D01*
X74247275Y-114100500D01*
X74352725Y-114100500D01*
X74352727Y-114100500D01*
X74454587Y-114073207D01*
X74545913Y-114020480D01*
X74620480Y-113945913D01*
X74673207Y-113854587D01*
X74700500Y-113752727D01*
X74700500Y-113647273D01*
X75499500Y-113647273D01*
X75499500Y-113752727D01*
X75526793Y-113854587D01*
X75579520Y-113945913D01*
X75654087Y-114020480D01*
X75745413Y-114073207D01*
X75847273Y-114100500D01*
X75847275Y-114100500D01*
X75952725Y-114100500D01*
X75952727Y-114100500D01*
X76054587Y-114073207D01*
X76145913Y-114020480D01*
X76220480Y-113945913D01*
X76273207Y-113854587D01*
X76300500Y-113752727D01*
X76300500Y-113647273D01*
X77099500Y-113647273D01*
X77099500Y-113752727D01*
X77126793Y-113854587D01*
X77179520Y-113945913D01*
X77254087Y-114020480D01*
X77345413Y-114073207D01*
X77447273Y-114100500D01*
X77447275Y-114100500D01*
X77552725Y-114100500D01*
X77552727Y-114100500D01*
X77654587Y-114073207D01*
X77745913Y-114020480D01*
X77820480Y-113945913D01*
X77873207Y-113854587D01*
X77900500Y-113752727D01*
X77900500Y-113647273D01*
X78699500Y-113647273D01*
X78699500Y-113752727D01*
X78726793Y-113854587D01*
X78779520Y-113945913D01*
X78854087Y-114020480D01*
X78945413Y-114073207D01*
X79047273Y-114100500D01*
X79047275Y-114100500D01*
X79152725Y-114100500D01*
X79152727Y-114100500D01*
X79254587Y-114073207D01*
X79345913Y-114020480D01*
X79360185Y-114006208D01*
X82040565Y-114006208D01*
X82040565Y-114111662D01*
X82067858Y-114213522D01*
X82120585Y-114304848D01*
X82195152Y-114379415D01*
X82286478Y-114432142D01*
X82388338Y-114459435D01*
X82388340Y-114459435D01*
X82493790Y-114459435D01*
X82493792Y-114459435D01*
X82595652Y-114432142D01*
X82686978Y-114379415D01*
X82761545Y-114304848D01*
X82814272Y-114213522D01*
X82841565Y-114111662D01*
X82841565Y-114006208D01*
X82814272Y-113904348D01*
X82761545Y-113813022D01*
X82686978Y-113738455D01*
X82595652Y-113685728D01*
X82493792Y-113658435D01*
X82388338Y-113658435D01*
X82286478Y-113685728D01*
X82286475Y-113685729D01*
X82195150Y-113738456D01*
X82120586Y-113813020D01*
X82067859Y-113904345D01*
X82067858Y-113904348D01*
X82040565Y-114006208D01*
X79360185Y-114006208D01*
X79420480Y-113945913D01*
X79473207Y-113854587D01*
X79500500Y-113752727D01*
X79500500Y-113647273D01*
X79473207Y-113545413D01*
X79420480Y-113454087D01*
X79345913Y-113379520D01*
X79256790Y-113328065D01*
X79254589Y-113326794D01*
X79254588Y-113326793D01*
X79254587Y-113326793D01*
X79152727Y-113299500D01*
X79047273Y-113299500D01*
X78945413Y-113326793D01*
X78945410Y-113326794D01*
X78854085Y-113379521D01*
X78779521Y-113454085D01*
X78726794Y-113545410D01*
X78726793Y-113545413D01*
X78699500Y-113647273D01*
X77900500Y-113647273D01*
X77873207Y-113545413D01*
X77820480Y-113454087D01*
X77745913Y-113379520D01*
X77656790Y-113328065D01*
X77654589Y-113326794D01*
X77654588Y-113326793D01*
X77654587Y-113326793D01*
X77552727Y-113299500D01*
X77447273Y-113299500D01*
X77345413Y-113326793D01*
X77345410Y-113326794D01*
X77254085Y-113379521D01*
X77179521Y-113454085D01*
X77126794Y-113545410D01*
X77126793Y-113545413D01*
X77099500Y-113647273D01*
X76300500Y-113647273D01*
X76273207Y-113545413D01*
X76220480Y-113454087D01*
X76145913Y-113379520D01*
X76056790Y-113328065D01*
X76054589Y-113326794D01*
X76054588Y-113326793D01*
X76054587Y-113326793D01*
X75952727Y-113299500D01*
X75847273Y-113299500D01*
X75745413Y-113326793D01*
X75745410Y-113326794D01*
X75654085Y-113379521D01*
X75579521Y-113454085D01*
X75526794Y-113545410D01*
X75526793Y-113545413D01*
X75499500Y-113647273D01*
X74700500Y-113647273D01*
X74673207Y-113545413D01*
X74620480Y-113454087D01*
X74545913Y-113379520D01*
X74456790Y-113328065D01*
X74454589Y-113326794D01*
X74454588Y-113326793D01*
X74454587Y-113326793D01*
X74352727Y-113299500D01*
X74247273Y-113299500D01*
X74145413Y-113326793D01*
X74145410Y-113326794D01*
X74054085Y-113379521D01*
X73979521Y-113454085D01*
X73926794Y-113545410D01*
X73926793Y-113545413D01*
X73899500Y-113647273D01*
X73000500Y-113647273D01*
X72973207Y-113545413D01*
X72920480Y-113454087D01*
X72845913Y-113379520D01*
X72756790Y-113328065D01*
X72754589Y-113326794D01*
X72754588Y-113326793D01*
X72754587Y-113326793D01*
X72652727Y-113299500D01*
X72547273Y-113299500D01*
X72445413Y-113326793D01*
X72445410Y-113326794D01*
X72354085Y-113379521D01*
X72279521Y-113454085D01*
X72226794Y-113545410D01*
X72226793Y-113545413D01*
X72199500Y-113647273D01*
X71400500Y-113647273D01*
X71373207Y-113545413D01*
X71320480Y-113454087D01*
X71245913Y-113379520D01*
X71156790Y-113328065D01*
X71154589Y-113326794D01*
X71154588Y-113326793D01*
X71154587Y-113326793D01*
X71052727Y-113299500D01*
X70947273Y-113299500D01*
X70845413Y-113326793D01*
X70845410Y-113326794D01*
X70754085Y-113379521D01*
X70679521Y-113454085D01*
X70626794Y-113545410D01*
X70626793Y-113545413D01*
X70599500Y-113647273D01*
X69800500Y-113647273D01*
X69773207Y-113545413D01*
X69720480Y-113454087D01*
X69645913Y-113379520D01*
X69556790Y-113328065D01*
X69554589Y-113326794D01*
X69554588Y-113326793D01*
X69554587Y-113326793D01*
X69452727Y-113299500D01*
X69347273Y-113299500D01*
X69245413Y-113326793D01*
X69245410Y-113326794D01*
X69154085Y-113379521D01*
X69079521Y-113454085D01*
X69026794Y-113545410D01*
X69026793Y-113545413D01*
X68999500Y-113647273D01*
X68200500Y-113647273D01*
X68173207Y-113545413D01*
X68120480Y-113454087D01*
X68045913Y-113379520D01*
X67956790Y-113328065D01*
X67954589Y-113326794D01*
X67954588Y-113326793D01*
X67954587Y-113326793D01*
X67852727Y-113299500D01*
X67747273Y-113299500D01*
X67645413Y-113326793D01*
X67645410Y-113326794D01*
X67554085Y-113379521D01*
X67479521Y-113454085D01*
X67426794Y-113545410D01*
X67426793Y-113545413D01*
X67399500Y-113647273D01*
X55498516Y-113647273D01*
X57302082Y-112737580D01*
X80209193Y-112737580D01*
X80209193Y-112843034D01*
X80223552Y-112896621D01*
X80236486Y-112944893D01*
X80236487Y-112944896D01*
X80246389Y-112962047D01*
X80289213Y-113036220D01*
X80363780Y-113110787D01*
X80455106Y-113163514D01*
X80556966Y-113190807D01*
X80556968Y-113190807D01*
X80662418Y-113190807D01*
X80662420Y-113190807D01*
X80764280Y-113163514D01*
X80855606Y-113110787D01*
X80930173Y-113036220D01*
X80982900Y-112944894D01*
X81001671Y-112874838D01*
X83171935Y-112874838D01*
X83171935Y-112980292D01*
X83199228Y-113082152D01*
X83251955Y-113173478D01*
X83326522Y-113248045D01*
X83417848Y-113300772D01*
X83519708Y-113328065D01*
X83519710Y-113328065D01*
X83625160Y-113328065D01*
X83625162Y-113328065D01*
X83727022Y-113300772D01*
X83818348Y-113248045D01*
X83892915Y-113173478D01*
X83945642Y-113082152D01*
X83972935Y-112980292D01*
X83972935Y-112874838D01*
X83945642Y-112772978D01*
X83892915Y-112681652D01*
X83818348Y-112607085D01*
X83727022Y-112554358D01*
X83625162Y-112527065D01*
X83519708Y-112527065D01*
X83417848Y-112554358D01*
X83417845Y-112554359D01*
X83326520Y-112607086D01*
X83251956Y-112681650D01*
X83199229Y-112772975D01*
X83199228Y-112772978D01*
X83171935Y-112874838D01*
X81001671Y-112874838D01*
X81010193Y-112843034D01*
X81010193Y-112737580D01*
X80982900Y-112635720D01*
X80930173Y-112544394D01*
X80855606Y-112469827D01*
X80764280Y-112417100D01*
X80662420Y-112389807D01*
X80556966Y-112389807D01*
X80455106Y-112417100D01*
X80455103Y-112417101D01*
X80363778Y-112469828D01*
X80289214Y-112544392D01*
X80236487Y-112635717D01*
X80236486Y-112635720D01*
X80209193Y-112737580D01*
X57302082Y-112737580D01*
X59545150Y-111606208D01*
X81340565Y-111606208D01*
X81340565Y-111711662D01*
X81367858Y-111813522D01*
X81420585Y-111904848D01*
X81495152Y-111979415D01*
X81586478Y-112032142D01*
X81688338Y-112059435D01*
X81688340Y-112059435D01*
X81793790Y-112059435D01*
X81793792Y-112059435D01*
X81895652Y-112032142D01*
X81986978Y-111979415D01*
X82061545Y-111904848D01*
X82114272Y-111813522D01*
X82133043Y-111743467D01*
X84303306Y-111743467D01*
X84303306Y-111848921D01*
X84318292Y-111904848D01*
X84330599Y-111950780D01*
X84330600Y-111950783D01*
X84332508Y-111954087D01*
X84383326Y-112042107D01*
X84457893Y-112116674D01*
X84549219Y-112169401D01*
X84651079Y-112196694D01*
X84651081Y-112196694D01*
X84756531Y-112196694D01*
X84756533Y-112196694D01*
X84858393Y-112169401D01*
X84949719Y-112116674D01*
X85024286Y-112042107D01*
X85077013Y-111950781D01*
X85104306Y-111848921D01*
X85104306Y-111743467D01*
X85077013Y-111641607D01*
X85024286Y-111550281D01*
X84949719Y-111475714D01*
X84858393Y-111422987D01*
X84756533Y-111395694D01*
X84651079Y-111395694D01*
X84549219Y-111422987D01*
X84549216Y-111422988D01*
X84457891Y-111475715D01*
X84383327Y-111550279D01*
X84330600Y-111641604D01*
X84330599Y-111641607D01*
X84303306Y-111743467D01*
X82133043Y-111743467D01*
X82141565Y-111711662D01*
X82141565Y-111606208D01*
X82114272Y-111504348D01*
X82061545Y-111413022D01*
X81986978Y-111338455D01*
X81895652Y-111285728D01*
X81793792Y-111258435D01*
X81688338Y-111258435D01*
X81586478Y-111285728D01*
X81586475Y-111285729D01*
X81495150Y-111338456D01*
X81420586Y-111413020D01*
X81367859Y-111504345D01*
X81367858Y-111504348D01*
X81340565Y-111606208D01*
X59545150Y-111606208D01*
X61788214Y-110474838D01*
X82471935Y-110474838D01*
X82471935Y-110580292D01*
X82499228Y-110682152D01*
X82551955Y-110773478D01*
X82626522Y-110848045D01*
X82717848Y-110900772D01*
X82819708Y-110928065D01*
X82819710Y-110928065D01*
X82925160Y-110928065D01*
X82925162Y-110928065D01*
X83027022Y-110900772D01*
X83118348Y-110848045D01*
X83192915Y-110773478D01*
X83245642Y-110682152D01*
X83272935Y-110580292D01*
X83272935Y-110541385D01*
X85505387Y-110541385D01*
X85505387Y-110646839D01*
X85532680Y-110748699D01*
X85585407Y-110840025D01*
X85659974Y-110914592D01*
X85751300Y-110967319D01*
X85853160Y-110994612D01*
X85853162Y-110994612D01*
X85958612Y-110994612D01*
X85958614Y-110994612D01*
X86060474Y-110967319D01*
X86151800Y-110914592D01*
X86226367Y-110840025D01*
X86279094Y-110748699D01*
X86306387Y-110646839D01*
X86306387Y-110541385D01*
X86279094Y-110439525D01*
X86226367Y-110348199D01*
X86151800Y-110273632D01*
X86060474Y-110220905D01*
X85958614Y-110193612D01*
X85853160Y-110193612D01*
X85751300Y-110220905D01*
X85751297Y-110220906D01*
X85659972Y-110273633D01*
X85585408Y-110348197D01*
X85532681Y-110439522D01*
X85532680Y-110439525D01*
X85505387Y-110541385D01*
X83272935Y-110541385D01*
X83272935Y-110474838D01*
X83245642Y-110372978D01*
X83192915Y-110281652D01*
X83118348Y-110207085D01*
X83027022Y-110154358D01*
X82925162Y-110127065D01*
X82819708Y-110127065D01*
X82717848Y-110154358D01*
X82717845Y-110154359D01*
X82626520Y-110207086D01*
X82551956Y-110281650D01*
X82499229Y-110372975D01*
X82499228Y-110372978D01*
X82471935Y-110474838D01*
X61788214Y-110474838D01*
X62618717Y-110055944D01*
X90081499Y-110055944D01*
X90081499Y-111314058D01*
X90110687Y-111422987D01*
X90122422Y-111466784D01*
X90122425Y-111466791D01*
X90201474Y-111603710D01*
X90201478Y-111603715D01*
X90201479Y-111603717D01*
X90313283Y-111715521D01*
X90313285Y-111715522D01*
X90313289Y-111715525D01*
X90450208Y-111794574D01*
X90450215Y-111794578D01*
X90602942Y-111835501D01*
X90602944Y-111835501D01*
X90761054Y-111835501D01*
X90761056Y-111835501D01*
X90913783Y-111794578D01*
X91050715Y-111715521D01*
X91162519Y-111603717D01*
X91241576Y-111466785D01*
X91282499Y-111314058D01*
X91282499Y-110098983D01*
X91684499Y-110098983D01*
X91684499Y-110211019D01*
X91713496Y-110319238D01*
X91769514Y-110416264D01*
X91848736Y-110495486D01*
X91945762Y-110551504D01*
X92053981Y-110580501D01*
X92053983Y-110580501D01*
X92166015Y-110580501D01*
X92166017Y-110580501D01*
X92274236Y-110551504D01*
X92371262Y-110495486D01*
X92450484Y-110416264D01*
X92506502Y-110319238D01*
X92535499Y-110211019D01*
X92535499Y-110098983D01*
X92506502Y-109990764D01*
X92450484Y-109893738D01*
X92371262Y-109814516D01*
X92287732Y-109766290D01*
X92274238Y-109758499D01*
X92274237Y-109758498D01*
X92274236Y-109758498D01*
X92166017Y-109729501D01*
X92053981Y-109729501D01*
X91945762Y-109758498D01*
X91945759Y-109758499D01*
X91848739Y-109814514D01*
X91848733Y-109814518D01*
X91769516Y-109893735D01*
X91769512Y-109893741D01*
X91713497Y-109990761D01*
X91713496Y-109990764D01*
X91684499Y-110098983D01*
X91282499Y-110098983D01*
X91282499Y-110055944D01*
X91241576Y-109903217D01*
X91235859Y-109893315D01*
X91162523Y-109766290D01*
X91162517Y-109766283D01*
X91050716Y-109654482D01*
X91050708Y-109654476D01*
X90913789Y-109575427D01*
X90913785Y-109575425D01*
X90913783Y-109575424D01*
X90761056Y-109534501D01*
X90602942Y-109534501D01*
X90450215Y-109575424D01*
X90450208Y-109575427D01*
X90313289Y-109654476D01*
X90313281Y-109654482D01*
X90201480Y-109766283D01*
X90201475Y-109766290D01*
X90122425Y-109903210D01*
X90122422Y-109903217D01*
X90081499Y-110055944D01*
X62618717Y-110055944D01*
X66151540Y-108274038D01*
X75799500Y-108274038D01*
X75799500Y-108525961D01*
X75838910Y-108774785D01*
X75916760Y-109014383D01*
X75986003Y-109150279D01*
X76026379Y-109229521D01*
X76031132Y-109238848D01*
X76179201Y-109442649D01*
X76179205Y-109442654D01*
X76357345Y-109620794D01*
X76357350Y-109620798D01*
X76478276Y-109708655D01*
X76561155Y-109768870D01*
X76692801Y-109835947D01*
X76785616Y-109883239D01*
X76785618Y-109883239D01*
X76785621Y-109883241D01*
X77025215Y-109961090D01*
X77274038Y-110000500D01*
X77274039Y-110000500D01*
X77525961Y-110000500D01*
X77525962Y-110000500D01*
X77774785Y-109961090D01*
X78014379Y-109883241D01*
X78238845Y-109768870D01*
X78442656Y-109620793D01*
X78620793Y-109442656D01*
X78657818Y-109391696D01*
X78692858Y-109343467D01*
X83603306Y-109343467D01*
X83603306Y-109448921D01*
X83630599Y-109550781D01*
X83683326Y-109642107D01*
X83757893Y-109716674D01*
X83849219Y-109769401D01*
X83951079Y-109796694D01*
X83951081Y-109796694D01*
X84056531Y-109796694D01*
X84056533Y-109796694D01*
X84158393Y-109769401D01*
X84249719Y-109716674D01*
X84324286Y-109642107D01*
X84377013Y-109550781D01*
X84404306Y-109448921D01*
X84404306Y-109410015D01*
X86636758Y-109410015D01*
X86636758Y-109515469D01*
X86660139Y-109602727D01*
X86664051Y-109617328D01*
X86664052Y-109617331D01*
X86666054Y-109620798D01*
X86716778Y-109708655D01*
X86791345Y-109783222D01*
X86882671Y-109835949D01*
X86984531Y-109863242D01*
X86984533Y-109863242D01*
X87089983Y-109863242D01*
X87089985Y-109863242D01*
X87191845Y-109835949D01*
X87283171Y-109783222D01*
X87357738Y-109708655D01*
X87410465Y-109617329D01*
X87437758Y-109515469D01*
X87437758Y-109410015D01*
X87410465Y-109308155D01*
X87357738Y-109216829D01*
X87283171Y-109142262D01*
X87191845Y-109089535D01*
X87089985Y-109062242D01*
X86984531Y-109062242D01*
X86882671Y-109089535D01*
X86882668Y-109089536D01*
X86791343Y-109142263D01*
X86716779Y-109216827D01*
X86664052Y-109308152D01*
X86664051Y-109308155D01*
X86636758Y-109410015D01*
X84404306Y-109410015D01*
X84404306Y-109343467D01*
X84377013Y-109241607D01*
X84324286Y-109150281D01*
X84249719Y-109075714D01*
X84158393Y-109022987D01*
X84056533Y-108995694D01*
X83951079Y-108995694D01*
X83849219Y-109022987D01*
X83849216Y-109022988D01*
X83757891Y-109075715D01*
X83683327Y-109150279D01*
X83630600Y-109241604D01*
X83630599Y-109241607D01*
X83603306Y-109343467D01*
X78692858Y-109343467D01*
X78751717Y-109262455D01*
X78766865Y-109241604D01*
X78768870Y-109238845D01*
X78883241Y-109014379D01*
X78961090Y-108774785D01*
X79000500Y-108525962D01*
X79000500Y-108274038D01*
X78979489Y-108141385D01*
X84805387Y-108141385D01*
X84805387Y-108246839D01*
X84832680Y-108348699D01*
X84885407Y-108440025D01*
X84959974Y-108514592D01*
X85051300Y-108567319D01*
X85153160Y-108594612D01*
X85153162Y-108594612D01*
X85258612Y-108594612D01*
X85258614Y-108594612D01*
X85360474Y-108567319D01*
X85451800Y-108514592D01*
X85526367Y-108440025D01*
X85579094Y-108348699D01*
X85597865Y-108278643D01*
X87768129Y-108278643D01*
X87768129Y-108384097D01*
X87795422Y-108485957D01*
X87848149Y-108577283D01*
X87922716Y-108651850D01*
X88014042Y-108704577D01*
X88115902Y-108731870D01*
X88115904Y-108731870D01*
X88221354Y-108731870D01*
X88221356Y-108731870D01*
X88323216Y-108704577D01*
X88414542Y-108651850D01*
X88489109Y-108577283D01*
X88541836Y-108485957D01*
X88569129Y-108384097D01*
X88569129Y-108278643D01*
X88541836Y-108176783D01*
X88489109Y-108085457D01*
X88414542Y-108010890D01*
X88323216Y-107958163D01*
X88221356Y-107930870D01*
X88115902Y-107930870D01*
X88014042Y-107958163D01*
X88014039Y-107958164D01*
X87922714Y-108010891D01*
X87848150Y-108085455D01*
X87795423Y-108176780D01*
X87795422Y-108176783D01*
X87768129Y-108278643D01*
X85597865Y-108278643D01*
X85606387Y-108246839D01*
X85606387Y-108141385D01*
X85579094Y-108039525D01*
X85526367Y-107948199D01*
X85451800Y-107873632D01*
X85360474Y-107820905D01*
X85258614Y-107793612D01*
X85153160Y-107793612D01*
X85051300Y-107820905D01*
X85051297Y-107820906D01*
X84959972Y-107873633D01*
X84885408Y-107948197D01*
X84832681Y-108039522D01*
X84832680Y-108039525D01*
X84805387Y-108141385D01*
X78979489Y-108141385D01*
X78970631Y-108085457D01*
X78961090Y-108025214D01*
X78911838Y-107873633D01*
X78883241Y-107785621D01*
X78883239Y-107785618D01*
X78883239Y-107785616D01*
X78788917Y-107600500D01*
X78768870Y-107561155D01*
X78697732Y-107463242D01*
X78620798Y-107357350D01*
X78620794Y-107357345D01*
X78442654Y-107179205D01*
X78442649Y-107179201D01*
X78336674Y-107102206D01*
X78238848Y-107031132D01*
X78238847Y-107031131D01*
X78238845Y-107031130D01*
X78197405Y-107010015D01*
X85936758Y-107010015D01*
X85936758Y-107115469D01*
X85953837Y-107179207D01*
X85964051Y-107217328D01*
X85964052Y-107217331D01*
X85974479Y-107235391D01*
X86016778Y-107308655D01*
X86091345Y-107383222D01*
X86182671Y-107435949D01*
X86284531Y-107463242D01*
X86284533Y-107463242D01*
X86389983Y-107463242D01*
X86389985Y-107463242D01*
X86491845Y-107435949D01*
X86583171Y-107383222D01*
X86657738Y-107308655D01*
X86710465Y-107217329D01*
X86729236Y-107147273D01*
X88899500Y-107147273D01*
X88899500Y-107252727D01*
X88926793Y-107354587D01*
X88979520Y-107445913D01*
X89054087Y-107520480D01*
X89145413Y-107573207D01*
X89247273Y-107600500D01*
X89247275Y-107600500D01*
X89352725Y-107600500D01*
X89352727Y-107600500D01*
X89454587Y-107573207D01*
X89545913Y-107520480D01*
X89620480Y-107445913D01*
X89653844Y-107388123D01*
X89704410Y-107339908D01*
X89773017Y-107326684D01*
X89837882Y-107352652D01*
X89864333Y-107381231D01*
X89905250Y-107442467D01*
X90044532Y-107581749D01*
X90044536Y-107581752D01*
X90208314Y-107691186D01*
X90208327Y-107691193D01*
X90390307Y-107766570D01*
X90431999Y-107774863D01*
X90431999Y-106971989D01*
X90441939Y-106989206D01*
X90497794Y-107045061D01*
X90566203Y-107084557D01*
X90642503Y-107105001D01*
X90721495Y-107105001D01*
X90797795Y-107084557D01*
X90866204Y-107045061D01*
X90922059Y-106989206D01*
X90931999Y-106971989D01*
X90931999Y-107774863D01*
X90973689Y-107766570D01*
X90973691Y-107766570D01*
X91155670Y-107691193D01*
X91155683Y-107691186D01*
X91319461Y-107581752D01*
X91319465Y-107581749D01*
X91458747Y-107442467D01*
X91458750Y-107442463D01*
X91568184Y-107278685D01*
X91568191Y-107278672D01*
X91643568Y-107096694D01*
X91643571Y-107096682D01*
X91681998Y-106903496D01*
X91681999Y-106903493D01*
X91681999Y-106755001D01*
X90981999Y-106755001D01*
X90981999Y-106255001D01*
X91681999Y-106255001D01*
X91681999Y-106106509D01*
X91681998Y-106106505D01*
X91643571Y-105913319D01*
X91643568Y-105913307D01*
X91568191Y-105731329D01*
X91568184Y-105731316D01*
X91458750Y-105567538D01*
X91458747Y-105567534D01*
X91319465Y-105428252D01*
X91319461Y-105428249D01*
X91155683Y-105318815D01*
X91155670Y-105318808D01*
X90973690Y-105243430D01*
X90973682Y-105243428D01*
X90931999Y-105235136D01*
X90931999Y-106038012D01*
X90922059Y-106020796D01*
X90866204Y-105964941D01*
X90797795Y-105925445D01*
X90721495Y-105905001D01*
X90642503Y-105905001D01*
X90566203Y-105925445D01*
X90497794Y-105964941D01*
X90441939Y-106020796D01*
X90431999Y-106038012D01*
X90431999Y-105235137D01*
X90431998Y-105235136D01*
X90390315Y-105243428D01*
X90390307Y-105243430D01*
X90208327Y-105318808D01*
X90208314Y-105318815D01*
X90044536Y-105428249D01*
X90044532Y-105428252D01*
X89905250Y-105567534D01*
X89905247Y-105567538D01*
X89795813Y-105731316D01*
X89795806Y-105731329D01*
X89720429Y-105913307D01*
X89720426Y-105913319D01*
X89681999Y-106106505D01*
X89681999Y-106255001D01*
X90381999Y-106255001D01*
X90381999Y-106755001D01*
X89681999Y-106755001D01*
X89677141Y-106759858D01*
X89662314Y-106810354D01*
X89609510Y-106856109D01*
X89540352Y-106866053D01*
X89495999Y-106850702D01*
X89454589Y-106826794D01*
X89454588Y-106826793D01*
X89454587Y-106826793D01*
X89352727Y-106799500D01*
X89247273Y-106799500D01*
X89145413Y-106826793D01*
X89145410Y-106826794D01*
X89054085Y-106879521D01*
X88979521Y-106954085D01*
X88926794Y-107045410D01*
X88926793Y-107045413D01*
X88899500Y-107147273D01*
X86729236Y-107147273D01*
X86737758Y-107115469D01*
X86737758Y-107010015D01*
X86710465Y-106908155D01*
X86657738Y-106816829D01*
X86583171Y-106742262D01*
X86491845Y-106689535D01*
X86389985Y-106662242D01*
X86284531Y-106662242D01*
X86182671Y-106689535D01*
X86182668Y-106689536D01*
X86091343Y-106742263D01*
X86016779Y-106816827D01*
X85964052Y-106908152D01*
X85964051Y-106908155D01*
X85936758Y-107010015D01*
X78197405Y-107010015D01*
X78168747Y-106995413D01*
X78014383Y-106916760D01*
X77774785Y-106838910D01*
X77635372Y-106816829D01*
X77525962Y-106799500D01*
X77274038Y-106799500D01*
X77164628Y-106816829D01*
X77025214Y-106838910D01*
X76785616Y-106916760D01*
X76561151Y-107031132D01*
X76357350Y-107179201D01*
X76357345Y-107179205D01*
X76179205Y-107357345D01*
X76179201Y-107357350D01*
X76031132Y-107561151D01*
X75916760Y-107785616D01*
X75838910Y-108025214D01*
X75799500Y-108274038D01*
X66151540Y-108274038D01*
X70900672Y-105878643D01*
X87068129Y-105878643D01*
X87068129Y-105984097D01*
X87095422Y-106085957D01*
X87148149Y-106177283D01*
X87222716Y-106251850D01*
X87314042Y-106304577D01*
X87415902Y-106331870D01*
X87415904Y-106331870D01*
X87521354Y-106331870D01*
X87521356Y-106331870D01*
X87623216Y-106304577D01*
X87714542Y-106251850D01*
X87789109Y-106177283D01*
X87841836Y-106085957D01*
X87869129Y-105984097D01*
X87869129Y-105878643D01*
X87841836Y-105776783D01*
X87789109Y-105685457D01*
X87714542Y-105610890D01*
X87623216Y-105558163D01*
X87521356Y-105530870D01*
X87415902Y-105530870D01*
X87314042Y-105558163D01*
X87314039Y-105558164D01*
X87222714Y-105610891D01*
X87148150Y-105685455D01*
X87095423Y-105776780D01*
X87095422Y-105776783D01*
X87068129Y-105878643D01*
X70900672Y-105878643D01*
X73143736Y-104747273D01*
X88199500Y-104747273D01*
X88199500Y-104852727D01*
X88226793Y-104954587D01*
X88279520Y-105045913D01*
X88354087Y-105120480D01*
X88445413Y-105173207D01*
X88547273Y-105200500D01*
X88547275Y-105200500D01*
X88652725Y-105200500D01*
X88652727Y-105200500D01*
X88754587Y-105173207D01*
X88845913Y-105120480D01*
X88920480Y-105045913D01*
X88973207Y-104954587D01*
X89000500Y-104852727D01*
X89000500Y-104747273D01*
X88973207Y-104645413D01*
X88920480Y-104554087D01*
X88845913Y-104479520D01*
X88754587Y-104426793D01*
X88652727Y-104399500D01*
X88547273Y-104399500D01*
X88445413Y-104426793D01*
X88445410Y-104426794D01*
X88354085Y-104479521D01*
X88279521Y-104554085D01*
X88226794Y-104645410D01*
X88226793Y-104645413D01*
X88199500Y-104747273D01*
X73143736Y-104747273D01*
X74204434Y-104212272D01*
X74204436Y-104212272D01*
X74261179Y-104183651D01*
X74265454Y-104181600D01*
X74577498Y-104039160D01*
X74586387Y-104035513D01*
X74906332Y-103918591D01*
X74915472Y-103915650D01*
X75243515Y-103823976D01*
X75252868Y-103821751D01*
X75587041Y-103755871D01*
X75596554Y-103754377D01*
X75934822Y-103714690D01*
X75944438Y-103713940D01*
X76287073Y-103700594D01*
X76291899Y-103700500D01*
X76355481Y-103700500D01*
X117807143Y-103700500D01*
X117870342Y-103700500D01*
X117875741Y-103700617D01*
G37*
%TD.AperFunction*%
%TD*%
M02*
